<svg width="549" height="388" viewBox="0 0 549 388" fill="none" xmlns="http://www.w3.org/2000/svg">
<path fill-rule="evenodd" clip-rule="evenodd" d="M392.874 55.4054C390.31 57.1424 386.568 57.7007 384.934 60.3682C370.027 65.6618 355.637 71.4723 339.779 77.2415C327.312 81.77 314.783 87.0016 302.067 92.1298C279.635 101.166 256.251 111.381 233.591 121.41C218.87 127.924 203.094 134.148 186.947 139.772C181.84 141.55 177.209 144.859 172.06 146.72C166.602 148.684 160.627 149.243 155.189 151.186C150.351 152.903 146.361 156.894 141.296 158.134C139.269 158.631 136.83 158.134 134.845 158.631C128.332 160.223 120.972 163.841 112.515 164.09C114.583 170.148 119.338 170.645 125.417 173.022C128.249 174.139 130.751 176.207 133.356 176.993C156.244 183.961 180.021 182.369 203.322 181.459C208.842 181.232 214.259 179.743 219.697 179.474C225.568 179.185 231.316 179.391 237.064 178.978C253.46 177.799 265.431 173.498 283.211 174.511C291.502 174.987 300.62 176.703 309.014 177.985C325.017 180.405 339.531 184.602 350.2 192.873C353.859 195.706 358.449 197.981 361.613 200.814C363.721 202.716 370.151 209.705 372.033 212.724C379.29 224.449 382.619 243.121 378.98 259.374C379.083 247.484 378.566 232.369 373.522 222.154C368.001 210.967 355.41 199.18 343.253 194.362C331.261 189.606 313.749 187.456 299.09 183.941C295.224 183.01 288.608 182.431 284.7 181.955C276.719 181.004 265.741 179.867 258.401 180.467C245.644 181.501 232.743 184.189 219.2 184.437C206.506 184.664 194.204 186.753 181.985 188.407C155.706 191.964 130.234 194.466 107.553 191.385C101.744 190.599 95.9957 188.572 91.6746 185.926C98.8696 184.209 106.395 182.038 113.012 179.474C116.299 178.192 122.129 176.972 121.447 173.022C117.581 170.934 114.025 175.07 110.531 176.496C102.86 179.619 93.9075 181.397 83.7352 182.948C73.6042 191.178 68.2286 204.164 58.9247 213.221C59.2969 214.399 59.8965 216.653 58.9247 217.687C53.942 222.133 50.6959 228.316 47.512 234.561C36.1198 242.852 22.288 248.704 11.2887 257.389C7.33972 257.741 6.1405 259.416 1.86072 259.871C0.0826416 263.944 0.909546 265.454 2.35693 269.3C106.726 286.566 218.973 303.915 321.916 320.912C324.335 330.445 326.134 340.867 335.313 345.23C350.282 352.343 375.196 351.04 383.942 338.778C454.838 377.922 529.311 414.233 601.778 453.418C606.078 455.733 611.185 458.959 617.16 461.854C622.205 464.294 629.049 469.526 632.543 469.795C636.451 470.084 651.564 461.585 656.361 459.373C673.728 451.37 688.284 445.126 704.493 438.033C728.601 427.487 753.494 417.314 777.436 406.271C793.522 398.848 809.959 392.107 827.057 385.924C832.164 382.285 838.015 379.679 843.928 377.488C849.862 375.275 854.99 372.442 860.799 370.043C866.816 367.562 872.667 365.701 878.663 362.599C884.411 359.622 890.613 358.216 896.526 355.651C901.427 353.542 905.913 350.358 910.917 348.207C921.626 343.596 932.316 339.419 943.17 334.808C948.236 332.657 953.012 329.432 958.056 327.364C962.067 325.71 966.409 325.172 970.462 323.394C974.493 321.615 978.339 318.72 982.371 316.942C987.767 314.564 993.597 313.654 998.746 310.987C1013.32 303.439 1033.83 296.802 1049.36 289.151C1049.48 287.352 1049.48 285.718 1047.37 286.173C1056.41 277.984 1045.99 273.911 1036.46 271.285C1025.17 268.183 1015.68 264.399 1004.7 261.359C999.469 259.912 993.825 258.526 988.821 256.397C984.273 254.474 979.931 250.028 975.424 246.471C968.932 241.343 963.205 238.758 959.545 232.575C960.103 220.748 945.093 218.618 939.2 213.221C918.36 210.14 898.387 206.087 884.121 195.851C875.624 189.751 867.126 186.029 860.799 177.985C856.582 172.63 854.245 166.219 850.379 161.112C846.12 155.487 840.372 151.786 834.5 147.216C831.874 145.169 829.848 142.109 827.057 140.268C823.108 137.684 818.146 136.753 813.163 134.313C808.987 132.266 805.513 129.392 800.758 127.365C789.118 122.423 772.288 114.607 755.603 115.455C752.874 115.599 750.165 116.716 747.664 116.943C738.132 117.791 728.766 114.007 719.876 117.936C723.763 110.637 720.393 98.2712 717.395 89.1521C710.096 66.9232 699.366 42.0681 682.66 31.5843C681.316 30.2816 681.75 27.2005 680.179 26.1253C673.211 24.3263 667.753 18.2262 660.827 14.7109C649.662 9.04515 634.218 4.24783 622.123 1.31154C619.89 0.773909 618.525 1.60103 615.672 1.80781C608.373 2.34544 600.599 0.691196 592.846 0.815265C582.384 0.98069 571.675 1.70442 562.577 2.80036C510.31 19.6944 456.947 37.4775 411.234 61.857C406.396 58.4245 398.125 58.4244 392.874 55.4054ZM345.238 98.5813C355.534 94.3837 365.727 90.3308 375.506 85.6782C376.871 85.0372 377.615 83.7965 378.98 83.1968C389.338 78.6476 398.394 74.9669 408.256 70.2937C416.506 66.3855 425.003 63.6353 433.067 59.3756C448.821 51.0424 466.416 45.48 482.688 38.0358C498.98 30.5917 516.554 24.5744 534.79 19.1774C553.522 13.6357 574.156 8.9004 594.831 7.76311C601.344 7.41158 607.422 7.28751 613.687 7.76311C626.981 8.77633 638.932 11.2577 650.407 16.1998C655.059 18.2055 660 22.5479 665.293 25.629C678.339 33.1972 684.128 40.1657 692.584 52.4278C698.539 61.0712 701.888 69.5906 705.982 79.7229C707.119 82.5558 709.393 84.9338 710.448 87.6633C711.895 91.4267 716.01 107.018 715.41 110.988C714.893 114.441 710.717 114.317 711.44 119.425C703.646 125.732 692.502 126.848 682.164 130.343C676.561 132.225 671.144 134.954 665.293 136.794C659.524 138.614 653.611 140.248 647.925 142.253C635.686 146.555 622.867 149.201 611.702 153.668C610.255 154.247 608.663 155.053 607.732 156.645C597.167 157.886 587.739 162.477 577.96 166.571C573.101 168.597 567.664 169.342 562.577 171.037C555.693 173.333 549.221 177.489 542.233 179.97C534.996 182.534 528.69 186.091 521.888 188.903C519.325 189.958 516.595 189.979 513.949 190.888C509.276 192.501 505.472 195.851 501.047 197.836C496.023 200.09 490.379 201.455 485.169 203.792C465.424 212.642 444.087 222.092 426.12 231.583C424.983 230.528 427.484 229.929 428.105 229.598C437.284 224.49 447.829 219.465 455.892 214.213C466.127 211.215 476.464 206.169 486.657 201.31C498.463 195.686 512.915 190.351 522.881 183.941C569.173 164.917 619.724 147.071 668.27 133.321C672.178 130.943 675.465 129.723 679.683 129.847C688.429 125.235 702.012 125.794 704.493 116.943C702.467 115.765 697.319 118.66 695.562 120.914C676.933 125.794 658.842 132.287 640.482 137.787C617.636 144.631 595.782 152.717 573.99 160.616C562.164 164.896 551.95 169.321 540.744 173.022C528.091 179.433 515.293 186.236 502.04 191.385C492.55 195.065 484.776 198.539 476.237 202.799C472.143 204.846 468.008 206.976 463.832 208.754C461.103 209.912 458.105 210.098 455.396 211.236C451.075 213.055 446.899 216.405 442.495 218.68C428.353 225.958 415.472 233.878 401.309 240.02C399.49 240.454 401.661 242.129 399.821 242.005C396.637 242.46 392.357 246.12 388.904 247.96C393.453 228.523 392.956 208.754 385.431 191.881C383.363 187.249 379.517 181.666 376.003 176.993C372.033 171.699 368.704 165.868 365.086 162.104C350.303 146.741 329.876 135.657 305.541 132.328C287.574 129.867 270.537 132.452 252.446 134.809C281.764 122.754 315.217 110.802 345.238 98.5813ZM137.326 162.104C148.78 158.837 158.167 155.363 168.587 151.683C212.109 136.34 254.721 115.972 295.12 99.0776C306.533 94.301 319.931 90.3514 331.84 85.6782C343.604 81.067 354.562 77.407 368.063 71.7825C379.497 67.0265 394.052 56.7702 406.768 63.8421C402.343 66.034 397.133 67.4608 393.866 70.79C366.864 81.3358 340.792 92.8121 315.961 105.529C294.459 114.152 271.178 120.459 249.965 130.343C232.929 136.236 216.099 143.453 198.856 148.705C185.851 152.675 174.107 159.933 161.64 163.593C157.402 164.834 152.109 165.165 149.235 169.052C150.703 170.562 152.481 171.761 154.693 172.526C159.345 170.107 163.852 172.464 168.587 172.03C172.784 171.637 176.961 169.362 180.992 168.556C193.336 166.095 205.823 164.358 216.719 160.616C218.105 160.409 215.479 162.456 217.216 162.601C219.056 161.257 220.296 160.347 223.17 161.112C239.876 154.412 259.435 144.818 283.708 144.735C281.227 146.679 277.443 146.472 274.28 147.712C271.447 148.829 269.648 151.6 267.333 150.69C267.622 151 268.491 153.047 267.333 153.172C267.477 152.034 267.209 151.31 266.34 151.186C264.666 153.688 261.482 152.82 258.897 154.66C259.145 154.474 256.974 155.715 257.409 156.645C264.19 155.301 271.819 153.771 278.249 148.705C278.311 150.545 278.973 149.946 280.234 149.698C289.166 147.196 302.522 143.536 311.992 146.72C297.209 148.374 282.839 153.254 269.814 159.127C273.329 159.644 275.603 157.473 278.249 158.631C278.911 157.307 280.441 156.852 282.715 157.142C285.114 154.495 289.063 155.425 292.639 154.66C301.943 152.655 314.39 146.989 324.893 150.194C313.542 152.655 304.404 154.598 295.617 159.127C299.586 159.809 303.577 156.004 308.518 156.149C309.511 156.17 309.552 157.245 310.503 157.142C321.254 155.963 335.148 147.899 342.757 155.157C334.507 156.852 316.83 157.638 311.495 163.593C315.755 163.076 321.358 163.18 323.901 160.616C331.054 162.042 350.262 153.978 357.147 162.104C341.516 162.745 333.908 164.689 323.404 169.052C324.81 171.451 328.904 169.59 332.336 169.052C339.903 167.853 347.16 166.674 354.169 166.075C357.56 165.785 362.564 164.731 363.101 168.556C357.684 168.411 352.329 169.776 348.215 170.541C343.398 171.451 337.03 171.265 334.321 175.008C339.283 177.117 349.166 173.105 357.643 172.526C361.323 172.278 367.298 171.017 368.56 175.504C362.191 178.006 350.861 176.6 344.741 181.459C349.228 182.721 353.342 180.963 358.139 180.467C364.135 179.846 371.847 177.903 373.522 183.444C367.257 185.512 357.788 184.788 355.162 189.4C361.364 191.261 376.788 183.341 378.98 192.873C371.557 192.873 364.61 193.39 359.628 195.851C348.67 183.982 331.695 179.247 313.976 175.504C298.015 172.133 275.21 168.494 252.943 172.03C237.746 174.449 221.247 176.31 204.81 177.489C173.446 179.743 141.068 179.35 121.447 166.571C128.539 166.674 132.074 163.593 137.326 162.104ZM526.85 190.888C543.349 184.127 559.145 176.972 575.479 171.037C586.251 167.109 597.746 163.035 609.221 159.623C620.634 156.232 631.985 151.931 643.46 148.705C654.893 145.479 666.327 141.55 677.698 137.787C689.028 134.044 700.193 128.482 711.44 125.876C717.643 124.429 724.094 124.305 730.296 123.891C736.458 123.478 742.95 122.382 749.648 122.402C760.524 122.402 766.892 125.794 776.444 128.358C790.875 132.225 802.66 134.437 813.163 141.261C818.415 144.673 824.059 148.064 828.05 151.186C834.79 156.459 839.132 162.849 843.928 169.052C852.55 180.198 861.916 190.785 873.205 198.829C883.253 206.004 895.183 210.905 908.435 215.206C912.715 216.591 917.305 219.197 921.337 219.672C926.216 220.251 931.902 217.791 937.216 220.169C931.861 224.904 925.637 228.771 918.856 232.079C912.922 232.472 908.539 236.69 903.97 239.027C897.788 242.17 890.82 244.341 884.121 247.464C877.67 250.462 870.434 252.695 863.777 255.404C850.503 260.801 835.72 263.282 824.08 271.285C810.703 273.291 798.856 279.97 786.864 285.181C774.686 290.474 762.488 295.871 751.137 302.054C736.437 304.825 727.236 313.861 714.914 316.446C692.212 330.838 666.016 340.763 643.956 356.644C643.17 355.755 643.294 353.997 640.979 354.659C617.967 352.922 596.961 347.194 582.426 334.808C573.556 327.26 568.305 316.549 562.081 306.52C548.497 284.643 533.425 263.448 513.949 247.464C509.214 243.576 502.826 241.405 496.582 238.034C483.349 230.88 465.61 223.87 448.449 225.131C473.777 213.841 501.151 201.414 526.85 190.888ZM337.794 148.209C323.446 143.184 299.194 137.518 281.723 139.772C279.138 140.103 277.154 141.737 274.776 141.757C273.081 141.757 271.344 140.765 269.318 140.765C266.092 140.765 258.649 142.44 253.935 143.742C241.716 147.134 229.6 153.626 216.719 156.645C208.305 158.61 200.365 160.533 192.901 163.593C191.392 163.18 191.702 162.208 189.924 163.097C186.244 165.227 178.387 166.55 173.053 166.571C183.453 164.731 192.157 158.506 201.833 155.653C205.968 154.433 210.475 155.033 213.742 151.683C227.098 150.008 240.083 142.088 253.935 139.276C270.868 135.843 292.763 135.926 307.526 136.794C322.681 141.158 338.704 144.652 349.207 153.668C345.403 152.468 341.806 149.615 337.794 148.209ZM327.374 230.59C328.511 231.996 326.444 230.9 326.878 231.087C321.854 228.957 317.843 225.524 312.984 223.146C305.417 219.465 296.134 213.841 289.166 216.695C301.53 222.03 311.992 226.372 321.916 232.575C336.368 241.591 343.067 260.739 351.192 275.751C347.14 277.778 343.666 282.947 338.787 281.21C340.503 262.29 328.18 253.109 318.939 243.493C310.503 235.698 297.25 231.79 284.204 227.613C279.407 226.082 275.107 223.642 270.806 222.65C260.82 220.355 240.724 218.452 235.079 224.139C256.644 221.037 269.462 227.427 286.189 232.079C296.816 235.036 308.001 240.371 314.473 245.975C325.41 255.466 334.983 266.157 337.298 283.195C330.682 287.827 326.092 294.486 324.893 304.535C319.393 299.697 314.514 295.168 309.511 290.64C304.362 285.987 299.896 280.528 294.128 276.248C288.463 272.05 278.994 268.452 271.302 266.818C260.779 264.585 250.027 267.749 238.553 266.818C225.755 265.784 213.018 267.563 198.36 266.818C186.265 266.198 174.376 263.096 162.136 262.352C154.404 261.897 145.803 263.2 137.822 263.841C108.835 266.177 87.2501 259.808 64.8793 252.923C60.5581 251.579 51.4196 250.235 49.993 248.456C47.2018 244.982 50.5512 243.431 51.9778 240.02C52.3914 239.068 52.0192 237.331 52.474 236.049C52.7221 235.326 53.7972 235.408 53.9626 234.561C54.1694 233.527 53.1563 232.762 53.4665 232.079C54.004 230.9 57.6636 224.614 58.4285 223.642C60.0619 221.575 62.3362 221.182 63.3906 219.176C64.9 216.322 63.8662 212.29 67.3604 211.236C71.4127 218.308 79.1453 220.851 88.6974 223.146C101.537 226.227 117.064 227.22 130.379 227.116C136.644 227.075 143.446 228.254 146.258 225.628C122.419 222.36 87.4361 224.18 69.3452 208.754C70.9785 208.237 70.4202 205.528 71.33 204.288C91.1577 218.887 125.562 219.052 151.716 215.702C161.165 214.503 170.737 212.311 178.511 208.754C144.004 212.704 100.958 219.982 74.3073 200.814C77.5119 195.748 80.82 190.785 85.2238 186.918C91.9641 190.702 98.1667 194.156 107.553 195.355C116.444 196.492 127.133 197.485 137.326 196.844C165.238 195.107 195.755 189.338 227.14 187.911C242.109 187.228 254.803 183.175 270.31 184.437C289.311 185.967 310.937 189.441 327.87 193.866C337.092 196.265 345.196 199.49 352.681 203.792C362.357 211.835 372.653 227.365 374.018 244.982C374.804 255.032 374.886 270.354 368.063 272.277C371.02 271.719 369.635 273.621 369.552 275.255C365.231 275.358 361.344 273.808 355.162 274.262C356.113 245.272 331.737 223.353 310.999 214.213C304.486 211.339 296.382 210.719 288.67 208.754C283.563 207.452 277.133 204.929 273.287 208.754C293.921 213.427 314.721 217.935 327.374 230.59ZM382.453 201.806C377.181 202.117 372.426 201.744 369.056 204.784C367.898 201.972 365.355 200.545 363.597 198.332C368.89 198.022 382.722 192.977 382.453 201.806ZM383.942 205.777C384.066 207.307 384.438 208.589 384.934 209.747C381.44 210.905 378.256 210.781 375.506 211.732C373.976 210.284 372.715 208.568 371.537 206.769C375.982 206.583 379.745 204.763 383.942 205.777ZM385.927 219.672C384.211 218.37 380.696 218.37 378.98 219.672C378.401 217.625 377.574 216.591 377.491 215.206C379.807 214.71 381.875 213.965 384.934 214.213C385.493 215.805 385.948 217.501 385.927 219.672ZM932.75 234.561C928.615 236.959 925.575 238.034 921.337 240.02C914.886 243.059 908.601 248.394 901.489 250.938C892.619 254.101 885.92 256.81 878.167 259.871C872.047 262.29 865.41 262.745 859.311 264.833C857.843 265.33 856.788 266.798 855.341 267.315C849.945 269.279 844.094 270.396 838.966 272.277C831.006 275.193 823.625 277.24 816.141 280.714C803.983 282.782 793.46 286.483 785.376 292.625C783.391 292.294 782.543 293.1 780.91 293.121C778.098 295.044 774.107 296.45 771.482 296.099C808.904 279.763 846.74 263.841 887.595 250.938C904.776 240.164 927.643 235.057 942.178 221.657C947.698 225.896 957.085 230.239 953.094 239.523C945.176 244.176 936.699 248.27 928.284 252.426C884.328 267.356 841.116 280.714 800.262 299.076C795.941 303.853 787.133 304.142 782.398 308.505C781.116 309.415 780.91 308.299 779.421 309.002C774.893 314.109 763.46 314.73 757.588 319.92C739.642 326.185 719.917 337.455 703.501 344.733C697.629 347.339 691.881 349.634 687.622 354.163C677.884 357.368 669.159 365.763 658.842 370.043C657.064 374.551 650.841 374.613 648.422 378.48C649.931 381.148 650.882 382.368 647.429 383.939C647.429 377.446 648.897 376.309 649.414 369.547C666.823 353.501 689.421 344.899 710.448 333.319C713.012 331.913 714.831 329.225 717.395 327.86C720.455 326.227 724.238 325.441 727.319 323.89C743.177 315.929 758.787 307.471 774.955 300.069C781.654 297.008 788.87 294.961 795.3 291.632C797.223 290.639 798.67 288.613 800.758 287.662C809.938 283.526 820.565 282.348 830.531 278.233C837.726 275.276 846.099 273.808 853.356 271.285C855.713 270.458 857.471 268.7 859.807 267.811C859.497 267.935 860.22 268.783 860.303 268.803C861.606 269.134 864.852 266.157 865.761 265.826C871.344 263.799 877.567 262.807 883.129 260.863C894.335 256.955 905.996 252.799 915.879 246.967C920.903 243.99 926.32 240.971 932.254 239.523C935.603 234.871 951.109 231.604 944.163 224.635C942.033 229.784 938.415 231.273 932.75 234.561ZM385.431 222.154C384.872 227.923 386.733 230.673 385.431 235.553C382.536 232.162 383.115 225.297 380.469 221.657C382.453 221.492 383.218 222.547 385.431 222.154ZM481.695 237.538C476.299 236.153 469.414 236.256 464.824 234.064C470.469 234.064 477.788 234.416 481.695 237.538ZM428.105 242.501C410.055 247.608 395.355 256.066 382.95 266.818C382.495 262.889 385.203 262.124 387.912 261.359C395.003 250.814 409.807 248.622 422.646 242.997C429.387 240.04 434.99 235.553 441.998 236.546C436.189 237.29 429.8 239.192 428.105 242.501ZM514.941 261.856C515.582 262.538 517.278 262.166 517.919 262.848C533.839 278.956 544.3 301.95 557.615 320.416C562.164 326.743 567.767 331.706 572.005 337.786C550.668 320.581 531.068 301.62 518.415 275.751C507.746 264.751 497.161 253.667 482.688 246.471C475.844 243.721 469.145 240.826 461.847 238.531C483.68 240.268 502.247 249.325 514.941 261.856ZM945.155 248.952C950.282 245.995 955.865 238.675 960.041 242.501C951.544 246.574 943.253 253.502 932.75 253.915C936.616 252.199 940.668 251.537 945.155 248.952ZM533.301 376.495C519.655 367.976 508.284 357.182 495.589 347.711C475.224 333.236 450.434 323.187 422.646 317.438C432.819 314.812 441.957 319.858 451.923 320.416C465.651 321.181 472.557 328.667 481.199 331.334C484.197 336.276 491.309 337.103 495.093 341.259C496.623 340.908 496.044 340.908 497.574 341.259C497.739 344.485 500.427 344.32 502.04 344.237C502.267 347.856 509.194 347.628 510.972 351.185C511.013 350.399 510.91 349.469 511.964 349.696C535.637 372.029 566.423 390.473 597.312 404.783C608.932 410.159 625.451 414.398 640.979 412.723C635.892 408.132 627.188 410.035 620.138 408.753C614.349 407.698 607.505 405.362 601.778 403.294C584.473 397.028 570.786 385.076 555.134 377.984C545.148 369.857 534.48 363.985 524.866 355.651C520.751 352.095 518.311 346.553 512.46 345.23C497.223 330.796 469.083 312.331 442.991 308.009C435.713 306.81 430.482 309.519 423.639 310.49C426.306 313.675 430.151 311.069 433.563 310.987C442.805 310.759 452.357 315.308 459.862 317.438C450.724 318.989 438.711 312.021 427.112 313.468C423.494 313.923 421.509 315.143 418.677 314.957C414.852 314.709 412.143 312.476 407.76 311.979C402.943 311.421 395.003 311.669 392.378 314.957C398.89 315.391 404.555 313.634 408.753 316.446C400.792 314.916 393.825 315.701 387.415 317.935C387.291 303.17 383.777 289.936 374.514 282.203C374.783 279.68 373.418 275.958 374.514 275.255C377.512 275.669 374.183 279.597 376.499 280.218C382.061 280.569 384.542 275.131 388.408 272.277C393.163 268.762 400.193 265.371 406.768 262.352C413.342 259.333 420.31 255.383 426.616 253.915C462.508 245.603 486.327 266.198 505.513 282.203C506.65 283.195 506.072 282.079 507.002 281.707C507.684 284.664 510.021 285.966 512.956 286.669C511.571 283.568 508.222 282.472 506.01 280.218C504.728 278.915 506.816 279.825 506.506 278.233C503.921 275.586 500.923 273.621 498.07 271.285C495.32 269.031 492.963 265.971 490.131 263.841C475.927 253.088 454.548 246.161 432.074 249.449C421.902 250.938 410.923 257.203 403.294 260.863C392.977 265.826 387.229 270.065 379.972 275.255C381.482 273.952 380.903 270.561 382.453 269.3C382.371 270.375 382.867 270.871 383.942 270.789C387.726 265.495 394.817 263.179 399.821 259.374C401.992 257.72 403.356 255.032 405.775 253.915C408.566 252.633 412.329 251.93 415.203 250.938C423.908 247.939 433.749 242.666 442.991 241.508C459.407 239.461 471.482 246.885 482.688 252.426C489.779 255.942 496.375 260.139 501.047 264.337C511.737 273.932 519.304 286.545 527.347 298.58C541.013 319.01 562.867 335.118 581.433 347.711C580.958 345.064 575.148 343.513 576.967 341.756C587.739 349.779 610.792 362.268 632.047 363.096C633.246 362.889 631.778 365.349 633.535 364.584C636.327 363.737 639.531 363.302 643.46 363.592C648.07 370.622 639.635 380.61 644.452 387.909C643.211 388.116 642.178 389.605 642.963 390.391C642.777 392.396 645.837 391.156 645.444 393.368C641.247 395.54 639.8 397.525 636.513 397.835C637.092 398.745 637.815 399.51 638.497 400.316C640.42 400.254 640.792 398.641 642.963 398.827C643.501 407.864 644.431 414.481 639.986 419.671C601.137 407.864 564.81 396.036 533.301 376.495ZM43.5422 245.479C42.3017 245.561 42.0123 244.693 41.0612 244.486C41.1853 242.439 44.7001 241.198 45.5271 241.508C44.3486 242.315 44.4727 244.424 43.5422 245.479ZM340.276 243.99C342.653 248.229 347.388 252.757 347.222 257.885C345.672 253.129 340.441 246.843 340.276 243.99ZM965.003 252.426C960.248 256.293 951.461 255.9 947.636 260.863C930.848 266.384 913.914 273.58 900.992 279.721C894.934 282.596 888.38 284.664 882.136 287.166C875.892 289.668 869.586 292.356 863.28 294.61C860.096 295.747 856.354 296.367 853.356 297.587C850.462 298.745 848.291 300.917 845.417 302.054C839.504 304.39 833.053 305.383 827.057 307.513C822.157 309.25 817.691 312.703 812.667 314.461C807.478 316.28 801.874 317.232 796.788 319.423C794.535 320.395 792.571 322.339 790.338 323.394C782.502 327.074 774.149 327.633 769.001 333.815C760.4 335.346 750.93 340.184 744.19 345.23C724.569 351.619 705.114 360.242 688.118 369.051C685.968 370.167 684.025 372.421 681.668 372.029C681.13 374.469 678.091 374.406 677.202 376.495C667.071 376.722 659.235 385.904 649.91 386.917C650.407 386.917 650.51 386.524 650.903 386.42C656.506 379.059 664.838 375.895 673.232 371.036C678.546 367.976 683.735 364.791 689.111 362.103C722.212 345.602 756.699 328.439 791.33 314.461C797.202 312.103 802.701 309.167 808.697 307.017C814.735 304.845 821.061 302.922 827.057 300.565C838.987 295.85 850.482 290.329 862.288 285.677C886.478 276.165 911.413 269.3 933.742 257.389C940.255 255.301 947.533 254.308 953.591 251.434C958.47 249.118 963.597 241.963 968.973 246.967C966.182 247.919 967.05 250.772 965.003 252.426ZM41.5574 248.456C41.5574 249.283 41.5574 250.11 41.5574 250.938C39.5933 250.876 36.3679 250.359 32.6256 249.945C33.5353 246.078 38.0219 248.332 41.5574 248.456ZM982.867 266.322C974.7 274.035 962.109 277.323 952.102 283.195C939.407 284.25 930.62 293.452 917.367 295.602C907.546 302.364 891.151 305.073 881.64 310.49C871.757 311.959 861.668 316.777 851.371 319.423C851.165 320.375 849.449 319.816 849.883 321.409C834.893 324.138 819.056 332.885 804.231 335.8C832.846 322.422 865.596 309.519 895.534 299.572C900.351 296.016 906.781 295.147 912.901 292.625C918.69 290.247 924.79 287.104 931.261 284.684C936.616 282.678 942.695 278.15 947.14 275.751C951.482 273.415 956.692 273.001 960.041 270.789C961.819 269.631 963.68 266.488 966.492 264.833C970.917 262.249 976.065 260.346 974.431 253.915C970.11 252.902 971.909 258.009 968.973 258.382C969.387 255.507 967.96 251.909 971.454 249.945C975.837 254.515 981.502 260.367 982.867 266.322ZM388.904 252.426C390.021 252.509 391.096 250.048 391.881 251.434C390.951 251.537 389.297 253.419 388.904 252.426ZM22.7014 254.411C27.5809 252.55 35.4168 253.378 41.5574 254.411C48.7111 255.611 57.891 258.795 63.3906 260.367C49.7242 259.023 32.5636 256.293 22.7014 254.411ZM939.697 271.285C928.201 272.691 922.495 279.908 911.909 282.203C910.834 282.616 910.813 284.064 909.428 284.188C905.376 285.594 900.372 286.049 898.015 289.151C894.852 288.634 893.611 290.04 892.061 291.136C878.394 293.865 866.361 301.537 852.86 305.528C845.975 307.554 839.669 310.966 833.012 313.468C826.313 315.97 819.159 317.397 813.659 321.905C790.317 329.535 769.972 336.359 749.648 348.207C748.78 346.739 747.002 348.497 745.679 348.207C744.169 349.841 741.502 350.317 740.717 352.674C739.352 350.792 736.271 353.356 733.77 354.163C715.741 359.994 699.945 370.085 684.149 375.502C705.672 363.447 729.511 353.708 753.618 344.237C819.759 310.304 897.25 288.779 965.5 255.404C965.52 255.094 965.582 254.825 965.996 254.908C961.592 264.73 946.354 263.717 939.697 271.285ZM899.504 268.307C896.671 269.672 893.859 271.864 891.068 272.774C887.119 274.056 882.922 273.849 879.159 275.255C868.635 279.184 858.711 285.284 847.402 287.662C832.433 295.85 814.735 301.33 797.285 307.017C775.534 318.038 752.481 328.088 729.8 338.282C707.223 348.435 685.968 360.656 664.797 370.54C683.859 360.118 702.426 347.773 722.853 338.282C733.77 333.216 745.141 329.246 756.595 324.386C760.917 322.566 765.072 319.444 769.497 317.438C783.97 310.904 798.091 305.321 811.675 298.58C825.093 291.922 840.103 285.697 853.852 281.21C858.959 279.535 863.921 277.178 868.739 275.751C875.024 273.89 881.785 272.856 888.091 270.789C900.269 266.777 913.584 260.222 925.803 256.893C918.215 262.145 907.939 264.213 899.504 268.307ZM21.709 259.871C19.3107 259.581 23.4458 258.899 23.6938 258.878C28.9454 258.568 35.1481 261.07 41.5574 261.856C56.1335 263.655 73.0874 265.185 83.7352 269.796C63.5974 266.88 41.9089 263.448 21.709 259.871ZM19.7242 260.367C17.0984 259.808 14.6587 261.525 13.7697 259.871C15.0929 259.023 19.9517 259.829 19.7242 260.367ZM13.7697 264.833C113.487 279.659 225.238 298.477 328.863 314.461C328.222 331.748 341.227 339.398 353.673 345.23C337.133 345.23 326.961 334.56 326.382 316.942C322.474 315.66 322.123 315.04 318.939 316.942C278.311 312.186 248.332 304.432 213.742 300.565C196.416 295.809 172.143 293.576 152.212 290.143C125.396 285.532 99.035 282.017 71.8262 277.736C54.8724 275.069 38.3114 271.181 21.2129 268.803C16.3127 268.121 9.92407 268.555 6.32654 264.337C8.49744 262.186 11.4747 264.482 13.7697 264.833ZM575.975 333.815C561.399 322.753 553.025 305.486 543.225 289.647C537.622 280.528 530.675 272.753 524.866 263.841C547.133 281.934 558.36 311.069 575.975 333.815ZM1039.93 277.24C1026.84 275.09 1012.29 270.148 1000.73 264.833C1013.84 268.928 1026.66 273.311 1039.93 277.24ZM906.451 292.128C887.533 296.967 869.194 305.631 852.364 311.979C846.327 314.254 840.021 315.66 834.5 317.935C828.587 320.375 822.984 324.014 816.637 326.371C810.165 328.77 804.624 332.719 798.773 334.808C794.101 336.483 789.841 337.248 785.376 339.274C775.968 343.555 766.209 346.532 757.092 351.681C752.026 354.535 746.65 356.044 741.213 358.133C736.147 360.097 731.516 363.344 726.327 365.577C715.431 370.25 705.589 375.192 695.065 379.473C685.038 383.546 674.865 388.178 664.3 392.872C659.049 395.209 654.066 399.365 647.925 398.331C650.696 392.334 657.767 390.101 663.308 387.909C669.428 385.49 675.3 382.368 681.172 379.969C685.369 378.253 690.021 377.818 694.073 375.999C701.619 372.608 709.311 368.699 716.899 365.081C720.558 363.344 724.052 360.78 727.815 359.125C731.661 357.43 736.209 357.078 740.22 355.651C745.307 353.832 750.351 350.482 755.603 348.207C772.081 341.053 788.084 333.774 805.224 327.86C822.054 322.05 839.008 314.709 855.341 308.505C861.234 306.272 867.478 304.969 872.708 302.55C876.926 300.606 880.048 297.691 884.121 296.099C888.442 294.403 893.218 293.659 898.015 292.128C902.109 290.826 906.285 288.489 910.42 286.669C927.622 279.142 943.005 272.215 959.049 264.833C944.907 277.323 922.743 281.789 906.451 292.128ZM1032.98 280.714C1020.62 278.501 1007.97 272.319 995.272 268.803C997.009 268.659 994.032 266.963 995.768 266.818C1006.5 273.125 1022.27 274.387 1032.98 280.714ZM983.859 277.24C973.749 282.534 962.584 285.904 953.591 290.64C949.952 292.563 946.54 293.576 942.674 295.106C935.355 298.001 928.883 302.219 921.337 305.031C906.389 310.573 891.482 315.867 876.182 321.905C874.362 322.939 873.432 321.781 871.716 321.409C870.868 323.766 869.276 324.2 867.746 324.882C862.019 327.447 854.948 328.77 848.394 331.334C835.513 336.359 822.984 341.239 810.682 345.726C802.309 348.786 795.217 354.059 787.36 354.163C787.546 356.168 785.665 356.106 784.879 357.14C773.177 361.276 762.302 367.603 751.137 373.517C745.637 376.433 739.207 378.025 733.273 380.465C715.41 387.806 698.725 396.243 680.675 403.294C668.911 407.905 657.312 412.951 645.941 417.686C649.063 416.631 647.429 409.435 647.925 407.264C648.401 408.608 649.166 409.663 650.903 409.745C675.982 399.489 700.007 385.387 726.327 375.502C752.233 365.763 776.526 351.454 802.743 340.763C815.934 335.387 830.303 331.189 843.928 326.868C850.73 324.717 857.243 321.533 863.777 318.927C870.744 316.136 878.105 314.792 885.114 312.476C892.04 310.18 898.573 307.347 905.458 305.031C912.26 302.757 918.112 299.49 924.81 296.595C931.406 293.741 938.56 292.149 945.155 289.151C951.999 286.028 958.945 284.539 965.5 281.707C973.067 278.419 981.358 271.471 987.829 269.3C988.036 270.582 989.318 270.789 989.318 272.277C989.235 273.704 984.356 274.573 983.859 277.24ZM98.1253 271.781C95.9958 270.933 92.3983 271.554 90.6822 270.292C93.3907 270.561 96.9675 269.961 98.1253 271.781ZM101.599 271.781C100.792 272.422 97.7738 271.884 99.1177 270.789C98.8903 272.174 101.826 270.396 101.599 271.781ZM198.856 273.766C218.353 275.193 238.987 278.067 258.401 280.714C272.026 282.575 290.675 282.286 298.098 289.151C247.546 282.885 200.965 278.253 156.182 271.285C169.848 273.187 184.259 272.712 198.856 273.766ZM136.333 273.766C134.307 273.311 131.868 273.27 130.379 272.277C132.736 272.401 135.961 271.657 136.333 273.766ZM261.378 276.744C251.971 275.565 243.556 275.441 234.583 272.774C245.024 272.588 253.418 274.449 261.378 276.744ZM1009.66 277.24C1015.27 279.432 1021.22 281.438 1025.54 284.188C1014.38 283.547 1003.5 278.501 993.784 274.759C998.332 272.195 1004.53 275.234 1009.66 277.24ZM225.651 285.181C191.495 282.513 168.959 279.928 137.822 273.766C167.202 275.503 195.837 281.334 225.651 285.181ZM368.063 278.729C368.332 286.855 359.979 282.72 359.628 276.744C363.143 276.702 366.471 276.847 368.063 278.729ZM991.302 278.233C999.242 281.872 1008.42 284.271 1018.1 286.173C1017.27 287.993 1014.89 288.262 1013.14 289.151C1007.24 284.974 997.381 284.353 989.318 281.21C989.793 280.032 989.483 278.067 991.302 278.233ZM355.658 283.692C355.141 286.401 351.482 286.256 348.215 287.166C346.974 285.925 345.134 285.284 345.238 282.699C348.959 280.693 356.837 277.447 355.658 283.692ZM978.897 315.949C973.522 315.205 965.872 320.768 958.553 323.89C944.659 329.804 932.626 333.774 919.848 339.771C900.765 348.745 881.744 357.037 863.28 365.081C857.181 367.727 850.958 370.085 844.921 373.021C838.449 376.164 831.564 377.942 825.072 380.961C791.02 396.76 754.859 411.979 721.861 427.115C709.104 432.967 695.251 437.102 682.164 442.996C667.443 449.633 653.198 457.719 638.001 461.854C638.353 460.324 638.353 460.903 638.001 459.373C639.304 457.098 642.219 459.456 642.467 456.395C641.826 454.844 640.11 457.47 639.986 455.403C690.599 431.726 747.581 408.877 798.277 385.428C800.117 385.076 800.407 386.276 802.247 385.924C802.35 385.035 801.75 383.443 803.239 383.939C810.992 380.093 818.125 376.536 826.561 374.51C826.85 373.476 827.595 372.897 828.05 372.029C831.771 372.339 833.921 368.761 837.478 370.54C837.87 369.609 838.118 368.534 838.966 368.058C852.777 362.206 866.01 357.016 879.159 350.192C886.251 346.512 896.94 345.623 903.473 339.274C921.75 333.567 937.774 325.586 954.087 317.935C955.265 317.935 955.555 318.782 957.064 318.431C957.56 317.438 958.305 316.694 959.049 315.949C971.806 312.496 975.362 309.498 986.34 305.031C987.912 305.114 988.532 306.148 990.31 306.024C990.517 305.073 991.385 304.783 991.302 303.543C1007.66 296.409 1023.41 288.675 1040.92 282.699C1040.65 281.066 1041.34 279.597 1042.41 280.714C1044.83 281.975 1041.73 284.105 1042.91 285.677C1044.21 285.863 1045.64 285.925 1046.38 286.669C1032.76 292.376 1030.17 294.486 1019.09 297.091C1017.79 300.627 1010.12 301.971 1006.19 304.535C1005.8 304.432 1005.22 304.535 1005.2 304.039C1005.47 304.039 1005.75 303.646 1005.2 303.543C1002.03 304.742 998.208 306.251 994.28 308.009C990.496 309.705 982.515 312.724 984.356 313.964C982.309 313.282 977.305 315.619 978.897 315.949ZM1008.17 291.632C998.043 294.175 989.483 286.959 980.882 284.684C990.724 281.707 999.573 288.22 1008.17 291.632ZM369.552 288.158C369.841 280.941 377.884 287.083 377.987 292.625C373.625 295.726 369.449 290.702 369.552 288.158ZM337.298 292.128C336.451 291.487 335.355 291.094 335.313 289.647C336.471 287.331 338.125 285.511 340.772 284.684C341.723 287.641 339.449 290.722 337.298 292.128ZM227.636 286.173C226.85 284.788 229.786 284.808 229.621 285.677C228.69 285.573 228.525 286.235 227.636 286.173ZM305.045 293.121C305.789 294.362 309.924 296.946 308.022 297.587C286.003 291.839 258.38 292.439 235.575 285.677C255.548 287.889 282.074 292.501 305.045 293.121ZM999.738 295.602C990.537 296.864 980.469 291.301 972.943 287.662C980.469 287.455 990.744 293.286 999.738 295.602ZM293.632 299.572C301.468 301.082 309.821 300.565 315.961 305.031C281.371 299.862 247.133 295.726 215.727 289.151C242.398 291.074 269.256 294.879 293.632 299.572ZM966.988 290.143C974.431 293.617 983.921 295.044 990.806 299.076C981.771 303.419 973.005 293.142 962.026 293.121C962.77 291.219 965.148 290.95 966.988 290.143ZM334.321 314.461C334.073 312.289 334.156 312.827 333.825 310.987C339.903 306.81 341.33 297.98 346.726 293.121C350.034 293.824 351.544 290.991 355.162 290.64C348.07 298.435 339.366 304.618 334.321 314.461ZM344.741 308.009C348.049 304.204 351.709 299.697 355.162 297.091C357.932 295.003 366.967 291.735 369.056 294.61C369.614 294.713 369.821 295.168 370.048 295.602C368.477 295.685 368.394 294.279 366.575 294.61C353.363 301.888 343.377 312.434 335.313 324.882C335.251 323.952 334.983 323.228 334.321 322.897C338.208 318.638 340.276 313.158 344.741 308.009ZM332.832 301.061C331.096 301.144 331.199 299.386 329.855 299.076C330.848 297.257 330.724 294.32 333.329 294.113C335.603 295.644 333.391 299.283 332.832 301.061ZM980.882 304.039C970.379 304.473 961.22 299.655 953.094 296.099C963.039 294.3 972.488 299.531 980.882 304.039ZM380.469 305.031C377.925 304.928 373.48 302.447 374.514 297.091C376.478 296.491 377.905 296.822 380.469 296.099C381.75 298.146 382.019 304.328 380.469 305.031ZM767.016 300.565C755.686 303.811 749.607 308.795 741.709 313.964C734.204 314.895 729.449 318.576 724.838 322.401C722.026 322.484 721.799 323.249 720.868 324.386C713.446 325.317 708.36 330.548 702.509 334.312C697.877 337.289 691.468 337.682 687.622 342.252C674.225 345.395 666.885 354.597 655.369 359.622C654.562 361.131 653.57 362.455 651.895 363.096C651.151 363.633 648.649 366.735 648.422 364.584C647.057 362.103 653.57 360.945 650.903 357.14C687.581 334.105 729.221 313.385 770.985 297.091C769.704 298.29 766.768 297.836 767.016 300.565ZM953.094 301.061C958.429 303.667 965.81 304.225 970.958 307.017C962.44 310.366 949.393 304.701 940.689 302.054C944.886 300.565 951.151 296.76 953.094 301.061ZM341.764 323.89C347.884 313.799 358.697 304.783 368.56 299.572C368.663 298.973 369.118 299.262 369.552 299.572V301.061C356.03 307.223 348.794 319.692 341.764 332.327C337.34 331.251 340.668 325.689 341.764 323.89ZM329.855 308.505C328.325 308.878 328.904 307.141 327.374 307.513C327.333 305.486 327.436 303.605 329.359 303.543C329.876 304.845 329.959 306.582 329.855 308.505ZM937.216 304.039C944.886 306.975 955.286 307.141 960.537 312.476C952.061 316.942 945.362 308.299 936.719 307.017C937.505 305.073 935.438 305.983 935.231 305.031C935.975 304.783 936.471 304.287 937.216 304.039ZM346.726 331.334C347.615 329.018 350.923 325.999 353.177 322.897C358.325 315.763 364.28 307.099 373.025 305.528C373.48 306.396 374.845 306.355 375.01 307.513C361.344 312.868 356.175 326.723 347.222 336.793C345.176 335.904 346.251 332.554 346.726 331.334ZM929.772 307.513C935.189 311.69 943.48 312.993 949.621 316.446C942.281 315.412 932.067 313.241 926.795 308.505C927.25 307.637 928.346 307.409 929.772 307.513ZM381.957 319.92C378.628 318.121 377.574 314.605 378.484 310.987C381.647 311.835 380.469 308.34 383.446 309.002C383.777 313.468 382.784 316.611 381.957 319.92ZM942.178 318.431C941.537 321.202 938.952 319.196 938.208 321.409C932.977 316.549 923.074 316.363 916.871 312.476C918.773 312.558 919.269 311.235 920.841 310.987C926.485 314.936 935.107 315.908 942.178 318.431ZM374.514 317.438C362.77 319.92 360.31 331.686 352.681 338.282C358.925 329.473 363.949 319.444 373.522 313.964C373.48 315.495 374.121 316.342 374.514 317.438ZM932.75 323.394C922.102 327.26 912.777 318.7 903.473 316.446C914.7 312.889 924.707 319.279 932.75 323.394ZM921.833 327.86C920.117 329.742 918.628 328.811 916.871 330.341C909.821 325.978 899.07 325.317 891.564 321.409C900.848 318.162 912.467 324.283 921.833 327.86ZM393.866 323.394C434.783 343.824 474.5 367.355 515.934 387.413C547.34 402.611 577.919 418.534 607.732 435.055C617.822 440.659 628.759 444.547 638.001 451.432C632.233 452.859 627.167 448.434 622.619 445.973C607.278 437.661 591.854 430.775 576.967 422.648C562.123 414.543 546.306 406.933 531.812 399.324C483.68 374.055 435.341 347.628 386.919 322.897C387.023 322.339 387.477 322.112 387.912 321.905C387.767 324.531 391.799 322.959 393.866 323.394ZM379.476 325.875C377.967 326.351 377.925 328.294 376.003 328.356C376.065 326.227 374.059 324.345 375.506 322.401H376.995C376.085 325.296 378.69 324.676 379.476 325.875ZM886.602 324.882C893.591 326.992 904.652 329.907 909.924 333.319C907.96 334.332 905.665 335.015 903.473 335.8C903.866 331.334 888.835 331.189 893.053 329.349C888.98 328.46 885.796 326.681 881.64 325.875C882.777 323.724 885.155 324.448 886.602 324.882ZM429.097 332.327C462.984 350.647 498.773 368.286 531.316 385.428C570.93 406.292 610.007 425.626 648.422 446.966C642.798 451.019 637.629 445.312 633.039 442.996C627.767 440.349 622.123 437.806 617.16 435.055C606.699 429.266 595.575 424.137 584.907 419.671C576.492 414.108 568.284 409.332 559.104 406.271C509.132 377.674 455.975 352.26 405.279 324.386C416.63 323.911 421.24 328.067 429.097 332.327ZM384.438 328.853C465.196 371.822 548.684 412.061 629.069 455.403C632.026 454.762 632.44 456.664 634.528 456.891C634.941 460.427 634.011 462.64 632.543 464.336C631.013 462.475 628.408 462.288 626.588 462.847C546.182 420.622 467.429 379.287 386.919 336.793C385.927 336.131 387.085 333.34 385.431 333.319C381.668 334.436 384.066 331.231 379.972 330.341C382.329 328.894 383.342 323.476 386.919 324.882C385.906 326.02 384.5 326.764 384.438 328.853ZM372.033 328.853C366.616 330.548 364.424 338.096 359.132 338.282C363.039 333.919 365.603 328.212 370.544 324.882C370.441 326.826 371.619 327.447 372.033 328.853ZM900.496 337.289C889.393 338.551 877.133 333.071 867.25 329.845C878.663 324.035 889.352 335.159 900.496 337.289ZM446.961 333.815C464.866 343.058 483.825 351.785 500.551 361.11C507.829 365.163 514.032 370.56 519.903 374.51C523.005 376.598 525.899 376.743 527.843 379.473C495.403 361.958 461.495 345.912 430.089 327.364C438.484 327.198 440.841 330.652 446.961 333.815ZM485.665 331.334C485.479 330.652 482.853 329.928 484.176 329.349C484.218 330.197 487.402 330.341 485.665 331.334ZM492.116 334.808C490.11 334.994 489.821 333.443 488.642 332.823C490.276 333.009 491.123 333.981 492.116 334.808ZM890.076 341.756C887.285 343.265 884.266 344.547 881.144 345.726C872.832 341.776 864.19 338.199 855.837 334.312C867.643 332.906 880.193 338.075 890.076 341.756ZM358.635 344.733C372.116 346.636 371.785 334.725 382.453 333.815C379.579 341.838 366.906 346.925 358.635 344.733ZM578.952 337.289C578.539 336.173 575.458 335.18 576.471 334.312C577.112 335.18 579.903 336.462 578.952 337.289ZM875.189 347.215C874.714 348.89 872.502 348.828 871.22 349.696C871.261 348.001 869.752 347.856 868.739 347.215C859.952 344.899 852.881 340.908 845.417 337.289C856.995 335.366 864.459 345.106 875.189 347.215ZM747.167 362.103C729.738 370.602 710.799 376.04 695.065 386.42C687.374 387.475 681.812 390.784 676.706 393.865C674.907 394.961 673.398 396.966 671.744 397.835C672.467 397.463 671.082 397.256 670.751 397.339C662.398 399.53 653.921 403.625 647.429 406.768C647.739 404.369 646.768 403.252 647.429 401.805C667.67 398.724 684.231 386.689 702.509 379.473C710.22 376.433 717.229 372.256 724.838 369.051C732.55 365.784 740.965 363.819 747.664 358.629C754.59 356.954 760.751 354.514 765.527 350.689C769.972 349.758 774.335 347.918 778.429 346.222C782.502 344.527 787.443 343.41 789.841 339.771C792.633 341.073 795.961 336.876 798.773 338.282C782.109 345.726 764.535 353.625 747.167 362.103ZM867.25 350.689C866.588 353.005 863.797 353.191 861.792 354.163C853.997 348.559 841.902 347.256 834.004 341.756C846.947 340.267 855.899 347.732 867.25 350.689ZM855.341 356.148C842.688 355.403 835.513 349.179 826.065 345.23C836.857 345.871 846.906 351.495 855.341 356.148ZM848.394 359.622C846.678 360.056 845.293 360.821 843.928 361.607C834.376 357.264 823.087 354.659 814.156 349.696C826.995 346.098 836.526 357.409 848.394 359.622ZM810.186 354.163C819.325 356.044 830.655 359.746 838.47 364.584C836.816 364.75 836.278 366.032 834.004 365.577C825.858 360.304 814.342 358.443 805.72 353.666C806.733 353.191 807.684 352.653 808.697 352.178C808.615 353.418 809.462 353.728 810.186 354.163ZM619.145 356.644C618.277 356.189 616.664 356.479 616.168 355.651C617.367 355.486 620.179 356.21 619.145 356.644ZM830.034 368.058C828.194 368.368 826.912 369.237 825.072 369.547C817.112 363.943 806.216 361.276 797.285 356.644C808.16 356.871 819.635 364.129 830.034 368.058ZM808.697 365.577C813.143 367.086 818.477 368.41 820.606 372.029C817.898 374.034 816.554 370.56 814.156 369.547C813.225 369.154 812.129 369.754 811.178 369.547C808.449 368.927 806.154 366.694 803.239 365.577C798.174 363.633 791.433 364.129 788.849 360.118C796.085 358.939 801.957 363.261 808.697 365.577ZM783.887 363.096C793.604 367.603 805.493 369.94 814.652 375.006C812.605 375.44 811.24 376.557 809.194 376.991C803.404 369.713 791.061 368.989 782.894 364.088C782.956 363.488 783.039 362.909 783.887 363.096ZM805.72 378.48C801.833 380.858 797.822 380.176 793.811 378.48C786.761 375.502 778.739 370.085 772.474 368.058C783.99 364.233 795.362 374.861 805.72 378.48ZM781.406 376.991C786.678 379.1 792.426 379.555 794.803 383.443C792.281 383.401 792.033 385.635 789.345 385.428C783.143 378.728 772.805 376.164 764.038 372.029C770.324 369.713 775.472 374.613 781.406 376.991ZM785.376 387.413C783.287 387.971 781.799 389.129 779.421 389.398C773.632 383.133 762.343 382.326 756.099 376.495C766.354 375.854 778.635 381.272 785.376 387.413ZM751.137 378.976C758.373 381.913 767.574 389.688 775.948 391.383C773.859 391.776 772.722 393.12 770.489 393.368C762.715 388.406 752.75 385.635 744.686 380.961C746.919 380.961 749.173 378.17 751.137 378.976ZM740.717 386.42C749.338 387.434 758.952 391.176 765.031 396.346C762.591 397.214 760.4 398.331 758.084 399.324C751.654 393.182 741.978 390.287 733.273 386.42C735.817 385.986 736.768 383.96 739.724 383.939C739.642 385.18 739.972 386.007 740.717 386.42ZM728.808 389.894C737.574 392.872 745.948 396.243 752.626 401.309C749.318 402.136 747.147 404.121 744.19 405.279C743.487 404.162 743.818 402.012 742.205 401.805C734.08 399.344 728.291 394.568 719.38 392.872C720.992 389.853 725.355 389.605 728.808 388.406V389.894ZM713.921 397.339C725.396 397.773 733.46 401.619 739.724 407.264C737.202 408.215 735.155 409.642 732.281 410.242C731.702 409.497 731.661 408.215 730.792 407.76C721.406 405.568 715.472 399.923 704.99 398.827C708.298 398.91 711.73 393.741 713.921 397.339ZM702.012 403.79C712.267 404.948 720.145 408.484 727.815 412.227C725.148 413.199 723.287 414.977 720.372 415.701C714.087 409.911 702.715 406.561 695.065 403.79C695.851 401.764 698.456 401.557 700.524 400.812C700.503 402.322 700.979 403.335 702.012 403.79ZM578.456 404.783C590.469 409.146 601.406 414.584 613.687 418.678C614.824 418.864 614.349 420.663 615.176 421.16C629.235 428.273 643.356 435.324 656.857 442.996C654.376 445.581 652.247 442.996 649.91 442.003C639.511 437.557 631.757 433.277 622.123 428.604C610.937 423.186 600.227 416.3 589.869 411.234C585.506 409.104 580.854 407.967 577.464 404.783H578.456ZM689.607 407.76C698.601 408.939 708.959 412.826 715.41 418.182C713.735 418.182 712.784 418.864 711.936 419.671C704.866 415.659 695.355 411.441 689.607 407.76ZM682.164 411.234C689.71 411.4 697.484 419.195 705.982 421.656C703.976 422.111 702.881 423.517 700.524 423.641C698.663 421.718 695.251 421.304 692.088 420.663C687.581 416.238 682.743 412.144 676.209 409.745C678.091 409.146 680.117 408.691 682.164 408.257C682.309 409.125 680.758 410.738 682.164 411.234ZM670.255 414.212C679.89 415.328 687.622 422.194 695.065 427.115C693.742 427.446 692.543 427.901 691.592 428.604C682.123 425.171 675.196 419.195 666.285 415.204C666.885 413.488 668.787 413.075 670.751 412.723C670.772 413.405 670.524 413.819 670.255 414.212ZM662.316 418.678C671.826 420.912 676.313 428.17 685.141 431.085C682.784 431.209 681.709 432.595 679.683 433.07C679.766 430.754 678.752 429.328 677.202 428.108C672.219 424.199 661.902 422.566 657.85 418.182C659.462 418.203 662.274 415.887 662.316 418.678ZM665.789 428.604C670.193 430.61 674.473 430.796 677.698 434.063C675.879 434.559 674.886 435.882 672.736 436.048C667.174 429.038 656.196 427.446 649.414 421.656C657.56 419.919 660.124 426.019 665.789 428.604ZM668.766 438.529C666.285 438.86 664.652 440.039 662.316 440.514C659.504 432.409 648.959 432.036 644.452 425.626C653.466 429.017 661.799 433.07 668.766 438.529ZM643.46 431.581C642.405 430.361 637.092 428.542 638.001 428.604C640.358 428.728 643.79 430.403 643.46 431.581Z" fill="black" fill-opacity="0.04"/>
</svg>
