<svg width="163" height="31" viewBox="0 0 163 31" fill="none" xmlns="http://www.w3.org/2000/svg">
<path d="M0.199707 30.7194H30.1296V0.816406H0.199707V30.7194Z" fill="#00B67A"/>
<path d="M25.7141 13.5371L8.73818 25.858L11.2153 18.2432L4.73096 13.5371H12.7459L15.2225 5.92188L17.6991 13.5371H25.7141ZM15.2231 21.1524L19.8593 20.178L21.7064 25.858L15.2231 21.1524Z" fill="white"/>
<path d="M33.2739 30.7194H63.2038V0.816406H33.2739V30.7194Z" fill="#00B67A"/>
<path d="M33.2739 30.7194H48.2389V0.816406H33.2739V30.7194Z" fill="#00B67A"/>
<path d="M48.597 21.0384L52.5725 20.18L54.4112 25.9889L48.1767 21.34L41.699 25.9889L44.2132 18.3466L37.6313 13.6234H45.7667L48.2799 5.98047L50.794 13.6234H58.9289L48.597 21.0384Z" fill="white"/>
<path d="M66.3721 30.7194H96.302V0.816406H66.3721V30.7194Z" fill="#00B67A"/>
<path d="M66.3721 30.7194H81.337V0.816406H66.3721V30.7194Z" fill="#00B67A"/>
<path d="M91.8869 13.5371L74.911 25.858L77.3881 18.2432L70.9038 13.5371H78.9188L81.3954 5.92188L83.872 13.5371L91.8869 13.5371ZM81.396 21.1524L86.0321 20.178L87.8793 25.858L81.396 21.1524Z" fill="white"/>
<path d="M99.4692 30.7194H129.399V0.816406H99.4692V30.7194Z" fill="#00B67A"/>
<path d="M99.4692 30.7194H114.434V0.816406H99.4692V30.7194Z" fill="#00B67A"/>
<path d="M124.983 13.5371L108.008 25.858L110.484 18.2432L104 13.5371H112.015L114.492 5.92188L116.968 13.5371L124.983 13.5371ZM114.492 21.1524L119.128 20.178L120.975 25.858L114.492 21.1524Z" fill="white"/>
<path d="M132.544 30.7194H162.474V0.816406H132.544V30.7194Z" fill="#DCDCE6"/>
<path d="M132.544 30.7194H147.509V0.816406H132.544V30.7194Z" fill="#00B67A"/>
<path d="M158.057 13.5371L141.082 25.858L143.559 18.2432L137.074 13.5371H145.089L147.566 5.92188L150.042 13.5371H158.057ZM147.566 21.1524L152.203 20.178L154.05 25.858L147.566 21.1524Z" fill="white"/>
</svg>
