<svg width="16" height="16" viewBox="0 0 16 16" fill="none" xmlns="http://www.w3.org/2000/svg">
<path fill-rule="evenodd" clip-rule="evenodd" d="M4.70171 0.048C5.55543 0.0102857 5.82629 0 8 0C10.1737 0 10.4457 0.008 11.2983 0.048C12.1497 0.0868571 12.7303 0.221714 13.24 0.420571C13.7669 0.622857 14.2126 0.898286 14.6571 1.34286C15.1017 1.78743 15.376 2.23429 15.5806 2.76C15.7771 3.26971 15.912 3.85029 15.952 4.70286C15.9897 5.55543 16 5.82629 16 8C16 10.1737 15.992 10.4457 15.952 11.2983C15.9131 12.1497 15.7771 12.7303 15.5806 13.24C15.38 13.7742 15.0648 14.2579 14.6571 14.6571C14.2574 15.0641 13.7738 15.3792 13.24 15.5806C12.7303 15.7771 12.1497 15.912 11.2971 15.952C10.4457 15.9897 10.1749 16 8 16C5.82629 16 5.55429 15.992 4.70171 15.952C3.85029 15.9131 3.27086 15.7771 2.76 15.5806C2.22593 15.3798 1.74224 15.0646 1.34286 14.6571C0.897143 14.2126 0.624 13.7657 0.419429 13.24C0.221714 12.7303 0.088 12.1497 0.048 11.2971C0.0102857 10.4457 0 10.1749 0 8C0 5.82629 0.008 5.55429 0.048 4.70171C0.0868571 3.85029 0.221714 3.26971 0.420571 2.76C0.622857 2.23429 0.898286 1.78743 1.34286 1.34286C1.78743 0.897143 2.23429 0.624 2.76 0.419429C3.26971 0.221714 3.84914 0.088 4.70171 0.048ZM8.57257 5.39543C8.23053 5.31994 7.87698 5.31255 7.53209 5.3737C7.1872 5.43485 6.85773 5.56333 6.56249 5.7518C5.96623 6.13245 5.5456 6.73437 5.39314 7.42514C5.24068 8.11592 5.36887 8.83897 5.74952 9.43522C6.13016 10.0315 6.73208 10.4521 7.42286 10.6046C7.76497 10.6801 8.1186 10.6874 8.46356 10.6263C8.80852 10.5651 9.13805 10.4366 9.43334 10.248C9.72863 10.0595 9.9839 9.81465 10.1846 9.52747C10.3852 9.24029 10.5274 8.9164 10.6029 8.57429C10.6783 8.23217 10.6857 7.87854 10.6245 7.53358C10.5634 7.18862 10.4348 6.85909 10.2463 6.5638C10.0578 6.26851 9.81294 6.01324 9.52576 5.81258C9.23858 5.61191 8.91468 5.46978 8.57257 5.39429V5.39543ZM12.2709 4.69029C12.5256 4.69013 12.7699 4.58879 12.9499 4.40854C13.13 4.22829 13.231 3.9839 13.2309 3.72914C13.2307 3.47438 13.1294 3.23012 12.9491 3.05008C12.7689 2.87005 12.5245 2.76899 12.2697 2.76914C12.0151 2.76914 11.7709 2.87029 11.5909 3.05032C11.4109 3.23036 11.3097 3.47454 11.3097 3.72914C11.3097 3.98375 11.4109 4.22793 11.5909 4.40797C11.7709 4.588 12.0151 4.68914 12.2697 4.68914L12.2709 4.69029ZM12 8C12 9.06087 11.5786 10.0783 10.8284 10.8284C10.0783 11.5786 9.06087 12 8 12C6.93913 12 5.92172 11.5786 5.17157 10.8284C4.42143 10.0783 4 9.06087 4 8C4 6.93913 4.42143 5.92172 5.17157 5.17157C5.92172 4.42143 6.93913 4 8 4C9.06087 4 10.0783 4.42143 10.8284 5.17157C11.5786 5.92172 12 6.93913 12 8Z" fill="black"/>
</svg>
