<svg width="16" height="16" viewBox="0 0 16 16" fill="none" xmlns="http://www.w3.org/2000/svg">
<path fill-rule="evenodd" clip-rule="evenodd" d="M5.94345 5.57525H8.91423V7.05529C9.34249 6.20442 10.4402 5.43921 12.0884 5.43921C15.25 5.43921 16.0001 7.13338 16.0001 10.2427V16.0004H12.8001V10.9506C12.8001 9.18024 12.3718 8.182 11.2823 8.182C9.77076 8.182 9.14347 9.25771 9.14347 10.95V16.0004H5.94345V5.57462V5.57525ZM0.455977 15.8643H3.656V5.43921H0.456607V15.8643H0.455977ZM4.1145 2.04017C4.11457 2.30841 4.06132 2.574 3.95785 2.82148C3.85438 3.06896 3.70275 3.29342 3.51178 3.48179C3.12412 3.86437 2.60141 4.07894 2.05675 4.07906C1.51209 4.07918 0.989287 3.86484 0.601461 3.48242C0.411286 3.29338 0.260269 3.06869 0.157061 2.82121C0.0538524 2.57372 0.00047993 2.30831 0 2.04017C0 1.49854 0.216022 0.980212 0.602721 0.597921C0.990039 0.214852 1.51281 0 2.05757 0C2.60232 0 3.12509 0.214852 3.51241 0.597921C3.89785 0.980212 4.1145 1.49854 4.1145 2.04017Z" fill="black"/>
</svg>
