<svg width="107" height="40" viewBox="0 0 107 40" fill="none" xmlns="http://www.w3.org/2000/svg">
<rect width="106.236" height="40" transform="translate(0.434326)" fill="white"/>
<path d="M31.9923 26.1998V15.7088C31.9939 15.2097 32.1942 14.7317 32.5491 14.3794C32.9041 14.0271 33.3849 13.8292 33.8861 13.8292H38.4819C40.8939 13.8292 42.2511 15.242 42.2511 16.9987C42.2613 17.6356 42.0583 18.2578 41.6741 18.7672C41.2899 19.2766 40.7462 19.6442 40.129 19.8119C40.8099 19.9744 41.4161 20.3602 41.8502 20.9072C42.2842 21.4542 42.5211 22.1306 42.5225 22.8277C42.5225 24.7564 41.1469 26.1998 38.6361 26.1998H31.9923ZM39.7218 17.3795C39.7218 16.5257 39.105 15.9606 38.118 15.9606H34.4783V18.7983H38.118C38.3194 18.8228 38.5237 18.8042 38.7173 18.744C38.911 18.6838 39.0896 18.5832 39.2412 18.4491C39.3929 18.3149 39.5142 18.1501 39.597 17.9657C39.6799 17.7814 39.7224 17.5815 39.7218 17.3795ZM39.9933 22.5084C39.9888 22.2866 39.9377 22.0682 39.8435 21.8673C39.7492 21.6664 39.6138 21.4873 39.446 21.3415C39.2781 21.1958 39.0814 21.0866 38.8686 21.021C38.6559 20.9554 38.4317 20.9347 38.2105 20.9605H34.4783V24.0316H38.2105C39.29 24.0623 39.9933 23.4788 39.9933 22.5084Z" fill="#E5653C"/>
<path d="M44.941 24.9582V15.0629C44.941 14.7371 45.071 14.4247 45.3024 14.1943C45.5338 13.9639 45.8476 13.8345 46.1749 13.8345C46.5021 13.8345 46.8159 13.9639 47.0473 14.1943C47.2786 14.4247 47.4086 14.7371 47.4086 15.0629V24.9582C47.4086 25.284 47.2786 25.5965 47.0473 25.8269C46.8159 26.0573 46.5021 26.1867 46.1749 26.1867C45.8476 26.1867 45.5338 26.0573 45.3024 25.8269C45.071 25.5965 44.941 25.284 44.941 24.9582Z" fill="#E5653C"/>
<path d="M53.165 25.1311V15.9607H50.5555C50.4144 15.9615 50.2745 15.9343 50.1438 15.8809C50.0132 15.8275 49.8946 15.7488 49.7948 15.6494C49.6949 15.55 49.6159 15.4318 49.5623 15.3019C49.5086 15.1718 49.4814 15.0325 49.4822 14.8919C49.4822 14.7518 49.51 14.6131 49.564 14.4838C49.618 14.3544 49.6972 14.2371 49.7969 14.1383C49.8967 14.0395 50.0151 13.9614 50.1453 13.9084C50.2755 13.8553 50.4149 13.8284 50.5555 13.8292H58.2173C58.3576 13.8284 58.4968 13.8554 58.6266 13.9085C58.7566 13.9616 58.8745 14.0398 58.9737 14.1387C59.073 14.2375 59.1516 14.355 59.205 14.4843C59.2583 14.6135 59.2853 14.7521 59.2845 14.8919C59.2853 15.0319 59.2583 15.1708 59.205 15.3004C59.1518 15.43 59.0733 15.5479 58.9742 15.6472C58.8749 15.7466 58.757 15.8253 58.6271 15.8792C58.4973 15.9329 58.358 15.9607 58.2173 15.9607H55.6264V25.1311C55.6264 25.4146 55.5133 25.6864 55.312 25.8869C55.1107 26.0873 54.8377 26.1999 54.553 26.1999H54.2384C54.0974 26.1999 53.9579 26.1722 53.8276 26.1186C53.6974 26.0648 53.5791 25.9861 53.4794 25.8869C53.3797 25.7876 53.3007 25.6698 53.2467 25.5401C53.1928 25.4105 53.165 25.2714 53.165 25.1311Z" fill="#E5653C"/>
<path d="M61.3441 24.6458V13.8292H67.8276C70.2458 13.8292 71.5967 15.242 71.5967 16.9987C71.607 17.6356 71.4039 18.2578 71.0197 18.7672C70.6355 19.2766 70.0919 19.6442 69.4746 19.8119C70.1578 19.9721 70.7668 20.3568 71.2033 20.904C71.6398 21.4512 71.8784 22.1289 71.8805 22.8277C71.8805 24.7564 70.5049 26.1998 67.9941 26.1998H62.9171C62.7112 26.2015 62.5069 26.1625 62.3161 26.0851C62.1253 26.0077 61.9519 25.8935 61.8056 25.7491C61.6594 25.6046 61.5433 25.4327 61.4641 25.2434C61.3849 25.054 61.3441 24.8509 61.3441 24.6458ZM69.0675 17.3795C69.0675 16.5257 68.4507 15.9606 67.4636 15.9606H63.861V18.7983H67.4945C67.6934 18.8181 67.8944 18.7961 68.0843 18.7338C68.2743 18.6715 68.449 18.5701 68.5972 18.4365C68.7454 18.3028 68.8639 18.1397 68.9449 17.9576C69.0259 17.7756 69.0676 17.5786 69.0675 17.3795ZM69.3389 22.5084C69.3343 22.2872 69.2835 22.0694 69.1896 21.8689C69.0957 21.6685 68.9609 21.4897 68.7936 21.344C68.6265 21.1984 68.4306 21.089 68.2186 21.023C68.0066 20.9569 67.7831 20.9357 67.5623 20.9605H63.861V24.0316H67.5623C68.6419 24.0623 69.3389 23.4788 69.3389 22.5084Z" fill="#E5653C"/>
<path d="M74.2864 21.3404V15.0629C74.2864 14.7371 74.4164 14.4247 74.6477 14.1943C74.8791 13.9639 75.1929 13.8345 75.5201 13.8345C75.8473 13.8345 76.1609 13.9639 76.3923 14.1943C76.6236 14.4247 76.7538 14.7371 76.7538 15.0629V21.1377C76.7538 23.0479 77.883 24.3071 79.9186 24.3071C81.9543 24.3071 83.0767 23.0787 83.0767 21.1377V15.0629C83.0767 14.7371 83.2069 14.4247 83.4382 14.1943C83.6696 13.9639 83.9833 13.8345 84.3111 13.8345C84.6382 13.8345 84.9519 13.9639 85.1832 14.1943C85.4146 14.4247 85.5448 14.7371 85.5448 15.0629V21.3404C85.5448 24.4115 83.6939 26.4693 79.8998 26.4693C76.1063 26.4693 74.2864 24.3993 74.2864 21.3404Z" fill="#E5653C"/>
<path d="M92.2391 25.0697V21.0465L88.3836 15.6105C88.2635 15.4414 88.1927 15.2429 88.1785 15.0366C88.1644 14.8302 88.2075 14.6239 88.3026 14.4402C88.3984 14.2565 88.5428 14.1024 88.7202 13.9946C88.8976 13.8869 89.1006 13.8297 89.3084 13.8292H89.3454C89.5303 13.8296 89.7117 13.8744 89.8749 13.96C90.0382 14.0456 90.1785 14.1693 90.283 14.3206L93.4728 18.9581L96.5938 14.3268C96.6976 14.1727 96.8386 14.0467 97.0032 13.9598C97.1678 13.873 97.3513 13.8282 97.5381 13.8292C97.7458 13.8297 97.9495 13.8869 98.1263 13.9946C98.3037 14.1024 98.448 14.2565 98.5438 14.4402C98.6389 14.6239 98.6821 14.8302 98.6679 15.0366C98.6537 15.2429 98.5829 15.4414 98.4635 15.6105L94.6633 21.0526V25.0697C94.6633 25.3694 94.5439 25.6569 94.3308 25.8689C94.1176 26.0808 93.8289 26.1999 93.5281 26.1999H93.3615C93.0627 26.1967 92.7774 26.0761 92.5669 25.8645C92.3565 25.6529 92.2391 25.3674 92.2391 25.0697Z" fill="#E5653C"/>
<path d="M25.7935 16.1638C25.7935 13.8717 24.879 11.6735 23.2513 10.0527C21.6236 8.432 19.4159 7.52148 17.1139 7.52148C14.8119 7.52148 12.6043 8.432 10.9765 10.0527C9.34878 11.6735 8.43433 13.8717 8.43433 16.1638V23.8416C8.43514 25.1437 8.73142 26.4287 9.30103 27.6007C9.87064 28.7728 10.6988 29.8015 11.7238 30.6101C12.7487 31.4186 13.9439 31.9862 15.2201 32.2703C16.4963 32.5544 17.8204 32.5477 19.0936 32.2507C20.3667 31.9537 21.5561 31.3741 22.5728 30.5553C23.5894 29.7363 24.4072 28.6993 24.9648 27.5216C25.5224 26.3439 25.8056 25.0559 25.7931 23.7539C25.7807 22.452 25.4729 21.1696 24.8929 20.0027C25.4855 18.809 25.7937 17.4953 25.7935 16.1638ZM17.1139 15.1933C15.8312 15.1981 14.603 15.7101 13.6995 16.6167C12.796 17.5233 12.2911 18.7501 12.296 20.0272C12.3009 21.3044 12.8152 22.5273 13.7257 23.427C14.6361 24.3267 15.8682 24.8293 17.1509 24.8244C18.3645 24.8236 19.564 24.567 20.6708 24.0715C21.7776 23.5761 22.7666 22.853 23.5727 21.9498C23.8474 22.8729 23.9193 23.8441 23.7836 24.7973C23.6478 25.7506 23.3075 26.6635 22.7858 27.4741C22.2642 28.2848 21.5733 28.9741 20.7603 29.4953C19.9473 30.0164 19.0311 30.3571 18.074 30.4943C17.1169 30.6316 16.1414 30.5621 15.2137 30.2904C14.2861 30.0189 13.428 29.5516 12.6978 28.9205C11.9676 28.2894 11.3825 27.5091 10.9821 26.6327C10.5817 25.7564 10.3755 24.8044 10.3775 23.8416V16.1638C10.3775 14.3848 11.0872 12.6788 12.3506 11.4209C13.6139 10.163 15.3273 9.45631 17.1139 9.45631C18.9005 9.45631 20.614 10.163 21.8773 11.4209C23.1406 12.6788 23.8503 14.3848 23.8503 16.1638C23.8516 16.8085 23.758 17.4501 23.5727 18.0678C22.7609 17.1618 21.7657 16.4373 20.6525 15.9418C19.5393 15.4463 18.3333 15.1912 17.1139 15.1933ZM22.6659 20.0027C22.0502 20.8855 21.2296 21.6073 20.2737 22.1067C19.3179 22.6061 18.255 22.8684 17.1756 22.8711C16.4338 22.837 15.7338 22.5195 15.2209 21.9847C14.7081 21.45 14.422 20.739 14.422 19.9996C14.422 19.2603 14.7081 18.5492 15.2209 18.0145C15.7338 17.4797 16.4338 17.1622 17.1756 17.1281C18.2498 17.1396 19.3057 17.4064 20.2553 17.9064C21.205 18.4065 22.0209 19.1251 22.6351 20.0027H22.6659Z" fill="url(#paint0_linear_17_1064)"/>
<defs>
<linearGradient id="paint0_linear_17_1064" x1="12.0369" y1="9.1492" x2="22.2049" y2="31.074" gradientUnits="userSpaceOnUse">
<stop offset="0.08" stop-color="#E5653C"/>
<stop offset="1" stop-color="#E2A432"/>
</linearGradient>
</defs>
</svg>
