<svg width="41" height="40" viewBox="0 0 41 40" fill="none" xmlns="http://www.w3.org/2000/svg">
<rect width="41.2793" height="40" transform="translate(-0.00756836)" fill="white"/>
<g clip-path="url(#clip0_17_1125)">
<path d="M33.029 31.9406C33.029 33.0193 32.5975 33.5947 31.7345 33.9542C28.4263 35.2488 24.5428 35.896 20.8031 35.896C17.0634 35.896 13.1798 35.2488 9.87166 33.9542C9.00865 33.5947 8.57715 33.0193 8.57715 31.9406V3.74902H33.029V31.9406Z" fill="#0059B3"/>
<path d="M54.9397 28.3954C54.9397 30.4408 54.1215 31.5317 52.4852 32.2135C46.2126 34.668 38.8492 35.8952 31.7584 35.8952C24.6677 35.8952 17.3042 34.668 11.0316 32.2135C9.39531 31.5317 8.57715 30.4408 8.57715 28.3954V-25.0579H54.9397V28.3954Z" stroke="white" stroke-width="1.3636"/>
<path d="M15.0491 21.1024C11.7064 19.0399 10.5685 18.1153 10.4974 16.6929C10.4974 16.4084 10.5685 15.9106 10.6396 15.6261L10.3551 15.4127C10.0706 15.8395 9.92841 16.3373 9.92841 16.8352C9.92841 17.6175 10.2129 18.2576 10.4974 18.6843C10.9952 19.3955 11.4931 19.8933 12.7021 20.7468C13.9823 21.7425 14.9068 22.8804 15.4047 24.0894H15.618V22.7381C17.396 23.7338 18.9607 24.6584 19.743 26.3653H19.9564C19.6008 24.6584 18.6051 23.3071 15.0491 21.1024ZM24.8637 16.5507C24.1525 16.9063 23.6546 17.333 23.1568 17.9731L24.6503 17.902C24.7214 17.1908 24.7925 16.764 24.8637 16.5507ZM30.2688 21.8847C30.411 21.5291 30.5533 21.1024 30.5533 20.7468L28.3485 20.6045C28.2774 21.1735 28.1352 21.6713 27.9218 22.1692L30.2688 21.8847ZM27.9218 16.4084C28.0641 16.8352 28.2063 17.2619 28.2774 17.6175L29.5576 17.5464C29.1309 17.0485 28.5619 16.6929 27.9218 16.4084ZM27.3529 17.6886C27.2106 17.1908 26.9973 16.6218 26.7128 16.124H26.0016C25.7882 16.6218 25.646 17.1908 25.5037 17.7597L27.3529 17.6886ZM28.4197 18.3998C28.4908 18.9688 28.4908 19.4666 28.4908 19.9644L30.6244 19.8222C30.5533 19.3244 30.411 18.8976 30.1977 18.4709L28.4197 18.3998ZM27.7085 19.9644C27.7085 19.3955 27.6373 18.8976 27.4951 18.3287L25.3615 18.2576C25.2193 18.8976 25.1481 19.5377 25.077 20.1067L27.7085 19.9644ZM27.9929 15.4127L28.2774 15.0571L27.9218 14.5593L27.9929 14.4171L29.0598 14.986L28.8464 15.6972C28.9886 15.7683 29.202 15.9106 29.4154 16.0528L30.1266 14.9149L28.3485 13.9903H24.3658L21.0943 15.9106C21.7344 16.3373 22.2322 16.764 22.6589 17.2619C23.5124 15.9817 25.077 15.1994 26.5705 15.1994C26.9261 15.1994 27.4951 15.2705 27.9929 15.4127ZM19.9564 15.3416L21.7344 14.2748C21.3788 14.0615 20.952 13.9903 20.5253 13.9903C19.8852 13.9903 18.8896 14.2748 18.3917 14.3459C18.6051 14.4882 19.4585 14.986 19.9564 15.3416ZM20.3831 11.2878C19.743 11.1455 19.3874 11.2167 19.0318 11.5723C19.2452 11.6434 19.4585 11.7145 19.6719 11.7145C20.0275 11.6434 20.2408 11.43 20.3831 11.2878ZM30.4822 26.4364H30.2688C30.2688 25.1562 29.1309 24.8717 27.9218 24.8717H24.1525C24.2947 25.5118 24.2947 26.223 24.2236 26.8631H24.0102C23.6546 24.0894 22.09 22.667 19.8852 21.1735V22.4537H19.6719C19.1029 21.1024 17.8228 19.8933 16.5426 19.0399L15.5469 18.3287V19.68H15.3335C14.8357 18.3287 13.84 17.2619 12.5599 16.0528C11.1374 14.7727 10.4974 13.9903 10.2129 13.0658C9.99953 12.4968 9.92841 12.0701 9.92841 11.5011C9.92841 10.4343 10.4262 9.43865 11.1374 9.08305V9.58089C10.7818 10.0076 10.6396 10.5766 10.6396 11.1455C10.6396 11.6434 10.7818 12.2835 10.9952 12.7813C11.8487 14.3459 14.5512 16.2662 16.3292 17.4041C21.8055 21.0312 22.8723 21.6713 23.7969 23.6627C23.868 23.8761 24.0102 24.1605 24.0813 24.5161C24.8637 24.3739 27.7085 23.9472 28.2774 23.8761C28.3485 23.8761 28.5619 23.8049 28.7041 23.8049C29.202 23.5205 29.5576 23.0937 29.9132 22.5959L27.8507 22.4537C27.7796 22.667 27.6373 22.8804 27.5662 23.0226H27.424C27.4951 22.8093 27.4951 22.5959 27.5662 22.3825L26.9973 22.3114V22.1692L27.5662 22.0981C27.7085 21.5291 27.7085 20.9601 27.7085 20.4623L25.077 20.32V21.1024H24.9348C24.8637 20.8179 24.8637 20.6045 24.7925 20.32H24.2236V20.1778H24.7925C24.7214 19.5377 24.7214 18.8976 24.7214 18.2576L23.1568 18.1864L23.3701 18.6132C23.7257 19.5377 23.6546 20.6045 23.5124 21.1024H23.299C23.299 20.5334 23.0857 19.8222 22.8723 19.3955C22.4456 18.3998 21.521 17.4752 19.8852 16.4796V17.7597H19.6719C19.174 16.0528 17.8228 15.1283 15.8314 14.1326C14.1956 13.2791 13.6978 12.2835 13.7689 10.7188L14.3379 11.0744C14.4801 12.4968 15.618 13.3503 16.7559 13.3503C17.4672 13.3503 18.1072 13.2791 18.7473 13.1369C19.6719 12.9235 20.4542 12.7813 21.1654 13.0658V12.2123H20.5964C20.3831 12.3546 20.0275 12.5679 19.4585 12.5679C18.8184 12.5679 17.6094 12.2123 17.6094 10.8611C17.6094 9.65201 18.6051 9.50977 19.3874 9.50977H20.8098C21.0232 9.50977 21.0943 9.43865 21.2365 9.36753C21.3076 9.29641 21.3788 9.15417 21.3788 9.08305V7.58952H17.6094V9.08305L16.187 8.51409V8.15848H16.8982V7.58952H14.409V6.38048H13.5555C13.0577 6.38048 12.5599 6.66496 12.4887 7.30504C12.4887 7.94512 12.7021 8.44297 13.3422 8.44297H13.4844V9.15417H13.3422C12.2754 9.15417 11.4219 8.37184 11.4219 7.23392C11.4219 6.096 12.3465 5.24255 13.5555 5.24255H15.4047V6.4516H22.5167V8.30072C22.5167 8.58521 22.5167 9.01193 22.4456 9.29641C22.4456 9.50977 22.3744 9.79425 22.0188 10.0787C21.8055 10.221 21.4499 10.2921 20.952 10.2921C20.5253 10.2921 20.0986 10.2921 19.6719 10.221C18.8896 10.1499 18.6051 10.5055 18.6051 10.7899V11.0033C18.9607 10.7188 19.5296 10.5055 20.0986 10.7188C21.1654 11.0744 21.4499 11.0744 22.0188 10.6477L22.09 10.7899C22.0188 10.8611 21.9477 11.0033 21.7344 11.1455H22.2322V13.9903L23.868 12.9947H28.4197L30.6244 14.1326C30.9089 14.2748 30.98 14.4882 31.0511 14.7015C31.0511 14.9149 31.0511 15.1994 30.9089 15.3416C30.8378 15.4839 30.3399 16.3373 30.0554 16.764C30.9089 17.6886 31.3356 18.8265 31.3356 20.0356C31.3356 21.2446 30.9089 22.7381 29.4865 23.8761C30.0554 24.0183 30.4822 24.3739 30.8378 24.8717L30.4822 26.4364Z" fill="#FFDF01"/>
<path d="M20.8098 32.4816H19.9564V29.9924H20.8098C21.9478 29.9924 22.3745 30.348 22.3745 31.2015C22.3034 32.0549 21.7344 32.4816 20.8098 32.4816ZM20.7387 27.5743C21.4499 27.5743 21.8766 27.7166 21.8766 28.4278C21.8766 29.2101 21.2366 29.4235 20.5254 29.4235H19.8853V27.5743H20.7387ZM22.09 29.6368C22.7301 29.5657 23.299 29.0679 23.299 28.3567C23.299 27.7166 23.0146 27.0054 21.0943 27.0054H17.8939V27.0765C17.965 27.0765 18.1784 27.2187 18.2495 27.2899C18.4629 27.5032 18.534 27.7877 18.534 28.2144V33.0506H21.1654C22.659 33.0506 23.6546 32.4816 23.6546 31.2015C23.7258 30.1347 22.9434 29.7079 22.09 29.6368ZM13.0577 27.5743H13.9823C14.7646 27.5743 15.1913 27.7877 15.1913 28.6411C15.1913 29.3523 14.6935 29.8502 13.84 29.8502H13.1288V27.5743H13.0577ZM15.5469 33.0506H17.2538L15.0491 30.2058C15.9025 29.9924 16.6137 29.4946 16.6137 28.57C16.6137 27.5032 15.9737 27.0054 14.409 27.0054H10.9952V27.0765C11.1375 27.1476 11.2797 27.2187 11.3508 27.2899C11.5642 27.5032 11.6353 27.8588 11.6353 28.3567V33.0506H13.0577V30.348H13.5556L15.5469 33.0506ZM29.3443 27.8588C29.6999 28.0722 29.8421 28.3567 29.8421 28.3567H29.9132L30.1977 27.361C30.1977 27.361 29.6287 27.0054 28.3486 27.0054C26.3572 27.0054 24.9348 28.0011 24.9348 30.1347C24.9348 32.5527 26.7128 33.1928 28.2063 33.1928C29.6287 33.1928 30.1977 32.7661 30.1977 32.7661V32.0549C30.1977 32.0549 29.6999 32.5528 28.6331 32.5528C27.7085 32.5528 26.4283 32.126 26.4283 30.1347C26.4283 28.2855 27.2107 27.7166 28.2775 27.7166C28.8464 27.5743 29.1309 27.7166 29.3443 27.8588Z" fill="white"/>
</g>
<defs>
<clipPath id="clip0_17_1125">
<rect width="25.2793" height="32.502" fill="white" transform="translate(7.99243 3.74902)"/>
</clipPath>
</defs>
</svg>
