<svg width="150" height="40" viewBox="0 0 150 40" fill="none" xmlns="http://www.w3.org/2000/svg">
<rect width="149.322" height="40" transform="translate(0.306152)" fill="white"/>
<g clip-path="url(#clip0_17_1095)">
<path d="M41.2443 16.3469C37.6567 16.3419 34.7458 19.2503 34.7433 22.8404C34.7408 26.4331 37.6491 29.344 41.2368 29.3465C44.8245 29.3465 47.7328 26.4356 47.7328 22.8455C47.7328 19.2578 44.8295 16.3494 41.2443 16.3469ZM41.2443 25.7086C39.6644 25.6985 38.3913 24.4078 38.3989 22.8253C38.4064 21.2454 39.692 19.9673 41.272 19.9698C42.852 19.9748 44.1326 21.2579 44.1326 22.8404C44.1326 23.6028 43.8282 24.3374 43.2847 24.8758C42.7438 25.4142 42.0092 25.7136 41.2443 25.7086Z" fill="#CD2A2A"/>
<path d="M56.0076 16.6538H54.2364V12.8221H50.3519V16.6538H48.5807V20.1736H50.3519V29.0295H54.2364V20.1736H56.0076V16.6538Z" fill="#CD2A2A"/>
<path d="M57.7838 16.6539H61.6633V29.0246H57.7838V16.6539Z" fill="#CD2A2A"/>
<path d="M59.7261 10.661C58.8505 10.6585 58.058 11.1843 57.7209 11.9944C57.3838 12.802 57.5674 13.7354 58.1863 14.3569C58.8052 14.9783 59.7386 15.1645 60.5462 14.8298C61.3564 14.4952 61.8847 13.7052 61.8847 12.8272C61.8847 11.6347 60.9211 10.6635 59.7261 10.661Z" fill="#CD2A2A"/>
<path d="M115.362 19.99C116.635 19.995 117.667 21.0265 117.67 22.3021V29.0446H121.549V21.8215C121.549 18.5383 119.652 16.3998 116.653 16.3998C115.42 16.3998 114.122 16.9382 113.053 18.6716V16.7017H109.168V29.0446H113.02V22.3021C113.02 21.6831 113.269 21.0919 113.71 20.6567C114.15 20.2239 114.744 19.9824 115.362 19.99Z" fill="#CD2A2A"/>
<path d="M135.686 29.0295L130.923 22.8455L135.351 16.6539H130.818L127.255 21.6655V10.9705H123.378V29.0295H127.255V23.9298L131.165 29.0295H135.686Z" fill="#CD2A2A"/>
<path d="M21.4066 25.696C21.7034 24.9739 21.8468 24.1965 21.8267 23.4166C21.8544 22.2693 21.4594 21.1498 20.7172 20.2717C19.8895 19.361 18.473 18.6037 16.5106 18.0276C16.1307 17.9294 15.7609 17.7961 15.4036 17.6326C15.0942 17.4816 14.8174 17.2753 14.5835 17.0237C14.3394 16.747 14.2111 16.3872 14.2287 16.0174C14.2363 15.479 14.5382 14.9858 15.0162 14.7368C15.9949 14.3066 17.1094 14.3066 18.0856 14.7368C18.5208 14.8953 18.9385 15.0915 19.3385 15.323L20.9864 12.0397C20.2492 11.5844 19.4567 11.2346 18.624 10.9956C17.7661 10.7742 16.8855 10.661 15.9999 10.661C15.1571 10.6459 14.3193 10.7843 13.5268 11.0686C12.8223 11.3428 12.1808 11.763 11.6449 12.2964C11.1065 12.8348 10.6788 13.4763 10.392 14.1808C10.1077 14.9053 9.9668 15.6802 9.97183 16.4576C10.0171 17.7005 10.5429 18.8754 11.4336 19.7409C12.2839 20.4856 13.2802 21.0441 14.3595 21.3762C14.8728 21.5724 15.4414 21.7486 15.8037 21.8869C16.176 22.0278 16.5333 22.2064 16.8654 22.4253C17.1044 22.5964 17.2981 22.8203 17.4314 23.082C17.5472 23.331 17.5899 23.6053 17.5547 23.877C17.517 24.2896 17.3182 24.672 17.0037 24.9412C16.488 25.3161 15.854 25.4897 15.22 25.4318C14.4702 25.4117 13.7331 25.2356 13.0538 24.9135C12.46 24.6292 11.8839 24.3097 11.3279 23.955L9.36047 27.3363C10.9128 28.6119 12.8525 29.3189 14.8577 29.339C15.8515 29.339 16.8402 29.183 17.7837 28.8736C18.5963 28.6018 19.3486 28.1817 20.0027 27.6332C20.6015 27.0923 21.0795 26.4331 21.4066 25.696Z" fill="#CD2A2A"/>
<path d="M138.423 24.7047C137.545 24.6997 136.753 25.223 136.413 26.0306C136.073 26.8382 136.254 27.7716 136.871 28.3956C137.487 29.0195 138.418 29.2082 139.231 28.8761C140.041 28.5415 140.572 27.754 140.574 26.876C140.577 25.6834 139.616 24.7123 138.423 24.7047ZM138.423 28.5968C137.721 28.5993 137.087 28.1792 136.818 27.5326C136.546 26.8835 136.695 26.1388 137.188 25.6407C137.683 25.1425 138.428 24.9941 139.077 25.2633C139.724 25.53 140.146 26.1614 140.146 26.8634C140.149 27.3238 139.968 27.7641 139.643 28.0886C139.321 28.4132 138.881 28.5968 138.423 28.5968Z" fill="#CD2A2A"/>
<path d="M138.416 27.2256H138.068V28.0458H137.648V25.6833H138.546C138.982 25.6833 139.334 26.0356 139.334 26.4708C139.326 26.7677 139.15 27.0344 138.881 27.1602L139.379 28.0458H138.869L138.416 27.2256ZM138.068 26.8306H138.567C138.765 26.8306 138.926 26.6696 138.926 26.4708C138.926 26.2696 138.765 26.1085 138.567 26.1085H138.068V26.8306Z" fill="#CD2A2A"/>
<path d="M32.0288 24.6393C31.0401 25.8721 29.2412 26.0709 28.0085 25.0846C26.7757 24.0959 26.5744 22.2945 27.5606 21.0617C28.5494 19.8264 30.3482 19.6277 31.581 20.6139C31.7446 20.7447 31.8955 20.8932 32.0288 21.0542L34.5925 18.4804C33.3673 17.1269 31.6238 16.357 29.7973 16.3595C26.2222 16.347 23.1377 18.9006 23.1377 22.8405C23.1377 26.7778 26.2549 29.339 29.83 29.339C31.659 29.339 33.4025 28.5666 34.6328 27.2131L32.0288 24.6393Z" fill="#CD2A2A"/>
<path d="M76.8368 29.0447V16.6539H73.0579V17.9672L72.7032 17.6603C71.8226 16.8149 70.6452 16.3419 69.425 16.347C66.0839 16.347 63.2635 19.3207 63.2635 22.8405C63.2635 26.3577 66.0914 29.339 69.425 29.339C70.6452 29.3415 71.8226 28.8711 72.7032 28.0257L73.0579 27.7163V29.0296L76.8368 29.0447ZM70.0539 25.7614C68.4387 25.7514 67.138 24.433 67.1481 22.8178C67.1556 21.2026 68.4689 19.8994 70.0841 19.9044C71.6993 19.912 73.0026 21.2253 73 22.8405C72.9975 23.6179 72.6856 24.3651 72.1321 24.9136C71.5811 25.462 70.8313 25.7665 70.0539 25.7614Z" fill="#CD2A2A"/>
<path d="M107.312 29.0446V16.6539H103.533V17.9672L103.178 17.6602C102.295 16.8149 101.12 16.3444 99.8972 16.3469C96.5586 16.3469 93.7383 19.3207 93.7383 22.8404C93.7383 26.3577 96.5661 29.339 99.8972 29.339C101.12 29.3415 102.295 28.871 103.178 28.0257L103.533 27.7162V29.0295L107.312 29.0446ZM100.554 25.7614C98.9361 25.7639 97.6228 24.4556 97.6203 22.8379C97.6178 21.2202 98.9286 19.9069 100.546 19.9044C102.161 19.9044 103.472 21.2152 103.472 22.8329C103.472 24.4481 102.167 25.7564 100.554 25.7614Z" fill="#CD2A2A"/>
<path d="M82.6307 29.0446V27.7313L82.9778 28.0383C83.8609 28.8836 85.0358 29.3541 86.2586 29.3515C89.5972 29.3515 92.4175 26.3778 92.4175 22.853C92.4175 19.3282 89.5972 16.3595 86.2586 16.3595C85.0358 16.357 83.8609 16.8274 82.9778 17.6728L82.6307 17.9822V10.9705H78.8442V29.0446H82.6307ZM82.7086 22.853C82.7011 21.6655 83.4081 20.5937 84.5025 20.1333C85.5944 19.6729 86.8548 19.9195 87.6977 20.7548C88.538 21.59 88.7921 22.853 88.3392 23.9499C87.8889 25.0443 86.8196 25.7614 85.6346 25.7614C84.0219 25.7614 82.7137 24.4531 82.7086 22.8404V22.853Z" fill="#CD2A2A"/>
</g>
<defs>
<clipPath id="clip0_17_1095">
<rect width="133.322" height="18.678" fill="white" transform="translate(8.30615 10.661)"/>
</clipPath>
</defs>
</svg>
