<svg width="106" height="40" viewBox="0 0 106 40" fill="none" xmlns="http://www.w3.org/2000/svg">
<rect width="105.441" height="40" transform="translate(0.55127)" fill="white"/>
<g clip-path="url(#clip0_17_1117)">
<path d="M40.4841 6.81909H8.95111V33.2188H40.4841V6.81909Z" fill="white"/>
<path d="M54.0513 18.99H55.3082C56.1824 18.99 57.0543 19.1814 57.0543 20.2286C57.0543 21.1695 56.1288 21.4848 55.2738 21.4848H54.0513V18.99ZM49.6506 23.9994H56.7221C59.2543 23.9994 61.7336 23.6833 61.7336 20.6122C61.7336 19.3919 60.6865 18.0675 58.9925 17.8402V17.8043C60.6153 17.3863 61.5063 16.4945 61.5063 14.8218C61.5063 12.5008 59.4295 11.8225 57.3176 11.8225H49.6506V23.9994ZM54.0513 14.1259H55.3236C56.1618 14.1259 56.9311 14.4038 56.9311 15.3124C56.9311 16.2342 56.0401 16.4784 55.2195 16.4784H54.0506V14.1259H54.0513Z" fill="#003F2D"/>
<path d="M68.8408 20.28C68.8408 21.0654 68.3847 21.9035 67.4783 21.9035C66.7956 21.9035 66.448 21.6579 66.448 21.0309C66.448 20.0908 67.4959 20.002 68.403 20.002H68.8416V20.28H68.8408ZM63.4788 17.7683C64.3529 17.3335 65.4683 17.002 66.5169 17.002C67.6191 17.002 68.8232 17.1413 68.8408 18.311C68.439 18.2743 67.7409 18.1878 67.1278 18.1878C64.944 18.1878 62.4316 18.7473 62.4316 21.5376C62.4316 23.4399 64.0742 24.2084 65.7653 24.2084C67.0068 24.2084 68.1266 23.7193 68.7352 22.6889H68.7712V24.0001H72.8551V18.4686C72.8551 15.1533 69.8 14.6993 67.2855 14.6993C65.5761 14.6993 64.7885 14.8563 63.4795 15.2222V17.7683H63.4788Z" fill="#003F2D"/>
<path d="M74.0951 14.9098H78.2531V16.4784H78.2883C78.8111 15.2053 80.0152 14.6993 81.2568 14.6993C83.5946 14.6993 84.4497 15.9211 84.4497 17.681V23.9987H80.0504V18.7634C80.0504 18.2398 80.0504 17.5248 79.2834 17.5248C78.4958 17.5248 78.4958 18.2398 78.4958 18.7634V23.9987H74.0958V14.9098H74.0951Z" fill="#003F2D"/>
<path d="M90.3341 18.5178H90.373L92.8861 14.9084H97.8595L94.7876 18.9197L97.9842 23.9994H92.8516L90.373 19.5848H90.3341V23.9994H85.9356V10.9139H90.3341V18.5178Z" fill="#003F2D"/>
<path d="M8.55127 33.5857H40.8176V6.45264H8.55127V33.5857ZM29.7319 27.7162H22.2153V14.982H25.9912V25.4634H29.6212C32.1277 25.4634 33.1815 23.8251 33.1815 19.6247C33.1815 15.3919 31.9825 14.1628 29.4408 14.1628H21.1623V27.7162H17.4216V14.1628H11.9385V11.9079H30.6017C35.105 11.9079 37.2471 14.0924 37.2471 19.5909C37.2471 26.8281 34.0512 27.7162 29.7319 27.7162Z" fill="#54B848"/>
</g>
<defs>
<clipPath id="clip0_17_1117">
<rect width="89.4412" height="27.1356" fill="white" transform="translate(8.55127 6.43225)"/>
</clipPath>
</defs>
</svg>
