<svg width="160" height="55" viewBox="0 0 160 55" fill="none" xmlns="http://www.w3.org/2000/svg">
<g clip-path="url(#clip0_61_923)">
<path fill-rule="evenodd" clip-rule="evenodd" d="M22.2939 18.3623L15.5667 11.408L12.1202 7.84525L8.67391 4.28286L6.86525 6.15254C6.3121 6.72409 5.79503 7.3197 5.31414 7.93525C4.24777 9.30098 3.35849 10.7681 2.6463 12.3027C1.85173 14.0159 1.27749 15.813 0.924134 17.6478C-0.453987 24.8053 1.5263 32.5325 6.86496 38.0511L22.2939 54V46.8753L10.3109 34.4884C7.0549 31.1225 5.4094 26.6907 5.3738 22.2476L22.2936 39.7379V32.6128L6.36821 16.151C6.93367 14.517 7.73949 12.9545 8.78613 11.5244L12.2797 15.1361L22.2936 25.4871L22.2939 18.3623ZM23.4999 0C26.4713 0 28.8796 2.37799 28.8796 5.31133C28.8796 8.24495 26.4713 10.6227 23.4999 10.6227C20.5285 10.6227 18.1201 8.24495 18.1201 5.31133C18.1204 2.37775 20.5288 0 23.4999 0ZM24.7063 18.362L31.4338 11.4077L34.8801 7.84525L38.3264 4.28258L40.1353 6.15231C40.6882 6.7238 41.2052 7.31913 41.6861 7.93497C42.7525 9.30074 43.6418 10.7678 44.3537 12.3024C45.1485 14.0157 45.7225 15.813 46.0759 17.6478C47.454 24.8051 45.4737 32.5323 40.1353 38.0506L24.7063 53.9995V46.8748L36.689 34.4881C39.9453 31.1222 41.5909 26.6904 41.6262 22.2473L24.7063 39.7376V32.6122L40.6318 16.1505C40.0666 14.5164 39.2606 12.9539 38.2139 11.5242L34.72 15.1355L24.7063 25.4869V18.362Z" fill="#FF4545"/>
<path d="M80.2138 2.57776V11.8282H79.4338C78.8474 9.4139 77.7542 7.56381 76.1547 6.27794C74.5551 4.99207 72.7421 4.34912 70.716 4.34912C69.023 4.34912 67.4701 4.82804 66.0574 5.7859C64.6443 6.74375 63.6113 7.99681 62.958 9.54512C62.1182 11.5264 61.6982 13.7308 61.6982 16.1582C61.6982 18.5463 62.005 20.7244 62.6183 22.6926C63.2312 24.6477 64.191 26.1303 65.4975 27.1405C66.8038 28.1378 68.4964 28.6363 70.5759 28.6363C72.2824 28.6363 73.842 28.2691 75.255 27.5341C76.6812 26.7995 78.1807 25.5332 79.7537 23.7357V26.0383C78.2341 27.6 76.648 28.7349 74.9949 29.4434C73.3554 30.1388 71.4359 30.4867 69.2364 30.4867C66.3437 30.4867 63.7712 29.9158 61.5184 28.7743C59.2789 27.6327 57.5459 25.9927 56.3197 23.8538C55.1066 21.715 54.5 19.4385 54.5 17.0242C54.5 14.4787 55.1734 12.0644 56.5196 9.7813C57.8793 7.49821 59.7054 5.72685 61.9983 4.46721C64.3042 3.20758 66.7503 2.57776 69.3365 2.57776C71.2426 2.57776 73.2556 2.98453 75.3747 3.79803C76.6013 4.2704 77.3809 4.50658 77.7143 4.50658C78.1407 4.50658 78.5073 4.35567 78.8138 4.0539C79.1337 3.73899 79.3404 3.24694 79.4338 2.57776H80.2138ZM98.2892 2.81394C102.608 2.65649 106.114 3.89644 108.806 6.5338C111.512 9.17117 112.865 12.4712 112.865 16.4338C112.865 19.819 111.859 22.7975 109.846 25.3695C107.18 28.7809 103.414 30.4867 98.549 30.4867C93.6702 30.4867 89.8977 28.8596 87.2318 25.6056C85.1258 23.0337 84.0726 19.983 84.0726 16.4534C84.0726 12.4908 85.439 9.19085 88.1714 6.55349C90.9176 3.90299 94.2902 2.65649 98.2892 2.81394ZM98.5291 4.07358C96.0498 4.07358 94.1635 5.32008 92.8704 7.81312C91.8172 9.86003 91.2906 12.7992 91.2906 16.6306C91.2906 21.1836 92.1039 24.5491 93.7303 26.7274C94.8632 28.2493 96.4497 29.0104 98.4888 29.0104C99.8619 29.0104 101.008 28.6823 101.928 28.0264C103.101 27.1865 104.014 25.8481 104.667 24.0113C105.321 22.1612 105.647 19.7534 105.647 16.788C105.647 13.2584 105.314 10.6211 104.647 8.87594C103.981 7.11771 103.128 5.87775 102.088 5.15608C101.062 4.4344 99.8753 4.07358 98.5291 4.07358ZM125.222 17.7131V25.1922C125.222 26.6354 125.309 27.5474 125.482 27.9278C125.669 28.2953 125.989 28.5907 126.442 28.8136C126.895 29.0366 127.742 29.1484 128.981 29.1484V29.8764H115.105V29.1484C116.358 29.1484 117.204 29.0366 117.644 28.8136C118.097 28.5774 118.41 28.2758 118.584 27.9083C118.77 27.5408 118.864 26.6354 118.864 25.1922V7.87217C118.864 6.42885 118.77 5.52348 118.584 5.15608C118.41 4.77557 118.097 4.47376 117.644 4.25071C117.191 4.02766 116.344 3.91612 115.105 3.91612V3.1879H127.702C130.981 3.1879 133.38 3.41095 134.9 3.85708C136.419 4.30321 137.659 5.12985 138.619 6.33699C139.579 7.53103 140.058 8.93499 140.058 10.5489C140.058 12.5171 139.339 14.1441 137.899 15.43C136.979 16.2435 135.693 16.8536 134.04 17.2604L140.558 26.2943C141.411 27.462 142.018 28.1904 142.378 28.4789C142.924 28.8857 143.558 29.1087 144.277 29.1484V29.8764H135.74L127.002 17.7131H125.222ZM125.222 4.62467V16.3157H126.362C128.215 16.3157 129.601 16.1517 130.521 15.8236C131.44 15.4825 132.16 14.8789 132.68 14.0129C133.213 13.1338 133.48 11.9922 133.48 10.5883C133.48 8.55448 132.994 7.05208 132.02 6.08112C131.061 5.11016 129.508 4.62467 127.361 4.62467H125.222ZM158.934 29.1484V29.8764H144.757V29.1484H145.657C146.443 29.1484 147.077 29.0104 147.557 28.7349C147.903 28.5513 148.17 28.2364 148.356 27.7902C148.503 27.4753 148.576 26.6486 148.576 25.3103V7.75408C148.576 6.38948 148.503 5.53658 148.356 5.19544C148.21 4.8543 147.91 4.55907 147.457 4.30976C147.017 4.04735 146.417 3.91612 145.657 3.91612H144.757V3.1879H158.934V3.91612H158.034C157.247 3.91612 156.614 4.0539 156.134 4.32944C155.788 4.51313 155.514 4.82804 155.315 5.27417C155.168 5.58908 155.095 6.41571 155.095 7.75408V25.3103C155.095 26.6748 155.168 27.5278 155.315 27.8689C155.475 28.2099 155.774 28.5119 156.214 28.7743C156.668 29.0237 157.274 29.1484 158.034 29.1484H158.934Z" fill="#FF4545"/>
<path d="M142.869 52.4496L141.395 49.0658C141.173 48.5547 141.009 48.2406 140.901 48.1234C140.797 48.0062 140.67 47.9248 140.521 47.8793V47.6986H142.947V47.8793C142.788 47.8858 142.675 47.9167 142.61 47.972C142.545 48.0274 142.513 48.0941 142.513 48.1722C142.513 48.2959 142.594 48.5401 142.757 48.9047L143.538 50.6918L144.07 49.3099C144.262 48.8184 144.358 48.4766 144.358 48.2845C144.358 48.1641 144.318 48.0681 144.236 47.9965C144.158 47.9248 144.018 47.8858 143.816 47.8793V47.6986H145.345V47.8793C145.195 47.8955 145.073 47.9541 144.979 48.0551C144.884 48.1527 144.726 48.4896 144.505 49.0658L143.201 52.4496C142.872 53.2959 142.628 53.8168 142.469 54.0121C142.244 54.2855 141.963 54.4222 141.624 54.4222C141.354 54.4222 141.134 54.3441 140.965 54.1879C140.799 54.0349 140.716 53.8493 140.716 53.6312C140.716 53.4424 140.773 53.2862 140.887 53.1625C141.004 53.0388 141.147 52.9769 141.316 52.9769C141.479 52.9769 141.609 53.029 141.707 53.1332C141.808 53.2373 141.86 53.3985 141.863 53.6166C141.867 53.7403 141.881 53.82 141.907 53.8558C141.933 53.8916 141.971 53.9095 142.02 53.9095C142.098 53.9095 142.181 53.8623 142.269 53.7679C142.399 53.6312 142.552 53.3187 142.728 52.8304L142.869 52.4496Z" fill="black"/>
<path d="M139.256 46.0287V47.6986H140.34V48.182H139.256V50.9994C139.256 51.2631 139.267 51.434 139.29 51.5121C139.316 51.587 139.36 51.6488 139.422 51.6976C139.484 51.7432 139.541 51.766 139.593 51.766C139.804 51.766 140.005 51.6049 140.193 51.2826L140.34 51.39C140.076 52.015 139.648 52.3275 139.056 52.3275C138.766 52.3275 138.52 52.2478 138.318 52.0883C138.12 51.9255 137.993 51.7448 137.938 51.5463C137.905 51.4356 137.889 51.1361 137.889 50.6478V48.182H137.293V48.0111C137.703 47.7214 138.051 47.417 138.338 47.098C138.628 46.779 138.88 46.4226 139.095 46.0287H139.256Z" fill="black"/>
<path d="M135.76 45.4867C135.971 45.4867 136.15 45.5616 136.297 45.7113C136.443 45.8578 136.517 46.0352 136.517 46.2435C136.517 46.4519 136.442 46.6293 136.292 46.7758C136.146 46.9222 135.968 46.9955 135.76 46.9955C135.551 46.9955 135.374 46.9222 135.228 46.7758C135.081 46.6293 135.008 46.4519 135.008 46.2435C135.008 46.0352 135.081 45.8578 135.228 45.7113C135.374 45.5616 135.551 45.4867 135.76 45.4867ZM136.443 47.6986V51.3168C136.443 51.639 136.481 51.8457 136.556 51.9369C136.631 52.0248 136.777 52.0752 136.995 52.0883V52.264H134.529V52.0883C134.731 52.0817 134.881 52.0232 134.979 51.9125C135.044 51.8376 135.076 51.639 135.076 51.3168V48.6508C135.076 48.3285 135.039 48.1234 134.964 48.0355C134.889 47.9444 134.744 47.8923 134.529 47.8793V47.6986H136.443Z" fill="black"/>
<path d="M132.112 47.6986V48.7338C132.415 48.2618 132.68 47.9493 132.908 47.7963C133.136 47.64 133.356 47.5619 133.567 47.5619C133.75 47.5619 133.895 47.6189 134.002 47.7328C134.113 47.8435 134.168 48.0013 134.168 48.2064C134.168 48.4245 134.114 48.5938 134.007 48.7142C133.903 48.8347 133.776 48.8949 133.626 48.8949C133.453 48.8949 133.304 48.8396 133.177 48.7289C133.05 48.6182 132.975 48.5564 132.952 48.5433C132.92 48.5238 132.882 48.514 132.84 48.514C132.745 48.514 132.656 48.5498 132.571 48.6215C132.438 48.7321 132.337 48.89 132.269 49.0951C132.164 49.4108 132.112 49.7592 132.112 50.14V51.1898L132.117 51.4633C132.117 51.6488 132.129 51.7676 132.151 51.8197C132.19 51.9076 132.247 51.9727 132.322 52.015C132.4 52.0541 132.531 52.0785 132.713 52.0883V52.264H130.247V52.0883C130.446 52.072 130.579 52.0183 130.647 51.9271C130.719 51.8327 130.755 51.587 130.755 51.1898V48.6654C130.755 48.405 130.742 48.239 130.716 48.1674C130.683 48.0762 130.636 48.0095 130.574 47.9672C130.512 47.9248 130.403 47.8955 130.247 47.8793V47.6986H132.112Z" fill="black"/>
<path d="M128.147 47.7523H129.686V48.2894H128.812C128.971 48.4489 129.082 48.5938 129.144 48.724C129.222 48.8998 129.261 49.0837 129.261 49.2758C129.261 49.6013 129.17 49.8845 128.987 50.1254C128.808 50.363 128.562 50.5502 128.25 50.6869C127.941 50.8204 127.666 50.8871 127.425 50.8871C127.405 50.8871 127.21 50.8789 126.839 50.8627C126.692 50.8627 126.569 50.9115 126.468 51.0092C126.37 51.1036 126.321 51.2175 126.321 51.351C126.321 51.4681 126.365 51.5642 126.453 51.639C126.544 51.7139 126.691 51.7513 126.893 51.7513L127.737 51.7416C128.421 51.7416 128.891 51.8164 129.148 51.9662C129.516 52.1745 129.7 52.4952 129.7 52.9281C129.7 53.2048 129.616 53.4554 129.446 53.6801C129.277 53.9079 129.054 54.0756 128.777 54.183C128.357 54.3425 127.874 54.4222 127.327 54.4222C126.917 54.4222 126.543 54.3816 126.204 54.3002C125.866 54.222 125.623 54.1114 125.477 53.9681C125.33 53.8282 125.257 53.6801 125.257 53.5238C125.257 53.3741 125.312 53.239 125.423 53.1185C125.537 53.0013 125.747 52.9021 126.053 52.8207C125.63 52.6123 125.418 52.3226 125.418 51.9515C125.418 51.7269 125.504 51.5088 125.677 51.2972C125.849 51.0857 126.123 50.9017 126.497 50.7455C126.061 50.586 125.745 50.376 125.55 50.1156C125.354 49.8552 125.257 49.5541 125.257 49.2123C125.257 48.7663 125.439 48.3806 125.804 48.0551C126.168 47.7263 126.637 47.5619 127.21 47.5619C127.513 47.5619 127.825 47.6254 128.147 47.7523ZM127.303 47.8646C127.114 47.8646 126.954 47.9607 126.824 48.1527C126.694 48.3415 126.629 48.7354 126.629 49.3344C126.629 49.8194 126.692 50.153 126.819 50.3353C126.95 50.5144 127.103 50.6039 127.278 50.6039C127.474 50.6039 127.636 50.5144 127.767 50.3353C127.897 50.1563 127.962 49.808 127.962 49.2904C127.962 48.7077 127.889 48.3106 127.742 48.099C127.638 47.9427 127.492 47.8646 127.303 47.8646ZM127.015 52.9379C126.683 52.9379 126.463 52.9655 126.355 53.0209C126.17 53.1218 126.077 53.2585 126.077 53.431C126.077 53.597 126.173 53.7468 126.365 53.8802C126.557 54.017 126.919 54.0853 127.449 54.0853C127.902 54.0853 128.257 54.0251 128.514 53.9047C128.774 53.7842 128.904 53.615 128.904 53.3969C128.904 53.3155 128.88 53.2471 128.831 53.1918C128.743 53.0941 128.61 53.0274 128.431 52.9916C128.255 52.9558 127.783 52.9379 127.015 52.9379Z" fill="black"/>
<path d="M124.642 49.8177H122.137C122.166 50.4232 122.327 50.9017 122.62 51.2533C122.845 51.5235 123.115 51.6586 123.431 51.6586C123.626 51.6586 123.803 51.6049 123.963 51.4974C124.122 51.3868 124.293 51.1898 124.476 50.9066L124.642 51.014C124.394 51.5186 124.121 51.8767 123.821 52.0883C123.522 52.2966 123.175 52.4008 122.781 52.4008C122.104 52.4008 121.591 52.1403 121.243 51.6195C120.963 51.1996 120.823 50.6788 120.823 50.057C120.823 49.2953 121.028 48.6898 121.438 48.2406C121.852 47.7881 122.335 47.5619 122.889 47.5619C123.351 47.5619 123.751 47.7523 124.09 48.1332C124.432 48.5108 124.616 49.0723 124.642 49.8177ZM123.44 49.4906C123.44 48.9665 123.411 48.6068 123.353 48.4115C123.297 48.2162 123.209 48.0681 123.089 47.9672C123.021 47.9086 122.929 47.8793 122.815 47.8793C122.646 47.8793 122.508 47.9623 122.4 48.1283C122.208 48.418 122.112 48.8151 122.112 49.3197V49.4906H123.44Z" fill="black"/>
<path d="M119.256 46.0287V47.6986H120.34V48.182H119.256V50.9994C119.256 51.2631 119.267 51.434 119.29 51.5121C119.316 51.587 119.36 51.6488 119.422 51.6976C119.484 51.7432 119.541 51.766 119.593 51.766C119.804 51.766 120.005 51.6049 120.193 51.2826L120.34 51.39C120.076 52.015 119.648 52.3275 119.056 52.3275C118.766 52.3275 118.52 52.2478 118.318 52.0883C118.12 51.9255 117.993 51.7448 117.938 51.5463C117.905 51.4356 117.889 51.1361 117.889 50.6478V48.182H117.293V48.0111C117.703 47.7214 118.051 47.417 118.338 47.098C118.628 46.779 118.88 46.4226 119.095 46.0287H119.256Z" fill="black"/>
<path d="M113.743 47.6986V48.2894C113.978 48.0355 114.202 47.8516 114.417 47.7377C114.632 47.6205 114.863 47.5619 115.11 47.5619C115.407 47.5619 115.652 47.6449 115.848 47.8109C116.043 47.9737 116.173 48.1771 116.238 48.4213C116.29 48.6068 116.316 48.9633 116.316 49.4906V51.2679C116.316 51.6195 116.347 51.8392 116.409 51.9271C116.474 52.0118 116.608 52.0655 116.81 52.0883V52.264H114.5V52.0883C114.673 52.0655 114.796 51.9939 114.871 51.8734C114.923 51.792 114.949 51.5902 114.949 51.2679V49.2367C114.949 48.8623 114.935 48.6263 114.905 48.5287C114.876 48.431 114.826 48.3562 114.754 48.3041C114.686 48.2487 114.609 48.2211 114.524 48.2211C114.244 48.2211 113.984 48.4213 113.743 48.8217V51.2679C113.743 51.6097 113.774 51.8262 113.836 51.9174C113.901 52.0085 114.02 52.0655 114.192 52.0883V52.264H111.883V52.0883C112.075 52.0687 112.212 52.0069 112.293 51.9027C112.348 51.8311 112.376 51.6195 112.376 51.2679V48.6898C112.376 48.3448 112.343 48.1299 112.278 48.0453C112.216 47.9607 112.085 47.9053 111.883 47.8793V47.6986H113.743Z" fill="black"/>
<path d="M111.307 52.0834V52.264H107.845V52.0834H108.064C108.257 52.0834 108.411 52.0492 108.528 51.9808C108.613 51.9353 108.678 51.8571 108.724 51.7465C108.759 51.6683 108.777 51.4633 108.777 51.1312V46.7758C108.777 46.4372 108.759 46.2256 108.724 46.141C108.688 46.0564 108.615 45.9831 108.504 45.9213C108.396 45.8562 108.25 45.8236 108.064 45.8236H107.845V45.6429H111.307V45.8236H111.087C110.895 45.8236 110.74 45.8578 110.623 45.9261C110.538 45.9717 110.472 46.0498 110.423 46.1605C110.387 46.2386 110.369 46.4437 110.369 46.7758V51.1312C110.369 51.4698 110.387 51.6814 110.423 51.766C110.462 51.8506 110.535 51.9255 110.643 51.9906C110.753 52.0525 110.901 52.0834 111.087 52.0834H111.307Z" fill="black"/>
<path d="M102.508 48.3041H104.539V48.4945C104.311 48.5271 104.132 48.5954 104.002 48.6996C103.872 48.8005 103.702 49.0381 103.494 49.4125C103.286 49.7868 102.993 50.2051 102.615 50.6674C102.947 50.9668 103.217 51.1752 103.426 51.2924C103.572 51.3737 103.715 51.4144 103.855 51.4144C104.096 51.4144 104.314 51.2566 104.51 50.9408L104.71 51.0482C104.443 51.5723 104.158 51.945 103.855 52.1664C103.624 52.3324 103.361 52.4154 103.064 52.4154C102.811 52.4154 102.568 52.3617 102.337 52.2543C102.109 52.1436 101.831 51.9385 101.502 51.639C101.095 51.9125 100.713 52.111 100.354 52.2347C99.9964 52.3552 99.6237 52.4154 99.2363 52.4154C98.6178 52.4154 98.1263 52.2478 97.7617 51.9125C97.3971 51.5772 97.2148 51.1833 97.2148 50.7308C97.2148 50.2426 97.389 49.8177 97.7373 49.4564C98.0856 49.0951 98.5918 48.7826 99.2559 48.5189C99.1712 48.3073 99.1077 48.1006 99.0654 47.8988C99.0231 47.697 99.002 47.5017 99.002 47.3129C99.002 46.792 99.1842 46.3591 99.5488 46.014C99.9167 45.6657 100.385 45.4916 100.955 45.4916C101.414 45.4916 101.777 45.6071 102.044 45.8383C102.314 46.0661 102.449 46.333 102.449 46.639C102.449 47.0069 102.311 47.3226 102.034 47.5863C101.761 47.8467 101.326 48.086 100.73 48.3041C101.098 48.9519 101.637 49.6501 102.347 50.3988C102.825 49.8617 103.064 49.4011 103.064 49.017C103.064 48.8802 103.017 48.7647 102.923 48.6703C102.828 48.5726 102.69 48.514 102.508 48.4945V48.3041ZM100.564 48.0111C100.906 47.8842 101.136 47.7491 101.253 47.6058C101.37 47.4594 101.429 47.2836 101.429 47.0785C101.429 46.7139 101.333 46.4063 101.141 46.1556C101.014 45.9896 100.857 45.9066 100.672 45.9066C100.519 45.9066 100.387 45.9668 100.276 46.0873C100.169 46.2077 100.115 46.3705 100.115 46.5756C100.115 46.7351 100.141 46.906 100.193 47.0883C100.245 47.2705 100.369 47.5782 100.564 48.0111ZM99.3926 48.8314C99.1322 48.9421 98.9482 49.0593 98.8408 49.183C98.6878 49.3653 98.6113 49.5687 98.6113 49.7933C98.6113 50.0993 98.6992 50.4037 98.875 50.7064C99.054 51.0092 99.2689 51.2435 99.5195 51.4095C99.7702 51.5756 100.021 51.6586 100.271 51.6586C100.395 51.6586 100.534 51.6325 100.687 51.5804C100.843 51.5251 101.012 51.4437 101.194 51.3363C100.41 50.5323 99.8092 49.6973 99.3926 48.8314Z" fill="black"/>
<path d="M91.7461 52.4496L90.2715 49.0658C90.0501 48.5547 89.8857 48.2406 89.7783 48.1234C89.6742 48.0062 89.5472 47.9248 89.3975 47.8793V47.6986H91.8242V47.8793C91.6647 47.8858 91.5524 47.9167 91.4873 47.972C91.4222 48.0274 91.3896 48.0941 91.3896 48.1722C91.3896 48.2959 91.471 48.5401 91.6338 48.9047L92.415 50.6918L92.9473 49.3099C93.1393 48.8184 93.2354 48.4766 93.2354 48.2845C93.2354 48.1641 93.1947 48.0681 93.1133 47.9965C93.0352 47.9248 92.8952 47.8858 92.6934 47.8793V47.6986H94.2217V47.8793C94.0719 47.8955 93.9499 47.9541 93.8555 48.0551C93.7611 48.1527 93.6032 48.4896 93.3818 49.0658L92.0781 52.4496C91.7493 53.2959 91.5052 53.8168 91.3457 54.0121C91.1211 54.2855 90.8395 54.4222 90.501 54.4222C90.2308 54.4222 90.0111 54.3441 89.8418 54.1879C89.6758 54.0349 89.5928 53.8493 89.5928 53.6312C89.5928 53.4424 89.6497 53.2862 89.7637 53.1625C89.8809 53.0388 90.0241 52.9769 90.1934 52.9769C90.3561 52.9769 90.4863 53.029 90.584 53.1332C90.6849 53.2373 90.737 53.3985 90.7402 53.6166C90.7435 53.7403 90.7581 53.82 90.7842 53.8558C90.8102 53.8916 90.8477 53.9095 90.8965 53.9095C90.9746 53.9095 91.0576 53.8623 91.1455 53.7679C91.2757 53.6312 91.4287 53.3187 91.6045 52.8304L91.7461 52.4496Z" fill="black"/>
<path d="M87.1025 47.6986V48.7338C87.4053 48.2618 87.6706 47.9493 87.8984 47.7963C88.1263 47.64 88.346 47.5619 88.5576 47.5619C88.7399 47.5619 88.8848 47.6189 88.9922 47.7328C89.1029 47.8435 89.1582 48.0013 89.1582 48.2064C89.1582 48.4245 89.1045 48.5938 88.9971 48.7142C88.8929 48.8347 88.7659 48.8949 88.6162 48.8949C88.4437 48.8949 88.2939 48.8396 88.167 48.7289C88.04 48.6182 87.9652 48.5564 87.9424 48.5433C87.9098 48.5238 87.8724 48.514 87.8301 48.514C87.7357 48.514 87.6462 48.5498 87.5615 48.6215C87.4281 48.7321 87.3271 48.89 87.2588 49.0951C87.1546 49.4108 87.1025 49.7592 87.1025 50.14V51.1898L87.1074 51.4633C87.1074 51.6488 87.1188 51.7676 87.1416 51.8197C87.1807 51.9076 87.2376 51.9727 87.3125 52.015C87.3906 52.0541 87.5208 52.0785 87.7031 52.0883V52.264H85.2373V52.0883C85.4359 52.072 85.5693 52.0183 85.6377 51.9271C85.7093 51.8327 85.7451 51.587 85.7451 51.1898V48.6654C85.7451 48.405 85.7321 48.239 85.7061 48.1674C85.6735 48.0762 85.6263 48.0095 85.5645 47.9672C85.5026 47.9248 85.3936 47.8955 85.2373 47.8793V47.6986H87.1025Z" fill="black"/>
<path d="M84.6318 49.8177H82.127C82.1562 50.4232 82.3174 50.9017 82.6104 51.2533C82.835 51.5235 83.1051 51.6586 83.4209 51.6586C83.6162 51.6586 83.7936 51.6049 83.9531 51.4974C84.1126 51.3868 84.2835 51.1898 84.4658 50.9066L84.6318 51.014C84.3844 51.5186 84.111 51.8767 83.8115 52.0883C83.512 52.2966 83.1654 52.4008 82.7715 52.4008C82.0944 52.4008 81.5817 52.1403 81.2334 51.6195C80.9535 51.1996 80.8135 50.6788 80.8135 50.057C80.8135 49.2953 81.0186 48.6898 81.4287 48.2406C81.8421 47.7881 82.3255 47.5619 82.8789 47.5619C83.3411 47.5619 83.7415 47.7523 84.0801 48.1332C84.4219 48.5108 84.6058 49.0723 84.6318 49.8177ZM83.4307 49.4906C83.4307 48.9665 83.4014 48.6068 83.3428 48.4115C83.2874 48.2162 83.1995 48.0681 83.0791 47.9672C83.0107 47.9086 82.9196 47.8793 82.8057 47.8793C82.6364 47.8793 82.498 47.9623 82.3906 48.1283C82.1986 48.418 82.1025 48.8151 82.1025 49.3197V49.4906H83.4307Z" fill="black"/>
<path d="M77.8252 52.4008L76.2871 48.8607C76.1016 48.4343 75.9567 48.1641 75.8525 48.0502C75.7777 47.9655 75.667 47.9086 75.5205 47.8793V47.6986H77.9473V47.8793C77.7943 47.8793 77.6901 47.9069 77.6348 47.9623C77.5566 48.0339 77.5176 48.1185 77.5176 48.2162C77.5176 48.3366 77.5892 48.5629 77.7324 48.8949L78.4844 50.6088L79.085 49.1293C79.2575 48.7061 79.3438 48.4066 79.3438 48.2308C79.3438 48.1299 79.3063 48.0485 79.2314 47.9867C79.1598 47.9216 79.0312 47.8858 78.8457 47.8793V47.6986H80.3398V47.8793C80.1966 47.8988 80.0794 47.9525 79.9883 48.0404C79.8971 48.1283 79.7604 48.3871 79.5781 48.8168L78.0547 52.4008H77.8252Z" fill="black"/>
<path d="M72.918 47.5619C73.3151 47.5619 73.6846 47.6644 74.0264 47.8695C74.3682 48.0746 74.627 48.3659 74.8027 48.7435C74.9818 49.1211 75.0713 49.5345 75.0713 49.9838C75.0713 50.6316 74.9069 51.1735 74.5781 51.6097C74.181 52.1371 73.6325 52.4008 72.9326 52.4008C72.2458 52.4008 71.7168 52.1599 71.3457 51.6781C70.9746 51.1963 70.7891 50.6381 70.7891 50.0033C70.7891 49.349 70.9779 48.7793 71.3555 48.2943C71.7363 47.806 72.2572 47.5619 72.918 47.5619ZM72.9375 47.9086C72.7715 47.9086 72.6283 47.972 72.5078 48.099C72.3906 48.2227 72.3125 48.4701 72.2734 48.8412C72.2376 49.209 72.2197 49.7217 72.2197 50.3793C72.2197 50.7276 72.2425 51.0531 72.2881 51.3558C72.3239 51.587 72.4004 51.7627 72.5176 51.8832C72.6348 52.0036 72.7682 52.0638 72.918 52.0638C73.0645 52.0638 73.1865 52.0232 73.2842 51.9418C73.4111 51.8311 73.4958 51.6765 73.5381 51.4779C73.6032 51.1687 73.6357 50.5437 73.6357 49.6029C73.6357 49.0495 73.6048 48.6703 73.543 48.4652C73.4811 48.2569 73.39 48.1055 73.2695 48.0111C73.1849 47.9427 73.0742 47.9086 72.9375 47.9086Z" fill="black"/>
<path d="M70.0469 51.0873L70.1982 51.2045C69.9834 51.6081 69.7148 51.9092 69.3926 52.1078C69.0736 52.3031 68.7334 52.4008 68.3721 52.4008C67.7633 52.4008 67.2767 52.1713 66.9121 51.7123C66.5475 51.2533 66.3652 50.7015 66.3652 50.057C66.3652 49.4353 66.5312 48.8884 66.8633 48.4164C67.2637 47.8467 67.8154 47.5619 68.5186 47.5619C68.9906 47.5619 69.3649 47.6807 69.6416 47.9183C69.9215 48.156 70.0615 48.4213 70.0615 48.7142C70.0615 48.8998 70.0046 49.0479 69.8906 49.1586C69.7799 49.2692 69.6335 49.3246 69.4512 49.3246C69.2591 49.3246 69.0996 49.2611 68.9727 49.1342C68.849 49.0072 68.7725 48.781 68.7432 48.4554C68.7236 48.2504 68.6764 48.1071 68.6016 48.0258C68.5267 47.9444 68.4388 47.9037 68.3379 47.9037C68.1816 47.9037 68.0482 47.9867 67.9375 48.1527C67.7682 48.4034 67.6836 48.7875 67.6836 49.3051C67.6836 49.7347 67.752 50.1465 67.8887 50.5404C68.0254 50.931 68.2126 51.2224 68.4502 51.4144C68.6292 51.5544 68.8408 51.6244 69.085 51.6244C69.2445 51.6244 69.3958 51.587 69.5391 51.5121C69.6823 51.4372 69.8516 51.2956 70.0469 51.0873Z" fill="black"/>
<path d="M65.7451 49.8177H63.2402C63.2695 50.4232 63.4307 50.9017 63.7236 51.2533C63.9482 51.5235 64.2184 51.6586 64.5342 51.6586C64.7295 51.6586 64.9069 51.6049 65.0664 51.4974C65.2259 51.3868 65.3968 51.1898 65.5791 50.9066L65.7451 51.014C65.4977 51.5186 65.2243 51.8767 64.9248 52.0883C64.6253 52.2966 64.2786 52.4008 63.8848 52.4008C63.2077 52.4008 62.695 52.1403 62.3467 51.6195C62.0667 51.1996 61.9268 50.6788 61.9268 50.057C61.9268 49.2953 62.1318 48.6898 62.542 48.2406C62.9554 47.7881 63.4388 47.5619 63.9922 47.5619C64.4544 47.5619 64.8548 47.7523 65.1934 48.1332C65.5352 48.5108 65.7191 49.0723 65.7451 49.8177ZM64.5439 49.4906C64.5439 48.9665 64.5146 48.6068 64.4561 48.4115C64.4007 48.2162 64.3128 48.0681 64.1924 47.9672C64.124 47.9086 64.0329 47.8793 63.9189 47.8793C63.7497 47.8793 63.6113 47.9623 63.5039 48.1283C63.3118 48.418 63.2158 48.8151 63.2158 49.3197V49.4906H64.5439Z" fill="black"/>
<path d="M56.9707 49.2465V51.1019C56.9707 51.46 56.9919 51.6862 57.0342 51.7806C57.0798 51.8718 57.1579 51.945 57.2686 52.0004C57.3792 52.0557 57.5859 52.0834 57.8887 52.0834V52.264H54.5V52.0834C54.806 52.0834 55.0127 52.0557 55.1201 52.0004C55.2308 51.9418 55.3073 51.8669 55.3496 51.7758C55.3952 51.6846 55.418 51.46 55.418 51.1019V46.8051C55.418 46.447 55.3952 46.2224 55.3496 46.1312C55.3073 46.0368 55.2308 45.962 55.1201 45.9066C55.0094 45.8513 54.8027 45.8236 54.5 45.8236V45.6429H57.5762C58.377 45.6429 58.9629 45.6983 59.334 45.809C59.7051 45.9196 60.0078 46.1247 60.2422 46.4242C60.4766 46.7204 60.5938 47.0687 60.5938 47.4691C60.5938 47.9574 60.418 48.361 60.0664 48.6801C59.8418 48.8819 59.5277 49.0332 59.124 49.1342L60.7158 51.3754C60.9242 51.6651 61.0723 51.8457 61.1602 51.9174C61.2936 52.0183 61.4482 52.0736 61.624 52.0834V52.264H59.5391L57.4053 49.2465H56.9707ZM56.9707 45.9994V48.8998H57.249C57.7015 48.8998 58.04 48.8591 58.2646 48.7777C58.4893 48.6931 58.665 48.5433 58.792 48.3285C58.9222 48.1104 58.9873 47.8272 58.9873 47.4789C58.9873 46.9743 58.8685 46.6016 58.6309 46.3607C58.3965 46.1198 58.0173 45.9994 57.4932 45.9994H56.9707Z" fill="black"/>
<path d="M156.878 36.6986V37.7338C157.181 37.2618 157.446 36.9493 157.674 36.7963C157.902 36.64 158.121 36.5619 158.333 36.5619C158.515 36.5619 158.66 36.6189 158.768 36.7328C158.878 36.8435 158.934 37.0013 158.934 37.2064C158.934 37.4245 158.88 37.5938 158.772 37.7142C158.668 37.8347 158.541 37.8949 158.392 37.8949C158.219 37.8949 158.069 37.8396 157.942 37.7289C157.815 37.6182 157.741 37.5564 157.718 37.5433C157.685 37.5238 157.648 37.514 157.605 37.514C157.511 37.514 157.422 37.5498 157.337 37.6215C157.203 37.7321 157.103 37.89 157.034 38.0951C156.93 38.4108 156.878 38.7592 156.878 39.14V40.1898L156.883 40.4633C156.883 40.6488 156.894 40.7676 156.917 40.8197C156.956 40.9076 157.013 40.9727 157.088 41.015C157.166 41.0541 157.296 41.0785 157.479 41.0883V41.264H155.013V41.0883C155.211 41.072 155.345 41.0183 155.413 40.9271C155.485 40.8327 155.521 40.587 155.521 40.1898V37.6654C155.521 37.405 155.507 37.239 155.481 37.1674C155.449 37.0762 155.402 37.0095 155.34 36.9672C155.278 36.9248 155.169 36.8955 155.013 36.8793V36.6986H156.878Z" fill="black"/>
<path d="M152.137 36.5619C152.534 36.5619 152.903 36.6644 153.245 36.8695C153.587 37.0746 153.846 37.3659 154.021 37.7435C154.201 38.1211 154.29 38.5345 154.29 38.9838C154.29 39.6316 154.126 40.1735 153.797 40.6097C153.4 41.1371 152.851 41.4008 152.151 41.4008C151.465 41.4008 150.936 41.1599 150.564 40.6781C150.193 40.1963 150.008 39.6381 150.008 39.0033C150.008 38.349 150.197 37.7793 150.574 37.2943C150.955 36.806 151.476 36.5619 152.137 36.5619ZM152.156 36.9086C151.99 36.9086 151.847 36.972 151.727 37.099C151.609 37.2227 151.531 37.4701 151.492 37.8412C151.456 38.209 151.438 38.7217 151.438 39.3793C151.438 39.7276 151.461 40.0531 151.507 40.3558C151.543 40.587 151.619 40.7627 151.736 40.8832C151.854 41.0036 151.987 41.0638 152.137 41.0638C152.283 41.0638 152.405 41.0232 152.503 40.9418C152.63 40.8311 152.715 40.6765 152.757 40.4779C152.822 40.1687 152.854 39.5437 152.854 38.6029C152.854 38.0495 152.824 37.6703 152.762 37.4652C152.7 37.2569 152.609 37.1055 152.488 37.0111C152.404 36.9427 152.293 36.9086 152.156 36.9086Z" fill="black"/>
<path d="M148.655 37.1771V40.3461C148.655 40.6521 148.688 40.8441 148.753 40.9222C148.857 41.0427 149.049 41.098 149.329 41.0883V41.264H146.639V41.0883C146.844 41.085 146.989 41.0622 147.073 41.0199C147.161 40.9743 147.221 40.9125 147.254 40.8344C147.286 40.7562 147.303 40.5935 147.303 40.3461V37.1771H146.639V36.6986H147.303V36.3617L147.298 36.1322C147.298 35.6635 147.469 35.2728 147.811 34.9603C148.156 34.6478 148.621 34.4916 149.207 34.4916C149.607 34.4916 149.904 34.5664 150.096 34.7162C150.291 34.8659 150.389 35.0319 150.389 35.2142C150.389 35.3607 150.328 35.4877 150.208 35.5951C150.088 35.7025 149.928 35.7562 149.729 35.7562C149.56 35.7562 149.425 35.7123 149.324 35.6244C149.227 35.5365 149.178 35.4388 149.178 35.3314C149.178 35.3021 149.188 35.2419 149.207 35.1508C149.22 35.0954 149.227 35.0433 149.227 34.9945C149.227 34.9261 149.207 34.8757 149.168 34.8431C149.116 34.7943 149.052 34.7699 148.978 34.7699C148.883 34.7699 148.803 34.809 148.738 34.8871C148.676 34.9652 148.646 35.0905 148.646 35.2631L148.655 36.1176V36.6986H149.329V37.1771H148.655Z" fill="black"/>
<path d="M143.577 38.8177H141.072C141.102 39.4232 141.263 39.9017 141.556 40.2533C141.78 40.5235 142.05 40.6586 142.366 40.6586C142.562 40.6586 142.739 40.6049 142.898 40.4974C143.058 40.3868 143.229 40.1898 143.411 39.9066L143.577 40.014C143.33 40.5186 143.056 40.8767 142.757 41.0883C142.457 41.2966 142.111 41.4008 141.717 41.4008C141.04 41.4008 140.527 41.1403 140.179 40.6195C139.899 40.1996 139.759 39.6788 139.759 39.057C139.759 38.2953 139.964 37.6898 140.374 37.2406C140.787 36.7881 141.271 36.5619 141.824 36.5619C142.286 36.5619 142.687 36.7523 143.025 37.1332C143.367 37.5108 143.551 38.0723 143.577 38.8177ZM142.376 38.4906C142.376 37.9665 142.347 37.6068 142.288 37.4115C142.233 37.2162 142.145 37.0681 142.024 36.9672C141.956 36.9086 141.865 36.8793 141.751 36.8793C141.582 36.8793 141.443 36.9623 141.336 37.1283C141.144 37.418 141.048 37.8151 141.048 38.3197V38.4906H142.376Z" fill="black"/>
<path d="M138.992 40.0873L139.144 40.2045C138.929 40.6081 138.66 40.9092 138.338 41.1078C138.019 41.3031 137.679 41.4008 137.317 41.4008C136.709 41.4008 136.222 41.1713 135.857 40.7123C135.493 40.2533 135.311 39.7015 135.311 39.057C135.311 38.4353 135.477 37.8884 135.809 37.4164C136.209 36.8467 136.761 36.5619 137.464 36.5619C137.936 36.5619 138.31 36.6807 138.587 36.9183C138.867 37.156 139.007 37.4213 139.007 37.7142C139.007 37.8998 138.95 38.0479 138.836 38.1586C138.725 38.2692 138.579 38.3246 138.396 38.3246C138.204 38.3246 138.045 38.2611 137.918 38.1342C137.794 38.0072 137.718 37.781 137.688 37.4554C137.669 37.2504 137.622 37.1071 137.547 37.0258C137.472 36.9444 137.384 36.9037 137.283 36.9037C137.127 36.9037 136.993 36.9867 136.883 37.1527C136.714 37.4034 136.629 37.7875 136.629 38.3051C136.629 38.7347 136.697 39.1465 136.834 39.5404C136.971 39.931 137.158 40.2224 137.396 40.4144C137.575 40.5544 137.786 40.6244 138.03 40.6244C138.19 40.6244 138.341 40.587 138.484 40.5121C138.628 40.4372 138.797 40.2956 138.992 40.0873Z" fill="black"/>
<path d="M133.582 34.4867C133.794 34.4867 133.973 34.5616 134.119 34.7113C134.266 34.8578 134.339 35.0352 134.339 35.2435C134.339 35.4519 134.264 35.6293 134.114 35.7758C133.968 35.9222 133.79 35.9955 133.582 35.9955C133.374 35.9955 133.196 35.9222 133.05 35.7758C132.903 35.6293 132.83 35.4519 132.83 35.2435C132.83 35.0352 132.903 34.8578 133.05 34.7113C133.196 34.5616 133.374 34.4867 133.582 34.4867ZM134.266 36.6986V40.3168C134.266 40.639 134.303 40.8457 134.378 40.9369C134.453 41.0248 134.599 41.0752 134.817 41.0883V41.264H132.352V41.0883C132.553 41.0817 132.703 41.0232 132.801 40.9125C132.866 40.8376 132.898 40.639 132.898 40.3168V37.6508C132.898 37.3285 132.861 37.1234 132.786 37.0355C132.711 36.9444 132.566 36.8923 132.352 36.8793V36.6986H134.266Z" fill="black"/>
<path d="M131.155 37.1771V40.3461C131.155 40.6521 131.188 40.8441 131.253 40.9222C131.357 41.0427 131.549 41.098 131.829 41.0883V41.264H129.139V41.0883C129.344 41.085 129.489 41.0622 129.573 41.0199C129.661 40.9743 129.721 40.9125 129.754 40.8344C129.786 40.7562 129.803 40.5935 129.803 40.3461V37.1771H129.139V36.6986H129.803V36.3617L129.798 36.1322C129.798 35.6635 129.969 35.2728 130.311 34.9603C130.656 34.6478 131.121 34.4916 131.707 34.4916C132.107 34.4916 132.404 34.5664 132.596 34.7162C132.791 34.8659 132.889 35.0319 132.889 35.2142C132.889 35.3607 132.828 35.4877 132.708 35.5951C132.588 35.7025 132.428 35.7562 132.229 35.7562C132.06 35.7562 131.925 35.7123 131.824 35.6244C131.727 35.5365 131.678 35.4388 131.678 35.3314C131.678 35.3021 131.688 35.2419 131.707 35.1508C131.72 35.0954 131.727 35.0433 131.727 34.9945C131.727 34.9261 131.707 34.8757 131.668 34.8431C131.616 34.7943 131.552 34.7699 131.478 34.7699C131.383 34.7699 131.303 34.809 131.238 34.8871C131.176 34.9652 131.146 35.0905 131.146 35.2631L131.155 36.1176V36.6986H131.829V37.1771H131.155Z" fill="black"/>
<path d="M127.825 37.1771V40.3461C127.825 40.6521 127.858 40.8441 127.923 40.9222C128.027 41.0427 128.219 41.098 128.499 41.0883V41.264H125.809V41.0883C126.014 41.085 126.159 41.0622 126.243 41.0199C126.331 40.9743 126.391 40.9125 126.424 40.8344C126.456 40.7562 126.473 40.5935 126.473 40.3461V37.1771H125.809V36.6986H126.473V36.3617L126.468 36.1322C126.468 35.6635 126.639 35.2728 126.98 34.9603C127.326 34.6478 127.791 34.4916 128.377 34.4916C128.777 34.4916 129.074 34.5664 129.266 34.7162C129.461 34.8659 129.559 35.0319 129.559 35.2142C129.559 35.3607 129.498 35.4877 129.378 35.5951C129.257 35.7025 129.098 35.7562 128.899 35.7562C128.73 35.7562 128.595 35.7123 128.494 35.6244C128.396 35.5365 128.348 35.4388 128.348 35.3314C128.348 35.3021 128.357 35.2419 128.377 35.1508C128.39 35.0954 128.396 35.0433 128.396 34.9945C128.396 34.9261 128.377 34.8757 128.338 34.8431C128.286 34.7943 128.222 34.7699 128.147 34.7699C128.053 34.7699 127.973 34.809 127.908 34.8871C127.846 34.9652 127.815 35.0905 127.815 35.2631L127.825 36.1176V36.6986H128.499V37.1771H127.825Z" fill="black"/>
<path d="M121.565 34.5502C122.62 34.5111 123.476 34.8187 124.134 35.473C124.795 36.1273 125.125 36.946 125.125 37.9291C125.125 38.7689 124.879 39.5079 124.388 40.1459C123.737 40.9922 122.817 41.4154 121.629 41.4154C120.438 41.4154 119.516 41.0118 118.865 40.2045C118.351 39.5664 118.094 38.8096 118.094 37.934C118.094 36.9509 118.427 36.1322 119.095 35.4779C119.765 34.8204 120.589 34.5111 121.565 34.5502ZM121.624 34.8627C121.019 34.8627 120.558 35.1719 120.242 35.7904C119.985 36.2982 119.856 37.0274 119.856 37.9779C119.856 39.1075 120.055 39.9424 120.452 40.4828C120.729 40.8604 121.116 41.0492 121.614 41.0492C121.95 41.0492 122.229 40.9678 122.454 40.8051C122.741 40.5967 122.964 40.2647 123.123 39.809C123.283 39.35 123.362 38.7526 123.362 38.017C123.362 37.1413 123.281 36.487 123.118 36.0541C122.955 35.6179 122.747 35.3103 122.493 35.1312C122.243 34.9522 121.953 34.8627 121.624 34.8627Z" fill="black"/>
<path d="M111.839 36.6986V37.2894C112.073 37.0355 112.298 36.8516 112.513 36.7377C112.728 36.6205 112.959 36.5619 113.206 36.5619C113.502 36.5619 113.748 36.6449 113.943 36.8109C114.139 36.9737 114.269 37.1771 114.334 37.4213C114.386 37.6068 114.412 37.9633 114.412 38.4906V40.2679C114.412 40.6195 114.443 40.8392 114.505 40.9271C114.57 41.0118 114.703 41.0655 114.905 41.0883V41.264H112.596V41.0883C112.768 41.0655 112.892 40.9939 112.967 40.8734C113.019 40.792 113.045 40.5902 113.045 40.2679V38.2367C113.045 37.8623 113.03 37.6263 113.001 37.5287C112.972 37.431 112.921 37.3562 112.85 37.3041C112.781 37.2487 112.705 37.2211 112.62 37.2211C112.34 37.2211 112.08 37.4213 111.839 37.8217V40.2679C111.839 40.6097 111.87 40.8262 111.932 40.9174C111.997 41.0085 112.116 41.0655 112.288 41.0883V41.264H109.979V41.0883C110.171 41.0687 110.307 41.0069 110.389 40.9027C110.444 40.8311 110.472 40.6195 110.472 40.2679V37.6898C110.472 37.3448 110.439 37.1299 110.374 37.0453C110.312 36.9607 110.18 36.9053 109.979 36.8793V36.6986H111.839Z" fill="black"/>
<path d="M107.493 40.5902C106.937 41.0817 106.437 41.3275 105.994 41.3275C105.734 41.3275 105.517 41.2429 105.345 41.0736C105.172 40.9011 105.086 40.6862 105.086 40.4291C105.086 40.0808 105.236 39.7683 105.535 39.4916C105.835 39.2116 106.487 38.8405 107.493 38.3783V37.9193C107.493 37.5743 107.474 37.3578 107.435 37.2699C107.399 37.1788 107.329 37.1006 107.225 37.0355C107.12 36.9672 107.003 36.933 106.873 36.933C106.661 36.933 106.487 36.9802 106.351 37.0746C106.266 37.1332 106.224 37.2015 106.224 37.2797C106.224 37.348 106.269 37.4327 106.36 37.5336C106.484 37.6735 106.546 37.8086 106.546 37.9388C106.546 38.0983 106.486 38.2351 106.365 38.349C106.248 38.4597 106.093 38.515 105.901 38.515C105.696 38.515 105.524 38.4532 105.384 38.3295C105.247 38.2058 105.179 38.0609 105.179 37.8949C105.179 37.6605 105.271 37.4375 105.457 37.226C105.643 37.0111 105.901 36.8467 106.233 36.7328C106.565 36.6189 106.91 36.5619 107.269 36.5619C107.701 36.5619 108.043 36.6547 108.294 36.8402C108.548 37.0225 108.712 37.2211 108.787 37.4359C108.833 37.5726 108.855 37.8868 108.855 38.3783V40.1508C108.855 40.3591 108.864 40.4909 108.88 40.5463C108.896 40.5983 108.921 40.6374 108.953 40.6635C108.986 40.6895 109.023 40.7025 109.065 40.7025C109.15 40.7025 109.236 40.6423 109.324 40.5219L109.471 40.639C109.308 40.8799 109.139 41.0557 108.963 41.1664C108.79 41.2738 108.593 41.3275 108.372 41.3275C108.112 41.3275 107.908 41.2673 107.762 41.1469C107.615 41.0232 107.526 40.8376 107.493 40.5902ZM107.493 40.2338V38.7054C107.099 38.9366 106.806 39.184 106.614 39.4476C106.487 39.6234 106.424 39.8008 106.424 39.9799C106.424 40.1296 106.478 40.2614 106.585 40.3754C106.666 40.4633 106.78 40.5072 106.927 40.5072C107.09 40.5072 107.278 40.4161 107.493 40.2338Z" fill="black"/>
<path d="M103.289 34.4867C103.501 34.4867 103.68 34.5616 103.826 34.7113C103.973 34.8578 104.046 35.0352 104.046 35.2435C104.046 35.4519 103.971 35.6293 103.821 35.7758C103.675 35.9222 103.497 35.9955 103.289 35.9955C103.081 35.9955 102.903 35.9222 102.757 35.7758C102.61 35.6293 102.537 35.4519 102.537 35.2435C102.537 35.0352 102.61 34.8578 102.757 34.7113C102.903 34.5616 103.081 34.4867 103.289 34.4867ZM103.973 36.6986V40.3168C103.973 40.639 104.01 40.8457 104.085 40.9369C104.16 41.0248 104.306 41.0752 104.524 41.0883V41.264H102.059V41.0883C102.26 41.0817 102.41 41.0232 102.508 40.9125C102.573 40.8376 102.605 40.639 102.605 40.3168V37.6508C102.605 37.3285 102.568 37.1234 102.493 37.0355C102.418 36.9444 102.273 36.8923 102.059 36.8793V36.6986H103.973Z" fill="black"/>
<path d="M101.062 34.6429V39.8969C101.062 40.2517 101.072 40.4616 101.092 40.5267C101.118 40.6342 101.167 40.7139 101.238 40.766C101.313 40.8181 101.442 40.8506 101.624 40.8636V41.0248L99.6953 41.4008V40.6781C99.4642 40.958 99.2575 41.1485 99.0752 41.2494C98.8962 41.3503 98.6927 41.4008 98.4648 41.4008C97.8822 41.4008 97.4216 41.1403 97.083 40.6195C96.8096 40.1963 96.6729 39.6771 96.6729 39.0619C96.6729 38.5704 96.7575 38.1309 96.9268 37.7435C97.096 37.3529 97.3271 37.0583 97.6201 36.8597C97.9163 36.6612 98.2337 36.5619 98.5723 36.5619C98.7904 36.5619 98.9841 36.6042 99.1533 36.6888C99.3226 36.7735 99.5033 36.9216 99.6953 37.1332V35.7562C99.6953 35.4079 99.6807 35.198 99.6514 35.1263C99.6123 35.0319 99.5537 34.962 99.4756 34.9164C99.3975 34.8708 99.251 34.848 99.0361 34.848V34.6429H101.062ZM99.6953 37.7386C99.4544 37.2764 99.1598 37.0453 98.8115 37.0453C98.6911 37.0453 98.5918 37.0778 98.5137 37.1429C98.3932 37.2439 98.2939 37.4213 98.2158 37.6752C98.1409 37.9291 98.1035 38.3181 98.1035 38.8422C98.1035 39.4183 98.1458 39.8448 98.2305 40.1215C98.3151 40.3982 98.4307 40.5983 98.5771 40.722C98.652 40.7839 98.7546 40.8148 98.8848 40.8148C99.1712 40.8148 99.4414 40.5902 99.6953 40.141V37.7386Z" fill="black"/>
<path d="M94.1436 40.5902C93.5869 41.0817 93.0872 41.3275 92.6445 41.3275C92.3841 41.3275 92.1676 41.2429 91.9951 41.0736C91.8226 40.9011 91.7363 40.6862 91.7363 40.4291C91.7363 40.0808 91.8861 39.7683 92.1855 39.4916C92.485 39.2116 93.1377 38.8405 94.1436 38.3783V37.9193C94.1436 37.5743 94.124 37.3578 94.085 37.2699C94.0492 37.1788 93.9792 37.1006 93.875 37.0355C93.7708 36.9672 93.6536 36.933 93.5234 36.933C93.3118 36.933 93.1377 36.9802 93.001 37.0746C92.9163 37.1332 92.874 37.2015 92.874 37.2797C92.874 37.348 92.9196 37.4327 93.0107 37.5336C93.1344 37.6735 93.1963 37.8086 93.1963 37.9388C93.1963 38.0983 93.1361 38.2351 93.0156 38.349C92.8984 38.4597 92.7438 38.515 92.5518 38.515C92.3467 38.515 92.1742 38.4532 92.0342 38.3295C91.8975 38.2058 91.8291 38.0609 91.8291 37.8949C91.8291 37.6605 91.9219 37.4375 92.1074 37.226C92.293 37.0111 92.5518 36.8467 92.8838 36.7328C93.2158 36.6189 93.5609 36.5619 93.9189 36.5619C94.3519 36.5619 94.6937 36.6547 94.9443 36.8402C95.1982 37.0225 95.3626 37.2211 95.4375 37.4359C95.4831 37.5726 95.5059 37.8868 95.5059 38.3783V40.1508C95.5059 40.3591 95.514 40.4909 95.5303 40.5463C95.5466 40.5983 95.571 40.6374 95.6035 40.6635C95.6361 40.6895 95.6735 40.7025 95.7158 40.7025C95.8005 40.7025 95.8867 40.6423 95.9746 40.5219L96.1211 40.639C95.9583 40.8799 95.7891 41.0557 95.6133 41.1664C95.4408 41.2738 95.2438 41.3275 95.0225 41.3275C94.762 41.3275 94.5586 41.2673 94.4121 41.1469C94.2656 41.0232 94.1761 40.8376 94.1436 40.5902ZM94.1436 40.2338V38.7054C93.7497 38.9366 93.4567 39.184 93.2646 39.4476C93.1377 39.6234 93.0742 39.8008 93.0742 39.9799C93.0742 40.1296 93.1279 40.2614 93.2354 40.3754C93.3167 40.4633 93.4307 40.5072 93.5771 40.5072C93.7399 40.5072 93.9287 40.4161 94.1436 40.2338Z" fill="black"/>
<path d="M87.9229 36.6986V37.2894C88.1572 37.0355 88.3818 36.8516 88.5967 36.7377C88.8115 36.6205 89.0426 36.5619 89.29 36.5619C89.5863 36.5619 89.832 36.6449 90.0273 36.8109C90.2227 36.9737 90.3529 37.1771 90.418 37.4213C90.4701 37.6068 90.4961 37.9633 90.4961 38.4906V40.2679C90.4961 40.6195 90.527 40.8392 90.5889 40.9271C90.654 41.0118 90.7874 41.0655 90.9893 41.0883V41.264H88.6797V41.0883C88.8522 41.0655 88.9759 40.9939 89.0508 40.8734C89.1029 40.792 89.1289 40.5902 89.1289 40.2679V38.2367C89.1289 37.8623 89.1143 37.6263 89.085 37.5287C89.0557 37.431 89.0052 37.3562 88.9336 37.3041C88.8652 37.2487 88.7887 37.2211 88.7041 37.2211C88.4242 37.2211 88.1637 37.4213 87.9229 37.8217V40.2679C87.9229 40.6097 87.9538 40.8262 88.0156 40.9174C88.0807 41.0085 88.1995 41.0655 88.3721 41.0883V41.264H86.0625V41.0883C86.2546 41.0687 86.3913 41.0069 86.4727 40.9027C86.528 40.8311 86.5557 40.6195 86.5557 40.2679V37.6898C86.5557 37.3448 86.5231 37.1299 86.458 37.0453C86.3962 36.9607 86.2643 36.9053 86.0625 36.8793V36.6986H87.9229Z" fill="black"/>
<path d="M83.5771 40.5902C83.0205 41.0817 82.5208 41.3275 82.0781 41.3275C81.8177 41.3275 81.6012 41.2429 81.4287 41.0736C81.2562 40.9011 81.1699 40.6862 81.1699 40.4291C81.1699 40.0808 81.3197 39.7683 81.6191 39.4916C81.9186 39.2116 82.5713 38.8405 83.5771 38.3783V37.9193C83.5771 37.5743 83.5576 37.3578 83.5186 37.2699C83.4827 37.1788 83.4128 37.1006 83.3086 37.0355C83.2044 36.9672 83.0872 36.933 82.957 36.933C82.7454 36.933 82.5713 36.9802 82.4346 37.0746C82.3499 37.1332 82.3076 37.2015 82.3076 37.2797C82.3076 37.348 82.3532 37.4327 82.4443 37.5336C82.568 37.6735 82.6299 37.8086 82.6299 37.9388C82.6299 38.0983 82.5697 38.2351 82.4492 38.349C82.332 38.4597 82.1774 38.515 81.9854 38.515C81.7803 38.515 81.6077 38.4532 81.4678 38.3295C81.3311 38.2058 81.2627 38.0609 81.2627 37.8949C81.2627 37.6605 81.3555 37.4375 81.541 37.226C81.7266 37.0111 81.9854 36.8467 82.3174 36.7328C82.6494 36.6189 82.9945 36.5619 83.3525 36.5619C83.7855 36.5619 84.1273 36.6547 84.3779 36.8402C84.6318 37.0225 84.7962 37.2211 84.8711 37.4359C84.9167 37.5726 84.9395 37.8868 84.9395 38.3783V40.1508C84.9395 40.3591 84.9476 40.4909 84.9639 40.5463C84.9801 40.5983 85.0046 40.6374 85.0371 40.6635C85.0697 40.6895 85.1071 40.7025 85.1494 40.7025C85.234 40.7025 85.3203 40.6423 85.4082 40.5219L85.5547 40.639C85.3919 40.8799 85.2227 41.0557 85.0469 41.1664C84.8743 41.2738 84.6774 41.3275 84.4561 41.3275C84.1956 41.3275 83.9922 41.2673 83.8457 41.1469C83.6992 41.0232 83.6097 40.8376 83.5771 40.5902ZM83.5771 40.2338V38.7054C83.1833 38.9366 82.8903 39.184 82.6982 39.4476C82.5713 39.6234 82.5078 39.8008 82.5078 39.9799C82.5078 40.1296 82.5615 40.2614 82.6689 40.3754C82.7503 40.4633 82.8643 40.5072 83.0107 40.5072C83.1735 40.5072 83.3623 40.4161 83.5771 40.2338Z" fill="black"/>
<path d="M80.1689 34.4916V36.7865H79.9785C79.8353 36.1875 79.5684 35.7286 79.1777 35.4095C78.7871 35.0905 78.3444 34.931 77.8496 34.931C77.4362 34.931 77.057 35.0498 76.7119 35.2875C76.3669 35.5251 76.1146 35.836 75.9551 36.2201C75.75 36.7116 75.6475 37.2585 75.6475 37.8607C75.6475 38.4532 75.7223 38.9935 75.8721 39.4818C76.0218 39.9668 76.2562 40.3347 76.5752 40.5853C76.8942 40.8327 77.3076 40.9564 77.8154 40.9564C78.2321 40.9564 78.613 40.8653 78.958 40.683C79.3063 40.5007 79.6725 40.1866 80.0566 39.7406V40.3119C79.6855 40.6993 79.2982 40.9808 78.8945 41.1566C78.4941 41.3291 78.0254 41.4154 77.4883 41.4154C76.7819 41.4154 76.1536 41.2738 75.6035 40.9906C75.0566 40.7074 74.6335 40.3005 74.334 39.7699C74.0378 39.2393 73.8896 38.6745 73.8896 38.0756C73.8896 37.4441 74.054 36.8451 74.3828 36.2787C74.7148 35.7123 75.1608 35.2728 75.7207 34.9603C76.2839 34.6478 76.8812 34.4916 77.5127 34.4916C77.9782 34.4916 78.4697 34.5925 78.9873 34.7943C79.2868 34.9115 79.4772 34.9701 79.5586 34.9701C79.6628 34.9701 79.7523 34.9327 79.8271 34.8578C79.9053 34.7797 79.9557 34.6576 79.9785 34.4916H80.1689Z" fill="black"/>
<path d="M70.7549 38.8177H68.25C68.2793 39.4232 68.4404 39.9017 68.7334 40.2533C68.958 40.5235 69.2282 40.6586 69.5439 40.6586C69.7393 40.6586 69.9167 40.6049 70.0762 40.4974C70.2357 40.3868 70.4066 40.1898 70.5889 39.9066L70.7549 40.014C70.5075 40.5186 70.234 40.8767 69.9346 41.0883C69.6351 41.2966 69.2884 41.4008 68.8945 41.4008C68.2174 41.4008 67.7048 41.1403 67.3564 40.6195C67.0765 40.1996 66.9365 39.6788 66.9365 39.057C66.9365 38.2953 67.1416 37.6898 67.5518 37.2406C67.9652 36.7881 68.4486 36.5619 69.002 36.5619C69.4642 36.5619 69.8646 36.7523 70.2031 37.1332C70.5449 37.5108 70.7288 38.0723 70.7549 38.8177ZM69.5537 38.4906C69.5537 37.9665 69.5244 37.6068 69.4658 37.4115C69.4105 37.2162 69.3226 37.0681 69.2021 36.9672C69.1338 36.9086 69.0426 36.8793 68.9287 36.8793C68.7594 36.8793 68.6211 36.9623 68.5137 37.1283C68.3216 37.418 68.2256 37.8151 68.2256 38.3197V38.4906H69.5537Z" fill="black"/>
<path d="M63.1865 34.6429V37.2845C63.4372 37.0209 63.6667 36.8353 63.875 36.7279C64.0833 36.6172 64.2998 36.5619 64.5244 36.5619C64.8109 36.5619 65.055 36.6433 65.2568 36.806C65.4619 36.9688 65.597 37.1608 65.6621 37.3822C65.7305 37.6003 65.7646 37.9698 65.7646 38.4906V40.2728C65.7646 40.6211 65.7972 40.8392 65.8623 40.9271C65.9274 41.0118 66.0592 41.0655 66.2578 41.0883V41.264H63.9434V41.0883C64.1061 41.0655 64.2282 41.0004 64.3096 40.8929C64.3682 40.8083 64.3975 40.6016 64.3975 40.2728V38.2367C64.3975 37.8591 64.3828 37.6231 64.3535 37.5287C64.3242 37.431 64.2738 37.3562 64.2021 37.3041C64.1338 37.2487 64.0557 37.2211 63.9678 37.2211C63.8376 37.2211 63.7106 37.2666 63.5869 37.3578C63.4632 37.4457 63.3298 37.6019 63.1865 37.8265V40.2728C63.1865 40.5983 63.2109 40.8018 63.2598 40.8832C63.3216 40.9939 63.4486 41.0622 63.6406 41.0883V41.264H61.3262V41.0883C61.5182 41.0687 61.6549 41.0069 61.7363 40.9027C61.7917 40.8311 61.8193 40.6211 61.8193 40.2728V35.6342C61.8193 35.2891 61.7868 35.0743 61.7217 34.9896C61.6598 34.905 61.528 34.8497 61.3262 34.8236V34.6429H63.1865Z" fill="black"/>
<path d="M60.623 34.6429V36.4349H60.4473C60.3431 36.0215 60.2275 35.7253 60.1006 35.5463C59.9736 35.364 59.7995 35.2191 59.5781 35.1117C59.4544 35.0531 59.238 35.0238 58.9287 35.0238H58.4355V40.1312C58.4355 40.4698 58.4535 40.6814 58.4893 40.766C58.5283 40.8506 58.6016 40.9255 58.709 40.9906C58.8197 41.0524 58.9694 41.0834 59.1582 41.0834H59.3779V41.264H55.9111V41.0834H56.1309C56.3229 41.0834 56.4775 41.0492 56.5947 40.9808C56.6794 40.9353 56.7461 40.8571 56.7949 40.7465C56.8307 40.6683 56.8486 40.4633 56.8486 40.1312V35.0238H56.3701C55.9242 35.0238 55.6003 35.1182 55.3984 35.307C55.1152 35.5707 54.9362 35.9467 54.8613 36.4349H54.6758V34.6429H60.623Z" fill="black"/>
</g>
<defs>
<clipPath id="clip0_61_923">
<rect width="159" height="55" fill="white" transform="translate(0.5)"/>
</clipPath>
</defs>
</svg>
