<svg width="49" height="40" viewBox="0 0 49 40" fill="none" xmlns="http://www.w3.org/2000/svg">
<rect width="48.0537" height="40" transform="translate(0.380615)" fill="white"/>
<g clip-path="url(#clip0_17_1057)">
<path d="M11.2441 25.0416L13.6964 24.43V16.1892H16.3539V14.9672H8.38062L8.65271 16.1892H11.2441V25.0416Z" fill="black"/>
<path fill-rule="evenodd" clip-rule="evenodd" d="M24.4196 14.9689C23.8285 16.7143 23.2534 18.4799 22.5108 20.0545C21.8635 18.3732 21.2778 16.6217 20.6044 14.9689H17.9838V24.7351H19.3759V18.2617L21.9242 24.6308L24.4188 18.4015V18.5328C24.4196 18.5315 24.4196 18.5302 24.4196 18.5285V24.735H26.8727V14.9688L24.4196 14.9689Z" fill="black"/>
<path d="M40.4345 12.2124H37.155C37.7385 9.57383 38.0483 6.8134 38.0483 3.97314L35.9927 4.89409C35.6175 19.7452 26.1784 32.057 13.6496 35.1385L13.389 36.0269C18.9354 34.7588 23.9092 31.7298 27.8274 27.4835H30.2097L33.3467 22.4457L36.4808 27.4835H40.4344L35.2116 19.8519L40.4345 12.2124Z" fill="black"/>
<path d="M32.4903 17.3897L30.866 14.9672H28.141L31.3895 19.711C31.8122 19.0124 32.2159 18.1812 32.4903 17.3897Z" fill="black"/>
</g>
<defs>
<clipPath id="clip0_17_1057">
<rect width="32.0537" height="32.0537" fill="white" transform="translate(8.38062 3.97314)"/>
</clipPath>
</defs>
</svg>
