<svg width="107" height="27" viewBox="0 0 107 27" fill="none" xmlns="http://www.w3.org/2000/svg">
<path d="M28.1739 9.82031H38.8939V11.8093H34.6788V22.9903H32.361V11.8093H28.1646V9.82031H28.1739ZM38.436 13.4544H40.4173V15.2946H40.4547C40.5201 15.0344 40.6416 14.7835 40.8192 14.5418C40.9968 14.3002 41.2118 14.0678 41.4641 13.8726C41.7165 13.6681 41.9968 13.5101 42.3053 13.38C42.6137 13.2592 42.9315 13.1941 43.2492 13.1941C43.4922 13.1941 43.6698 13.2034 43.7633 13.2127C43.8567 13.222 43.9502 13.2406 44.053 13.2499V15.2761C43.9035 15.2482 43.7539 15.2296 43.595 15.211C43.4361 15.1924 43.2866 15.1831 43.1371 15.1831C42.7819 15.1831 42.4455 15.2575 42.1277 15.3969C41.8099 15.5363 41.5389 15.7501 41.3052 16.0196C41.0716 16.2984 40.8846 16.633 40.7445 17.042C40.6043 17.4509 40.5388 17.9156 40.5388 18.4454V22.981H38.4266V13.4544L38.436 13.4544ZM53.7636 22.9903H51.6888V21.6612H51.6514C51.3897 22.1445 51.0065 22.5256 50.4925 22.8137C49.9784 23.1018 49.4551 23.2505 48.9223 23.2505C47.6606 23.2505 46.7447 22.9438 46.1839 22.3211C45.6231 21.6984 45.3428 20.7597 45.3428 19.5049V13.4544H47.455V19.3005C47.455 20.137 47.6139 20.7318 47.941 21.0757C48.2588 21.4196 48.7167 21.5962 49.2962 21.5962C49.7448 21.5962 50.1093 21.5311 50.4084 21.3917C50.7074 21.2523 50.9504 21.0757 51.128 20.8433C51.3149 20.6203 51.4458 20.3414 51.5299 20.0254C51.614 19.7094 51.6514 19.3655 51.6514 18.9938V13.4637H53.7636V22.9903ZM57.3619 19.9325C57.4273 20.5459 57.661 20.9734 58.0629 21.2244C58.4741 21.466 58.9601 21.5962 59.5302 21.5962C59.7265 21.5962 59.9508 21.5776 60.2031 21.5497C60.4555 21.5218 60.6985 21.4567 60.9134 21.3731C61.1377 21.2895 61.3153 21.1593 61.4648 20.992C61.605 20.8247 61.6705 20.611 61.6611 20.3414C61.6518 20.0719 61.549 19.8488 61.362 19.6815C61.1751 19.5049 60.9415 19.3748 60.6517 19.2633C60.362 19.1611 60.0349 19.0681 59.661 18.9938C59.2872 18.9194 58.9134 18.8358 58.5302 18.7521C58.1376 18.6685 57.7544 18.5569 57.3899 18.4361C57.0254 18.3153 56.6983 18.148 56.4086 17.9342C56.1189 17.7297 55.8852 17.4602 55.717 17.1349C55.5394 16.8096 55.4553 16.41 55.4553 15.9267C55.4553 15.4062 55.5861 14.9786 55.8385 14.6255C56.0908 14.2723 56.4179 13.9934 56.8011 13.7797C57.1937 13.5659 57.6236 13.4172 58.1002 13.3243C58.5769 13.2406 59.0348 13.1941 59.4648 13.1941C59.9601 13.1941 60.4368 13.2499 60.8854 13.3521C61.334 13.4544 61.7452 13.6217 62.1097 13.8633C62.4742 14.0957 62.7733 14.4024 63.0163 14.7742C63.2593 15.1459 63.4088 15.6014 63.4743 16.1311H61.2686C61.1658 15.6292 60.9415 15.2853 60.577 15.118C60.2125 14.9415 59.7919 14.8578 59.3246 14.8578C59.175 14.8578 58.9975 14.8671 58.7919 14.895C58.5862 14.9229 58.3993 14.9693 58.2124 15.0344C58.0348 15.0995 57.8853 15.2017 57.7544 15.3318C57.6329 15.4619 57.5675 15.6292 57.5675 15.843C57.5675 16.1032 57.661 16.3077 57.8385 16.4657C58.0161 16.6237 58.2498 16.7538 58.5395 16.8654C58.8292 16.9676 59.1564 17.0606 59.5302 17.1349C59.904 17.2093 60.2872 17.2929 60.6798 17.3766C61.063 17.4602 61.4368 17.5717 61.8107 17.6926C62.1845 17.8134 62.5116 17.9807 62.8013 18.1945C63.0911 18.4082 63.3247 18.6685 63.5023 18.9845C63.6799 19.3005 63.7733 19.7001 63.7733 20.1648C63.7733 20.7318 63.6425 21.2058 63.3808 21.6055C63.1191 21.9958 62.7827 22.3211 62.3714 22.5628C61.9602 22.8044 61.4929 22.9903 60.9882 23.1018C60.4835 23.2134 59.9788 23.2691 59.4835 23.2691C58.876 23.2691 58.3152 23.2041 57.8012 23.0647C57.2871 22.9252 56.8385 22.7208 56.4647 22.4512C56.0908 22.1724 55.7917 21.8285 55.5768 21.4196C55.3618 21.0106 55.2497 20.518 55.231 19.9511H57.3619V19.9325ZM64.3341 13.4544H65.9323V10.5917H68.0445V13.4544H69.9511V15.0251H68.0445V20.1184C68.0445 20.3414 68.0539 20.5273 68.0726 20.6946C68.0913 20.8526 68.138 20.992 68.2034 21.1036C68.2688 21.2151 68.3716 21.2987 68.5118 21.3545C68.652 21.4103 68.8296 21.4382 69.0726 21.4382C69.2221 21.4382 69.3717 21.4382 69.5212 21.4289C69.6708 21.4196 69.8203 21.401 69.9698 21.3638V22.9903C69.7362 23.0182 69.5025 23.0368 69.2876 23.0647C69.0633 23.0925 68.839 23.1018 68.6053 23.1018C68.0445 23.1018 67.5959 23.0461 67.2595 22.9438C66.923 22.8416 66.652 22.6836 66.465 22.4791C66.2688 22.2746 66.1473 22.0237 66.0725 21.717C66.0071 21.4103 65.9603 21.0571 65.951 20.6667V15.0437H64.3528V13.4544H64.3341ZM71.4465 13.4544H73.4466V14.7463H73.484C73.7831 14.1886 74.1943 13.7983 74.727 13.5566C75.2598 13.315 75.8299 13.1941 76.4561 13.1941C77.2131 13.1941 77.8673 13.3243 78.4281 13.5938C78.9889 13.854 79.4562 14.2165 79.83 14.6812C80.2039 15.1459 80.4749 15.685 80.6618 16.2984C80.8487 16.9118 80.9422 17.5717 80.9422 18.2688C80.9422 18.9101 80.8581 19.5328 80.6899 20.1277C80.5216 20.7318 80.2693 21.2616 79.9328 21.7263C79.5964 22.191 79.1664 22.5535 78.6431 22.8323C78.1197 23.1111 77.5122 23.2505 76.8019 23.2505C76.4934 23.2505 76.185 23.2227 75.8766 23.1669C75.5682 23.1111 75.2691 23.0182 74.9887 22.8974C74.7083 22.7765 74.4373 22.6185 74.2036 22.4234C73.9606 22.2282 73.7644 22.0051 73.5961 21.7542H73.5588V26.5128H71.4465V13.4544ZM78.83 18.2316C78.83 17.8041 78.7739 17.3859 78.6617 16.9769C78.5496 16.568 78.3814 16.2148 78.1571 15.8988C77.9327 15.5828 77.6524 15.3318 77.3252 15.1459C76.9888 14.96 76.6056 14.8578 76.1757 14.8578C75.2878 14.8578 74.6149 15.1645 74.1663 15.7779C73.7176 16.3914 73.4933 17.2093 73.4933 18.2316C73.4933 18.7149 73.5494 19.1611 73.6709 19.57C73.7924 19.979 73.9606 20.3321 74.2036 20.6296C74.4373 20.927 74.7177 21.1593 75.0448 21.3266C75.3719 21.5032 75.7551 21.5869 76.185 21.5869C76.671 21.5869 77.0729 21.4846 77.4094 21.2894C77.7458 21.0943 78.0169 20.834 78.2318 20.5273C78.4468 20.2113 78.6057 19.8581 78.6991 19.4585C78.7832 19.0588 78.83 18.6499 78.83 18.2316ZM82.5591 9.82031H84.6713V11.8093H82.5591V9.82031ZM82.5591 13.4544H84.6713V22.9903H82.5591V13.4544ZM86.5592 9.82031H88.6715V22.9903H86.5592V9.82031ZM95.1483 23.2505C94.382 23.2505 93.6997 23.1204 93.1015 22.8695C92.5034 22.6185 91.9987 22.2653 91.5781 21.8285C91.1669 21.3824 90.8491 20.8526 90.6341 20.2392C90.4192 19.6258 90.307 18.9473 90.307 18.213C90.307 17.4881 90.4192 16.8189 90.6341 16.2055C90.8491 15.5921 91.1669 15.0623 91.5781 14.6162C91.9893 14.17 92.5034 13.8261 93.1015 13.5752C93.6997 13.3243 94.382 13.1941 95.1483 13.1941C95.9147 13.1941 96.597 13.3243 97.1951 13.5752C97.7933 13.8261 98.298 14.1793 98.7186 14.6162C99.1298 15.0623 99.4476 15.5921 99.6625 16.2055C99.8775 16.8189 99.9896 17.4881 99.9896 18.213C99.9896 18.9473 99.8775 19.6258 99.6625 20.2392C99.4476 20.8526 99.1298 21.3824 98.7186 21.8285C98.3073 22.2746 97.7933 22.6185 97.1951 22.8695C96.597 23.1204 95.9147 23.2505 95.1483 23.2505ZM95.1483 21.5869C95.6156 21.5869 96.0269 21.4846 96.3727 21.2894C96.7185 21.0943 96.9989 20.834 97.2232 20.518C97.4475 20.202 97.6064 19.8395 97.7185 19.4399C97.8213 19.0402 97.8774 18.6313 97.8774 18.213C97.8774 17.8041 97.8213 17.4044 97.7185 16.9955C97.6157 16.5865 97.4475 16.2334 97.2232 15.9174C96.9989 15.6014 96.7185 15.3504 96.3727 15.1552C96.0269 14.96 95.6156 14.8578 95.1483 14.8578C94.681 14.8578 94.2698 14.96 93.924 15.1552C93.5782 15.3504 93.2978 15.6106 93.0735 15.9174C92.8492 16.2334 92.6903 16.5865 92.5781 16.9955C92.4753 17.4044 92.4193 17.8041 92.4193 18.213C92.4193 18.6313 92.4753 19.0402 92.5781 19.4399C92.6809 19.8395 92.8492 20.202 93.0735 20.518C93.2978 20.834 93.5782 21.0943 93.924 21.2894C94.2698 21.4939 94.681 21.5869 95.1483 21.5869ZM100.606 13.4544H102.205V10.5917H104.317V13.4544H106.224V15.0251H104.317V20.1184C104.317 20.3414 104.326 20.5273 104.345 20.6946C104.364 20.8526 104.41 20.992 104.476 21.1036C104.541 21.2151 104.644 21.2987 104.784 21.3545C104.924 21.4103 105.102 21.4382 105.345 21.4382C105.495 21.4382 105.644 21.4382 105.794 21.4289C105.943 21.4196 106.093 21.401 106.242 21.3638V22.9903C106.009 23.0182 105.775 23.0368 105.56 23.0647C105.336 23.0925 105.111 23.1018 104.878 23.1018C104.317 23.1018 103.868 23.0461 103.532 22.9438C103.195 22.8416 102.924 22.6836 102.737 22.4791C102.541 22.2746 102.42 22.0237 102.345 21.717C102.279 21.4103 102.233 21.0571 102.223 20.6667V15.0437H100.625V13.4544L100.606 13.4544Z" fill="#191919"/>
<path d="M25.7062 9.82041H16.0236L13.0328 0.65625L10.0327 9.82041L0.350098 9.81111L8.19151 15.4806L5.1914 24.6355L13.0328 18.9753L20.8649 24.6355L17.8741 15.4806L25.7062 9.82041Z" fill="#00B67A"/>
<path d="M18.5469 17.5529L17.874 15.4805L13.0327 18.9749L18.5469 17.5529Z" fill="#005128"/>
</svg>
