<svg width="22" height="16" viewBox="0 0 22 16" fill="none" xmlns="http://www.w3.org/2000/svg">
<g clip-path="url(#clip0_1492_5949)">
<path fill-rule="evenodd" clip-rule="evenodd" d="M0.542969 0.535156H21.543V15.5352H0.542969V0.535156Z" fill="url(#paint0_linear_1492_5949)"/>
<path fill-rule="evenodd" clip-rule="evenodd" d="M0.542969 0.535156H21.543V1.53516H0.542969V0.535156ZM0.542969 2.53516H21.543V3.53516H0.542969V2.53516ZM0.542969 4.53516H21.543V5.53516H0.542969V4.53516ZM0.542969 6.53516H21.543V7.53516H0.542969V6.53516ZM0.542969 8.53516H21.543V9.53516H0.542969V8.53516ZM0.542969 10.5352H21.543V11.5352H0.542969V10.5352ZM0.542969 12.5352H21.543V13.5352H0.542969V12.5352ZM0.542969 14.5352H21.543V15.5352H0.542969V14.5352Z" fill="#FF0000"/>
<path fill-rule="evenodd" clip-rule="evenodd" d="M0.542969 0.535156H9.54297V7.53516H0.542969V0.535156Z" fill="url(#paint1_linear_1492_5949)"/>
<path fill-rule="evenodd" clip-rule="evenodd" d="M2.04297 2.53516C1.91036 2.53516 1.78318 2.48248 1.68942 2.38871C1.59565 2.29494 1.54297 2.16776 1.54297 2.03516C1.54297 1.90255 1.59565 1.77537 1.68942 1.6816C1.78318 1.58783 1.91036 1.53516 2.04297 1.53516C2.17558 1.53516 2.30275 1.58783 2.39652 1.6816C2.49029 1.77537 2.54297 1.90255 2.54297 2.03516C2.54297 2.16776 2.49029 2.29494 2.39652 2.38871C2.30275 2.48248 2.17558 2.53516 2.04297 2.53516ZM4.04297 2.53516C3.91036 2.53516 3.78318 2.48248 3.68942 2.38871C3.59565 2.29494 3.54297 2.16776 3.54297 2.03516C3.54297 1.90255 3.59565 1.77537 3.68942 1.6816C3.78318 1.58783 3.91036 1.53516 4.04297 1.53516C4.17558 1.53516 4.30275 1.58783 4.39652 1.6816C4.49029 1.77537 4.54297 1.90255 4.54297 2.03516C4.54297 2.16776 4.49029 2.29494 4.39652 2.38871C4.30275 2.48248 4.17558 2.53516 4.04297 2.53516ZM6.04297 2.53516C5.91036 2.53516 5.78318 2.48248 5.68942 2.38871C5.59565 2.29494 5.54297 2.16776 5.54297 2.03516C5.54297 1.90255 5.59565 1.77537 5.68942 1.6816C5.78318 1.58783 5.91036 1.53516 6.04297 1.53516C6.17558 1.53516 6.30275 1.58783 6.39652 1.6816C6.49029 1.77537 6.54297 1.90255 6.54297 2.03516C6.54297 2.16776 6.49029 2.29494 6.39652 2.38871C6.30275 2.48248 6.17558 2.53516 6.04297 2.53516ZM8.04297 2.53516C7.91036 2.53516 7.78318 2.48248 7.68942 2.38871C7.59565 2.29494 7.54297 2.16776 7.54297 2.03516C7.54297 1.90255 7.59565 1.77537 7.68942 1.6816C7.78318 1.58783 7.91036 1.53516 8.04297 1.53516C8.17558 1.53516 8.30275 1.58783 8.39652 1.6816C8.49029 1.77537 8.54297 1.90255 8.54297 2.03516C8.54297 2.16776 8.49029 2.29494 8.39652 2.38871C8.30275 2.48248 8.17558 2.53516 8.04297 2.53516ZM3.04297 3.53516C2.91036 3.53516 2.78318 3.48248 2.68942 3.38871C2.59565 3.29494 2.54297 3.16776 2.54297 3.03516C2.54297 2.90255 2.59565 2.77537 2.68942 2.6816C2.78318 2.58783 2.91036 2.53516 3.04297 2.53516C3.17558 2.53516 3.30275 2.58783 3.39652 2.6816C3.49029 2.77537 3.54297 2.90255 3.54297 3.03516C3.54297 3.16776 3.49029 3.29494 3.39652 3.38871C3.30275 3.48248 3.17558 3.53516 3.04297 3.53516ZM5.04297 3.53516C4.91036 3.53516 4.78318 3.48248 4.68942 3.38871C4.59565 3.29494 4.54297 3.16776 4.54297 3.03516C4.54297 2.90255 4.59565 2.77537 4.68942 2.6816C4.78318 2.58783 4.91036 2.53516 5.04297 2.53516C5.17558 2.53516 5.30275 2.58783 5.39652 2.6816C5.49029 2.77537 5.54297 2.90255 5.54297 3.03516C5.54297 3.16776 5.49029 3.29494 5.39652 3.38871C5.30275 3.48248 5.17558 3.53516 5.04297 3.53516ZM7.04297 3.53516C6.91036 3.53516 6.78318 3.48248 6.68942 3.38871C6.59565 3.29494 6.54297 3.16776 6.54297 3.03516C6.54297 2.90255 6.59565 2.77537 6.68942 2.6816C6.78318 2.58783 6.91036 2.53516 7.04297 2.53516C7.17558 2.53516 7.30275 2.58783 7.39652 2.6816C7.49029 2.77537 7.54297 2.90255 7.54297 3.03516C7.54297 3.16776 7.49029 3.29494 7.39652 3.38871C7.30275 3.48248 7.17558 3.53516 7.04297 3.53516ZM8.04297 4.53516C7.91036 4.53516 7.78318 4.48248 7.68942 4.38871C7.59565 4.29494 7.54297 4.16776 7.54297 4.03516C7.54297 3.90255 7.59565 3.77537 7.68942 3.6816C7.78318 3.58783 7.91036 3.53516 8.04297 3.53516C8.17558 3.53516 8.30275 3.58783 8.39652 3.6816C8.49029 3.77537 8.54297 3.90255 8.54297 4.03516C8.54297 4.16776 8.49029 4.29494 8.39652 4.38871C8.30275 4.48248 8.17558 4.53516 8.04297 4.53516ZM6.04297 4.53516C5.91036 4.53516 5.78318 4.48248 5.68942 4.38871C5.59565 4.29494 5.54297 4.16776 5.54297 4.03516C5.54297 3.90255 5.59565 3.77537 5.68942 3.6816C5.78318 3.58783 5.91036 3.53516 6.04297 3.53516C6.17558 3.53516 6.30275 3.58783 6.39652 3.6816C6.49029 3.77537 6.54297 3.90255 6.54297 4.03516C6.54297 4.16776 6.49029 4.29494 6.39652 4.38871C6.30275 4.48248 6.17558 4.53516 6.04297 4.53516ZM4.04297 4.53516C3.91036 4.53516 3.78318 4.48248 3.68942 4.38871C3.59565 4.29494 3.54297 4.16776 3.54297 4.03516C3.54297 3.90255 3.59565 3.77537 3.68942 3.6816C3.78318 3.58783 3.91036 3.53516 4.04297 3.53516C4.17558 3.53516 4.30275 3.58783 4.39652 3.6816C4.49029 3.77537 4.54297 3.90255 4.54297 4.03516C4.54297 4.16776 4.49029 4.29494 4.39652 4.38871C4.30275 4.48248 4.17558 4.53516 4.04297 4.53516ZM2.04297 4.53516C1.91036 4.53516 1.78318 4.48248 1.68942 4.38871C1.59565 4.29494 1.54297 4.16776 1.54297 4.03516C1.54297 3.90255 1.59565 3.77537 1.68942 3.6816C1.78318 3.58783 1.91036 3.53516 2.04297 3.53516C2.17558 3.53516 2.30275 3.58783 2.39652 3.6816C2.49029 3.77537 2.54297 3.90255 2.54297 4.03516C2.54297 4.16776 2.49029 4.29494 2.39652 4.38871C2.30275 4.48248 2.17558 4.53516 2.04297 4.53516ZM3.04297 5.53516C2.91036 5.53516 2.78318 5.48248 2.68942 5.38871C2.59565 5.29494 2.54297 5.16776 2.54297 5.03516C2.54297 4.90255 2.59565 4.77537 2.68942 4.6816C2.78318 4.58783 2.91036 4.53516 3.04297 4.53516C3.17558 4.53516 3.30275 4.58783 3.39652 4.6816C3.49029 4.77537 3.54297 4.90255 3.54297 5.03516C3.54297 5.16776 3.49029 5.29494 3.39652 5.38871C3.30275 5.48248 3.17558 5.53516 3.04297 5.53516ZM5.04297 5.53516C4.91036 5.53516 4.78318 5.48248 4.68942 5.38871C4.59565 5.29494 4.54297 5.16776 4.54297 5.03516C4.54297 4.90255 4.59565 4.77537 4.68942 4.6816C4.78318 4.58783 4.91036 4.53516 5.04297 4.53516C5.17558 4.53516 5.30275 4.58783 5.39652 4.6816C5.49029 4.77537 5.54297 4.90255 5.54297 5.03516C5.54297 5.16776 5.49029 5.29494 5.39652 5.38871C5.30275 5.48248 5.17558 5.53516 5.04297 5.53516ZM7.04297 5.53516C6.91036 5.53516 6.78318 5.48248 6.68942 5.38871C6.59565 5.29494 6.54297 5.16776 6.54297 5.03516C6.54297 4.90255 6.59565 4.77537 6.68942 4.6816C6.78318 4.58783 6.91036 4.53516 7.04297 4.53516C7.17558 4.53516 7.30275 4.58783 7.39652 4.6816C7.49029 4.77537 7.54297 4.90255 7.54297 5.03516C7.54297 5.16776 7.49029 5.29494 7.39652 5.38871C7.30275 5.48248 7.17558 5.53516 7.04297 5.53516ZM8.04297 6.53516C7.91036 6.53516 7.78318 6.48248 7.68942 6.38871C7.59565 6.29494 7.54297 6.16776 7.54297 6.03516C7.54297 5.90255 7.59565 5.77537 7.68942 5.6816C7.78318 5.58783 7.91036 5.53516 8.04297 5.53516C8.17558 5.53516 8.30275 5.58783 8.39652 5.6816C8.49029 5.77537 8.54297 5.90255 8.54297 6.03516C8.54297 6.16776 8.49029 6.29494 8.39652 6.38871C8.30275 6.48248 8.17558 6.53516 8.04297 6.53516ZM6.04297 6.53516C5.91036 6.53516 5.78318 6.48248 5.68942 6.38871C5.59565 6.29494 5.54297 6.16776 5.54297 6.03516C5.54297 5.90255 5.59565 5.77537 5.68942 5.6816C5.78318 5.58783 5.91036 5.53516 6.04297 5.53516C6.17558 5.53516 6.30275 5.58783 6.39652 5.6816C6.49029 5.77537 6.54297 5.90255 6.54297 6.03516C6.54297 6.16776 6.49029 6.29494 6.39652 6.38871C6.30275 6.48248 6.17558 6.53516 6.04297 6.53516ZM4.04297 6.53516C3.91036 6.53516 3.78318 6.48248 3.68942 6.38871C3.59565 6.29494 3.54297 6.16776 3.54297 6.03516C3.54297 5.90255 3.59565 5.77537 3.68942 5.6816C3.78318 5.58783 3.91036 5.53516 4.04297 5.53516C4.17558 5.53516 4.30275 5.58783 4.39652 5.6816C4.49029 5.77537 4.54297 5.90255 4.54297 6.03516C4.54297 6.16776 4.49029 6.29494 4.39652 6.38871C4.30275 6.48248 4.17558 6.53516 4.04297 6.53516ZM2.04297 6.53516C1.91036 6.53516 1.78318 6.48248 1.68942 6.38871C1.59565 6.29494 1.54297 6.16776 1.54297 6.03516C1.54297 5.90255 1.59565 5.77537 1.68942 5.6816C1.78318 5.58783 1.91036 5.53516 2.04297 5.53516C2.17558 5.53516 2.30275 5.58783 2.39652 5.6816C2.49029 5.77537 2.54297 5.90255 2.54297 6.03516C2.54297 6.16776 2.49029 6.29494 2.39652 6.38871C2.30275 6.48248 2.17558 6.53516 2.04297 6.53516Z" fill="url(#paint2_linear_1492_5949)"/>
</g>
<defs>
<linearGradient id="paint0_linear_1492_5949" x1="1050.54" y1="0.535156" x2="1050.54" y2="1500.54" gradientUnits="userSpaceOnUse">
<stop stop-color="white"/>
<stop offset="1" stop-color="#F0F0F0"/>
</linearGradient>
<linearGradient id="paint1_linear_1492_5949" x1="450.543" y1="0.535156" x2="450.543" y2="700.535" gradientUnits="userSpaceOnUse">
<stop stop-color="#46467F"/>
<stop offset="1" stop-color="#3C3C6D"/>
</linearGradient>
<linearGradient id="paint2_linear_1492_5949" x1="351.543" y1="1.53516" x2="351.543" y2="501.535" gradientUnits="userSpaceOnUse">
<stop stop-color="white"/>
<stop offset="1" stop-color="#F0F0F0"/>
</linearGradient>
<clipPath id="clip0_1492_5949">
<rect width="21" height="15" fill="white" transform="translate(0.542969 0.535156)"/>
</clipPath>
</defs>
</svg>
