<svg width="22" height="16" viewBox="0 0 22 16" fill="none" xmlns="http://www.w3.org/2000/svg">
<g clip-path="url(#clip0_1492_5969)">
<path fill-rule="evenodd" clip-rule="evenodd" d="M0.542969 0.535156H21.543V15.5352H0.542969V0.535156Z" fill="url(#paint0_linear_1492_5969)"/>
<path fill-rule="evenodd" clip-rule="evenodd" d="M0.542969 0.535156H21.543V15.5352H0.542969V0.535156Z" fill="url(#paint1_linear_1492_5969)"/>
<path fill-rule="evenodd" clip-rule="evenodd" d="M5.54594 10.5347H0.540937V5.53466H5.54594L-1.53906 0.754656L-0.421062 -0.902344L8.54094 5.14266V-0.465344H13.5409V5.14266L22.5029 -0.902344L23.6209 0.754656L16.5359 5.53466H21.5409V10.5347H16.5359L23.6209 15.3147L22.5029 16.9717L13.5409 10.9267V16.5347H8.54094V10.9267L-0.421062 16.9717L-1.53906 15.3137L5.54594 10.5347Z" fill="url(#paint2_linear_1492_5969)"/>
<path d="M14.6799 5.4915L24.1799 -0.758505C24.232 -0.796293 24.2676 -0.852744 24.2791 -0.916096C24.2907 -0.979447 24.2773 -1.04481 24.2419 -1.09857C24.2064 -1.15233 24.1516 -1.19033 24.0888 -1.20467C24.026 -1.219 23.9602 -1.20855 23.9049 -1.17551L14.4049 5.07449C14.3759 5.09182 14.3508 5.11483 14.3309 5.14215C14.3111 5.16946 14.297 5.20051 14.2895 5.23342C14.2819 5.26633 14.2812 5.30043 14.2872 5.33364C14.2932 5.36686 14.3059 5.39852 14.3245 5.4267C14.3431 5.45488 14.3672 5.479 14.3953 5.49762C14.4235 5.51624 14.4551 5.52895 14.4883 5.53501C14.5216 5.54106 14.5557 5.54033 14.5886 5.53285C14.6215 5.52537 14.6526 5.5113 14.6799 5.4915ZM15.4119 11.0135L23.9269 16.7535C23.9541 16.7719 23.9847 16.7847 24.017 16.7913C24.0492 16.7978 24.0824 16.798 24.1146 16.7917C24.1469 16.7854 24.1776 16.7729 24.205 16.7547C24.2324 16.7366 24.256 16.7132 24.2744 16.686C24.2928 16.6587 24.3056 16.6281 24.3122 16.5959C24.3187 16.5637 24.3189 16.5305 24.3126 16.4983C24.3063 16.466 24.2938 16.4353 24.2756 16.4079C24.2575 16.3805 24.2341 16.3569 24.2069 16.3385L15.6909 10.5985C15.6359 10.5615 15.5684 10.5479 15.5033 10.5606C15.4382 10.5734 15.3809 10.6115 15.3439 10.6665C15.3069 10.7215 15.2933 10.789 15.306 10.8541C15.3188 10.9192 15.3569 10.9765 15.4119 11.0135ZM6.68589 5.05949L-2.19611 -0.927505C-2.22336 -0.94589 -2.25396 -0.958728 -2.28617 -0.965286C-2.31838 -0.971844 -2.35157 -0.971993 -2.38384 -0.965725C-2.41611 -0.959457 -2.44683 -0.946895 -2.47424 -0.928755C-2.50165 -0.910616 -2.52522 -0.887254 -2.54361 -0.860005C-2.562 -0.832756 -2.57483 -0.802152 -2.58139 -0.769941C-2.58795 -0.737731 -2.5881 -0.704544 -2.58183 -0.672275C-2.57556 -0.640007 -2.563 -0.609289 -2.54486 -0.581876C-2.52672 -0.554462 -2.50336 -0.53089 -2.47611 -0.512505L6.40689 5.4735C6.46178 5.50623 6.52713 5.5167 6.5895 5.50275C6.65187 5.4888 6.70654 5.45149 6.74225 5.39849C6.77797 5.34549 6.79203 5.28082 6.78155 5.21777C6.77107 5.15473 6.73684 5.09809 6.68589 5.05949ZM7.37089 10.5285L-2.47411 17.0585C-2.50344 17.0757 -2.52895 17.0987 -2.54909 17.1261C-2.56922 17.1535 -2.58356 17.1847 -2.59122 17.2178C-2.59889 17.2509 -2.59971 17.2853 -2.59365 17.3187C-2.58759 17.3522 -2.57477 17.384 -2.55598 17.4124C-2.53718 17.4407 -2.51281 17.4649 -2.48434 17.4835C-2.45587 17.5021 -2.42391 17.5147 -2.39042 17.5205C-2.35692 17.5263 -2.32259 17.5252 -2.28953 17.5173C-2.25646 17.5094 -2.22535 17.4948 -2.19811 17.4745L7.64789 10.9455C7.67527 10.9273 7.6988 10.9039 7.71714 10.8766C7.73547 10.8493 7.74826 10.8187 7.75476 10.7865C7.76126 10.7543 7.76135 10.7211 7.75502 10.6888C7.7487 10.6566 7.73608 10.6259 7.71789 10.5985C7.6997 10.5711 7.6763 10.5476 7.64902 10.5292C7.62174 10.5109 7.59111 10.4981 7.55889 10.4916C7.52667 10.4851 7.49348 10.485 7.46122 10.4914C7.42897 10.4977 7.39827 10.5103 7.37089 10.5285Z" fill="#FF0000"/>
<path fill-rule="evenodd" clip-rule="evenodd" d="M0.542969 9.53516H9.54297V15.5352H12.543V9.53516H21.543V6.53516H12.543V0.535156H9.54297V6.53516H0.542969V9.53516Z" fill="#FF0000"/>
</g>
<defs>
<linearGradient id="paint0_linear_1492_5969" x1="1050.54" y1="0.535156" x2="1050.54" y2="1500.54" gradientUnits="userSpaceOnUse">
<stop stop-color="white"/>
<stop offset="1" stop-color="#F0F0F0"/>
</linearGradient>
<linearGradient id="paint1_linear_1492_5969" x1="1050.54" y1="0.535156" x2="1050.54" y2="1500.54" gradientUnits="userSpaceOnUse">
<stop stop-color="#0A17A7"/>
<stop offset="1" stop-color="#030E88"/>
</linearGradient>
<linearGradient id="paint2_linear_1492_5969" x1="1256.46" y1="-0.902344" x2="1256.46" y2="1786.5" gradientUnits="userSpaceOnUse">
<stop stop-color="white"/>
<stop offset="1" stop-color="#F0F0F0"/>
</linearGradient>
<clipPath id="clip0_1492_5969">
<rect width="21" height="15" fill="white" transform="translate(0.542969 0.535156)"/>
</clipPath>
</defs>
</svg>
