<svg width="21" height="16" viewBox="0 0 21 16" fill="none" xmlns="http://www.w3.org/2000/svg">
<g clip-path="url(#clip0_1_823)">
<path fill-rule="evenodd" clip-rule="evenodd" d="M0 0.5H21V15.5H0V0.5Z" fill="url(#paint0_linear_1_823)"/>
<path fill-rule="evenodd" clip-rule="evenodd" d="M10 0.5H21V15.5H10V0.5ZM0 0.5H7V15.5H0V0.5Z" fill="url(#paint1_linear_1_823)"/>
<path fill-rule="evenodd" clip-rule="evenodd" d="M6 0.5H15V15.5H6V0.5Z" fill="url(#paint2_linear_1_823)"/>
<path fill-rule="evenodd" clip-rule="evenodd" d="M11.674 7.826L12.326 7.174C12.3498 7.15114 12.3778 7.13319 12.4085 7.12117C12.4392 7.10915 12.472 7.1033 12.505 7.10395C12.5379 7.1046 12.5704 7.11174 12.6006 7.12496C12.6308 7.13818 12.6582 7.15722 12.681 7.181L13 7.5L14 7L13.5 8L13.82 8.32C13.8439 8.34245 13.863 8.36942 13.8764 8.39935C13.8897 8.42928 13.897 8.46156 13.8977 8.49432C13.8985 8.52708 13.8927 8.55967 13.8807 8.59017C13.8687 8.62067 13.8508 8.64849 13.828 8.672L12.5 10H11L10.75 11.5H10.25L10 10H8.5L7.172 8.672C7.12719 8.6236 7.10305 8.55961 7.10473 8.49367C7.10641 8.42773 7.13378 8.36505 7.181 8.319L7.5 8L7 7L8 7.5L8.32 7.18C8.34276 7.1562 8.37001 7.13715 8.40017 7.12396C8.43034 7.11076 8.46283 7.10368 8.49575 7.10312C8.52867 7.10256 8.56138 7.10854 8.59197 7.12071C8.62257 7.13287 8.65045 7.15099 8.674 7.174L9.326 7.826C9.422 7.922 9.478 7.889 9.45 7.751L9 5.5L10 6L10.5 4.5L11 6L12 5.5L11.55 7.751C11.521 7.893 11.578 7.922 11.674 7.826Z" fill="url(#paint3_linear_1_823)"/>
</g>
<defs>
<linearGradient id="paint0_linear_1_823" x1="1050" y1="0.5" x2="1050" y2="1500.5" gradientUnits="userSpaceOnUse">
<stop stop-color="white"/>
<stop offset="1" stop-color="#F0F0F0"/>
</linearGradient>
<linearGradient id="paint1_linear_1_823" x1="1050" y1="0.5" x2="1050" y2="1500.5" gradientUnits="userSpaceOnUse">
<stop stop-color="#FF3131"/>
<stop offset="1" stop-color="#FF0000"/>
</linearGradient>
<linearGradient id="paint2_linear_1_823" x1="456" y1="0.5" x2="456" y2="1500.5" gradientUnits="userSpaceOnUse">
<stop stop-color="white"/>
<stop offset="1" stop-color="#F0F0F0"/>
</linearGradient>
<linearGradient id="paint3_linear_1_823" x1="357" y1="4.5" x2="357" y2="704.5" gradientUnits="userSpaceOnUse">
<stop stop-color="#FF3131"/>
<stop offset="1" stop-color="#FF0000"/>
</linearGradient>
<clipPath id="clip0_1_823">
<rect width="21" height="15" fill="white" transform="translate(0 0.5)"/>
</clipPath>
</defs>
</svg>
