<svg width="22" height="16" viewBox="0 0 22 16" fill="none" xmlns="http://www.w3.org/2000/svg">
<g clip-path="url(#clip0_1492_5959)">
<path fill-rule="evenodd" clip-rule="evenodd" d="M0.542969 0.535156H21.543V15.5352H0.542969V0.535156Z" fill="url(#paint0_linear_1492_5959)"/>
<path fill-rule="evenodd" clip-rule="evenodd" d="M10.543 0.535156H21.543V15.5352H10.543V0.535156ZM0.542969 0.535156H7.54297V15.5352H0.542969V0.535156Z" fill="#FF0000"/>
<path fill-rule="evenodd" clip-rule="evenodd" d="M6.54297 0.535156H15.543V15.5352H6.54297V0.535156Z" fill="url(#paint1_linear_1492_5959)"/>
<path fill-rule="evenodd" clip-rule="evenodd" d="M12.217 7.86116L12.869 7.20916C12.8927 7.1863 12.9208 7.16835 12.9515 7.15633C12.9822 7.14431 13.015 7.13845 13.0479 7.1391C13.0809 7.13975 13.1134 7.14689 13.1436 7.16011C13.1738 7.17334 13.2011 7.19238 13.224 7.21616L13.543 7.53516L14.543 7.03516L14.043 8.03516L14.363 8.35516C14.3868 8.3776 14.406 8.40458 14.4194 8.43451C14.4327 8.46444 14.44 8.49672 14.4407 8.52948C14.4414 8.56224 14.4357 8.59482 14.4237 8.62533C14.4117 8.65583 14.3938 8.68365 14.371 8.70716L13.043 10.0352H11.543L11.293 11.5352H10.793L10.543 10.0352H9.04297L7.71497 8.70716C7.67016 8.65875 7.64602 8.59477 7.6477 8.52883C7.64938 8.46289 7.67675 8.40021 7.72397 8.35416L8.04297 8.03516L7.54297 7.03516L8.54297 7.53516L8.86297 7.21516C8.88572 7.19136 8.91297 7.17231 8.94314 7.15911C8.97331 7.14592 9.00579 7.13883 9.03872 7.13828C9.07164 7.13772 9.10435 7.14369 9.13494 7.15586C9.16554 7.16803 9.19342 7.18614 9.21697 7.20916L9.86897 7.86116C9.96497 7.95716 10.021 7.92416 9.99297 7.78616L9.54297 5.53516L10.543 6.03516L11.043 4.53516L11.543 6.03516L12.543 5.53516L12.093 7.78616C12.064 7.92816 12.121 7.95716 12.217 7.86116Z" fill="#FF0000"/>
</g>
<defs>
<linearGradient id="paint0_linear_1492_5959" x1="1050.54" y1="0.535156" x2="1050.54" y2="1500.54" gradientUnits="userSpaceOnUse">
<stop stop-color="white"/>
<stop offset="1" stop-color="#F0F0F0"/>
</linearGradient>
<linearGradient id="paint1_linear_1492_5959" x1="456.543" y1="0.535156" x2="456.543" y2="1500.54" gradientUnits="userSpaceOnUse">
<stop stop-color="white"/>
<stop offset="1" stop-color="#F0F0F0"/>
</linearGradient>
<clipPath id="clip0_1492_5959">
<rect width="21" height="15" fill="white" transform="translate(0.542969 0.535156)"/>
</clipPath>
</defs>
</svg>
