<svg width="317" height="39" viewBox="0 0 317 39" fill="none" xmlns="http://www.w3.org/2000/svg">
<path d="M15.1816 37.9129C12.0344 37.9129 9.6024 37.1085 7.88572 35.4997C6.16904 33.8552 5.31071 31.4421 5.31071 28.2604V2.574H12.0165V28.0995C12.0165 29.458 12.3562 30.5126 13.0358 31.2634C13.751 32.0141 14.7345 32.3895 15.9863 32.3895C17.4884 32.3895 18.7401 31.9962 19.7415 31.2097L21.6191 35.9824C20.8323 36.6259 19.8667 37.1085 18.7222 37.4302C17.5778 37.752 16.3976 37.9129 15.1816 37.9129ZM0.589844 14.4788V9.11625H19.6879V14.4788H0.589844ZM27.6223 37.5375V8.90175H34.0062V16.7846L33.2551 14.4788C34.1135 12.5483 35.4546 11.0825 37.2786 10.0815C39.1383 9.0805 41.4451 8.58 44.199 8.58V14.9614C43.9128 14.8899 43.6446 14.8541 43.3943 14.8541C43.1439 14.8184 42.8936 14.8005 42.6432 14.8005C40.104 14.8005 38.0833 15.5513 36.5812 17.0527C35.0791 18.5185 34.3281 20.7171 34.3281 23.6486V37.5375H27.6223ZM65.9809 37.5375V31.746L65.6054 30.5126V20.3775C65.6054 18.4112 65.0153 16.8919 63.8351 15.8194C62.6549 14.7111 60.8667 14.157 58.4705 14.157C56.8611 14.157 55.2696 14.4073 53.696 14.9078C52.1581 15.4083 50.8527 16.1054 49.7798 16.9991L47.1511 12.1193C48.689 10.9395 50.513 10.0636 52.623 9.49163C54.7689 8.88388 56.9863 8.58 59.2752 8.58C63.4238 8.58 66.6247 9.581 68.8778 11.583C71.1667 13.5493 72.3112 16.6059 72.3112 20.7529V37.5375H65.9809ZM56.9684 37.9129C54.8225 37.9129 52.9449 37.5554 51.3355 36.8404C49.7261 36.0896 48.4744 35.0707 47.5803 33.7837C46.722 32.461 46.2928 30.9774 46.2928 29.3329C46.2928 27.7241 46.6683 26.2762 47.4194 24.9892C48.2062 23.7022 49.4758 22.6834 51.2282 21.9326C52.9807 21.1819 55.3053 20.8065 58.2022 20.8065H66.5174V25.2574H58.6851C56.3961 25.2574 54.8583 25.6327 54.0715 26.3835C53.2847 27.0985 52.8913 27.9922 52.8913 29.0647C52.8913 30.2802 53.3741 31.2455 54.3397 31.9605C55.3053 32.6755 56.6465 33.033 58.3632 33.033C60.0083 33.033 61.4747 32.6576 62.7622 31.9069C64.0854 31.1561 65.0332 30.0479 65.6054 28.5821L66.732 32.604C66.0882 34.2842 64.9259 35.5891 63.245 36.5186C61.5998 37.4481 59.5076 37.9129 56.9684 37.9129ZM94.5999 37.9129C91.5957 37.9129 88.9134 37.2872 86.5529 36.036C84.2283 34.749 82.4043 32.9972 81.081 30.7807C79.7577 28.5642 79.0961 26.0439 79.0961 23.2196C79.0961 20.3596 79.7577 17.8392 81.081 15.6585C82.4043 13.442 84.2283 11.7081 86.5529 10.4569C88.9134 9.20563 91.5957 8.58 94.5999 8.58C97.3895 8.58 99.8393 9.152 101.949 10.296C104.095 11.4043 105.722 13.0488 106.831 15.2295L101.681 18.2325C100.823 16.874 99.7678 15.873 98.516 15.2295C97.3 14.586 95.9768 14.2643 94.5462 14.2643C92.9011 14.2643 91.4168 14.6218 90.0936 15.3368C88.7703 16.0518 87.7331 17.0885 86.9821 18.447C86.231 19.7697 85.8555 21.3606 85.8555 23.2196C85.8555 25.0786 86.231 26.6874 86.9821 28.0459C87.7331 29.3686 88.7703 30.3875 90.0936 31.1025C91.4168 31.8175 92.9011 32.175 94.5462 32.175C95.9768 32.175 97.3 31.8532 98.516 31.2097C99.7678 30.5662 100.823 29.5652 101.681 28.2067L106.831 31.2097C105.722 33.3547 104.095 35.0171 101.949 36.1969C99.8393 37.3409 97.3895 37.9129 94.5999 37.9129ZM126.161 37.9129C122.978 37.9129 120.188 37.2872 117.792 36.036C115.432 34.749 113.59 32.9972 112.267 30.7807C110.979 28.5642 110.335 26.0439 110.335 23.2196C110.335 20.3596 110.961 17.8392 112.213 15.6585C113.5 13.442 115.253 11.7081 117.47 10.4569C119.723 9.20563 122.28 8.58 125.142 8.58C127.931 8.58 130.417 9.18775 132.598 10.4033C134.78 11.6188 136.497 13.3348 137.748 15.5513C139 17.7677 139.626 20.3775 139.626 23.3805C139.626 23.6665 139.608 23.9882 139.572 24.3457C139.572 24.7032 139.555 25.0429 139.519 25.3646H115.646V20.9137H135.978L133.349 22.308C133.385 20.6635 133.045 19.2156 132.33 17.9644C131.615 16.7131 130.631 15.73 129.38 15.015C128.164 14.3 126.751 13.9425 125.142 13.9425C123.496 13.9425 122.048 14.3 120.796 15.015C119.58 15.73 118.615 16.731 117.899 18.018C117.22 19.2692 116.88 20.7529 116.88 22.4689V23.5414C116.88 25.2574 117.273 26.7767 118.06 28.0995C118.847 29.4222 119.956 30.4411 121.386 31.1561C122.817 31.8711 124.462 32.2286 126.322 32.2286C127.931 32.2286 129.38 31.9784 130.667 31.4779C131.955 30.9774 133.099 30.1909 134.1 29.1184L137.695 33.2475C136.407 34.749 134.78 35.9109 132.813 36.7331C130.882 37.5196 128.664 37.9129 126.161 37.9129ZM147.198 37.5375V0H152.938L176.489 28.9039H173.646V0H180.566V37.5375H174.826L151.275 8.63363H154.118V37.5375H147.198ZM203.936 37.9129C200.753 37.9129 197.964 37.2872 195.568 36.036C193.207 34.749 191.365 32.9972 190.042 30.7807C188.755 28.5642 188.111 26.0439 188.111 23.2196C188.111 20.3596 188.737 17.8392 189.988 15.6585C191.276 13.442 193.028 11.7081 195.246 10.4569C197.499 9.20563 200.056 8.58 202.917 8.58C205.707 8.58 208.192 9.18775 210.374 10.4033C212.556 11.6188 214.272 13.3348 215.524 15.5513C216.776 17.7677 217.402 20.3775 217.402 23.3805C217.402 23.6665 217.384 23.9882 217.348 24.3457C217.348 24.7032 217.33 25.0429 217.294 25.3646H193.422V20.9137H213.754L211.125 22.308C211.161 20.6635 210.821 19.2156 210.106 17.9644C209.39 16.7131 208.407 15.73 207.155 15.015C205.939 14.3 204.527 13.9425 202.917 13.9425C201.272 13.9425 199.824 14.3 198.572 15.015C197.356 15.73 196.39 16.731 195.675 18.018C194.995 19.2692 194.656 20.7529 194.656 22.4689V23.5414C194.656 25.2574 195.049 26.7767 195.836 28.0995C196.623 29.4222 197.731 30.4411 199.162 31.1561C200.592 31.8711 202.238 32.2286 204.097 32.2286C205.707 32.2286 207.155 31.9784 208.443 31.4779C209.73 30.9774 210.875 30.1909 211.876 29.1184L215.47 33.2475C214.183 34.749 212.556 35.9109 210.589 36.7331C208.657 37.5196 206.44 37.9129 203.936 37.9129ZM235.113 37.9129C231.966 37.9129 229.534 37.1085 227.817 35.4997C226.1 33.8552 225.242 31.4421 225.242 28.2604V2.574H231.948V28.0995C231.948 29.458 232.288 30.5126 232.967 31.2634C233.682 32.0141 234.666 32.3895 235.918 32.3895C237.42 32.3895 238.671 31.9962 239.673 31.2097L241.55 35.9824C240.764 36.6259 239.798 37.1085 238.654 37.4302C237.509 37.752 236.329 37.9129 235.113 37.9129ZM220.521 14.4788V9.11625H239.619V14.4788H220.521ZM258.2 37.5375L275.099 0H281.966L298.918 37.5375H291.622L277.084 3.70013H279.873L265.389 37.5375H258.2ZM265.979 28.8502L267.857 23.3805H288.135L290.012 28.8502H265.979ZM304.18 37.5375V0H311.154V37.5375H304.18Z" fill="white"/>
<path d="M303.996 0.162109H311.311V21.2871H303.996V0.162109Z" fill="white"/>
</svg>
