<svg width="159" height="55" viewBox="0 0 159 55" fill="none" xmlns="http://www.w3.org/2000/svg">
<g clip-path="url(#clip0_23_2042)">
<path fill-rule="evenodd" clip-rule="evenodd" d="M21.7939 18.3623L15.0667 11.408L11.6202 7.84525L8.17391 4.28286L6.36525 6.15254C5.8121 6.72409 5.29503 7.3197 4.81414 7.93525C3.74777 9.30098 2.85849 10.7681 2.1463 12.3027C1.35173 14.0159 0.777491 15.813 0.424134 17.6478C-0.953987 24.8053 1.0263 32.5325 6.36496 38.0511L21.7939 54V46.8753L9.81094 34.4884C6.5549 31.1225 4.9094 26.6907 4.8738 22.2476L21.7936 39.7379V32.6128L5.86821 16.151C6.43367 14.517 7.23949 12.9545 8.28613 11.5244L11.7797 15.1361L21.7936 25.4871L21.7939 18.3623ZM22.9999 0C25.9713 0 28.3796 2.37799 28.3796 5.31133C28.3796 8.24495 25.9713 10.6227 22.9999 10.6227C20.0285 10.6227 17.6201 8.24495 17.6201 5.31133C17.6204 2.37775 20.0288 0 22.9999 0ZM24.2063 18.362L30.9338 11.4077L34.3801 7.84525L37.8264 4.28258L39.6353 6.15231C40.1882 6.7238 40.7052 7.31913 41.1861 7.93497C42.2525 9.30074 43.1418 10.7678 43.8537 12.3024C44.6485 14.0157 45.2225 15.813 45.5759 17.6478C46.954 24.8051 44.9737 32.5323 39.6353 38.0506L24.2063 53.9995V46.8748L36.189 34.4881C39.4453 31.1222 41.0909 26.6904 41.1262 22.2473L24.2063 39.7376V32.6122L40.1318 16.1505C39.5666 14.5164 38.7606 12.9539 37.7139 11.5242L34.22 15.1355L24.2063 25.4869V18.362Z" fill="white"/>
<path d="M79.7138 2.57764V11.8281H78.9338C78.3474 9.41378 77.2542 7.56369 75.6547 6.27782C74.0551 4.99195 72.2421 4.349 70.216 4.349C68.523 4.349 66.9701 4.82791 65.5574 5.78577C64.1443 6.74363 63.1113 7.99669 62.458 9.545C61.6182 11.5263 61.1982 13.7307 61.1982 16.1581C61.1982 18.5461 61.505 20.7243 62.1183 22.6925C62.7312 24.6476 63.691 26.1302 64.9975 27.1404C66.3038 28.1377 67.9964 28.6362 70.0759 28.6362C71.7824 28.6362 73.342 28.269 74.755 27.534C76.1812 26.7993 77.6807 25.5331 79.2537 23.7356V26.0382C77.7341 27.5998 76.148 28.7348 74.4949 29.4433C72.8554 30.1386 70.9359 30.4866 68.7364 30.4866C65.8437 30.4866 63.2712 29.9157 61.0184 28.7741C58.7789 27.6326 57.0459 25.9925 55.8197 23.8537C54.6066 21.7149 54 19.4384 54 17.0241C54 14.4786 54.6734 12.0643 56.0196 9.78118C57.3793 7.49809 59.2054 5.72673 61.4983 4.46709C63.8042 3.20745 66.2503 2.57764 68.8365 2.57764C70.7426 2.57764 72.7556 2.9844 74.8747 3.79791C76.1013 4.27027 76.8809 4.50645 77.2143 4.50645C77.6407 4.50645 78.0073 4.35555 78.3138 4.05377C78.6337 3.73886 78.8404 3.24682 78.9338 2.57764H79.7138ZM97.7892 2.81382C102.108 2.65636 105.614 3.89632 108.306 6.53368C111.012 9.17105 112.365 12.471 112.365 16.4336C112.365 19.8189 111.359 22.7974 109.346 25.3693C106.68 28.7808 102.914 30.4866 98.049 30.4866C93.1702 30.4866 89.3977 28.8595 86.7318 25.6055C84.6258 23.0336 83.5726 19.9829 83.5726 16.4533C83.5726 12.4907 84.939 9.19073 87.6714 6.55336C90.4176 3.90287 93.7902 2.65636 97.7892 2.81382ZM98.0291 4.07345C95.5498 4.07345 93.6635 5.31996 92.3704 7.813C91.3172 9.85991 90.7906 12.7991 90.7906 16.6305C90.7906 21.1835 91.6039 24.549 93.2303 26.7272C94.3632 28.2492 95.9497 29.0103 97.9888 29.0103C99.3619 29.0103 100.508 28.6822 101.428 28.0262C102.601 27.1864 103.514 25.848 104.167 24.0111C104.821 22.161 105.147 19.7533 105.147 16.7879C105.147 13.2583 104.814 10.621 104.147 8.87582C103.481 7.11759 102.628 5.87763 101.588 5.15596C100.562 4.43428 99.3753 4.07345 98.0291 4.07345ZM124.722 17.713V25.192C124.722 26.6353 124.809 27.5473 124.982 27.9277C125.169 28.2952 125.489 28.5905 125.942 28.8135C126.395 29.0365 127.242 29.1483 128.481 29.1483V29.8763H114.605V29.1483C115.858 29.1483 116.704 29.0365 117.144 28.8135C117.597 28.5773 117.91 28.2756 118.084 27.9081C118.27 27.5406 118.364 26.6353 118.364 25.192V7.87205C118.364 6.42872 118.27 5.52336 118.084 5.15596C117.91 4.77545 117.597 4.47364 117.144 4.25059C116.691 4.02754 115.844 3.916 114.605 3.916V3.18777H127.202C130.481 3.18777 132.88 3.41082 134.4 3.85695C135.919 4.30309 137.159 5.12972 138.119 6.33686C139.079 7.5309 139.558 8.93486 139.558 10.5488C139.558 12.517 138.839 14.144 137.399 15.4299C136.479 16.2434 135.193 16.8535 133.54 17.2603L140.058 26.2942C140.911 27.4619 141.518 28.1903 141.878 28.4788C142.424 28.8856 143.058 29.1086 143.777 29.1483V29.8763H135.24L126.502 17.713H124.722ZM124.722 4.62455V16.3155H125.862C127.715 16.3155 129.101 16.1515 130.021 15.8235C130.94 15.4824 131.66 14.8788 132.18 14.0128C132.713 13.1336 132.98 11.9921 132.98 10.5881C132.98 8.55436 132.494 7.05196 131.52 6.081C130.561 5.11004 129.008 4.62455 126.861 4.62455H124.722ZM158.434 29.1483V29.8763H144.257V29.1483H145.157C145.943 29.1483 146.577 29.0103 147.057 28.7348C147.403 28.5512 147.67 28.2363 147.856 27.79C148.003 27.4751 148.076 26.6485 148.076 25.3101V7.75395C148.076 6.38936 148.003 5.53646 147.856 5.19532C147.71 4.85418 147.41 4.55895 146.957 4.30964C146.517 4.04722 145.917 3.916 145.157 3.916H144.257V3.18777H158.434V3.916H157.534C156.747 3.916 156.114 4.05377 155.634 4.32932C155.288 4.51301 155.014 4.82791 154.815 5.27405C154.668 5.58895 154.595 6.41559 154.595 7.75395V25.3101C154.595 26.6746 154.668 27.5277 154.815 27.8688C154.975 28.2098 155.274 28.5118 155.714 28.7741C156.168 29.0235 156.774 29.1483 157.534 29.1483H158.434Z" fill="white"/>
<path d="M142.369 52.4497L140.895 49.0659C140.673 48.5549 140.509 48.2407 140.401 48.1235C140.297 48.0063 140.17 47.925 140.021 47.8794V47.6987H142.447V47.8794C142.288 47.8859 142.175 47.9168 142.11 47.9722C142.045 48.0275 142.013 48.0942 142.013 48.1724C142.013 48.2961 142.094 48.5402 142.257 48.9048L143.038 50.6919L143.57 49.3101C143.762 48.8185 143.858 48.4767 143.858 48.2847C143.858 48.1642 143.818 48.0682 143.736 47.9966C143.658 47.925 143.518 47.8859 143.316 47.8794V47.6987H144.845V47.8794C144.695 47.8957 144.573 47.9543 144.479 48.0552C144.384 48.1528 144.226 48.4897 144.005 49.0659L142.701 52.4497C142.372 53.2961 142.128 53.8169 141.969 54.0122C141.744 54.2856 141.463 54.4224 141.124 54.4224C140.854 54.4224 140.634 54.3442 140.465 54.188C140.299 54.035 140.216 53.8494 140.216 53.6313C140.216 53.4425 140.273 53.2863 140.387 53.1626C140.504 53.0389 140.647 52.9771 140.816 52.9771C140.979 52.9771 141.109 53.0291 141.207 53.1333C141.308 53.2375 141.36 53.3986 141.363 53.6167C141.367 53.7404 141.381 53.8202 141.407 53.856C141.433 53.8918 141.471 53.9097 141.52 53.9097C141.598 53.9097 141.681 53.8625 141.769 53.7681C141.899 53.6313 142.052 53.3188 142.228 52.8306L142.369 52.4497Z" fill="white"/>
<path d="M138.756 46.0288V47.6987H139.84V48.1821H138.756V50.9995C138.756 51.2632 138.767 51.4341 138.79 51.5122C138.816 51.5871 138.86 51.6489 138.922 51.6978C138.984 51.7433 139.041 51.7661 139.093 51.7661C139.304 51.7661 139.505 51.605 139.693 51.2827L139.84 51.3901C139.576 52.0151 139.148 52.3276 138.556 52.3276C138.266 52.3276 138.02 52.2479 137.818 52.0884C137.62 51.9256 137.493 51.745 137.438 51.5464C137.405 51.4357 137.389 51.1362 137.389 50.6479V48.1821H136.793V48.0112C137.203 47.7215 137.551 47.4172 137.838 47.0981C138.128 46.7791 138.38 46.4227 138.595 46.0288H138.756Z" fill="white"/>
<path d="M135.26 45.4868C135.471 45.4868 135.65 45.5617 135.797 45.7114C135.943 45.8579 136.017 46.0353 136.017 46.2437C136.017 46.452 135.942 46.6294 135.792 46.7759C135.646 46.9224 135.468 46.9956 135.26 46.9956C135.051 46.9956 134.874 46.9224 134.728 46.7759C134.581 46.6294 134.508 46.452 134.508 46.2437C134.508 46.0353 134.581 45.8579 134.728 45.7114C134.874 45.5617 135.051 45.4868 135.26 45.4868ZM135.943 47.6987V51.3169C135.943 51.6392 135.981 51.8459 136.056 51.937C136.131 52.0249 136.277 52.0754 136.495 52.0884V52.2642H134.029V52.0884C134.231 52.0819 134.381 52.0233 134.479 51.9126C134.544 51.8377 134.576 51.6392 134.576 51.3169V48.6509C134.576 48.3286 134.539 48.1235 134.464 48.0356C134.389 47.9445 134.244 47.8924 134.029 47.8794V47.6987H135.943Z" fill="white"/>
<path d="M131.612 47.6987V48.7339C131.915 48.2619 132.18 47.9494 132.408 47.7964C132.636 47.6401 132.856 47.562 133.067 47.562C133.25 47.562 133.395 47.619 133.502 47.7329C133.613 47.8436 133.668 48.0015 133.668 48.2065C133.668 48.4246 133.614 48.5939 133.507 48.7144C133.403 48.8348 133.276 48.895 133.126 48.895C132.953 48.895 132.804 48.8397 132.677 48.729C132.55 48.6183 132.475 48.5565 132.452 48.5435C132.42 48.5239 132.382 48.5142 132.34 48.5142C132.245 48.5142 132.156 48.55 132.071 48.6216C131.938 48.7323 131.837 48.8901 131.769 49.0952C131.664 49.411 131.612 49.7593 131.612 50.1401V51.1899L131.617 51.4634C131.617 51.6489 131.629 51.7677 131.651 51.8198C131.69 51.9077 131.747 51.9728 131.822 52.0151C131.9 52.0542 132.031 52.0786 132.213 52.0884V52.2642H129.747V52.0884C129.946 52.0721 130.079 52.0184 130.147 51.9272C130.219 51.8328 130.255 51.5871 130.255 51.1899V48.6655C130.255 48.4051 130.242 48.2391 130.216 48.1675C130.183 48.0763 130.136 48.0096 130.074 47.9673C130.012 47.925 129.903 47.8957 129.747 47.8794V47.6987H131.612Z" fill="white"/>
<path d="M127.647 47.7524H129.186V48.2896H128.312C128.471 48.4491 128.582 48.5939 128.644 48.7241C128.722 48.8999 128.761 49.0838 128.761 49.2759C128.761 49.6014 128.67 49.8846 128.487 50.1255C128.308 50.3631 128.062 50.5503 127.75 50.687C127.441 50.8205 127.166 50.8872 126.925 50.8872C126.905 50.8872 126.71 50.8791 126.339 50.8628C126.192 50.8628 126.069 50.9116 125.968 51.0093C125.87 51.1037 125.821 51.2176 125.821 51.3511C125.821 51.4683 125.865 51.5643 125.953 51.6392C126.044 51.714 126.191 51.7515 126.393 51.7515L127.237 51.7417C127.921 51.7417 128.391 51.8166 128.648 51.9663C129.016 52.1746 129.2 52.4953 129.2 52.9282C129.2 53.2049 129.116 53.4556 128.946 53.6802C128.777 53.908 128.554 54.0757 128.277 54.1831C127.857 54.3426 127.374 54.4224 126.827 54.4224C126.417 54.4224 126.043 54.3817 125.704 54.3003C125.366 54.2222 125.123 54.1115 124.977 53.9683C124.83 53.8283 124.757 53.6802 124.757 53.5239C124.757 53.3742 124.812 53.2391 124.923 53.1187C125.037 53.0015 125.247 52.9022 125.553 52.8208C125.13 52.6125 124.918 52.3228 124.918 51.9517C124.918 51.7271 125.004 51.509 125.177 51.2974C125.349 51.0858 125.623 50.9019 125.997 50.7456C125.561 50.5861 125.245 50.3761 125.05 50.1157C124.854 49.8553 124.757 49.5542 124.757 49.2124C124.757 48.7664 124.939 48.3807 125.304 48.0552C125.668 47.7264 126.137 47.562 126.71 47.562C127.013 47.562 127.325 47.6255 127.647 47.7524ZM126.803 47.8647C126.614 47.8647 126.454 47.9608 126.324 48.1528C126.194 48.3416 126.129 48.7355 126.129 49.3345C126.129 49.8195 126.192 50.1532 126.319 50.3354C126.45 50.5145 126.603 50.604 126.778 50.604C126.974 50.604 127.136 50.5145 127.267 50.3354C127.397 50.1564 127.462 49.8081 127.462 49.2905C127.462 48.7078 127.389 48.3107 127.242 48.0991C127.138 47.9429 126.992 47.8647 126.803 47.8647ZM126.515 52.938C126.183 52.938 125.963 52.9657 125.855 53.021C125.67 53.1219 125.577 53.2586 125.577 53.4312C125.577 53.5972 125.673 53.7469 125.865 53.8804C126.057 54.0171 126.419 54.0854 126.949 54.0854C127.402 54.0854 127.757 54.0252 128.014 53.9048C128.274 53.7843 128.404 53.6151 128.404 53.397C128.404 53.3156 128.38 53.2472 128.331 53.1919C128.243 53.0942 128.11 53.0275 127.931 52.9917C127.755 52.9559 127.283 52.938 126.515 52.938Z" fill="white"/>
<path d="M124.142 49.8179H121.637C121.666 50.4233 121.827 50.9019 122.12 51.2534C122.345 51.5236 122.615 51.6587 122.931 51.6587C123.126 51.6587 123.303 51.605 123.463 51.4976C123.622 51.3869 123.793 51.1899 123.976 50.9067L124.142 51.0142C123.894 51.5187 123.621 51.8768 123.321 52.0884C123.022 52.2967 122.675 52.4009 122.281 52.4009C121.604 52.4009 121.091 52.1405 120.743 51.6196C120.463 51.1997 120.323 50.6789 120.323 50.0571C120.323 49.2954 120.528 48.6899 120.938 48.2407C121.352 47.7882 121.835 47.562 122.389 47.562C122.851 47.562 123.251 47.7524 123.59 48.1333C123.932 48.5109 124.116 49.0724 124.142 49.8179ZM122.94 49.4907C122.94 48.9666 122.911 48.6069 122.853 48.4116C122.797 48.2163 122.709 48.0682 122.589 47.9673C122.521 47.9087 122.429 47.8794 122.315 47.8794C122.146 47.8794 122.008 47.9624 121.9 48.1284C121.708 48.4181 121.612 48.8153 121.612 49.3198V49.4907H122.94Z" fill="white"/>
<path d="M118.756 46.0288V47.6987H119.84V48.1821H118.756V50.9995C118.756 51.2632 118.767 51.4341 118.79 51.5122C118.816 51.5871 118.86 51.6489 118.922 51.6978C118.984 51.7433 119.041 51.7661 119.093 51.7661C119.304 51.7661 119.505 51.605 119.693 51.2827L119.84 51.3901C119.576 52.0151 119.148 52.3276 118.556 52.3276C118.266 52.3276 118.02 52.2479 117.818 52.0884C117.62 51.9256 117.493 51.745 117.438 51.5464C117.405 51.4357 117.389 51.1362 117.389 50.6479V48.1821H116.793V48.0112C117.203 47.7215 117.551 47.4172 117.838 47.0981C118.128 46.7791 118.38 46.4227 118.595 46.0288H118.756Z" fill="white"/>
<path d="M113.243 47.6987V48.2896C113.478 48.0356 113.702 47.8517 113.917 47.7378C114.132 47.6206 114.363 47.562 114.61 47.562C114.907 47.562 115.152 47.645 115.348 47.811C115.543 47.9738 115.673 48.1772 115.738 48.4214C115.79 48.6069 115.816 48.9634 115.816 49.4907V51.2681C115.816 51.6196 115.847 51.8394 115.909 51.9272C115.974 52.0119 116.108 52.0656 116.31 52.0884V52.2642H114V52.0884C114.173 52.0656 114.296 51.994 114.371 51.8735C114.423 51.7922 114.449 51.5903 114.449 51.2681V49.2368C114.449 48.8625 114.435 48.6265 114.405 48.5288C114.376 48.4312 114.326 48.3563 114.254 48.3042C114.186 48.2489 114.109 48.2212 114.024 48.2212C113.744 48.2212 113.484 48.4214 113.243 48.8218V51.2681C113.243 51.6099 113.274 51.8263 113.336 51.9175C113.401 52.0086 113.52 52.0656 113.692 52.0884V52.2642H111.383V52.0884C111.575 52.0688 111.712 52.007 111.793 51.9028C111.848 51.8312 111.876 51.6196 111.876 51.2681V48.6899C111.876 48.3449 111.843 48.13 111.778 48.0454C111.716 47.9608 111.585 47.9054 111.383 47.8794V47.6987H113.243Z" fill="white"/>
<path d="M110.807 52.0835V52.2642H107.345V52.0835H107.564C107.757 52.0835 107.911 52.0493 108.028 51.981C108.113 51.9354 108.178 51.8573 108.224 51.7466C108.259 51.6685 108.277 51.4634 108.277 51.1313V46.7759C108.277 46.4373 108.259 46.2257 108.224 46.1411C108.188 46.0565 108.115 45.9832 108.004 45.9214C107.896 45.8563 107.75 45.8237 107.564 45.8237H107.345V45.6431H110.807V45.8237H110.587C110.395 45.8237 110.24 45.8579 110.123 45.9263C110.038 45.9718 109.972 46.05 109.923 46.1606C109.887 46.2388 109.869 46.4438 109.869 46.7759V51.1313C109.869 51.4699 109.887 51.6815 109.923 51.7661C109.962 51.8507 110.035 51.9256 110.143 51.9907C110.253 52.0526 110.401 52.0835 110.587 52.0835H110.807Z" fill="white"/>
<path d="M102.008 48.3042H104.039V48.4946C103.811 48.5272 103.632 48.5955 103.502 48.6997C103.372 48.8006 103.202 49.0382 102.994 49.4126C102.786 49.7869 102.493 50.2052 102.115 50.6675C102.447 50.967 102.717 51.1753 102.926 51.2925C103.072 51.3739 103.215 51.4146 103.355 51.4146C103.596 51.4146 103.814 51.2567 104.01 50.9409L104.21 51.0483C103.943 51.5724 103.658 51.9452 103.355 52.1665C103.124 52.3325 102.861 52.4155 102.564 52.4155C102.311 52.4155 102.068 52.3618 101.837 52.2544C101.609 52.1437 101.331 51.9386 101.002 51.6392C100.595 51.9126 100.213 52.1112 99.8545 52.2349C99.4964 52.3553 99.1237 52.4155 98.7363 52.4155C98.1178 52.4155 97.6263 52.2479 97.2617 51.9126C96.8971 51.5773 96.7148 51.1834 96.7148 50.731C96.7148 50.2427 96.889 49.8179 97.2373 49.4565C97.5856 49.0952 98.0918 48.7827 98.7559 48.519C98.6712 48.3075 98.6077 48.1007 98.5654 47.8989C98.5231 47.6971 98.502 47.5018 98.502 47.313C98.502 46.7922 98.6842 46.3592 99.0488 46.0142C99.4167 45.6659 99.8854 45.4917 100.455 45.4917C100.914 45.4917 101.277 45.6073 101.544 45.8384C101.814 46.0662 101.949 46.3332 101.949 46.6392C101.949 47.007 101.811 47.3228 101.534 47.5864C101.261 47.8468 100.826 48.0861 100.23 48.3042C100.598 48.952 101.137 49.6502 101.847 50.3989C102.325 49.8618 102.564 49.4012 102.564 49.0171C102.564 48.8804 102.517 48.7648 102.423 48.6704C102.328 48.5728 102.19 48.5142 102.008 48.4946V48.3042ZM100.064 48.0112C100.406 47.8843 100.636 47.7492 100.753 47.606C100.87 47.4595 100.929 47.2837 100.929 47.0786C100.929 46.714 100.833 46.4064 100.641 46.1558C100.514 45.9897 100.357 45.9067 100.172 45.9067C100.019 45.9067 99.887 45.967 99.7764 46.0874C99.6689 46.2078 99.6152 46.3706 99.6152 46.5757C99.6152 46.7352 99.6413 46.9061 99.6934 47.0884C99.7454 47.2707 99.8691 47.5783 100.064 48.0112ZM98.8926 48.8315C98.6322 48.9422 98.4482 49.0594 98.3408 49.1831C98.1878 49.3654 98.1113 49.5688 98.1113 49.7935C98.1113 50.0994 98.1992 50.4038 98.375 50.7065C98.554 51.0093 98.7689 51.2437 99.0195 51.4097C99.2702 51.5757 99.5208 51.6587 99.7715 51.6587C99.8952 51.6587 100.034 51.6327 100.187 51.5806C100.343 51.5252 100.512 51.4438 100.694 51.3364C99.9098 50.5324 99.3092 49.6974 98.8926 48.8315Z" fill="white"/>
<path d="M91.2461 52.4497L89.7715 49.0659C89.5501 48.5549 89.3857 48.2407 89.2783 48.1235C89.1742 48.0063 89.0472 47.925 88.8975 47.8794V47.6987H91.3242V47.8794C91.1647 47.8859 91.0524 47.9168 90.9873 47.9722C90.9222 48.0275 90.8896 48.0942 90.8896 48.1724C90.8896 48.2961 90.971 48.5402 91.1338 48.9048L91.915 50.6919L92.4473 49.3101C92.6393 48.8185 92.7354 48.4767 92.7354 48.2847C92.7354 48.1642 92.6947 48.0682 92.6133 47.9966C92.5352 47.925 92.3952 47.8859 92.1934 47.8794V47.6987H93.7217V47.8794C93.5719 47.8957 93.4499 47.9543 93.3555 48.0552C93.2611 48.1528 93.1032 48.4897 92.8818 49.0659L91.5781 52.4497C91.2493 53.2961 91.0052 53.8169 90.8457 54.0122C90.6211 54.2856 90.3395 54.4224 90.001 54.4224C89.7308 54.4224 89.5111 54.3442 89.3418 54.188C89.1758 54.035 89.0928 53.8494 89.0928 53.6313C89.0928 53.4425 89.1497 53.2863 89.2637 53.1626C89.3809 53.0389 89.5241 52.9771 89.6934 52.9771C89.8561 52.9771 89.9863 53.0291 90.084 53.1333C90.1849 53.2375 90.237 53.3986 90.2402 53.6167C90.2435 53.7404 90.2581 53.8202 90.2842 53.856C90.3102 53.8918 90.3477 53.9097 90.3965 53.9097C90.4746 53.9097 90.5576 53.8625 90.6455 53.7681C90.7757 53.6313 90.9287 53.3188 91.1045 52.8306L91.2461 52.4497Z" fill="white"/>
<path d="M86.6025 47.6987V48.7339C86.9053 48.2619 87.1706 47.9494 87.3984 47.7964C87.6263 47.6401 87.846 47.562 88.0576 47.562C88.2399 47.562 88.3848 47.619 88.4922 47.7329C88.6029 47.8436 88.6582 48.0015 88.6582 48.2065C88.6582 48.4246 88.6045 48.5939 88.4971 48.7144C88.3929 48.8348 88.2659 48.895 88.1162 48.895C87.9437 48.895 87.7939 48.8397 87.667 48.729C87.54 48.6183 87.4652 48.5565 87.4424 48.5435C87.4098 48.5239 87.3724 48.5142 87.3301 48.5142C87.2357 48.5142 87.1462 48.55 87.0615 48.6216C86.9281 48.7323 86.8271 48.8901 86.7588 49.0952C86.6546 49.411 86.6025 49.7593 86.6025 50.1401V51.1899L86.6074 51.4634C86.6074 51.6489 86.6188 51.7677 86.6416 51.8198C86.6807 51.9077 86.7376 51.9728 86.8125 52.0151C86.8906 52.0542 87.0208 52.0786 87.2031 52.0884V52.2642H84.7373V52.0884C84.9359 52.0721 85.0693 52.0184 85.1377 51.9272C85.2093 51.8328 85.2451 51.5871 85.2451 51.1899V48.6655C85.2451 48.4051 85.2321 48.2391 85.2061 48.1675C85.1735 48.0763 85.1263 48.0096 85.0645 47.9673C85.0026 47.925 84.8936 47.8957 84.7373 47.8794V47.6987H86.6025Z" fill="white"/>
<path d="M84.1318 49.8179H81.627C81.6562 50.4233 81.8174 50.9019 82.1104 51.2534C82.335 51.5236 82.6051 51.6587 82.9209 51.6587C83.1162 51.6587 83.2936 51.605 83.4531 51.4976C83.6126 51.3869 83.7835 51.1899 83.9658 50.9067L84.1318 51.0142C83.8844 51.5187 83.611 51.8768 83.3115 52.0884C83.012 52.2967 82.6654 52.4009 82.2715 52.4009C81.5944 52.4009 81.0817 52.1405 80.7334 51.6196C80.4535 51.1997 80.3135 50.6789 80.3135 50.0571C80.3135 49.2954 80.5186 48.6899 80.9287 48.2407C81.3421 47.7882 81.8255 47.562 82.3789 47.562C82.8411 47.562 83.2415 47.7524 83.5801 48.1333C83.9219 48.5109 84.1058 49.0724 84.1318 49.8179ZM82.9307 49.4907C82.9307 48.9666 82.9014 48.6069 82.8428 48.4116C82.7874 48.2163 82.6995 48.0682 82.5791 47.9673C82.5107 47.9087 82.4196 47.8794 82.3057 47.8794C82.1364 47.8794 81.998 47.9624 81.8906 48.1284C81.6986 48.4181 81.6025 48.8153 81.6025 49.3198V49.4907H82.9307Z" fill="white"/>
<path d="M77.3252 52.4009L75.7871 48.8608C75.6016 48.4344 75.4567 48.1642 75.3525 48.0503C75.2777 47.9657 75.167 47.9087 75.0205 47.8794V47.6987H77.4473V47.8794C77.2943 47.8794 77.1901 47.9071 77.1348 47.9624C77.0566 48.034 77.0176 48.1187 77.0176 48.2163C77.0176 48.3368 77.0892 48.563 77.2324 48.895L77.9844 50.6089L78.585 49.1294C78.7575 48.7062 78.8438 48.4067 78.8438 48.231C78.8438 48.13 78.8063 48.0487 78.7314 47.9868C78.6598 47.9217 78.5312 47.8859 78.3457 47.8794V47.6987H79.8398V47.8794C79.6966 47.8989 79.5794 47.9526 79.4883 48.0405C79.3971 48.1284 79.2604 48.3872 79.0781 48.8169L77.5547 52.4009H77.3252Z" fill="white"/>
<path d="M72.418 47.562C72.8151 47.562 73.1846 47.6646 73.5264 47.8696C73.8682 48.0747 74.127 48.366 74.3027 48.7437C74.4818 49.1213 74.5713 49.5347 74.5713 49.9839C74.5713 50.6317 74.4069 51.1737 74.0781 51.6099C73.681 52.1372 73.1325 52.4009 72.4326 52.4009C71.7458 52.4009 71.2168 52.16 70.8457 51.6782C70.4746 51.1965 70.2891 50.6382 70.2891 50.0034C70.2891 49.3491 70.4779 48.7795 70.8555 48.2944C71.2363 47.8062 71.7572 47.562 72.418 47.562ZM72.4375 47.9087C72.2715 47.9087 72.1283 47.9722 72.0078 48.0991C71.8906 48.2228 71.8125 48.4702 71.7734 48.8413C71.7376 49.2091 71.7197 49.7218 71.7197 50.3794C71.7197 50.7277 71.7425 51.0532 71.7881 51.356C71.8239 51.5871 71.9004 51.7629 72.0176 51.8833C72.1348 52.0037 72.2682 52.064 72.418 52.064C72.5645 52.064 72.6865 52.0233 72.7842 51.9419C72.9111 51.8312 72.9958 51.6766 73.0381 51.478C73.1032 51.1688 73.1357 50.5438 73.1357 49.603C73.1357 49.0496 73.1048 48.6704 73.043 48.4653C72.9811 48.257 72.89 48.1056 72.7695 48.0112C72.6849 47.9429 72.5742 47.9087 72.4375 47.9087Z" fill="white"/>
<path d="M69.5469 51.0874L69.6982 51.2046C69.4834 51.6082 69.2148 51.9093 68.8926 52.1079C68.5736 52.3032 68.2334 52.4009 67.8721 52.4009C67.2633 52.4009 66.7767 52.1714 66.4121 51.7124C66.0475 51.2534 65.8652 50.7017 65.8652 50.0571C65.8652 49.4354 66.0312 48.8885 66.3633 48.4165C66.7637 47.8468 67.3154 47.562 68.0186 47.562C68.4906 47.562 68.8649 47.6808 69.1416 47.9185C69.4215 48.1561 69.5615 48.4214 69.5615 48.7144C69.5615 48.8999 69.5046 49.048 69.3906 49.1587C69.2799 49.2694 69.1335 49.3247 68.9512 49.3247C68.7591 49.3247 68.5996 49.2612 68.4727 49.1343C68.349 49.0073 68.2725 48.7811 68.2432 48.4556C68.2236 48.2505 68.1764 48.1073 68.1016 48.0259C68.0267 47.9445 67.9388 47.9038 67.8379 47.9038C67.6816 47.9038 67.5482 47.9868 67.4375 48.1528C67.2682 48.4035 67.1836 48.7876 67.1836 49.3052C67.1836 49.7349 67.252 50.1466 67.3887 50.5405C67.5254 50.9312 67.7126 51.2225 67.9502 51.4146C68.1292 51.5545 68.3408 51.6245 68.585 51.6245C68.7445 51.6245 68.8958 51.5871 69.0391 51.5122C69.1823 51.4373 69.3516 51.2957 69.5469 51.0874Z" fill="white"/>
<path d="M65.2451 49.8179H62.7402C62.7695 50.4233 62.9307 50.9019 63.2236 51.2534C63.4482 51.5236 63.7184 51.6587 64.0342 51.6587C64.2295 51.6587 64.4069 51.605 64.5664 51.4976C64.7259 51.3869 64.8968 51.1899 65.0791 50.9067L65.2451 51.0142C64.9977 51.5187 64.7243 51.8768 64.4248 52.0884C64.1253 52.2967 63.7786 52.4009 63.3848 52.4009C62.7077 52.4009 62.195 52.1405 61.8467 51.6196C61.5667 51.1997 61.4268 50.6789 61.4268 50.0571C61.4268 49.2954 61.6318 48.6899 62.042 48.2407C62.4554 47.7882 62.9388 47.562 63.4922 47.562C63.9544 47.562 64.3548 47.7524 64.6934 48.1333C65.0352 48.5109 65.2191 49.0724 65.2451 49.8179ZM64.0439 49.4907C64.0439 48.9666 64.0146 48.6069 63.9561 48.4116C63.9007 48.2163 63.8128 48.0682 63.6924 47.9673C63.624 47.9087 63.5329 47.8794 63.4189 47.8794C63.2497 47.8794 63.1113 47.9624 63.0039 48.1284C62.8118 48.4181 62.7158 48.8153 62.7158 49.3198V49.4907H64.0439Z" fill="white"/>
<path d="M56.4707 49.2466V51.1021C56.4707 51.4601 56.4919 51.6864 56.5342 51.7808C56.5798 51.8719 56.6579 51.9452 56.7686 52.0005C56.8792 52.0558 57.0859 52.0835 57.3887 52.0835V52.2642H54V52.0835C54.306 52.0835 54.5127 52.0558 54.6201 52.0005C54.7308 51.9419 54.8073 51.867 54.8496 51.7759C54.8952 51.6847 54.918 51.4601 54.918 51.1021V46.8052C54.918 46.4471 54.8952 46.2225 54.8496 46.1313C54.8073 46.0369 54.7308 45.9621 54.6201 45.9067C54.5094 45.8514 54.3027 45.8237 54 45.8237V45.6431H57.0762C57.877 45.6431 58.4629 45.6984 58.834 45.8091C59.2051 45.9198 59.5078 46.1248 59.7422 46.4243C59.9766 46.7205 60.0938 47.0688 60.0938 47.4692C60.0938 47.9575 59.918 48.3612 59.5664 48.6802C59.3418 48.882 59.0277 49.0334 58.624 49.1343L60.2158 51.3755C60.4242 51.6652 60.5723 51.8459 60.6602 51.9175C60.7936 52.0184 60.9482 52.0737 61.124 52.0835V52.2642H59.0391L56.9053 49.2466H56.4707ZM56.4707 45.9995V48.8999H56.749C57.2015 48.8999 57.54 48.8592 57.7646 48.7778C57.9893 48.6932 58.165 48.5435 58.292 48.3286C58.4222 48.1105 58.4873 47.8273 58.4873 47.479C58.4873 46.9744 58.3685 46.6017 58.1309 46.3608C57.8965 46.12 57.5173 45.9995 56.9932 45.9995H56.4707Z" fill="white"/>
<path d="M156.378 36.6987V37.7339C156.681 37.2619 156.946 36.9494 157.174 36.7964C157.402 36.6401 157.621 36.562 157.833 36.562C158.015 36.562 158.16 36.619 158.268 36.7329C158.378 36.8436 158.434 37.0015 158.434 37.2065C158.434 37.4246 158.38 37.5939 158.272 37.7144C158.168 37.8348 158.041 37.895 157.892 37.895C157.719 37.895 157.569 37.8397 157.442 37.729C157.315 37.6183 157.241 37.5565 157.218 37.5435C157.185 37.5239 157.148 37.5142 157.105 37.5142C157.011 37.5142 156.922 37.55 156.837 37.6216C156.703 37.7323 156.603 37.8901 156.534 38.0952C156.43 38.411 156.378 38.7593 156.378 39.1401V40.1899L156.383 40.4634C156.383 40.6489 156.394 40.7677 156.417 40.8198C156.456 40.9077 156.513 40.9728 156.588 41.0151C156.666 41.0542 156.796 41.0786 156.979 41.0884V41.2642H154.513V41.0884C154.711 41.0721 154.845 41.0184 154.913 40.9272C154.985 40.8328 155.021 40.5871 155.021 40.1899V37.6655C155.021 37.4051 155.007 37.2391 154.981 37.1675C154.949 37.0763 154.902 37.0096 154.84 36.9673C154.778 36.925 154.669 36.8957 154.513 36.8794V36.6987H156.378Z" fill="white"/>
<path d="M151.637 36.562C152.034 36.562 152.403 36.6646 152.745 36.8696C153.087 37.0747 153.346 37.366 153.521 37.7437C153.701 38.1213 153.79 38.5347 153.79 38.9839C153.79 39.6317 153.626 40.1737 153.297 40.6099C152.9 41.1372 152.351 41.4009 151.651 41.4009C150.965 41.4009 150.436 41.16 150.064 40.6782C149.693 40.1965 149.508 39.6382 149.508 39.0034C149.508 38.3491 149.697 37.7795 150.074 37.2944C150.455 36.8062 150.976 36.562 151.637 36.562ZM151.656 36.9087C151.49 36.9087 151.347 36.9722 151.227 37.0991C151.109 37.2228 151.031 37.4702 150.992 37.8413C150.956 38.2091 150.938 38.7218 150.938 39.3794C150.938 39.7277 150.961 40.0532 151.007 40.356C151.043 40.5871 151.119 40.7629 151.236 40.8833C151.354 41.0037 151.487 41.064 151.637 41.064C151.783 41.064 151.905 41.0233 152.003 40.9419C152.13 40.8312 152.215 40.6766 152.257 40.478C152.322 40.1688 152.354 39.5438 152.354 38.603C152.354 38.0496 152.324 37.6704 152.262 37.4653C152.2 37.257 152.109 37.1056 151.988 37.0112C151.904 36.9429 151.793 36.9087 151.656 36.9087Z" fill="white"/>
<path d="M148.155 37.1772V40.3462C148.155 40.6522 148.188 40.8442 148.253 40.9224C148.357 41.0428 148.549 41.0981 148.829 41.0884V41.2642H146.139V41.0884C146.344 41.0851 146.489 41.0623 146.573 41.02C146.661 40.9744 146.721 40.9126 146.754 40.8345C146.786 40.7563 146.803 40.5936 146.803 40.3462V37.1772H146.139V36.6987H146.803V36.3618L146.798 36.1323C146.798 35.6636 146.969 35.2729 147.311 34.9604C147.656 34.6479 148.121 34.4917 148.707 34.4917C149.107 34.4917 149.404 34.5666 149.596 34.7163C149.791 34.866 149.889 35.0321 149.889 35.2144C149.889 35.3608 149.828 35.4878 149.708 35.5952C149.588 35.7026 149.428 35.7563 149.229 35.7563C149.06 35.7563 148.925 35.7124 148.824 35.6245C148.727 35.5366 148.678 35.439 148.678 35.3315C148.678 35.3022 148.688 35.242 148.707 35.1509C148.72 35.0955 148.727 35.0435 148.727 34.9946C148.727 34.9263 148.707 34.8758 148.668 34.8433C148.616 34.7944 148.552 34.77 148.478 34.77C148.383 34.77 148.303 34.8091 148.238 34.8872C148.176 34.9653 148.146 35.0907 148.146 35.2632L148.155 36.1177V36.6987H148.829V37.1772H148.155Z" fill="white"/>
<path d="M143.077 38.8179H140.572C140.602 39.4233 140.763 39.9019 141.056 40.2534C141.28 40.5236 141.55 40.6587 141.866 40.6587C142.062 40.6587 142.239 40.605 142.398 40.4976C142.558 40.3869 142.729 40.1899 142.911 39.9067L143.077 40.0142C142.83 40.5187 142.556 40.8768 142.257 41.0884C141.957 41.2967 141.611 41.4009 141.217 41.4009C140.54 41.4009 140.027 41.1405 139.679 40.6196C139.399 40.1997 139.259 39.6789 139.259 39.0571C139.259 38.2954 139.464 37.6899 139.874 37.2407C140.287 36.7882 140.771 36.562 141.324 36.562C141.786 36.562 142.187 36.7524 142.525 37.1333C142.867 37.5109 143.051 38.0724 143.077 38.8179ZM141.876 38.4907C141.876 37.9666 141.847 37.6069 141.788 37.4116C141.733 37.2163 141.645 37.0682 141.524 36.9673C141.456 36.9087 141.365 36.8794 141.251 36.8794C141.082 36.8794 140.943 36.9624 140.836 37.1284C140.644 37.4181 140.548 37.8153 140.548 38.3198V38.4907H141.876Z" fill="white"/>
<path d="M138.492 40.0874L138.644 40.2046C138.429 40.6082 138.16 40.9093 137.838 41.1079C137.519 41.3032 137.179 41.4009 136.817 41.4009C136.209 41.4009 135.722 41.1714 135.357 40.7124C134.993 40.2534 134.811 39.7017 134.811 39.0571C134.811 38.4354 134.977 37.8885 135.309 37.4165C135.709 36.8468 136.261 36.562 136.964 36.562C137.436 36.562 137.81 36.6808 138.087 36.9185C138.367 37.1561 138.507 37.4214 138.507 37.7144C138.507 37.8999 138.45 38.048 138.336 38.1587C138.225 38.2694 138.079 38.3247 137.896 38.3247C137.704 38.3247 137.545 38.2612 137.418 38.1343C137.294 38.0073 137.218 37.7811 137.188 37.4556C137.169 37.2505 137.122 37.1073 137.047 37.0259C136.972 36.9445 136.884 36.9038 136.783 36.9038C136.627 36.9038 136.493 36.9868 136.383 37.1528C136.214 37.4035 136.129 37.7876 136.129 38.3052C136.129 38.7349 136.197 39.1466 136.334 39.5405C136.471 39.9312 136.658 40.2225 136.896 40.4146C137.075 40.5545 137.286 40.6245 137.53 40.6245C137.69 40.6245 137.841 40.5871 137.984 40.5122C138.128 40.4373 138.297 40.2957 138.492 40.0874Z" fill="white"/>
<path d="M133.082 34.4868C133.294 34.4868 133.473 34.5617 133.619 34.7114C133.766 34.8579 133.839 35.0353 133.839 35.2437C133.839 35.452 133.764 35.6294 133.614 35.7759C133.468 35.9224 133.29 35.9956 133.082 35.9956C132.874 35.9956 132.696 35.9224 132.55 35.7759C132.403 35.6294 132.33 35.452 132.33 35.2437C132.33 35.0353 132.403 34.8579 132.55 34.7114C132.696 34.5617 132.874 34.4868 133.082 34.4868ZM133.766 36.6987V40.3169C133.766 40.6392 133.803 40.8459 133.878 40.937C133.953 41.0249 134.099 41.0754 134.317 41.0884V41.2642H131.852V41.0884C132.053 41.0819 132.203 41.0233 132.301 40.9126C132.366 40.8377 132.398 40.6392 132.398 40.3169V37.6509C132.398 37.3286 132.361 37.1235 132.286 37.0356C132.211 36.9445 132.066 36.8924 131.852 36.8794V36.6987H133.766Z" fill="white"/>
<path d="M130.655 37.1772V40.3462C130.655 40.6522 130.688 40.8442 130.753 40.9224C130.857 41.0428 131.049 41.0981 131.329 41.0884V41.2642H128.639V41.0884C128.844 41.0851 128.989 41.0623 129.073 41.02C129.161 40.9744 129.221 40.9126 129.254 40.8345C129.286 40.7563 129.303 40.5936 129.303 40.3462V37.1772H128.639V36.6987H129.303V36.3618L129.298 36.1323C129.298 35.6636 129.469 35.2729 129.811 34.9604C130.156 34.6479 130.621 34.4917 131.207 34.4917C131.607 34.4917 131.904 34.5666 132.096 34.7163C132.291 34.866 132.389 35.0321 132.389 35.2144C132.389 35.3608 132.328 35.4878 132.208 35.5952C132.088 35.7026 131.928 35.7563 131.729 35.7563C131.56 35.7563 131.425 35.7124 131.324 35.6245C131.227 35.5366 131.178 35.439 131.178 35.3315C131.178 35.3022 131.188 35.242 131.207 35.1509C131.22 35.0955 131.227 35.0435 131.227 34.9946C131.227 34.9263 131.207 34.8758 131.168 34.8433C131.116 34.7944 131.052 34.77 130.978 34.77C130.883 34.77 130.803 34.8091 130.738 34.8872C130.676 34.9653 130.646 35.0907 130.646 35.2632L130.655 36.1177V36.6987H131.329V37.1772H130.655Z" fill="white"/>
<path d="M127.325 37.1772V40.3462C127.325 40.6522 127.358 40.8442 127.423 40.9224C127.527 41.0428 127.719 41.0981 127.999 41.0884V41.2642H125.309V41.0884C125.514 41.0851 125.659 41.0623 125.743 41.02C125.831 40.9744 125.891 40.9126 125.924 40.8345C125.956 40.7563 125.973 40.5936 125.973 40.3462V37.1772H125.309V36.6987H125.973V36.3618L125.968 36.1323C125.968 35.6636 126.139 35.2729 126.48 34.9604C126.826 34.6479 127.291 34.4917 127.877 34.4917C128.277 34.4917 128.574 34.5666 128.766 34.7163C128.961 34.866 129.059 35.0321 129.059 35.2144C129.059 35.3608 128.998 35.4878 128.878 35.5952C128.757 35.7026 128.598 35.7563 128.399 35.7563C128.23 35.7563 128.095 35.7124 127.994 35.6245C127.896 35.5366 127.848 35.439 127.848 35.3315C127.848 35.3022 127.857 35.242 127.877 35.1509C127.89 35.0955 127.896 35.0435 127.896 34.9946C127.896 34.9263 127.877 34.8758 127.838 34.8433C127.786 34.7944 127.722 34.77 127.647 34.77C127.553 34.77 127.473 34.8091 127.408 34.8872C127.346 34.9653 127.315 35.0907 127.315 35.2632L127.325 36.1177V36.6987H127.999V37.1772H127.325Z" fill="white"/>
<path d="M121.065 34.5503C122.12 34.5112 122.976 34.8188 123.634 35.4731C124.295 36.1274 124.625 36.9461 124.625 37.9292C124.625 38.769 124.379 39.508 123.888 40.146C123.237 40.9924 122.317 41.4155 121.129 41.4155C119.938 41.4155 119.016 41.0119 118.365 40.2046C117.851 39.5666 117.594 38.8097 117.594 37.9341C117.594 36.951 117.927 36.1323 118.595 35.478C119.265 34.8205 120.089 34.5112 121.065 34.5503ZM121.124 34.8628C120.519 34.8628 120.058 35.172 119.742 35.7905C119.485 36.2983 119.356 37.0275 119.356 37.978C119.356 39.1076 119.555 39.9425 119.952 40.4829C120.229 40.8605 120.616 41.0493 121.114 41.0493C121.45 41.0493 121.729 40.9679 121.954 40.8052C122.241 40.5968 122.464 40.2648 122.623 39.8091C122.783 39.3501 122.862 38.7528 122.862 38.0171C122.862 37.1414 122.781 36.4871 122.618 36.0542C122.455 35.618 122.247 35.3104 121.993 35.1313C121.743 34.9523 121.453 34.8628 121.124 34.8628Z" fill="white"/>
<path d="M111.339 36.6987V37.2896C111.573 37.0356 111.798 36.8517 112.013 36.7378C112.228 36.6206 112.459 36.562 112.706 36.562C113.002 36.562 113.248 36.645 113.443 36.811C113.639 36.9738 113.769 37.1772 113.834 37.4214C113.886 37.6069 113.912 37.9634 113.912 38.4907V40.2681C113.912 40.6196 113.943 40.8394 114.005 40.9272C114.07 41.0119 114.203 41.0656 114.405 41.0884V41.2642H112.096V41.0884C112.268 41.0656 112.392 40.994 112.467 40.8735C112.519 40.7922 112.545 40.5903 112.545 40.2681V38.2368C112.545 37.8625 112.53 37.6265 112.501 37.5288C112.472 37.4312 112.421 37.3563 112.35 37.3042C112.281 37.2489 112.205 37.2212 112.12 37.2212C111.84 37.2212 111.58 37.4214 111.339 37.8218V40.2681C111.339 40.6099 111.37 40.8263 111.432 40.9175C111.497 41.0086 111.616 41.0656 111.788 41.0884V41.2642H109.479V41.0884C109.671 41.0688 109.807 41.007 109.889 40.9028C109.944 40.8312 109.972 40.6196 109.972 40.2681V37.6899C109.972 37.3449 109.939 37.13 109.874 37.0454C109.812 36.9608 109.68 36.9054 109.479 36.8794V36.6987H111.339Z" fill="white"/>
<path d="M106.993 40.5903C106.437 41.0819 105.937 41.3276 105.494 41.3276C105.234 41.3276 105.017 41.243 104.845 41.0737C104.672 40.9012 104.586 40.6864 104.586 40.4292C104.586 40.0809 104.736 39.7684 105.035 39.4917C105.335 39.2118 105.987 38.8407 106.993 38.3784V37.9194C106.993 37.5744 106.974 37.3579 106.935 37.27C106.899 37.1789 106.829 37.1007 106.725 37.0356C106.62 36.9673 106.503 36.9331 106.373 36.9331C106.161 36.9331 105.987 36.9803 105.851 37.0747C105.766 37.1333 105.724 37.2017 105.724 37.2798C105.724 37.3481 105.769 37.4328 105.86 37.5337C105.984 37.6737 106.046 37.8088 106.046 37.939C106.046 38.0985 105.986 38.2352 105.865 38.3491C105.748 38.4598 105.593 38.5151 105.401 38.5151C105.196 38.5151 105.024 38.4533 104.884 38.3296C104.747 38.2059 104.679 38.061 104.679 37.895C104.679 37.6606 104.771 37.4377 104.957 37.2261C105.143 37.0112 105.401 36.8468 105.733 36.7329C106.065 36.619 106.41 36.562 106.769 36.562C107.201 36.562 107.543 36.6548 107.794 36.8403C108.048 37.0226 108.212 37.2212 108.287 37.436C108.333 37.5728 108.355 37.8869 108.355 38.3784V40.1509C108.355 40.3592 108.364 40.491 108.38 40.5464C108.396 40.5985 108.421 40.6375 108.453 40.6636C108.486 40.6896 108.523 40.7026 108.565 40.7026C108.65 40.7026 108.736 40.6424 108.824 40.522L108.971 40.6392C108.808 40.88 108.639 41.0558 108.463 41.1665C108.29 41.2739 108.093 41.3276 107.872 41.3276C107.612 41.3276 107.408 41.2674 107.262 41.147C107.115 41.0233 107.026 40.8377 106.993 40.5903ZM106.993 40.2339V38.7056C106.599 38.9367 106.306 39.1841 106.114 39.4478C105.987 39.6235 105.924 39.8009 105.924 39.98C105.924 40.1297 105.978 40.2616 106.085 40.3755C106.166 40.4634 106.28 40.5073 106.427 40.5073C106.59 40.5073 106.778 40.4162 106.993 40.2339Z" fill="white"/>
<path d="M102.789 34.4868C103.001 34.4868 103.18 34.5617 103.326 34.7114C103.473 34.8579 103.546 35.0353 103.546 35.2437C103.546 35.452 103.471 35.6294 103.321 35.7759C103.175 35.9224 102.997 35.9956 102.789 35.9956C102.581 35.9956 102.403 35.9224 102.257 35.7759C102.11 35.6294 102.037 35.452 102.037 35.2437C102.037 35.0353 102.11 34.8579 102.257 34.7114C102.403 34.5617 102.581 34.4868 102.789 34.4868ZM103.473 36.6987V40.3169C103.473 40.6392 103.51 40.8459 103.585 40.937C103.66 41.0249 103.806 41.0754 104.024 41.0884V41.2642H101.559V41.0884C101.76 41.0819 101.91 41.0233 102.008 40.9126C102.073 40.8377 102.105 40.6392 102.105 40.3169V37.6509C102.105 37.3286 102.068 37.1235 101.993 37.0356C101.918 36.9445 101.773 36.8924 101.559 36.8794V36.6987H103.473Z" fill="white"/>
<path d="M100.562 34.6431V39.897C100.562 40.2518 100.572 40.4618 100.592 40.5269C100.618 40.6343 100.667 40.714 100.738 40.7661C100.813 40.8182 100.942 40.8507 101.124 40.8638V41.0249L99.1953 41.4009V40.6782C98.9642 40.9582 98.7575 41.1486 98.5752 41.2495C98.3962 41.3504 98.1927 41.4009 97.9648 41.4009C97.3822 41.4009 96.9216 41.1405 96.583 40.6196C96.3096 40.1965 96.1729 39.6772 96.1729 39.062C96.1729 38.5705 96.2575 38.131 96.4268 37.7437C96.596 37.353 96.8271 37.0584 97.1201 36.8599C97.4163 36.6613 97.7337 36.562 98.0723 36.562C98.2904 36.562 98.4841 36.6043 98.6533 36.689C98.8226 36.7736 99.0033 36.9217 99.1953 37.1333V35.7563C99.1953 35.408 99.1807 35.1981 99.1514 35.1265C99.1123 35.0321 99.0537 34.9621 98.9756 34.9165C98.8975 34.8709 98.751 34.8481 98.5361 34.8481V34.6431H100.562ZM99.1953 37.7388C98.9544 37.2765 98.6598 37.0454 98.3115 37.0454C98.1911 37.0454 98.0918 37.078 98.0137 37.1431C97.8932 37.244 97.7939 37.4214 97.7158 37.6753C97.6409 37.9292 97.6035 38.3182 97.6035 38.8423C97.6035 39.4185 97.6458 39.8449 97.7305 40.1216C97.8151 40.3983 97.9307 40.5985 98.0771 40.7222C98.152 40.784 98.2546 40.8149 98.3848 40.8149C98.6712 40.8149 98.9414 40.5903 99.1953 40.1411V37.7388Z" fill="white"/>
<path d="M93.6436 40.5903C93.0869 41.0819 92.5872 41.3276 92.1445 41.3276C91.8841 41.3276 91.6676 41.243 91.4951 41.0737C91.3226 40.9012 91.2363 40.6864 91.2363 40.4292C91.2363 40.0809 91.3861 39.7684 91.6855 39.4917C91.985 39.2118 92.6377 38.8407 93.6436 38.3784V37.9194C93.6436 37.5744 93.624 37.3579 93.585 37.27C93.5492 37.1789 93.4792 37.1007 93.375 37.0356C93.2708 36.9673 93.1536 36.9331 93.0234 36.9331C92.8118 36.9331 92.6377 36.9803 92.501 37.0747C92.4163 37.1333 92.374 37.2017 92.374 37.2798C92.374 37.3481 92.4196 37.4328 92.5107 37.5337C92.6344 37.6737 92.6963 37.8088 92.6963 37.939C92.6963 38.0985 92.6361 38.2352 92.5156 38.3491C92.3984 38.4598 92.2438 38.5151 92.0518 38.5151C91.8467 38.5151 91.6742 38.4533 91.5342 38.3296C91.3975 38.2059 91.3291 38.061 91.3291 37.895C91.3291 37.6606 91.4219 37.4377 91.6074 37.2261C91.793 37.0112 92.0518 36.8468 92.3838 36.7329C92.7158 36.619 93.0609 36.562 93.4189 36.562C93.8519 36.562 94.1937 36.6548 94.4443 36.8403C94.6982 37.0226 94.8626 37.2212 94.9375 37.436C94.9831 37.5728 95.0059 37.8869 95.0059 38.3784V40.1509C95.0059 40.3592 95.014 40.491 95.0303 40.5464C95.0466 40.5985 95.071 40.6375 95.1035 40.6636C95.1361 40.6896 95.1735 40.7026 95.2158 40.7026C95.3005 40.7026 95.3867 40.6424 95.4746 40.522L95.6211 40.6392C95.4583 40.88 95.2891 41.0558 95.1133 41.1665C94.9408 41.2739 94.7438 41.3276 94.5225 41.3276C94.262 41.3276 94.0586 41.2674 93.9121 41.147C93.7656 41.0233 93.6761 40.8377 93.6436 40.5903ZM93.6436 40.2339V38.7056C93.2497 38.9367 92.9567 39.1841 92.7646 39.4478C92.6377 39.6235 92.5742 39.8009 92.5742 39.98C92.5742 40.1297 92.6279 40.2616 92.7354 40.3755C92.8167 40.4634 92.9307 40.5073 93.0771 40.5073C93.2399 40.5073 93.4287 40.4162 93.6436 40.2339Z" fill="white"/>
<path d="M87.4229 36.6987V37.2896C87.6572 37.0356 87.8818 36.8517 88.0967 36.7378C88.3115 36.6206 88.5426 36.562 88.79 36.562C89.0863 36.562 89.332 36.645 89.5273 36.811C89.7227 36.9738 89.8529 37.1772 89.918 37.4214C89.9701 37.6069 89.9961 37.9634 89.9961 38.4907V40.2681C89.9961 40.6196 90.027 40.8394 90.0889 40.9272C90.154 41.0119 90.2874 41.0656 90.4893 41.0884V41.2642H88.1797V41.0884C88.3522 41.0656 88.4759 40.994 88.5508 40.8735C88.6029 40.7922 88.6289 40.5903 88.6289 40.2681V38.2368C88.6289 37.8625 88.6143 37.6265 88.585 37.5288C88.5557 37.4312 88.5052 37.3563 88.4336 37.3042C88.3652 37.2489 88.2887 37.2212 88.2041 37.2212C87.9242 37.2212 87.6637 37.4214 87.4229 37.8218V40.2681C87.4229 40.6099 87.4538 40.8263 87.5156 40.9175C87.5807 41.0086 87.6995 41.0656 87.8721 41.0884V41.2642H85.5625V41.0884C85.7546 41.0688 85.8913 41.007 85.9727 40.9028C86.028 40.8312 86.0557 40.6196 86.0557 40.2681V37.6899C86.0557 37.3449 86.0231 37.13 85.958 37.0454C85.8962 36.9608 85.7643 36.9054 85.5625 36.8794V36.6987H87.4229Z" fill="white"/>
<path d="M83.0771 40.5903C82.5205 41.0819 82.0208 41.3276 81.5781 41.3276C81.3177 41.3276 81.1012 41.243 80.9287 41.0737C80.7562 40.9012 80.6699 40.6864 80.6699 40.4292C80.6699 40.0809 80.8197 39.7684 81.1191 39.4917C81.4186 39.2118 82.0713 38.8407 83.0771 38.3784V37.9194C83.0771 37.5744 83.0576 37.3579 83.0186 37.27C82.9827 37.1789 82.9128 37.1007 82.8086 37.0356C82.7044 36.9673 82.5872 36.9331 82.457 36.9331C82.2454 36.9331 82.0713 36.9803 81.9346 37.0747C81.8499 37.1333 81.8076 37.2017 81.8076 37.2798C81.8076 37.3481 81.8532 37.4328 81.9443 37.5337C82.068 37.6737 82.1299 37.8088 82.1299 37.939C82.1299 38.0985 82.0697 38.2352 81.9492 38.3491C81.832 38.4598 81.6774 38.5151 81.4854 38.5151C81.2803 38.5151 81.1077 38.4533 80.9678 38.3296C80.8311 38.2059 80.7627 38.061 80.7627 37.895C80.7627 37.6606 80.8555 37.4377 81.041 37.2261C81.2266 37.0112 81.4854 36.8468 81.8174 36.7329C82.1494 36.619 82.4945 36.562 82.8525 36.562C83.2855 36.562 83.6273 36.6548 83.8779 36.8403C84.1318 37.0226 84.2962 37.2212 84.3711 37.436C84.4167 37.5728 84.4395 37.8869 84.4395 38.3784V40.1509C84.4395 40.3592 84.4476 40.491 84.4639 40.5464C84.4801 40.5985 84.5046 40.6375 84.5371 40.6636C84.5697 40.6896 84.6071 40.7026 84.6494 40.7026C84.734 40.7026 84.8203 40.6424 84.9082 40.522L85.0547 40.6392C84.8919 40.88 84.7227 41.0558 84.5469 41.1665C84.3743 41.2739 84.1774 41.3276 83.9561 41.3276C83.6956 41.3276 83.4922 41.2674 83.3457 41.147C83.1992 41.0233 83.1097 40.8377 83.0771 40.5903ZM83.0771 40.2339V38.7056C82.6833 38.9367 82.3903 39.1841 82.1982 39.4478C82.0713 39.6235 82.0078 39.8009 82.0078 39.98C82.0078 40.1297 82.0615 40.2616 82.1689 40.3755C82.2503 40.4634 82.3643 40.5073 82.5107 40.5073C82.6735 40.5073 82.8623 40.4162 83.0771 40.2339Z" fill="white"/>
<path d="M79.6689 34.4917V36.7866H79.4785C79.3353 36.1877 79.0684 35.7287 78.6777 35.4097C78.2871 35.0907 77.8444 34.9312 77.3496 34.9312C76.9362 34.9312 76.557 35.05 76.2119 35.2876C75.8669 35.5252 75.6146 35.8361 75.4551 36.2202C75.25 36.7118 75.1475 37.2586 75.1475 37.8608C75.1475 38.4533 75.2223 38.9937 75.3721 39.4819C75.5218 39.967 75.7562 40.3348 76.0752 40.5854C76.3942 40.8328 76.8076 40.9565 77.3154 40.9565C77.7321 40.9565 78.113 40.8654 78.458 40.6831C78.8063 40.5008 79.1725 40.1867 79.5566 39.7407V40.312C79.1855 40.6994 78.7982 40.981 78.3945 41.1567C77.9941 41.3293 77.5254 41.4155 76.9883 41.4155C76.2819 41.4155 75.6536 41.2739 75.1035 40.9907C74.5566 40.7075 74.1335 40.3006 73.834 39.77C73.5378 39.2394 73.3896 38.6746 73.3896 38.0757C73.3896 37.4442 73.554 36.8452 73.8828 36.2788C74.2148 35.7124 74.6608 35.2729 75.2207 34.9604C75.7839 34.6479 76.3812 34.4917 77.0127 34.4917C77.4782 34.4917 77.9697 34.5926 78.4873 34.7944C78.7868 34.9116 78.9772 34.9702 79.0586 34.9702C79.1628 34.9702 79.2523 34.9328 79.3271 34.8579C79.4053 34.7798 79.4557 34.6577 79.4785 34.4917H79.6689Z" fill="white"/>
<path d="M70.2549 38.8179H67.75C67.7793 39.4233 67.9404 39.9019 68.2334 40.2534C68.458 40.5236 68.7282 40.6587 69.0439 40.6587C69.2393 40.6587 69.4167 40.605 69.5762 40.4976C69.7357 40.3869 69.9066 40.1899 70.0889 39.9067L70.2549 40.0142C70.0075 40.5187 69.734 40.8768 69.4346 41.0884C69.1351 41.2967 68.7884 41.4009 68.3945 41.4009C67.7174 41.4009 67.2048 41.1405 66.8564 40.6196C66.5765 40.1997 66.4365 39.6789 66.4365 39.0571C66.4365 38.2954 66.6416 37.6899 67.0518 37.2407C67.4652 36.7882 67.9486 36.562 68.502 36.562C68.9642 36.562 69.3646 36.7524 69.7031 37.1333C70.0449 37.5109 70.2288 38.0724 70.2549 38.8179ZM69.0537 38.4907C69.0537 37.9666 69.0244 37.6069 68.9658 37.4116C68.9105 37.2163 68.8226 37.0682 68.7021 36.9673C68.6338 36.9087 68.5426 36.8794 68.4287 36.8794C68.2594 36.8794 68.1211 36.9624 68.0137 37.1284C67.8216 37.4181 67.7256 37.8153 67.7256 38.3198V38.4907H69.0537Z" fill="white"/>
<path d="M62.6865 34.6431V37.2847C62.9372 37.021 63.1667 36.8354 63.375 36.728C63.5833 36.6174 63.7998 36.562 64.0244 36.562C64.3109 36.562 64.555 36.6434 64.7568 36.8062C64.9619 36.9689 65.097 37.161 65.1621 37.3823C65.2305 37.6004 65.2646 37.9699 65.2646 38.4907V40.2729C65.2646 40.6213 65.2972 40.8394 65.3623 40.9272C65.4274 41.0119 65.5592 41.0656 65.7578 41.0884V41.2642H63.4434V41.0884C63.6061 41.0656 63.7282 41.0005 63.8096 40.8931C63.8682 40.8084 63.8975 40.6017 63.8975 40.2729V38.2368C63.8975 37.8592 63.8828 37.6232 63.8535 37.5288C63.8242 37.4312 63.7738 37.3563 63.7021 37.3042C63.6338 37.2489 63.5557 37.2212 63.4678 37.2212C63.3376 37.2212 63.2106 37.2668 63.0869 37.3579C62.9632 37.4458 62.8298 37.6021 62.6865 37.8267V40.2729C62.6865 40.5985 62.7109 40.8019 62.7598 40.8833C62.8216 40.994 62.9486 41.0623 63.1406 41.0884V41.2642H60.8262V41.0884C61.0182 41.0688 61.1549 41.007 61.2363 40.9028C61.2917 40.8312 61.3193 40.6213 61.3193 40.2729V35.6343C61.3193 35.2892 61.2868 35.0744 61.2217 34.9897C61.1598 34.9051 61.028 34.8498 60.8262 34.8237V34.6431H62.6865Z" fill="white"/>
<path d="M60.123 34.6431V36.4351H59.9473C59.8431 36.0216 59.7275 35.7254 59.6006 35.5464C59.4736 35.3641 59.2995 35.2192 59.0781 35.1118C58.9544 35.0532 58.738 35.0239 58.4287 35.0239H57.9355V40.1313C57.9355 40.4699 57.9535 40.6815 57.9893 40.7661C58.0283 40.8507 58.1016 40.9256 58.209 40.9907C58.3197 41.0526 58.4694 41.0835 58.6582 41.0835H58.8779V41.2642H55.4111V41.0835H55.6309C55.8229 41.0835 55.9775 41.0493 56.0947 40.981C56.1794 40.9354 56.2461 40.8573 56.2949 40.7466C56.3307 40.6685 56.3486 40.4634 56.3486 40.1313V35.0239H55.8701C55.4242 35.0239 55.1003 35.1183 54.8984 35.3071C54.6152 35.5708 54.4362 35.9468 54.3613 36.4351H54.1758V34.6431H60.123Z" fill="white"/>
</g>
<defs>
<clipPath id="clip0_23_2042">
<rect width="159" height="55" fill="white"/>
</clipPath>
</defs>
</svg>
