<svg width="16" height="13" viewBox="0 0 16 13" fill="none" xmlns="http://www.w3.org/2000/svg">
<path d="M15.9904 1.54178C15.3918 1.80695 14.7569 1.98113 14.1067 2.05857C14.792 1.64832 15.3046 1.00273 15.5488 0.242288C14.9051 0.624692 14.2007 0.893906 13.466 1.03823C12.9719 0.510723 12.3174 0.1611 11.6042 0.0436338C10.8911 -0.0738323 10.159 0.0474301 9.52183 0.388596C8.88462 0.729763 8.37786 1.27175 8.08023 1.93041C7.78259 2.58908 7.71072 3.32758 7.87578 4.03128C6.57132 3.9658 5.29519 3.62678 4.13023 3.03621C2.96526 2.44564 1.93748 1.61673 1.11359 0.603259C0.82243 1.10424 0.669232 1.67344 0.669601 2.2529C0.66928 2.79312 0.802327 3.32508 1.05693 3.80155C1.31154 4.27802 1.67983 4.68427 2.12913 4.98424C1.60814 4.96756 1.09867 4.82669 0.64313 4.57334V4.61545C0.643104 5.37297 0.905136 6.10717 1.38477 6.6935C1.86441 7.27983 2.53211 7.68219 3.27461 7.8323C2.79134 7.96315 2.28466 7.98249 1.79282 7.88885C2.00241 8.5407 2.41061 9.11068 2.96025 9.519C3.50989 9.92732 4.17346 10.1535 4.85807 10.166C3.69599 11.0784 2.26078 11.5734 0.783307 11.5714C0.521603 11.5714 0.259899 11.5557 0 11.5256C1.49967 12.4899 3.24541 13.0016 5.02832 12.9996C11.0638 12.9996 14.363 8.00015 14.363 3.66549C14.363 3.52472 14.3594 3.38273 14.3534 3.24135C14.9951 2.77726 15.549 2.20256 15.9892 1.54419L15.9904 1.54178Z" fill="black"/>
</svg>
