<svg width="21" height="16" viewBox="0 0 21 16" fill="none" xmlns="http://www.w3.org/2000/svg">
<g clip-path="url(#clip0_1_833)">
<path fill-rule="evenodd" clip-rule="evenodd" d="M0 0.5H21V15.5H0V0.5Z" fill="url(#paint0_linear_1_833)"/>
<path fill-rule="evenodd" clip-rule="evenodd" d="M-0.00198364 0.5H20.998V15.5H-0.00198364V0.5Z" fill="url(#paint1_linear_1_833)"/>
<path fill-rule="evenodd" clip-rule="evenodd" d="M5.003 10.5H-0.00200081V5.49999H5.003L-2.082 0.719988L-0.964001 -0.937012L7.998 5.10799V-0.500012H12.998V5.10799L21.96 -0.937012L23.078 0.719988L15.993 5.49999H20.998V10.5H15.993L23.078 15.28L21.96 16.937L12.998 10.892V16.5H7.998V10.892L-0.964001 16.937L-2.082 15.279L5.003 10.5Z" fill="url(#paint2_linear_1_833)"/>
<path d="M14.136 5.4578L23.636 -0.792197C23.6881 -0.829985 23.7237 -0.886436 23.7353 -0.949787C23.7468 -1.01314 23.7335 -1.0785 23.698 -1.13226C23.6626 -1.18602 23.6077 -1.22403 23.5449 -1.23836C23.4822 -1.25269 23.4163 -1.24224 23.361 -1.2092L13.861 5.0408C13.832 5.05813 13.8069 5.08114 13.787 5.10846C13.7672 5.13577 13.7531 5.16682 13.7456 5.19973C13.7381 5.23264 13.7373 5.26673 13.7433 5.29995C13.7493 5.33317 13.762 5.36482 13.7806 5.39301C13.7992 5.42119 13.8233 5.44531 13.8514 5.46393C13.8796 5.48254 13.9113 5.49526 13.9445 5.50132C13.9777 5.50737 14.0118 5.50664 14.0447 5.49916C14.0776 5.49168 14.1087 5.47761 14.136 5.4578ZM14.868 10.9798L23.383 16.7198C23.4103 16.7382 23.4409 16.751 23.4731 16.7576C23.5053 16.7641 23.5385 16.7643 23.5707 16.758C23.603 16.7518 23.6337 16.7392 23.6611 16.7211C23.6885 16.7029 23.7121 16.6796 23.7305 16.6523C23.7489 16.6251 23.7617 16.5945 23.7683 16.5622C23.7748 16.53 23.775 16.4968 23.7687 16.4646C23.7625 16.4323 23.7499 16.4016 23.7318 16.3742C23.7136 16.3468 23.6903 16.3232 23.663 16.3048L15.147 10.5648C15.092 10.5278 15.0245 10.5142 14.9594 10.5269C14.8943 10.5397 14.837 10.5778 14.8 10.6328C14.763 10.6878 14.7494 10.7553 14.7621 10.8204C14.7749 10.8855 14.813 10.9428 14.868 10.9798ZM6.14201 5.0258L-2.73999 -0.961197C-2.76724 -0.979582 -2.79785 -0.99242 -2.83006 -0.998977C-2.86227 -1.00554 -2.89546 -1.00568 -2.92772 -0.999416C-2.95999 -0.993148 -2.99071 -0.980586 -3.01812 -0.962447C-3.04554 -0.944307 -3.06911 -0.920946 -3.08749 -0.893697C-3.10588 -0.866447 -3.11872 -0.835844 -3.12527 -0.803633C-3.13183 -0.771422 -3.13198 -0.738235 -3.12571 -0.705967C-3.11945 -0.673698 -3.10688 -0.642981 -3.08874 -0.615567C-3.0706 -0.588154 -3.04724 -0.564582 -3.01999 -0.546197L5.86301 5.4398C5.9179 5.47254 5.98325 5.48301 6.04562 5.46906C6.10799 5.45511 6.16265 5.4178 6.19837 5.3648C6.23409 5.3118 6.24815 5.24713 6.23767 5.18408C6.22718 5.12103 6.19295 5.0644 6.14201 5.0258ZM6.82701 10.4948L-3.01799 17.0248C-3.04732 17.042 -3.07283 17.065 -3.09297 17.0924C-3.11311 17.1198 -3.12744 17.151 -3.13511 17.1841C-3.14277 17.2172 -3.1436 17.2516 -3.13754 17.285C-3.13148 17.3185 -3.11866 17.3503 -3.09986 17.3787C-3.08107 17.407 -3.05669 17.4312 -3.02822 17.4498C-2.99976 17.4684 -2.9678 17.481 -2.9343 17.4868C-2.90081 17.4926 -2.86648 17.4915 -2.83341 17.4836C-2.80034 17.4757 -2.76924 17.4611 -2.74199 17.4408L7.10401 10.9118C7.13139 10.8936 7.15492 10.8702 7.17325 10.8429C7.19159 10.8156 7.20437 10.785 7.21087 10.7528C7.21737 10.7206 7.21746 10.6874 7.21114 10.6551C7.20481 10.6229 7.19219 10.5922 7.17401 10.5648C7.15582 10.5374 7.13241 10.5139 7.10513 10.4956C7.07785 10.4772 7.04723 10.4644 7.015 10.4579C6.98278 10.4514 6.9496 10.4513 6.91734 10.4577C6.88508 10.464 6.85439 10.4766 6.82701 10.4948Z" fill="#DB1F35"/>
<path fill-rule="evenodd" clip-rule="evenodd" d="M-0.00198364 9.5H8.99802V15.5H11.998V9.5H20.998V6.5H11.998V0.5H8.99802V6.5H-0.00198364V9.5Z" fill="url(#paint3_linear_1_833)"/>
</g>
<defs>
<linearGradient id="paint0_linear_1_833" x1="1050" y1="0.5" x2="1050" y2="1500.5" gradientUnits="userSpaceOnUse">
<stop stop-color="white"/>
<stop offset="1" stop-color="#F0F0F0"/>
</linearGradient>
<linearGradient id="paint1_linear_1_833" x1="1050" y1="0.5" x2="1050" y2="1500.5" gradientUnits="userSpaceOnUse">
<stop stop-color="#0A17A7"/>
<stop offset="1" stop-color="#030E88"/>
</linearGradient>
<linearGradient id="paint2_linear_1_833" x1="1255.92" y1="-0.937012" x2="1255.92" y2="1786.46" gradientUnits="userSpaceOnUse">
<stop stop-color="white"/>
<stop offset="1" stop-color="#F0F0F0"/>
</linearGradient>
<linearGradient id="paint3_linear_1_833" x1="1050" y1="0.5" x2="1050" y2="1500.5" gradientUnits="userSpaceOnUse">
<stop stop-color="#E6273E"/>
<stop offset="1" stop-color="#CF152B"/>
</linearGradient>
<clipPath id="clip0_1_833">
<rect width="21" height="15" fill="white" transform="translate(0 0.5)"/>
</clipPath>
</defs>
</svg>
