<svg width="36" height="36" viewBox="0 0 36 36" fill="none" xmlns="http://www.w3.org/2000/svg">
<path fill-rule="evenodd" clip-rule="evenodd" d="M22.0999 13.9001C19.8356 11.6357 16.1642 11.6358 13.8999 13.9001C11.6357 16.1644 11.6357 19.8358 13.8999 22.1001C16.1642 24.3643 19.8356 24.3643 22.0999 22.1001C24.3642 19.8358 24.3643 16.1644 22.0999 13.9001ZM20.5295 15.4705C21.9265 16.8675 21.9265 19.1327 20.5295 20.5297C19.1325 21.9267 16.8673 21.9267 15.4703 20.5297C14.0733 19.1327 14.0733 16.8675 15.4703 15.4705C16.8673 14.0735 19.1325 14.0735 20.5295 15.4705ZM17.9999 13.4C20.5404 13.4 22.6 15.4596 22.6 18.0001C22.6 20.5405 20.5404 22.6001 17.9999 22.6001C15.4595 22.6001 13.3999 20.5405 13.3999 18.0001C13.3999 15.4596 15.4595 13.4 17.9999 13.4ZM19.5821 15.8385C19.7509 15.6124 20.0711 15.5659 20.2972 15.7347C20.5233 15.9034 20.5699 16.2236 20.401 16.4498L17.6259 20.1616C17.4164 20.4421 17.0019 20.428 16.801 20.1537L15.5987 18.5456C15.4299 18.3194 15.4764 17.9992 15.7025 17.8305C15.9287 17.6617 16.2489 17.7082 16.4176 17.9343L17.2164 19.0027L19.582 15.8385H19.5821ZM31.0347 27.0482V29.7345C31.0347 30.4501 30.4499 31.0349 29.7343 31.0349H26.2882C26.0058 31.0349 25.7768 31.2638 25.7768 31.5463C25.7768 31.7983 25.9241 31.8407 26.0231 32.1703C26.1628 32.6352 26.0307 33.1353 25.6956 33.4703C24.8759 34.2899 23.4683 33.7067 23.4683 32.5477C23.4683 32.3143 23.5393 32.0389 23.6677 31.8521C23.9309 31.4693 23.6445 31.035 23.2578 31.035H18.5113V27.0483C20.2766 27.4298 21.7872 25.7312 21.2037 24.0233C24.1483 22.4537 25.565 18.9459 24.4363 15.7366C25.2612 15.5194 26.0777 16.1389 26.0777 16.9988C26.0777 17.2321 26.0067 17.5077 25.8784 17.6944C25.6151 18.0772 25.9015 18.5115 26.2882 18.5115H31.0347V22.4982C29.5893 22.1861 28.2172 23.2897 28.2172 24.7733C28.2172 26.2568 29.5893 27.3607 31.0347 27.0483V27.0482ZM4.14795 23.6677C4.4813 23.9169 4.96512 23.6809 4.96512 23.2579V18.5114H8.95177C8.57032 20.2766 10.2689 21.7873 11.9768 21.2038C13.5463 24.1482 17.0544 25.5652 20.2635 24.4363C20.4806 25.2606 19.8604 26.0778 19.0013 26.0778C18.768 26.0778 18.4924 26.0068 18.3057 25.8784C17.9229 25.6152 17.4885 25.9016 17.4885 26.2883V31.0348H13.5019C13.8141 29.5893 12.7104 28.2173 11.2269 28.2173C9.74334 28.2173 8.63958 29.589 8.95184 31.0348H6.26555C5.54998 31.0348 4.96512 30.45 4.96512 29.7344V26.2883C4.96512 26.0059 4.73618 25.7769 4.45373 25.7769C4.20159 25.7769 4.15927 25.9243 3.82978 26.0232C2.99784 26.273 2.14763 25.6523 2.14763 24.7731C2.14763 23.7352 3.29477 23.1296 4.14788 23.6677L4.14795 23.6677ZM17.6941 10.1216C18.0274 10.3707 18.5113 10.1348 18.5113 9.71177V4.96526H22.498C22.1858 6.41074 23.2895 7.78275 24.773 7.78275C26.2565 7.78275 27.3603 6.41102 27.048 4.96526H29.7342C30.4498 4.96526 31.0347 5.55005 31.0347 6.26569V9.71177C31.0347 9.99415 31.2636 10.2232 31.5461 10.2232C31.7981 10.2232 31.8405 10.0759 32.1701 9.97685C32.635 9.83721 33.135 9.96933 33.4701 10.3044C34.2897 11.1241 33.7065 12.5317 32.5475 12.5317C32.3141 12.5317 32.0387 12.4608 31.8519 12.3324C31.469 12.0691 31.0347 12.3556 31.0347 12.7422V17.4888H27.0481C27.4292 15.7253 25.7337 14.2129 24.023 14.7964C22.4535 11.8518 18.9457 10.4351 15.7364 11.5638C15.7087 11.4585 15.6939 11.3458 15.6939 11.227C15.6939 10.1892 16.841 9.58359 17.6942 10.1217L17.6941 10.1216ZM4.75959 12.3323C5.61277 12.8704 6.75984 12.2648 6.75984 11.2269C6.75984 10.3476 5.90955 9.72696 5.07776 9.97678C4.74827 10.0757 4.70595 10.2231 4.4538 10.2231C4.17143 10.2231 3.94242 9.99415 3.94242 9.7117V6.26562C3.94242 4.98544 4.98537 3.94249 6.26555 3.94249H8.95177C8.63951 2.49666 9.74292 1.125 11.2268 1.125C12.7107 1.125 13.8141 2.49666 13.5018 3.94249H23.2578C23.6445 3.94249 23.9309 4.37674 23.6676 4.75966C23.5392 4.94641 23.4683 5.22183 23.4683 5.45527C23.4683 6.61423 24.8759 7.19747 25.6955 6.37784C26.0306 6.0428 26.1627 5.54273 26.0231 5.07783C25.9241 4.74827 25.7768 4.70595 25.7768 4.4538C25.7768 4.17143 26.0057 3.94242 26.2882 3.94242H29.7342C31.0144 3.94242 32.0574 4.98537 32.0574 6.26555V8.95184C33.5031 8.63958 34.8749 9.74299 34.8749 11.2269C34.8749 12.7107 33.5032 13.8142 32.0574 13.5019V23.2578C32.0574 23.6446 31.623 23.9309 31.2403 23.6677C31.0535 23.5393 30.7781 23.4683 30.5446 23.4683C29.3856 23.4683 28.8024 24.876 29.622 25.6956C29.9573 26.0308 30.457 26.1628 30.922 26.0231C31.2517 25.9241 31.2939 25.7768 31.5461 25.7768C31.8284 25.7768 32.0574 26.0057 32.0574 26.2882V29.7342C32.0574 31.0144 31.0144 32.0574 29.7342 32.0574H27.048C27.3603 33.5031 26.2568 34.8749 24.773 34.8749C23.2892 34.8749 22.1858 33.5029 22.498 32.0574H12.742C12.3553 32.0574 12.0689 31.623 12.3322 31.2402C12.4606 31.0534 12.5315 30.778 12.5315 30.5446C12.5315 29.3856 11.1239 28.8024 10.3043 29.622C9.96919 29.9571 9.83714 30.4571 9.97671 30.922C10.0757 31.2517 10.223 31.2939 10.223 31.5461C10.223 31.8284 9.99408 32.0574 9.71163 32.0574H6.26555C4.98544 32.0574 3.94242 31.0146 3.94242 29.7343V27.0481C2.49659 27.3602 1.125 26.257 1.125 24.7731C1.125 23.2891 2.49659 22.1858 3.94242 22.498V12.7421C3.94242 12.319 4.42631 12.0832 4.75959 12.3323ZM4.96519 8.95191V6.26562C4.96519 5.54998 5.55005 4.96519 6.26562 4.96519H9.7117C9.99408 4.96519 10.2231 4.73625 10.2231 4.4538C10.2231 4.20173 10.0758 4.15927 9.97678 3.82978C9.83714 3.3648 9.96926 2.86488 10.3044 2.52977C11.124 1.71014 12.5316 2.29338 12.5316 3.45234C12.5316 3.68578 12.4606 3.9612 12.3322 4.14795C12.069 4.53087 12.3555 4.96512 12.7421 4.96512H17.4886V8.95184C15.7251 8.57074 14.2128 10.2663 14.7962 11.9769C11.8519 13.5464 10.4348 17.0544 11.5637 20.2636C10.7394 20.4807 9.92222 19.8605 9.92222 19.0014C9.92222 18.768 9.99323 18.4925 10.1216 18.3058C10.3848 17.9229 10.0984 17.4886 9.7117 17.4886H4.96519V13.502C6.41095 13.8142 7.78261 12.7107 7.78261 11.2269C7.78261 9.7432 6.41095 8.63965 4.96519 8.95191Z" fill="black"/>
</svg>
