<svg width="36" height="36" viewBox="0 0 36 36" fill="none" xmlns="http://www.w3.org/2000/svg">
<path d="M31 25C30.26 25 29.58 25.22 28.98 25.57L27.5 24.09V18.94H30.28C32.88 18.94 35 16.82 35 14.22C35 11.78 33.13 9.76 30.75 9.52V9.44C30.75 6.54 28.4 4.19 25.5 4.19C25.05 4.19 24.61 4.25 24.18 4.36C23.59 2.42 21.79 1 19.66 1C19.09 1 18.52 1.1 18 1.3C17.48 1.1 16.91 1 16.34 1C14.22 1 12.42 2.41 11.83 4.36C11.4 4.25 10.95 4.19 10.5 4.19C7.6 4.19 5.25 6.54 5.25 9.44V9.52C2.87 9.76 1 11.78 1 14.22C1 16.82 3.12 18.94 5.72 18.94H8.5V24.09L7.02 25.57C6.42 25.22 5.74 25 5 25C2.79 25 1 26.79 1 29C1 31.21 2.79 33 5 33C7.21 33 9 31.21 9 29C9 28.26 8.78 27.58 8.43 26.98L10.21 25.21C10.39 25.02 10.5 24.77 10.5 24.5V18.94H17V27.14C15.28 27.59 14 29.14 14 31C14 33.21 15.79 35 18 35C20.21 35 22 33.21 22 31C22 29.14 20.72 27.59 19 27.14V18.94H25.5V24.5C25.5 24.77 25.61 25.02 25.79 25.21L27.57 26.98C27.22 27.58 27 28.26 27 29C27 31.21 28.79 33 31 33C33.21 33 35 31.21 35 29C35 26.79 33.21 25 31 25ZM19 16.94V14C19 13.45 18.55 13 18 13C17.45 13 17 13.45 17 14V16.94H5.72C4.22 16.94 3 15.72 3 14.22C3 12.72 4.22 11.5 5.72 11.5C5.88 11.5 6.05 11.51 6.21 11.54H6.22C7.31 11.75 8.18 12.63 8.39 13.72C8.48 14.2 8.9 14.53 9.37 14.53C9.43 14.53 9.5 14.52 9.56 14.51C10.1 14.41 10.46 13.88 10.36 13.34C10.04 11.68 8.84 10.32 7.27 9.77C7.26 9.66 7.25 9.55 7.25 9.44C7.25 7.65 8.71 6.19 10.5 6.19C11.08 6.19 11.62 6.34 12.12 6.62C12.43 6.8 12.81 6.78 13.12 6.61C13.43 6.43 13.62 6.08 13.62 5.72C13.62 4.22 14.84 3 16.34 3C16.57 3 16.79 3.03 17 3.08V7C17 7.55 17.45 8 18 8C18.55 8 19 7.55 19 7V3.08C19.21 3.03 19.43 3 19.66 3C21.16 3 22.38 4.22 22.38 5.76C22.38 6.12 22.57 6.45 22.88 6.63C23.19 6.8 23.57 6.8 23.88 6.62C24.38 6.34 24.92 6.19 25.5 6.19C27.29 6.19 28.75 7.65 28.75 9.44C28.75 9.55 28.74 9.66 28.73 9.77C27.16 10.32 25.96 11.68 25.64 13.34C25.54 13.88 25.9 14.41 26.44 14.51C26.5 14.52 26.57 14.53 26.63 14.53C27.1 14.53 27.52 14.2 27.61 13.72C27.82 12.63 28.69 11.75 29.78 11.55H29.79C29.95 11.51 30.12 11.5 30.28 11.5C31.78 11.5 33 12.72 33 14.22C33 15.72 31.78 16.94 30.28 16.94H19Z" fill="black"/>
</svg>
