<svg width="109" height="40" viewBox="0 0 109 40" fill="none" xmlns="http://www.w3.org/2000/svg">
<rect width="107.636" height="40" transform="translate(0.67041)" fill="white"/>
<path d="M93.5425 23.9239L90.3684 28.2683H87.3252L91.9034 22.1549L87.4809 16.2756H90.5248L93.5425 20.4119H94.1143L97.1066 16.2756H100.15L95.7272 22.1549L100.306 28.2683H97.2885L94.0889 23.9239H93.5425ZM78.7922 28.5284C77.7256 28.5284 76.711 28.2683 75.7485 27.748C74.812 27.2017 74.0575 26.4732 73.4852 25.5107C72.913 24.5482 72.6267 23.4816 72.6267 22.2589C72.6267 21.0883 72.913 19.9957 73.4852 19.0592C74.0575 18.0966 74.812 17.3682 75.7485 16.8219C76.711 16.3016 77.7256 16.0155 78.7922 16.0155C79.7027 16.0155 80.5091 16.1716 81.2376 16.5097C81.9321 16.8052 82.5534 17.2492 83.0583 17.8105H83.2147L83.4745 16.2756H85.6337V28.2683H83.4745L83.2147 26.7594H83.0583C82.5534 27.3207 81.9321 27.7647 81.2376 28.0602C80.5091 28.3723 79.7027 28.5284 78.7922 28.5284ZM79.1304 26.2652C79.8588 26.2652 80.5091 26.109 81.1075 25.7709C81.719 25.4447 82.2319 24.9594 82.5905 24.3661C82.9543 23.7417 83.1369 23.0394 83.1369 22.2589C83.1369 21.4785 82.9543 20.8021 82.5905 20.2038C82.2261 19.5795 81.7321 19.1112 81.1075 18.799C80.5058 18.4545 79.8237 18.275 79.1304 18.2788C78.428 18.2788 77.7516 18.4609 77.1273 18.799C76.5289 19.1112 76.0346 19.5795 75.6704 20.2038C75.3062 20.8021 75.1242 21.4785 75.1242 22.2589C75.1242 23.0394 75.3062 23.7417 75.6704 24.3661C76.0265 24.9524 76.5284 25.4364 77.1273 25.7709C77.7516 26.109 78.428 26.2652 79.1304 26.2652ZM63.3136 28.5284C62.247 28.5284 61.2325 28.2683 60.2699 27.748C59.3334 27.2017 58.579 26.4732 58.0067 25.5107C57.4343 24.5482 57.1482 23.4816 57.1482 22.2589C57.1482 21.0883 57.4343 19.9957 58.0067 19.0592C58.579 18.0966 59.3334 17.3682 60.2699 16.8219C61.2325 16.3016 62.247 16.0155 63.3136 16.0155C64.2241 16.0155 65.0045 16.1716 65.7069 16.5097C66.3971 16.7773 67.019 17.195 67.5279 17.7324H67.658V11.593H70.1554V28.2683H67.9962L67.736 26.7594H67.58C67.1117 27.3057 66.4873 27.748 65.759 28.0602C65.0306 28.3723 64.2241 28.5284 63.3136 28.5284ZM63.6518 26.2652C64.3802 26.2652 65.0306 26.109 65.6289 25.7709C66.2406 25.4447 66.753 24.9594 67.1117 24.3661C67.4759 23.7417 67.658 23.0394 67.658 22.2589C67.658 21.4785 67.4759 20.8021 67.1117 20.2038C66.7475 19.5795 66.2532 19.1112 65.6289 18.799C65.0272 18.4545 64.3451 18.275 63.6518 18.2788C62.9494 18.2788 62.273 18.4609 61.6487 18.799C61.0504 19.1112 60.5821 19.5795 60.1919 20.2038C59.8277 20.8021 59.6455 21.4785 59.6455 22.2589C59.6455 23.0394 59.8277 23.7417 60.1919 24.3661C60.5821 24.9645 61.0504 25.4327 61.6487 25.7709C62.273 26.109 62.9494 26.2652 63.6518 26.2652ZM54.8408 11.593H52.1613V24.7824H51.615L44.0448 11.593H40.1167V28.2683H42.7702V15.0789H43.3164L50.8866 28.2683H54.8408V11.593Z" fill="black"/>
<path d="M29.7063 12.9765C30.0976 13.2019 30.2932 13.3146 30.4363 13.4716C30.5683 13.6164 30.6675 13.7879 30.7272 13.9744C30.7918 14.1765 30.7918 14.402 30.7918 14.8529V24.9734C30.7918 25.4441 30.7918 25.6794 30.6943 25.8164C30.6054 25.9411 30.4666 26.0211 30.314 26.0355C30.1464 26.0514 29.9422 25.9337 29.5339 25.6985L20.7509 20.638C20.3596 20.4125 20.164 20.2998 20.0209 20.1429C19.8889 19.9981 19.7897 19.8266 19.73 19.6401C19.6654 19.4379 19.6654 19.2125 19.6654 18.7616V8.64102C19.6654 8.17037 19.6654 7.93505 19.7629 7.7981C19.8517 7.67334 19.9905 7.59334 20.1432 7.57892C20.3108 7.5631 20.5149 7.68075 20.9233 7.91604L29.7063 12.9765Z" fill="#3C22F3"/>
<mask id="mask0_17_1073" style="mask-type:alpha" maskUnits="userSpaceOnUse" x="19" y="7" width="12" height="20">
<path d="M29.7094 12.9765C30.1006 13.2019 30.2962 13.3146 30.4393 13.4716C30.5713 13.6164 30.6706 13.7879 30.7302 13.9744C30.7948 14.1765 30.7948 14.402 30.7948 14.8529V24.9734C30.7948 25.444 30.7948 25.6794 30.6973 25.8164C30.6085 25.9411 30.4697 26.0211 30.3171 26.0355C30.1494 26.0514 29.9453 25.9337 29.5369 25.6984L20.7539 20.638C20.3626 20.4125 20.167 20.2998 20.024 20.1429C19.8919 19.9981 19.7927 19.8266 19.7331 19.6401C19.6685 19.4379 19.6685 19.2125 19.6685 18.7616V8.64102C19.6685 8.17037 19.6685 7.93505 19.7659 7.79809C19.8548 7.67334 19.9936 7.59334 20.1462 7.57892C20.3138 7.5631 20.518 7.68075 20.9264 7.91604L29.7094 12.9765Z" fill="#52FFCB"/>
</mask>
<g mask="url(#mask0_17_1073)">
<g filter="url(#filter0_f_17_1073)">
<path d="M26.1525 14.5852C26.5749 14.8285 26.7861 14.9502 26.9405 15.1196C27.083 15.2759 27.1901 15.4611 27.2545 15.6625C27.3243 15.8806 27.3243 16.1241 27.3243 16.6108V27.5362C27.3243 28.0443 27.3243 28.2983 27.219 28.4462C27.1232 28.5808 26.9733 28.6672 26.8085 28.6827C26.6276 28.6998 26.4072 28.5728 25.9664 28.3188L16.4849 22.856C16.0625 22.6126 15.8513 22.4909 15.6969 22.3214C15.5544 22.1652 15.4473 21.98 15.3829 21.7787C15.3131 21.5605 15.3131 21.317 15.3131 20.8303V9.90492C15.3131 9.39684 15.3131 9.1428 15.4184 8.99496C15.5143 8.86028 15.6641 8.77392 15.8289 8.75836C16.0098 8.74128 16.2302 8.86828 16.671 9.12228L26.1525 14.5852Z" fill="#52FFCB" fill-opacity="0.8"/>
</g>
</g>
<path d="M24.2075 16.1707C24.5988 16.3961 24.7944 16.5089 24.9375 16.6658C25.0695 16.8106 25.1687 16.9821 25.2284 17.1686C25.293 17.3708 25.293 17.5962 25.293 18.0471V28.1676C25.293 28.6383 25.293 28.8736 25.1955 29.0106C25.1067 29.1354 24.9678 29.2153 24.8152 29.2297C24.6476 29.2456 24.4435 29.128 24.0351 28.8927L15.2521 23.8322C14.8608 23.6067 14.6652 23.494 14.5221 23.3371C14.3901 23.1923 14.2909 23.0208 14.2313 22.8343C14.1666 22.6321 14.1666 22.4067 14.1666 21.9558V11.8352C14.1666 11.3646 14.1666 11.1293 14.2641 10.9923C14.3529 10.8676 14.4918 10.7876 14.6444 10.7731C14.812 10.7573 15.0162 10.875 15.4245 11.1103L24.2075 16.1707Z" fill="#C2FF52"/>
<path d="M18.7127 19.3621C19.1039 19.5876 19.2995 19.7002 19.4426 19.8572C19.5746 20.002 19.6738 20.1735 19.7335 20.36C19.7981 20.5621 19.7981 20.7876 19.7981 21.2386V31.3591C19.7981 31.8297 19.7981 32.065 19.7006 32.202C19.6118 32.3267 19.473 32.4068 19.3203 32.4212C19.1527 32.4369 18.9486 32.3193 18.5402 32.084L9.75723 27.0236C9.36597 26.7981 9.17034 26.6855 9.02726 26.5285C8.89524 26.3837 8.79603 26.2122 8.73639 26.0257C8.67175 25.8236 8.67175 25.5981 8.67175 25.1471V15.0266C8.67175 14.556 8.67175 14.3207 8.76926 14.1837C8.85808 14.059 8.99689 13.979 9.14954 13.9645C9.31711 13.9487 9.5213 14.0664 9.92967 14.3017L18.7127 19.3621Z" fill="#984FF5"/>
<g opacity="0.9">
<mask id="mask1_17_1073" style="mask-type:alpha" maskUnits="userSpaceOnUse" x="8" y="13" width="12" height="20">
<g opacity="0.9">
<path d="M9.75589 27.0235C9.36462 26.798 9.16899 26.6853 9.02592 26.5284C8.8939 26.3836 8.79469 26.2121 8.73505 26.0255C8.67041 25.8234 8.67041 25.598 8.67041 25.147L8.67041 15.0265C8.67041 14.5559 8.67041 14.3205 8.76791 14.1836C8.85673 14.0588 8.99554 13.9788 9.14819 13.9644C9.31577 13.9486 9.51995 14.0662 9.92832 14.3015L18.7113 19.362C19.1026 19.5874 19.2982 19.7001 19.4412 19.857C19.5733 20.0019 19.6725 20.1734 19.7321 20.3599C19.7968 20.562 19.7968 20.7875 19.7968 21.2384V31.3589C19.7968 31.8296 19.7968 32.0649 19.6993 32.2018C19.6105 32.3266 19.4717 32.4066 19.319 32.421C19.1514 32.4368 18.9473 32.3192 18.5388 32.0839L9.75589 27.0235Z" fill="#984FF5"/>
</g>
</mask>
<g mask="url(#mask1_17_1073)">
<g filter="url(#filter1_f_17_1073)">
<path d="M15.2549 23.832C14.8636 23.6066 14.668 23.4939 14.5249 23.337C14.3929 23.1922 14.2937 23.0207 14.2341 22.8342C14.1694 22.632 14.1694 22.4066 14.1694 21.9557V11.8351C14.1694 11.3645 14.1694 11.1291 14.2669 10.9922C14.3558 10.8674 14.4946 10.7874 14.6472 10.773C14.8148 10.7572 15.019 10.8748 15.4273 11.1101L24.2103 16.1706C24.6016 16.396 24.7972 16.5088 24.9403 16.6657C25.0723 16.8105 25.1715 16.9819 25.2311 17.1685C25.2958 17.3707 25.2958 17.5961 25.2958 18.047V28.1675C25.2958 28.6381 25.2958 28.8735 25.1983 29.0105C25.1095 29.1352 24.9707 29.2152 24.818 29.2296C24.6504 29.2455 24.4462 29.1278 24.0379 28.8925L15.2549 23.832Z" fill="#FFA6E6"/>
</g>
</g>
</g>
<defs>
<filter id="filter0_f_17_1073" x="8.09548" y="1.5392" width="26.4464" height="34.3628" filterUnits="userSpaceOnUse" color-interpolation-filters="sRGB">
<feFlood flood-opacity="0" result="BackgroundImageFix"/>
<feBlend mode="normal" in="SourceGraphic" in2="BackgroundImageFix" result="shape"/>
<feGaussianBlur stdDeviation="3.60882" result="effect1_foregroundBlur_17_1073"/>
</filter>
<filter id="filter1_f_17_1073" x="8.49843" y="5.1006" width="22.4683" height="29.8015" filterUnits="userSpaceOnUse" color-interpolation-filters="sRGB">
<feFlood flood-opacity="0" result="BackgroundImageFix"/>
<feBlend mode="normal" in="SourceGraphic" in2="BackgroundImageFix" result="shape"/>
<feGaussianBlur stdDeviation="2.8355" result="effect1_foregroundBlur_17_1073"/>
</filter>
</defs>
</svg>
