<svg width="148" height="40" viewBox="0 0 148 40" fill="none" xmlns="http://www.w3.org/2000/svg">
<rect width="146.529" height="40" transform="translate(0.851318)" fill="white"/>
<path d="M13.2177 20.9583C13.2177 23.0741 14.5743 24.6299 16.5408 24.6299C17.9347 24.6299 18.9678 23.8333 19.4656 22.5763L23.0003 23.6964C22.1291 26.3723 19.5278 28.0401 16.5159 28.0401C12.5829 28.0401 9.45898 25.0779 9.45898 20.9583C9.45898 16.8386 12.5829 13.8765 16.5159 13.8765C19.5278 13.8765 22.1291 15.5816 23.0003 18.2575L19.4656 19.3403C18.9802 18.1081 17.9347 17.2867 16.5408 17.2867C14.5868 17.2867 13.2177 18.8425 13.2177 20.9583Z" fill="black"/>
<path d="M23.6227 20.9583C23.6227 16.8386 26.7715 13.8765 30.7169 13.8765C34.6499 13.8765 37.8112 16.8511 37.8112 20.9583C37.8112 25.0655 34.6623 28.0401 30.7169 28.0401C26.7715 28.0401 23.6227 25.0779 23.6227 20.9583ZM27.3814 20.9583C27.3814 23.0492 28.738 24.6299 30.7045 24.6299C32.6461 24.6299 34.0027 23.0368 34.0027 20.9583C34.0027 18.8425 32.6461 17.2867 30.7045 17.2867C28.738 17.2867 27.3814 18.8425 27.3814 20.9583Z" fill="black"/>
<path d="M43.9841 27.6916H40.2254V17.4609H38.371V14.225H43.9841V27.6916ZM41.9305 7.11829C43.2872 7.11829 44.3575 8.23843 44.3575 9.5826C44.3575 10.9641 43.2872 12.022 41.9305 12.022C40.5988 12.022 39.5285 10.9641 39.5285 9.5826C39.5285 8.23843 40.5988 7.11829 41.9305 7.11829Z" fill="black"/>
<path d="M53.9162 13.8765C56.7788 13.8765 58.8324 15.731 58.8324 18.8674V27.6791H55.0737V19.8381C55.0737 18.133 54.0033 17.4236 52.8209 17.4236C51.7257 17.4236 50.7424 18.0459 50.0206 18.9545V27.6791H46.2619V14.2374H49.9335V14.7726C49.9335 15.2456 49.8712 15.8305 49.8712 15.8305C50.8794 14.561 52.3853 13.8765 53.9162 13.8765Z" fill="black"/>
<path d="M68.8888 18.3446C67.8185 17.2867 66.4868 16.9631 65.6155 16.9631C64.6323 16.9631 64.2838 17.4609 64.2838 17.8717C64.2838 18.3446 64.5701 18.6682 65.2671 18.9047L67.47 19.6141C70.1957 20.5227 71.1167 22.0286 71.1167 23.7835C71.1167 25.75 69.4738 28.0401 65.852 28.0401C62.9272 28.0401 61.1101 26.895 60.0024 25.9242L61.9937 23.2732C62.9521 24.1818 64.6572 24.9535 65.9018 24.9535C66.7979 24.9535 67.3455 24.4805 67.3455 23.9578C67.3455 23.2857 66.9099 22.987 65.8396 22.6634L63.5868 21.9913C61.4461 21.2819 60.5251 19.8132 60.5251 18.0583C60.5251 15.8554 62.4916 13.8889 65.6778 13.8889C67.4078 13.8889 69.4738 14.4241 71.0296 15.8927L68.8888 18.3446Z" fill="black"/>
<path d="M82.4799 25.9865C81.8203 27.1315 80.2521 28.0401 78.3478 28.0401C74.7011 28.0401 71.9257 25.0655 71.9257 20.9583C71.9257 16.8511 74.6762 13.8765 78.3229 13.8765C80.3516 13.8765 81.8825 14.8224 82.5421 15.9674C82.5421 15.8181 82.4799 15.5567 82.4799 14.8473V14.225H86.2386V32.8318H82.4799V25.9865ZM75.7964 20.9583C75.7964 23.0119 77.1903 24.6672 79.1817 24.6672C81.1731 24.6672 82.567 23.0243 82.567 20.9583C82.567 18.8674 81.1731 17.2867 79.1817 17.2867C77.1903 17.2867 75.7964 18.8798 75.7964 20.9583Z" fill="black"/>
<path d="M88.3545 22.7505V14.225H92.1132V22.0411C92.1132 23.8956 93.3329 24.6299 94.6646 24.6299C96.0213 24.6299 97.2161 23.8956 97.2161 22.0411V14.225H100.95V22.7505C100.95 25.5758 98.747 28.0401 94.6771 28.0401C90.6072 28.0401 88.3545 25.5758 88.3545 22.7505Z" fill="black"/>
<path d="M110.682 18.7304C110.682 17.7597 109.936 17.1498 108.479 17.1498C107.148 17.1498 105.468 17.8219 104.484 18.4193L103.003 15.5194C103.003 15.5194 105.468 13.8765 108.679 13.8765C111.691 13.8765 114.441 15.2829 114.441 18.8425V27.6916H110.682V26.4221C109.985 27.48 108.479 28.0401 106.974 28.0401C104.161 28.0401 102.344 26.0114 102.344 23.8084C102.344 21.257 104.198 19.6639 107.148 19.6639H109.749C110.384 19.6639 110.67 19.3652 110.67 18.8674V18.7304H110.682ZM110.682 22.875V21.9042C110.446 22.1407 110.048 22.2029 109.525 22.2029H108.106C106.924 22.2029 106.227 22.7256 106.227 23.6715C106.227 24.5801 106.949 25.2646 108.106 25.2646C109.463 25.2522 110.682 24.5427 110.682 22.875Z" fill="black"/>
<path d="M123.004 17.9961C121.1 17.9961 120.229 18.9047 120.229 21.257V27.6916H116.47V14.2374H120.117V16.3782C120.639 14.9344 121.909 14.0507 123.564 14.0507C123.913 14.0507 124.261 14.0756 124.61 14.1628V17.9961H123.004Z" fill="black"/>
<path d="M138.524 24.2316C137.305 26.9199 134.94 28.0525 132.077 28.0525C128.119 28.0525 125.132 25.0904 125.132 20.9707C125.132 16.8511 128.057 13.8889 132.015 13.8889C135.662 13.8889 138.96 16.3035 138.96 21.9415V22.0909H129.09C129.289 23.5844 130.447 24.8165 132.127 24.7917C133.571 24.7792 134.442 24.0947 135.015 23.0492L138.524 24.2316ZM129.003 19.527H134.94C134.741 18.1704 133.608 17.0627 132.015 17.0627C130.422 17.0502 129.302 18.0832 129.003 19.527Z" fill="black"/>
</svg>
