<svg width="121" height="41" viewBox="0 0 121 41" fill="none" xmlns="http://www.w3.org/2000/svg">
<g clip-path="url(#clip0_51_1285)">
<path fill-rule="evenodd" clip-rule="evenodd" d="M17.0974 13.4329L12.0203 8.34551L9.41911 5.7392L6.81816 3.13313L5.45313 4.5009C5.03566 4.91901 4.64542 5.35473 4.28248 5.80504C3.47768 6.80414 2.80652 7.87739 2.26902 9.00003C1.66934 10.2534 1.23596 11.568 0.969271 12.9103C-0.0708203 18.1464 1.42373 23.7992 5.45291 27.8363L17.0974 39.5037V34.2917L8.05365 25.23C5.59627 22.7677 4.35437 19.5256 4.32751 16.2753L17.0972 29.0703V23.8579L5.07801 11.8153C5.50477 10.6199 6.11293 9.47685 6.90285 8.43069L9.53954 11.0728L17.0972 18.6451L17.0974 13.4329ZM18.0075 0C20.2501 0 22.0677 1.73962 22.0677 3.88551C22.0677 6.0316 20.2501 7.77101 18.0075 7.77101C15.765 7.77101 13.9474 6.0316 13.9474 3.88551C13.9476 1.73945 15.7652 0 18.0075 0ZM18.9181 13.4328L23.9955 8.34531L26.5964 5.7392L29.1974 3.13292L30.5626 4.50072C30.9799 4.91881 31.3701 5.35432 31.733 5.80483C32.5378 6.80397 33.209 7.87719 33.7463 8.99986C34.3462 10.2532 34.7794 11.568 35.0461 12.9103C36.0861 18.1462 34.5916 23.799 30.5626 27.8359L18.9181 39.5034V34.2913L27.9616 25.2298C30.4192 22.7675 31.6612 19.5254 31.6878 16.2751L18.9181 29.0701V23.8575L30.9373 11.8149C30.5108 10.6195 29.9024 9.47646 29.1125 8.43052L26.4756 11.0724L18.9181 18.6449V13.4328Z" fill="#FF4545"/>
<path d="M60.8104 1.88574V8.65292H60.2218C59.7792 6.88673 58.9542 5.53329 57.7469 4.59261C56.5397 3.65194 55.1714 3.18158 53.6423 3.18158C52.3646 3.18158 51.1926 3.53193 50.1264 4.23266C49.0599 4.93338 48.2803 5.85005 47.7872 6.98272C47.1534 8.43216 46.8364 10.0448 46.8364 11.8205C46.8364 13.5675 47.0679 15.1609 47.5308 16.6008C47.9934 18.031 48.7178 19.1156 49.7038 19.8546C50.6897 20.5842 51.9672 20.9489 53.5366 20.9489C54.8245 20.9489 56.0015 20.6803 57.068 20.1426C58.1444 19.6052 59.276 18.6788 60.4632 17.3639V19.0483C59.3164 20.1908 58.1193 21.021 56.8717 21.5394C55.6343 22.048 54.1856 22.3026 52.5256 22.3026C50.3425 22.3026 48.401 21.8849 46.7007 21.0498C45.0106 20.2147 43.7026 19.0149 42.7772 17.4503C41.8616 15.8856 41.4038 14.2203 41.4038 12.4541C41.4038 10.5919 41.9121 8.8257 42.9281 7.1555C43.9542 5.48531 45.3324 4.18946 47.0629 3.26797C48.8032 2.34649 50.6493 1.88574 52.6012 1.88574C54.0398 1.88574 55.5589 2.18331 57.1583 2.77843C58.084 3.12399 58.6724 3.29677 58.924 3.29677C59.2459 3.29677 59.5226 3.18638 59.7539 2.96561C59.9953 2.73524 60.1513 2.37528 60.2218 1.88574H60.8104ZM74.4523 2.05852C77.7118 1.94334 80.3576 2.85043 82.3896 4.77979C84.432 6.70916 85.4531 9.12327 85.4531 12.0221C85.4531 14.4986 84.6935 16.6775 83.1743 18.559C81.1623 21.0547 78.3203 22.3026 74.6483 22.3026C70.9662 22.3026 68.1191 21.1122 66.1071 18.7318C64.5176 16.8503 63.7228 14.6186 63.7228 12.0365C63.7228 9.13767 64.754 6.72356 66.8162 4.79419C68.8888 2.85522 71.4342 1.94334 74.4523 2.05852ZM74.6333 2.98001C72.7621 2.98001 71.3385 3.89189 70.3626 5.71568C69.5678 7.2131 69.1703 9.36323 69.1703 12.1661C69.1703 15.4969 69.7841 17.9589 71.0116 19.5524C71.8666 20.6658 73.0639 21.2226 74.6029 21.2226C75.6392 21.2226 76.5046 20.9825 77.1985 20.5027C78.0839 19.8883 78.773 18.9092 79.266 17.5654C79.759 16.212 80.0056 14.4506 80.0056 12.2813C80.0056 9.6992 79.754 7.76984 79.2508 6.49318C78.7479 5.20695 78.1039 4.29986 77.3192 3.77191C76.5446 3.24397 75.6493 2.98001 74.6333 2.98001ZM94.779 12.958V18.4293C94.779 19.4851 94.8445 20.1523 94.9753 20.4306C95.1161 20.6994 95.3575 20.9155 95.6997 21.0786C96.0416 21.2417 96.6804 21.3235 97.6161 21.3235V21.8561H87.1432V21.3235C88.089 21.3235 88.7276 21.2417 89.0599 21.0786C89.4017 20.9058 89.6381 20.6851 89.769 20.4163C89.9098 20.1474 89.9803 19.4851 89.9803 18.4293V5.75887C89.9803 4.70301 89.9098 4.04069 89.769 3.77191C89.6381 3.49355 89.4017 3.27277 89.0599 3.10959C88.7177 2.94642 88.0789 2.86482 87.1432 2.86482V2.33209H96.6503C99.1251 2.33209 100.936 2.49526 102.083 2.82163C103.23 3.148 104.165 3.75272 104.89 4.63581C105.614 5.50931 105.976 6.53638 105.976 7.71703C105.976 9.15686 105.433 10.3471 104.346 11.2878C103.652 11.8829 102.681 12.3293 101.434 12.6268L106.353 19.2356C106.997 20.0899 107.455 20.6227 107.727 20.8337C108.139 21.1314 108.617 21.2945 109.16 21.3235V21.8561H102.717L96.1222 12.958H94.779ZM94.779 3.38316V11.9357H95.6393C97.0375 11.9357 98.0837 11.8157 98.7781 11.5758C99.4721 11.3262 100.015 10.8847 100.408 10.2511C100.81 9.608 101.012 8.7729 101.012 7.74583C101.012 6.25802 100.644 5.15894 99.9098 4.44863C99.1855 3.73832 98.0135 3.38316 96.3936 3.38316H94.779ZM120.222 21.3235V21.8561H109.523V21.3235H110.202C110.795 21.3235 111.273 21.2226 111.635 21.021C111.897 20.8867 112.098 20.6563 112.239 20.3299C112.349 20.0995 112.405 19.4948 112.405 18.5157V5.67248C112.405 4.67421 112.349 4.05027 112.239 3.80071C112.128 3.55115 111.902 3.33517 111.56 3.15279C111.228 2.96082 110.775 2.86482 110.202 2.86482H109.523V2.33209H120.222V2.86482H119.543C118.949 2.86482 118.471 2.96561 118.109 3.16719C117.847 3.30156 117.641 3.53193 117.49 3.8583C117.38 4.08867 117.324 4.6934 117.324 5.67248V18.5157C117.324 19.5139 117.38 20.138 117.49 20.3875C117.611 20.637 117.837 20.8579 118.169 21.0498C118.511 21.2323 118.969 21.3235 119.543 21.3235H120.222Z" fill="#FF4545"/>
<path d="M104.799 38.3696L103.721 35.8941C103.559 35.5203 103.438 35.2905 103.36 35.2047C103.284 35.119 103.191 35.0595 103.081 35.0261V34.894H104.857V35.0261C104.74 35.0309 104.658 35.0535 104.61 35.094C104.562 35.1345 104.539 35.1833 104.539 35.2405C104.539 35.331 104.598 35.5096 104.717 35.7763L105.289 37.0836L105.678 36.0727C105.819 35.7132 105.889 35.4631 105.889 35.3226C105.889 35.2345 105.859 35.1643 105.8 35.1119C105.742 35.0595 105.64 35.0309 105.492 35.0261V34.894H106.61V35.0261C106.501 35.038 106.412 35.0809 106.342 35.1547C106.273 35.2262 106.158 35.4726 105.996 35.8941L105.042 38.3696C104.802 38.9887 104.623 39.3697 104.506 39.5126C104.342 39.7126 104.136 39.8127 103.888 39.8127C103.691 39.8127 103.53 39.7555 103.406 39.6412C103.285 39.5293 103.224 39.3935 103.224 39.234C103.224 39.0959 103.266 38.9816 103.349 38.8911C103.435 38.8006 103.54 38.7553 103.663 38.7553C103.783 38.7553 103.878 38.7934 103.949 38.8696C104.023 38.9458 104.061 39.0637 104.064 39.2233C104.066 39.3138 104.077 39.3721 104.096 39.3983C104.115 39.4245 104.142 39.4376 104.178 39.4376C104.235 39.4376 104.296 39.4031 104.36 39.334C104.455 39.234 104.567 39.0054 104.696 38.6482L104.799 38.3696Z" fill="white"/>
<path d="M102.156 33.6723V34.894H102.949V35.2476H102.156V37.3087C102.156 37.5016 102.164 37.6266 102.181 37.6837C102.2 37.7385 102.232 37.7837 102.278 37.8195C102.323 37.8528 102.364 37.8695 102.403 37.8695C102.557 37.8695 102.704 37.7516 102.842 37.5158L102.949 37.5944C102.756 38.0516 102.443 38.2803 102.01 38.2803C101.798 38.2803 101.618 38.2219 101.47 38.1052C101.325 37.9862 101.232 37.854 101.192 37.7087C101.168 37.6278 101.156 37.4087 101.156 37.0515V35.2476H100.72V35.1226C101.02 34.9106 101.275 34.688 101.485 34.4546C101.696 34.2212 101.881 33.9605 102.038 33.6723H102.156Z" fill="white"/>
<path d="M99.5985 33.2759C99.7533 33.2759 99.8843 33.3306 99.9914 33.4402C100.099 33.5473 100.152 33.6771 100.152 33.8295C100.152 33.9819 100.097 34.1117 99.9878 34.2189C99.8807 34.326 99.7509 34.3796 99.5985 34.3796C99.4461 34.3796 99.3163 34.326 99.2091 34.2189C99.102 34.1117 99.0484 33.9819 99.0484 33.8295C99.0484 33.6771 99.102 33.5473 99.2091 33.4402C99.3163 33.3306 99.4461 33.2759 99.5985 33.2759ZM100.099 34.894V37.5408C100.099 37.7766 100.126 37.9278 100.181 37.9945C100.236 38.0588 100.343 38.0957 100.502 38.1052V38.2338H98.6983V38.1052C98.846 38.1005 98.9555 38.0576 99.027 37.9766C99.0746 37.9219 99.0984 37.7766 99.0984 37.5408V35.5905C99.0984 35.3548 99.071 35.2047 99.0163 35.1404C98.9615 35.0738 98.8555 35.0357 98.6983 35.0261V34.894H100.099Z" fill="white"/>
<path d="M96.9302 34.894V35.6512C97.1517 35.306 97.3457 35.0773 97.5124 34.9654C97.6791 34.8511 97.8399 34.794 97.9946 34.794C98.128 34.794 98.234 34.8356 98.3126 34.919C98.3935 34.9999 98.434 35.1154 98.434 35.2655C98.434 35.425 98.3947 35.5489 98.3161 35.637C98.2399 35.7251 98.1471 35.7691 98.0375 35.7691C97.9113 35.7691 97.8018 35.7286 97.7089 35.6477C97.616 35.5667 97.5612 35.5215 97.5446 35.5119C97.5208 35.4977 97.4934 35.4905 97.4624 35.4905C97.3934 35.4905 97.3279 35.5167 97.266 35.5691C97.1683 35.6501 97.0945 35.7656 97.0445 35.9156C96.9683 36.1466 96.9302 36.4014 96.9302 36.68V37.448L96.9338 37.648C96.9338 37.7837 96.9421 37.8707 96.9588 37.9088C96.9873 37.9731 97.029 38.0207 97.0838 38.0516C97.1409 38.0802 97.2362 38.0981 97.3695 38.1052V38.2338H95.5657V38.1052C95.7109 38.0933 95.8086 38.054 95.8586 37.9874C95.911 37.9183 95.9372 37.7385 95.9372 37.448V35.6012C95.9372 35.4107 95.9276 35.2893 95.9086 35.2369C95.8848 35.1702 95.8502 35.1214 95.805 35.0904C95.7598 35.0595 95.68 35.038 95.5657 35.0261V34.894H96.9302Z" fill="white"/>
<path d="M94.0297 34.9333H95.1549V35.3262H94.5155C94.6322 35.4429 94.7132 35.5489 94.7584 35.6441C94.8155 35.7727 94.8441 35.9072 94.8441 36.0477C94.8441 36.2859 94.7774 36.4931 94.6441 36.6693C94.5131 36.8431 94.3333 36.98 94.1047 37.0801C93.8785 37.1777 93.6773 37.2265 93.501 37.2265C93.4868 37.2265 93.3439 37.2206 93.0724 37.2087C92.9652 37.2087 92.8747 37.2444 92.8009 37.3158C92.7295 37.3849 92.6938 37.4682 92.6938 37.5659C92.6938 37.6516 92.7259 37.7218 92.7902 37.7766C92.8569 37.8314 92.964 37.8588 93.1117 37.8588L93.7297 37.8516C94.2297 37.8516 94.5738 37.9064 94.762 38.0159C95.0311 38.1683 95.1656 38.4029 95.1656 38.7196C95.1656 38.922 95.1037 39.1054 94.9799 39.2697C94.856 39.4364 94.6929 39.559 94.4905 39.6376C94.1833 39.7543 93.8297 39.8127 93.4296 39.8127C93.1296 39.8127 92.8557 39.7829 92.608 39.7234C92.3604 39.6662 92.183 39.5852 92.0758 39.4805C91.9686 39.3781 91.9151 39.2697 91.9151 39.1554C91.9151 39.0459 91.9555 38.947 92.0365 38.8589C92.1199 38.7732 92.2735 38.7006 92.4973 38.641C92.1877 38.4886 92.0329 38.2767 92.0329 38.0052C92.0329 37.8409 92.096 37.6813 92.2223 37.5266C92.3485 37.3718 92.5485 37.2372 92.8224 37.1229C92.5033 37.0062 92.2723 36.8526 92.1294 36.6621C91.9865 36.4716 91.9151 36.2513 91.9151 36.0013C91.9151 35.6751 92.0484 35.3929 92.3151 35.1547C92.5818 34.9142 92.9248 34.794 93.3439 34.794C93.5653 34.794 93.7939 34.8404 94.0297 34.9333ZM93.4117 35.0154C93.2736 35.0154 93.1569 35.0857 93.0617 35.2262C92.9664 35.3643 92.9188 35.6524 92.9188 36.0906C92.9188 36.4454 92.9652 36.6895 93.0581 36.8229C93.1534 36.9538 93.2653 37.0193 93.3939 37.0193C93.5368 37.0193 93.6558 36.9538 93.7511 36.8229C93.8463 36.6919 93.894 36.4371 93.894 36.0585C93.894 35.6322 93.8404 35.3417 93.7332 35.1869C93.657 35.0726 93.5499 35.0154 93.4117 35.0154ZM93.201 38.7268C92.9581 38.7268 92.7974 38.747 92.7188 38.7875C92.583 38.8613 92.5152 38.9613 92.5152 39.0875C92.5152 39.209 92.5854 39.3185 92.7259 39.4162C92.8664 39.5162 93.1307 39.5662 93.5189 39.5662C93.8499 39.5662 94.1095 39.5221 94.2976 39.434C94.4881 39.3459 94.5834 39.2221 94.5834 39.0625C94.5834 39.003 94.5655 38.953 94.5298 38.9125C94.4655 38.8411 94.3679 38.7922 94.2369 38.7661C94.1083 38.7399 93.763 38.7268 93.201 38.7268Z" fill="white"/>
<path d="M91.465 36.4442H89.6325C89.654 36.8872 89.7718 37.2372 89.9862 37.4944C90.1505 37.6921 90.3481 37.7909 90.5791 37.7909C90.722 37.7909 90.8518 37.7516 90.9685 37.673C91.0852 37.592 91.2102 37.448 91.3435 37.2408L91.465 37.3194C91.284 37.6885 91.084 37.9504 90.8649 38.1052C90.6458 38.2576 90.3922 38.3338 90.104 38.3338C89.6087 38.3338 89.2337 38.1433 88.9789 37.7623C88.7741 37.4551 88.6717 37.0741 88.6717 36.6193C88.6717 36.062 88.8217 35.6191 89.1217 35.2905C89.4242 34.9595 89.7778 34.794 90.1826 34.794C90.5208 34.794 90.8137 34.9333 91.0613 35.2119C91.3114 35.4881 91.4459 35.8989 91.465 36.4442ZM90.5863 36.2049C90.5863 35.8215 90.5648 35.5584 90.522 35.4155C90.4815 35.2726 90.4172 35.1643 90.3291 35.0904C90.2791 35.0476 90.2124 35.0261 90.129 35.0261C90.0052 35.0261 89.904 35.0869 89.8254 35.2083C89.6849 35.4203 89.6147 35.7108 89.6147 36.0799V36.2049H90.5863Z" fill="white"/>
<path d="M87.525 33.6723V34.894H88.318V35.2476H87.525V37.3087C87.525 37.5016 87.5334 37.6266 87.55 37.6837C87.5691 37.7385 87.6012 37.7837 87.6465 37.8195C87.6917 37.8528 87.7334 37.8695 87.7715 37.8695C87.9263 37.8695 88.0728 37.7516 88.2109 37.5158L88.318 37.5944C88.1251 38.0516 87.812 38.2803 87.3786 38.2803C87.1666 38.2803 86.9869 38.2219 86.8392 38.1052C86.694 37.9862 86.6011 37.854 86.5606 37.7087C86.5368 37.6278 86.5249 37.4087 86.5249 37.0515V35.2476H86.0891V35.1226C86.3891 34.9106 86.6439 34.688 86.8535 34.4546C87.0654 34.2212 87.25 33.9605 87.4072 33.6723H87.525Z" fill="white"/>
<path d="M83.4922 34.894V35.3262C83.6637 35.1404 83.828 35.0059 83.9852 34.9226C84.1423 34.8368 84.3114 34.794 84.4924 34.794C84.7091 34.794 84.8889 34.8547 85.0318 34.9761C85.1746 35.0952 85.2699 35.244 85.3175 35.4226C85.3556 35.5584 85.3747 35.8191 85.3747 36.2049V37.5051C85.3747 37.7623 85.3973 37.9231 85.4426 37.9874C85.4902 38.0493 85.5878 38.0886 85.7355 38.1052V38.2338H84.0459V38.1052C84.1721 38.0886 84.2626 38.0362 84.3174 37.9481C84.3555 37.8885 84.3745 37.7409 84.3745 37.5051V36.0192C84.3745 35.7453 84.3638 35.5727 84.3424 35.5012C84.3209 35.4298 84.284 35.375 84.2316 35.3369C84.1816 35.2964 84.1257 35.2762 84.0637 35.2762C83.859 35.2762 83.6684 35.4226 83.4922 35.7155V37.5051C83.4922 37.7552 83.5148 37.9135 83.5601 37.9802C83.6077 38.0469 83.6946 38.0886 83.8209 38.1052V38.2338H82.1313V38.1052C82.2718 38.0909 82.3718 38.0457 82.4313 37.9695C82.4718 37.9171 82.4921 37.7623 82.4921 37.5051V35.6191C82.4921 35.3667 82.4682 35.2095 82.4206 35.1476C82.3754 35.0857 82.2789 35.0452 82.1313 35.0261V34.894H83.4922Z" fill="white"/>
<path d="M81.7098 38.1017V38.2338H79.1772V38.1017H79.338C79.4785 38.1017 79.5916 38.0767 79.6773 38.0266C79.7392 37.9933 79.7868 37.9362 79.8202 37.8552C79.8464 37.798 79.8595 37.648 79.8595 37.4051V34.2189C79.8595 33.9712 79.8464 33.8164 79.8202 33.7545C79.794 33.6926 79.7404 33.639 79.6594 33.5938C79.5809 33.5461 79.4737 33.5223 79.338 33.5223H79.1772V33.3902H81.7098V33.5223H81.549C81.4085 33.5223 81.2954 33.5473 81.2097 33.5973C81.1478 33.6307 81.099 33.6878 81.0632 33.7688C81.0371 33.8259 81.024 33.976 81.024 34.2189V37.4051C81.024 37.6528 81.0371 37.8076 81.0632 37.8695C81.0918 37.9314 81.1454 37.9862 81.224 38.0338C81.305 38.079 81.4133 38.1017 81.549 38.1017H81.7098Z" fill="white"/>
<path d="M75.273 35.3369H76.759V35.4762C76.5923 35.5 76.4613 35.55 76.366 35.6262C76.2708 35.7001 76.1469 35.8739 75.9945 36.1478C75.8421 36.4216 75.6278 36.7276 75.3516 37.0658C75.5945 37.2849 75.7921 37.4373 75.9445 37.523C76.0517 37.5825 76.1565 37.6123 76.2589 37.6123C76.4351 37.6123 76.5946 37.4968 76.7375 37.2658L76.884 37.3444C76.6887 37.7278 76.4803 38.0005 76.2589 38.1624C76.0898 38.2838 75.8969 38.3446 75.6802 38.3446C75.4945 38.3446 75.317 38.3053 75.148 38.2267C74.9813 38.1457 74.7777 37.9957 74.5372 37.7766C74.2395 37.9766 73.9597 38.1219 73.6977 38.2124C73.4358 38.3005 73.1631 38.3446 72.8797 38.3446C72.4273 38.3446 72.0677 38.2219 71.801 37.9766C71.5343 37.7314 71.4009 37.4432 71.4009 37.1122C71.4009 36.755 71.5283 36.4442 71.7831 36.1799C72.0379 35.9156 72.4082 35.687 72.894 35.4941C72.8321 35.3393 72.7857 35.1881 72.7547 35.0404C72.7238 34.8928 72.7083 34.7499 72.7083 34.6118C72.7083 34.2308 72.8416 33.9141 73.1083 33.6616C73.3774 33.4068 73.7204 33.2794 74.1371 33.2794C74.4729 33.2794 74.7384 33.364 74.9337 33.533C75.1313 33.6997 75.2301 33.895 75.2301 34.1188C75.2301 34.3879 75.1289 34.6189 74.9265 34.8118C74.7265 35.0023 74.4086 35.1774 73.9728 35.3369C74.2419 35.8108 74.636 36.3216 75.1551 36.8693C75.5052 36.4764 75.6802 36.1394 75.6802 35.8584C75.6802 35.7584 75.6457 35.6739 75.5766 35.6048C75.5076 35.5334 75.4063 35.4905 75.273 35.4762V35.3369ZM73.8513 35.1226C74.1014 35.0297 74.2693 34.9309 74.355 34.8261C74.4407 34.7189 74.4836 34.5904 74.4836 34.4403C74.4836 34.1736 74.4133 33.9486 74.2728 33.7652C74.18 33.6438 74.0656 33.583 73.9299 33.583C73.818 33.583 73.7215 33.6271 73.6406 33.7152C73.562 33.8033 73.5227 33.9224 73.5227 34.0724C73.5227 34.1891 73.5418 34.3141 73.5799 34.4475C73.618 34.5808 73.7084 34.8059 73.8513 35.1226ZM72.994 35.7227C72.8035 35.8037 72.669 35.8894 72.5904 35.9799C72.4785 36.1132 72.4225 36.2621 72.4225 36.4264C72.4225 36.6502 72.4868 36.8729 72.6154 37.0943C72.7464 37.3158 72.9035 37.4873 73.0869 37.6087C73.2703 37.7302 73.4536 37.7909 73.637 37.7909C73.7275 37.7909 73.8287 37.7718 73.9406 37.7337C74.0549 37.6933 74.1788 37.6337 74.3121 37.5551C73.7382 36.9669 73.2989 36.3561 72.994 35.7227Z" fill="white"/>
<path d="M67.4002 38.3696L66.3215 35.8941C66.1596 35.5203 66.0393 35.2905 65.9607 35.2047C65.8845 35.119 65.7916 35.0595 65.6821 35.0261V34.894H67.4574V35.0261C67.3407 35.0309 67.2586 35.0535 67.2109 35.094C67.1633 35.1345 67.1395 35.1833 67.1395 35.2405C67.1395 35.331 67.199 35.5096 67.3181 35.7763L67.8896 37.0836L68.279 36.0727C68.4195 35.7132 68.4897 35.4631 68.4897 35.3226C68.4897 35.2345 68.4599 35.1643 68.4004 35.1119C68.3433 35.0595 68.2409 35.0309 68.0932 35.0261V34.894H69.2113V35.0261C69.1017 35.038 69.0124 35.0809 68.9434 35.1547C68.8743 35.2262 68.7588 35.4726 68.5969 35.8941L67.6431 38.3696C67.4026 38.9887 67.224 39.3697 67.1073 39.5126C66.943 39.7126 66.737 39.8127 66.4894 39.8127C66.2917 39.8127 66.131 39.7555 66.0072 39.6412C65.8857 39.5293 65.825 39.3935 65.825 39.234C65.825 39.0959 65.8667 38.9816 65.95 38.8911C66.0357 38.8006 66.1405 38.7553 66.2643 38.7553C66.3834 38.7553 66.4787 38.7934 66.5501 38.8696C66.6239 38.9458 66.662 39.0637 66.6644 39.2233C66.6668 39.3138 66.6775 39.3721 66.6966 39.3983C66.7156 39.4245 66.743 39.4376 66.7787 39.4376C66.8359 39.4376 66.8966 39.4031 66.9609 39.334C67.0561 39.234 67.1681 39.0054 67.2967 38.6482L67.4002 38.3696Z" fill="white"/>
<path d="M64.0033 34.894V35.6512C64.2247 35.306 64.4188 35.0773 64.5855 34.9654C64.7522 34.8511 64.9129 34.794 65.0677 34.794C65.2011 34.794 65.307 34.8356 65.3856 34.919C65.4666 34.9999 65.5071 35.1154 65.5071 35.2655C65.5071 35.425 65.4678 35.5489 65.3892 35.637C65.313 35.7251 65.2201 35.7691 65.1106 35.7691C64.9844 35.7691 64.8748 35.7286 64.782 35.6477C64.6891 35.5667 64.6343 35.5215 64.6176 35.5119C64.5938 35.4977 64.5664 35.4905 64.5355 35.4905C64.4664 35.4905 64.4009 35.5167 64.339 35.5691C64.2414 35.6501 64.1676 35.7656 64.1176 35.9156C64.0414 36.1466 64.0033 36.4014 64.0033 36.68V37.448L64.0068 37.648C64.0068 37.7837 64.0152 37.8707 64.0318 37.9088C64.0604 37.9731 64.1021 38.0207 64.1568 38.0516C64.214 38.0802 64.3093 38.0981 64.4426 38.1052V38.2338H62.6387V38.1052C62.784 38.0933 62.8816 38.054 62.9316 37.9874C62.984 37.9183 63.0102 37.7385 63.0102 37.448V35.6012C63.0102 35.4107 63.0007 35.2893 62.9817 35.2369C62.9578 35.1702 62.9233 35.1214 62.8781 35.0904C62.8328 35.0595 62.753 35.038 62.6387 35.0261V34.894H64.0033Z" fill="white"/>
<path d="M62.1958 36.4442H60.3634C60.3848 36.8872 60.5027 37.2372 60.717 37.4944C60.8813 37.6921 61.079 37.7909 61.3099 37.7909C61.4528 37.7909 61.5826 37.7516 61.6993 37.673C61.816 37.592 61.941 37.448 62.0744 37.2408L62.1958 37.3194C62.0148 37.6885 61.8148 37.9504 61.5957 38.1052C61.3766 38.2576 61.123 38.3338 60.8349 38.3338C60.3395 38.3338 59.9645 38.1433 59.7097 37.7623C59.5049 37.4551 59.4025 37.0741 59.4025 36.6193C59.4025 36.062 59.5525 35.6191 59.8526 35.2905C60.155 34.9595 60.5086 34.794 60.9134 34.794C61.2516 34.794 61.5445 34.9333 61.7922 35.2119C62.0422 35.4881 62.1768 35.8989 62.1958 36.4442ZM61.3171 36.2049C61.3171 35.8215 61.2957 35.5584 61.2528 35.4155C61.2123 35.2726 61.148 35.1643 61.0599 35.0904C61.0099 35.0476 60.9432 35.0261 60.8599 35.0261C60.736 35.0261 60.6348 35.0869 60.5562 35.2083C60.4157 35.4203 60.3455 35.7108 60.3455 36.0799V36.2049H61.3171Z" fill="white"/>
<path d="M57.2164 38.3338L56.0912 35.7441C55.9555 35.4322 55.8495 35.2345 55.7733 35.1512C55.7185 35.0892 55.6376 35.0476 55.5304 35.0261V34.894H57.3057V35.0261C57.1938 35.0261 57.1176 35.0464 57.0771 35.0869C57.0199 35.1393 56.9914 35.2012 56.9914 35.2726C56.9914 35.3607 57.0438 35.5262 57.1485 35.7691L57.6986 37.0229L58.138 35.9406C58.2642 35.631 58.3273 35.4119 58.3273 35.2833C58.3273 35.2095 58.2999 35.15 58.2451 35.1047C58.1928 35.0571 58.0987 35.0309 57.963 35.0261V34.894H59.056V35.0261C58.9512 35.0404 58.8655 35.0797 58.7988 35.144C58.7321 35.2083 58.6321 35.3976 58.4988 35.712L57.3843 38.3338H57.2164Z" fill="white"/>
<path d="M53.6265 34.794C53.917 34.794 54.1873 34.869 54.4374 35.019C54.6874 35.169 54.8767 35.3822 55.0053 35.6584C55.1363 35.9346 55.2018 36.2371 55.2018 36.5657C55.2018 37.0396 55.0815 37.4361 54.841 37.7552C54.5505 38.141 54.1492 38.3338 53.6372 38.3338C53.1348 38.3338 52.7478 38.1576 52.4763 37.8052C52.2048 37.4527 52.0691 37.0443 52.0691 36.58C52.0691 36.1013 52.2072 35.6846 52.4835 35.3298C52.7621 34.9726 53.1431 34.794 53.6265 34.794ZM53.6408 35.0476C53.5194 35.0476 53.4146 35.094 53.3265 35.1869C53.2407 35.2774 53.1836 35.4584 53.155 35.7298C53.1288 35.9989 53.1157 36.374 53.1157 36.855C53.1157 37.1098 53.1324 37.348 53.1657 37.5694C53.1919 37.7385 53.2479 37.8671 53.3336 37.9552C53.4193 38.0433 53.517 38.0874 53.6265 38.0874C53.7337 38.0874 53.823 38.0576 53.8944 37.9981C53.9873 37.9171 54.0492 37.804 54.0802 37.6587C54.1278 37.4325 54.1516 36.9753 54.1516 36.2871C54.1516 35.8822 54.129 35.6048 54.0837 35.4548C54.0385 35.3024 53.9718 35.1916 53.8837 35.1226C53.8218 35.0726 53.7408 35.0476 53.6408 35.0476Z" fill="white"/>
<path d="M51.5262 37.373L51.6369 37.4587C51.4797 37.754 51.2833 37.9743 51.0475 38.1195C50.8141 38.2624 50.5653 38.3338 50.301 38.3338C49.8556 38.3338 49.4996 38.166 49.2329 37.8302C48.9662 37.4944 48.8329 37.0908 48.8329 36.6193C48.8329 36.1644 48.9543 35.7644 49.1972 35.4191C49.4901 35.0023 49.8937 34.794 50.4081 34.794C50.7534 34.794 51.0273 34.8809 51.2297 35.0547C51.4345 35.2286 51.5369 35.4226 51.5369 35.637C51.5369 35.7727 51.4952 35.881 51.4119 35.962C51.3309 36.043 51.2237 36.0835 51.0904 36.0835C50.9499 36.0835 50.8332 36.037 50.7403 35.9442C50.6498 35.8513 50.5939 35.6858 50.5724 35.4476C50.5581 35.2976 50.5236 35.1928 50.4688 35.1333C50.4141 35.0738 50.3498 35.044 50.276 35.044C50.1616 35.044 50.064 35.1047 49.983 35.2262C49.8592 35.4095 49.7973 35.6905 49.7973 36.0692C49.7973 36.3835 49.8473 36.6848 49.9473 36.9729C50.0473 37.2587 50.1843 37.4718 50.3581 37.6123C50.4891 37.7147 50.6439 37.7659 50.8225 37.7659C50.9392 37.7659 51.0499 37.7385 51.1547 37.6837C51.2595 37.629 51.3833 37.5254 51.5262 37.373Z" fill="white"/>
<path d="M48.3792 36.4442H46.5468C46.5682 36.8872 46.6861 37.2372 46.9004 37.4944C47.0647 37.6921 47.2624 37.7909 47.4933 37.7909C47.6362 37.7909 47.766 37.7516 47.8827 37.673C47.9994 37.592 48.1244 37.448 48.2578 37.2408L48.3792 37.3194C48.1982 37.6885 47.9982 37.9504 47.7791 38.1052C47.56 38.2576 47.3064 38.3338 47.0183 38.3338C46.5229 38.3338 46.1479 38.1433 45.8931 37.7623C45.6883 37.4551 45.5859 37.0741 45.5859 36.6193C45.5859 36.062 45.7359 35.6191 46.036 35.2905C46.3384 34.9595 46.692 34.794 47.0969 34.794C47.435 34.794 47.7279 34.9333 47.9756 35.2119C48.2256 35.4881 48.3602 35.8989 48.3792 36.4442ZM47.5005 36.2049C47.5005 35.8215 47.4791 35.5584 47.4362 35.4155C47.3957 35.2726 47.3314 35.1643 47.2433 35.0904C47.1933 35.0476 47.1266 35.0261 47.0433 35.0261C46.9194 35.0261 46.8182 35.0869 46.7396 35.2083C46.5991 35.4203 46.5289 35.7108 46.5289 36.0799V36.2049H47.5005Z" fill="white"/>
<path d="M41.9603 36.0263V37.3837C41.9603 37.6456 41.9758 37.8111 42.0067 37.8802C42.0401 37.9469 42.0972 38.0005 42.1782 38.0409C42.2591 38.0814 42.4104 38.1017 42.6318 38.1017V38.2338H40.1528V38.1017C40.3767 38.1017 40.5279 38.0814 40.6065 38.0409C40.6874 37.9981 40.7434 37.9433 40.7744 37.8766C40.8077 37.8099 40.8244 37.6456 40.8244 37.3837V34.2403C40.8244 33.9783 40.8077 33.814 40.7744 33.7474C40.7434 33.6783 40.6874 33.6235 40.6065 33.583C40.5255 33.5426 40.3743 33.5223 40.1528 33.5223V33.3902H42.4032C42.989 33.3902 43.4177 33.4306 43.6891 33.5116C43.9606 33.5926 44.1821 33.7426 44.3535 33.9617C44.525 34.1784 44.6107 34.4332 44.6107 34.7261C44.6107 35.0833 44.4821 35.3786 44.2249 35.612C44.0606 35.7596 43.8308 35.8703 43.5355 35.9442L44.7 37.5837C44.8524 37.7957 44.9608 37.9278 45.0251 37.9802C45.1227 38.054 45.2358 38.0945 45.3644 38.1017V38.2338H43.8392L42.2782 36.0263H41.9603ZM41.9603 33.6509V35.7727H42.1639C42.4949 35.7727 42.7426 35.7429 42.9069 35.6834C43.0712 35.6215 43.1998 35.5119 43.2926 35.3548C43.3879 35.1952 43.4355 34.988 43.4355 34.7332C43.4355 34.3641 43.3486 34.0915 43.1748 33.9152C43.0033 33.739 42.7259 33.6509 42.3425 33.6509H41.9603Z" fill="white"/>
<path d="M115.048 26.8469V27.6042C115.269 27.2589 115.463 27.0303 115.63 26.9184C115.796 26.8041 115.957 26.7469 116.112 26.7469C116.245 26.7469 116.351 26.7886 116.43 26.8719C116.511 26.9529 116.551 27.0684 116.551 27.2184C116.551 27.378 116.512 27.5018 116.433 27.5899C116.357 27.678 116.264 27.7221 116.155 27.7221C116.029 27.7221 115.919 27.6816 115.826 27.6006C115.733 27.5196 115.679 27.4744 115.662 27.4649C115.638 27.4506 115.611 27.4434 115.58 27.4434C115.511 27.4434 115.445 27.4696 115.383 27.522C115.286 27.603 115.212 27.7185 115.162 27.8685C115.086 28.0995 115.048 28.3543 115.048 28.6329V29.4009L115.051 29.601C115.051 29.7367 115.059 29.8236 115.076 29.8617C115.105 29.926 115.146 29.9736 115.201 30.0046C115.258 30.0332 115.354 30.051 115.487 30.0582V30.1868H113.683V30.0582C113.828 30.0463 113.926 30.007 113.976 29.9403C114.028 29.8712 114.054 29.6914 114.054 29.4009V27.5542C114.054 27.3637 114.045 27.2422 114.026 27.1898C114.002 27.1232 113.968 27.0743 113.922 27.0434C113.877 27.0124 113.797 26.991 113.683 26.9791V26.8469H115.048Z" fill="white"/>
<path d="M111.579 26.7469C111.87 26.7469 112.14 26.8219 112.39 26.9719C112.64 27.122 112.829 27.3351 112.958 27.6113C113.089 27.8876 113.154 28.19 113.154 28.5186C113.154 28.9925 113.034 29.389 112.794 29.7081C112.503 30.0939 112.102 30.2868 111.59 30.2868C111.087 30.2868 110.7 30.1106 110.429 29.7581C110.157 29.4057 110.022 28.9973 110.022 28.5329C110.022 28.0543 110.16 27.6375 110.436 27.2827C110.715 26.9255 111.096 26.7469 111.579 26.7469ZM111.593 27.0005C111.472 27.0005 111.367 27.047 111.279 27.1398C111.193 27.2303 111.136 27.4113 111.108 27.6828C111.081 27.9519 111.068 28.3269 111.068 28.808C111.068 29.0628 111.085 29.3009 111.118 29.5224C111.144 29.6914 111.2 29.82 111.286 29.9081C111.372 29.9963 111.47 30.0403 111.579 30.0403C111.686 30.0403 111.776 30.0105 111.847 29.951C111.94 29.87 112.002 29.7569 112.033 29.6117C112.08 29.3854 112.104 28.9282 112.104 28.24C112.104 27.8352 112.082 27.5578 112.036 27.4077C111.991 27.2553 111.924 27.1446 111.836 27.0755C111.774 27.0255 111.693 27.0005 111.593 27.0005Z" fill="white"/>
<path d="M109.032 27.197V29.5152C109.032 29.7391 109.056 29.8796 109.104 29.9367C109.18 30.0248 109.32 30.0653 109.525 30.0582V30.1868H107.557V30.0582C107.707 30.0558 107.813 30.0391 107.875 30.0082C107.939 29.9748 107.983 29.9296 108.007 29.8724C108.031 29.8153 108.043 29.6962 108.043 29.5152V27.197H107.557V26.8469H108.043V26.6004L108.039 26.4326C108.039 26.0896 108.164 25.8039 108.414 25.5753C108.667 25.3467 109.007 25.2324 109.436 25.2324C109.729 25.2324 109.945 25.2871 110.086 25.3967C110.229 25.5062 110.3 25.6277 110.3 25.761C110.3 25.8682 110.256 25.9611 110.168 26.0396C110.08 26.1182 109.963 26.1575 109.818 26.1575C109.694 26.1575 109.595 26.1254 109.522 26.0611C109.45 25.9968 109.414 25.9253 109.414 25.8468C109.414 25.8253 109.422 25.7813 109.436 25.7146C109.445 25.6741 109.45 25.636 109.45 25.6003C109.45 25.5503 109.436 25.5134 109.407 25.4895C109.369 25.4538 109.323 25.436 109.268 25.436C109.199 25.436 109.141 25.4645 109.093 25.5217C109.048 25.5788 109.025 25.6705 109.025 25.7967L109.032 26.4218V26.8469H109.525V27.197H109.032Z" fill="white"/>
<path d="M105.317 28.3972H103.485C103.506 28.8401 103.624 29.1902 103.838 29.4474C104.003 29.645 104.2 29.7438 104.431 29.7438C104.574 29.7438 104.704 29.7045 104.821 29.626C104.937 29.545 105.062 29.4009 105.196 29.1937L105.317 29.2723C105.136 29.6414 104.936 29.9034 104.717 30.0582C104.498 30.2106 104.245 30.2868 103.956 30.2868C103.461 30.2868 103.086 30.0963 102.831 29.7153C102.626 29.4081 102.524 29.027 102.524 28.5722C102.524 28.015 102.674 27.572 102.974 27.2434C103.276 26.9124 103.63 26.7469 104.035 26.7469C104.373 26.7469 104.666 26.8862 104.914 27.1648C105.164 27.4411 105.298 27.8518 105.317 28.3972ZM104.439 28.1579C104.439 27.7745 104.417 27.5113 104.374 27.3684C104.334 27.2256 104.27 27.1172 104.181 27.0434C104.131 27.0005 104.065 26.9791 103.981 26.9791C103.858 26.9791 103.756 27.0398 103.678 27.1613C103.537 27.3732 103.467 27.6637 103.467 28.0328V28.1579H104.439Z" fill="white"/>
<path d="M101.963 29.3259L102.074 29.4116C101.917 29.7069 101.72 29.9272 101.485 30.0725C101.251 30.2153 101.002 30.2868 100.738 30.2868C100.293 30.2868 99.9366 30.1189 99.6699 29.7831C99.4032 29.4474 99.2699 29.0437 99.2699 28.5722C99.2699 28.1174 99.3913 27.7173 99.6342 27.372C99.9271 26.9553 100.331 26.7469 100.845 26.7469C101.19 26.7469 101.464 26.8338 101.667 27.0077C101.871 27.1815 101.974 27.3756 101.974 27.5899C101.974 27.7256 101.932 27.834 101.849 27.915C101.768 27.9959 101.661 28.0364 101.527 28.0364C101.387 28.0364 101.27 27.99 101.177 27.8971C101.087 27.8042 101.031 27.6387 101.009 27.4006C100.995 27.2506 100.961 27.1458 100.906 27.0862C100.851 27.0267 100.787 26.9969 100.713 26.9969C100.599 26.9969 100.501 27.0577 100.42 27.1791C100.296 27.3625 100.234 27.6435 100.234 28.0221C100.234 28.3365 100.284 28.6377 100.384 28.9258C100.484 29.2116 100.621 29.4247 100.795 29.5652C100.926 29.6676 101.081 29.7188 101.259 29.7188C101.376 29.7188 101.487 29.6914 101.592 29.6367C101.696 29.5819 101.82 29.4783 101.963 29.3259Z" fill="white"/>
<path d="M98.0054 25.2288C98.1602 25.2288 98.2911 25.2836 98.3983 25.3931C98.5055 25.5003 98.559 25.63 98.559 25.7825C98.559 25.9349 98.5043 26.0646 98.3947 26.1718C98.2876 26.279 98.1578 26.3325 98.0054 26.3325C97.853 26.3325 97.7232 26.279 97.616 26.1718C97.5089 26.0646 97.4553 25.9349 97.4553 25.7825C97.4553 25.63 97.5089 25.5003 97.616 25.3931C97.7232 25.2836 97.853 25.2288 98.0054 25.2288ZM98.5055 26.8469V29.4938C98.5055 29.7295 98.5328 29.8808 98.5876 29.9474C98.6424 30.0117 98.7495 30.0486 98.9091 30.0582V30.1868H97.1052V30.0582C97.2529 30.0534 97.3624 30.0105 97.4338 29.9296C97.4815 29.8748 97.5053 29.7295 97.5053 29.4938V27.5435C97.5053 27.3077 97.4779 27.1577 97.4231 27.0934C97.3684 27.0267 97.2624 26.9886 97.1052 26.9791V26.8469H98.5055Z" fill="white"/>
<path d="M96.2301 27.197V29.5152C96.2301 29.7391 96.2539 29.8796 96.3015 29.9367C96.3777 30.0248 96.5182 30.0653 96.723 30.0582V30.1868H94.7548V30.0582C94.9048 30.0558 95.0108 30.0391 95.0727 30.0082C95.137 29.9748 95.1811 29.9296 95.2049 29.8724C95.2287 29.8153 95.2406 29.6962 95.2406 29.5152V27.197H94.7548V26.8469H95.2406V26.6004L95.237 26.4326C95.237 26.0896 95.3621 25.8039 95.6121 25.5753C95.8645 25.3467 96.2051 25.2324 96.6337 25.2324C96.9266 25.2324 97.1433 25.2871 97.2838 25.3967C97.4267 25.5062 97.4981 25.6277 97.4981 25.761C97.4981 25.8682 97.4541 25.9611 97.366 26.0396C97.2779 26.1182 97.1612 26.1575 97.0159 26.1575C96.8921 26.1575 96.7933 26.1254 96.7194 26.0611C96.648 25.9968 96.6123 25.9253 96.6123 25.8468C96.6123 25.8253 96.6194 25.7813 96.6337 25.7146C96.6432 25.6741 96.648 25.636 96.648 25.6003C96.648 25.5503 96.6337 25.5134 96.6051 25.4895C96.567 25.4538 96.5206 25.436 96.4658 25.436C96.3968 25.436 96.3384 25.4645 96.2908 25.5217C96.2455 25.5788 96.2229 25.6705 96.2229 25.7967L96.2301 26.4218V26.8469H96.723V27.197H96.2301Z" fill="white"/>
<path d="M93.7939 27.197V29.5152C93.7939 29.7391 93.8178 29.8796 93.8654 29.9367C93.9416 30.0248 94.0821 30.0653 94.2869 30.0582V30.1868H92.3187V30.0582C92.4687 30.0558 92.5747 30.0391 92.6366 30.0082C92.7009 29.9748 92.745 29.9296 92.7688 29.8724C92.7926 29.8153 92.8045 29.6962 92.8045 29.5152V27.197H92.3187V26.8469H92.8045V26.6004L92.8009 26.4326C92.8009 26.0896 92.9259 25.8039 93.176 25.5753C93.4284 25.3467 93.7689 25.2324 94.1976 25.2324C94.4905 25.2324 94.7072 25.2871 94.8477 25.3967C94.9906 25.5062 95.062 25.6277 95.062 25.761C95.062 25.8682 95.018 25.9611 94.9299 26.0396C94.8417 26.1182 94.7251 26.1575 94.5798 26.1575C94.456 26.1575 94.3571 26.1254 94.2833 26.0611C94.2119 25.9968 94.1762 25.9253 94.1762 25.8468C94.1762 25.8253 94.1833 25.7813 94.1976 25.7146C94.2071 25.6741 94.2119 25.636 94.2119 25.6003C94.2119 25.5503 94.1976 25.5134 94.169 25.4895C94.1309 25.4538 94.0845 25.436 94.0297 25.436C93.9606 25.436 93.9023 25.4645 93.8547 25.5217C93.8094 25.5788 93.7868 25.6705 93.7868 25.7967L93.7939 26.4218V26.8469H94.2869V27.197H93.7939Z" fill="white"/>
<path d="M89.2146 25.2752C89.9862 25.2467 90.6125 25.4717 91.0935 25.9503C91.5769 26.429 91.8186 27.0279 91.8186 27.7471C91.8186 28.3615 91.6388 28.902 91.2792 29.3688C90.803 29.9879 90.1302 30.2975 89.261 30.2975C88.3895 30.2975 87.7155 30.0022 87.2393 29.4116C86.863 28.9449 86.6749 28.3912 86.6749 27.7506C86.6749 27.0315 86.919 26.4326 87.4072 25.9539C87.8977 25.4729 88.5002 25.2467 89.2146 25.2752ZM89.2575 25.5038C88.8145 25.5038 88.4776 25.7301 88.2466 26.1825C88.0585 26.554 87.9644 27.0874 87.9644 27.7828C87.9644 28.6091 88.1097 29.2199 88.4002 29.6152C88.6026 29.8915 88.886 30.0296 89.2503 30.0296C89.4956 30.0296 89.7004 29.9701 89.8647 29.851C90.0743 29.6986 90.2374 29.4557 90.3541 29.1223C90.4708 28.7865 90.5291 28.3496 90.5291 27.8114C90.5291 27.1708 90.4696 26.6921 90.3505 26.3754C90.2314 26.0563 90.079 25.8313 89.8933 25.7003C89.7099 25.5693 89.498 25.5038 89.2575 25.5038Z" fill="white"/>
<path d="M82.0991 26.8469V27.2791C82.2706 27.0934 82.4349 26.9588 82.5921 26.8755C82.7492 26.7898 82.9183 26.7469 83.0993 26.7469C83.316 26.7469 83.4958 26.8076 83.6387 26.9291C83.7816 27.0481 83.8768 27.197 83.9244 27.3756C83.9625 27.5113 83.9816 27.7721 83.9816 28.1579V29.4581C83.9816 29.7153 84.0042 29.876 84.0495 29.9403C84.0971 30.0022 84.1947 30.0415 84.3424 30.0582V30.1868H82.6528V30.0582C82.779 30.0415 82.8695 29.9891 82.9243 29.901C82.9624 29.8415 82.9814 29.6938 82.9814 29.4581V27.9721C82.9814 27.6983 82.9707 27.5256 82.9493 27.4542C82.9278 27.3827 82.8909 27.328 82.8385 27.2898C82.7885 27.2494 82.7326 27.2291 82.6707 27.2291C82.4659 27.2291 82.2754 27.3756 82.0991 27.6685V29.4581C82.0991 29.7081 82.1218 29.8665 82.167 29.9331C82.2146 29.9998 82.3015 30.0415 82.4278 30.0582V30.1868H80.7382V30.0582C80.8787 30.0439 80.9787 29.9986 81.0382 29.9224C81.0787 29.87 81.099 29.7153 81.099 29.4581V27.572C81.099 27.3196 81.0752 27.1624 81.0275 27.1005C80.9823 27.0386 80.8858 26.9981 80.7382 26.9791V26.8469H82.0991Z" fill="white"/>
<path d="M78.92 29.6938C78.5128 30.0534 78.1473 30.2332 77.8234 30.2332C77.6329 30.2332 77.4746 30.1713 77.3483 30.0475C77.2221 29.9212 77.159 29.7641 77.159 29.5759C77.159 29.3211 77.2686 29.0925 77.4876 28.8901C77.7067 28.6853 78.1842 28.4138 78.92 28.0757V27.7399C78.92 27.4875 78.9057 27.3291 78.8772 27.2648C78.851 27.1982 78.7998 27.141 78.7236 27.0934C78.6474 27.0434 78.5616 27.0184 78.4664 27.0184C78.3116 27.0184 78.1842 27.0529 78.0842 27.122C78.0223 27.1648 77.9913 27.2148 77.9913 27.272C77.9913 27.322 78.0246 27.3839 78.0913 27.4577C78.1818 27.5601 78.2271 27.659 78.2271 27.7542C78.2271 27.8709 78.183 27.9709 78.0949 28.0543C78.0092 28.1352 77.896 28.1757 77.7556 28.1757C77.6055 28.1757 77.4793 28.1305 77.3769 28.04C77.2769 27.9495 77.2269 27.8435 77.2269 27.7221C77.2269 27.5506 77.2948 27.3875 77.4305 27.2327C77.5662 27.0755 77.7556 26.9553 77.9984 26.8719C78.2413 26.7886 78.4938 26.7469 78.7557 26.7469C79.0724 26.7469 79.3225 26.8148 79.5058 26.9505C79.6916 27.0839 79.8118 27.2291 79.8666 27.3863C79.9 27.4863 79.9166 27.7161 79.9166 28.0757V29.3723C79.9166 29.5247 79.9226 29.6212 79.9345 29.6617C79.9464 29.6998 79.9643 29.7284 79.9881 29.7474C80.0119 29.7665 80.0393 29.776 80.0702 29.776C80.1321 29.776 80.1952 29.7319 80.2595 29.6438L80.3667 29.7295C80.2476 29.9058 80.1238 30.0344 79.9952 30.1153C79.869 30.1939 79.7249 30.2332 79.563 30.2332C79.3725 30.2332 79.2237 30.1891 79.1165 30.101C79.0093 30.0105 78.9438 29.8748 78.92 29.6938ZM78.92 29.4331V28.315C78.6319 28.4841 78.4176 28.6651 78.2771 28.858C78.1842 28.9866 78.1378 29.1163 78.1378 29.2473C78.1378 29.3569 78.177 29.4533 78.2556 29.5367C78.3152 29.601 78.3985 29.6331 78.5057 29.6331C78.6247 29.6331 78.7629 29.5664 78.92 29.4331Z" fill="white"/>
<path d="M75.8445 25.2288C75.9993 25.2288 76.1303 25.2836 76.2374 25.3931C76.3446 25.5003 76.3982 25.63 76.3982 25.7825C76.3982 25.9349 76.3434 26.0646 76.2339 26.1718C76.1267 26.279 75.9969 26.3325 75.8445 26.3325C75.6921 26.3325 75.5623 26.279 75.4552 26.1718C75.348 26.0646 75.2944 25.9349 75.2944 25.7825C75.2944 25.63 75.348 25.5003 75.4552 25.3931C75.5623 25.2836 75.6921 25.2288 75.8445 25.2288ZM76.3446 26.8469V29.4938C76.3446 29.7295 76.372 29.8808 76.4268 29.9474C76.4815 30.0117 76.5887 30.0486 76.7482 30.0582V30.1868H74.9444V30.0582C75.092 30.0534 75.2016 30.0105 75.273 29.9296C75.3206 29.8748 75.3444 29.7295 75.3444 29.4938V27.5435C75.3444 27.3077 75.317 27.1577 75.2623 27.0934C75.2075 27.0267 75.1015 26.9886 74.9444 26.9791V26.8469H76.3446Z" fill="white"/>
<path d="M74.2157 25.3431V29.1866C74.2157 29.4462 74.2228 29.5998 74.2371 29.6474C74.2562 29.726 74.2919 29.7843 74.3443 29.8224C74.399 29.8605 74.4931 29.8843 74.6265 29.8939V30.0117L73.2155 30.2868V29.7581C73.0464 29.9629 72.8952 30.1022 72.7619 30.176C72.6309 30.2499 72.482 30.2868 72.3154 30.2868C71.8891 30.2868 71.5521 30.0963 71.3045 29.7153C71.1044 29.4057 71.0044 29.0259 71.0044 28.5758C71.0044 28.2162 71.0663 27.8947 71.1902 27.6113C71.314 27.3256 71.4831 27.1101 71.6974 26.9648C71.9141 26.8195 72.1463 26.7469 72.3939 26.7469C72.5535 26.7469 72.6952 26.7779 72.819 26.8398C72.9428 26.9017 73.075 27.01 73.2155 27.1648V26.1575C73.2155 25.9027 73.2048 25.7491 73.1834 25.6967C73.1548 25.6277 73.1119 25.5765 73.0548 25.5431C72.9976 25.5098 72.8904 25.4931 72.7333 25.4931V25.3431H74.2157ZM73.2155 27.6078C73.0393 27.2696 72.8238 27.1005 72.569 27.1005C72.4809 27.1005 72.4082 27.1243 72.3511 27.172C72.263 27.2458 72.1903 27.3756 72.1332 27.5613C72.0784 27.7471 72.051 28.0316 72.051 28.415C72.051 28.8365 72.082 29.1485 72.1439 29.3509C72.2058 29.5533 72.2904 29.6998 72.3975 29.7903C72.4523 29.8355 72.5273 29.8581 72.6225 29.8581C72.8321 29.8581 73.0298 29.6938 73.2155 29.3652V27.6078Z" fill="white"/>
<path d="M69.1541 29.6938C68.7469 30.0534 68.3814 30.2332 68.0575 30.2332C67.867 30.2332 67.7086 30.1713 67.5824 30.0475C67.4562 29.9212 67.3931 29.7641 67.3931 29.5759C67.3931 29.3211 67.5026 29.0925 67.7217 28.8901C67.9408 28.6853 68.4183 28.4138 69.1541 28.0757V27.7399C69.1541 27.4875 69.1398 27.3291 69.1112 27.2648C69.0851 27.1982 69.0339 27.141 68.9576 27.0934C68.8814 27.0434 68.7957 27.0184 68.7005 27.0184C68.5457 27.0184 68.4183 27.0529 68.3183 27.122C68.2563 27.1648 68.2254 27.2148 68.2254 27.272C68.2254 27.322 68.2587 27.3839 68.3254 27.4577C68.4159 27.5601 68.4611 27.659 68.4611 27.7542C68.4611 27.8709 68.4171 27.9709 68.329 28.0543C68.2432 28.1352 68.1301 28.1757 67.9896 28.1757C67.8396 28.1757 67.7134 28.1305 67.611 28.04C67.511 27.9495 67.461 27.8435 67.461 27.7221C67.461 27.5506 67.5288 27.3875 67.6646 27.2327C67.8003 27.0755 67.9896 26.9553 68.2325 26.8719C68.4754 26.7886 68.7278 26.7469 68.9898 26.7469C69.3065 26.7469 69.5566 26.8148 69.7399 26.9505C69.9257 27.0839 70.0459 27.2291 70.1007 27.3863C70.134 27.4863 70.1507 27.7161 70.1507 28.0757V29.3723C70.1507 29.5247 70.1567 29.6212 70.1686 29.6617C70.1805 29.6998 70.1983 29.7284 70.2221 29.7474C70.246 29.7665 70.2733 29.776 70.3043 29.776C70.3662 29.776 70.4293 29.7319 70.4936 29.6438L70.6008 29.7295C70.4817 29.9058 70.3579 30.0344 70.2293 30.1153C70.1031 30.1939 69.959 30.2332 69.7971 30.2332C69.6066 30.2332 69.4577 30.1891 69.3506 30.101C69.2434 30.0105 69.1779 29.8748 69.1541 29.6938ZM69.1541 29.4331V28.315C68.866 28.4841 68.6516 28.6651 68.5111 28.858C68.4183 28.9866 68.3718 29.1163 68.3718 29.2473C68.3718 29.3569 68.4111 29.4533 68.4897 29.5367C68.5492 29.601 68.6326 29.6331 68.7398 29.6331C68.8588 29.6331 68.9969 29.5664 69.1541 29.4331Z" fill="white"/>
<path d="M64.6033 26.8469V27.2791C64.7748 27.0934 64.9391 26.9588 65.0963 26.8755C65.2535 26.7898 65.4225 26.7469 65.6035 26.7469C65.8202 26.7469 66 26.8076 66.1429 26.9291C66.2858 27.0481 66.381 27.197 66.4287 27.3756C66.4668 27.5113 66.4858 27.7721 66.4858 28.1579V29.4581C66.4858 29.7153 66.5084 29.876 66.5537 29.9403C66.6013 30.0022 66.6989 30.0415 66.8466 30.0582V30.1868H65.157V30.0582C65.2832 30.0415 65.3737 29.9891 65.4285 29.901C65.4666 29.8415 65.4856 29.6938 65.4856 29.4581V27.9721C65.4856 27.6983 65.4749 27.5256 65.4535 27.4542C65.4321 27.3827 65.3951 27.328 65.3428 27.2898C65.2928 27.2494 65.2368 27.2291 65.1749 27.2291C64.9701 27.2291 64.7796 27.3756 64.6033 27.6685V29.4581C64.6033 29.7081 64.626 29.8665 64.6712 29.9331C64.7188 29.9998 64.8058 30.0415 64.932 30.0582V30.1868H63.2424V30.0582C63.3829 30.0439 63.4829 29.9986 63.5425 29.9224C63.5829 29.87 63.6032 29.7153 63.6032 29.4581V27.572C63.6032 27.3196 63.5794 27.1624 63.5317 27.1005C63.4865 27.0386 63.3901 26.9981 63.2424 26.9791V26.8469H64.6033Z" fill="white"/>
<path d="M61.4242 29.6938C61.017 30.0534 60.6515 30.2332 60.3276 30.2332C60.1371 30.2332 59.9788 30.1713 59.8526 30.0475C59.7263 29.9212 59.6632 29.7641 59.6632 29.5759C59.6632 29.3211 59.7728 29.0925 59.9919 28.8901C60.2109 28.6853 60.6884 28.4138 61.4242 28.0757V27.7399C61.4242 27.4875 61.41 27.3291 61.3814 27.2648C61.3552 27.1982 61.304 27.141 61.2278 27.0934C61.1516 27.0434 61.0659 27.0184 60.9706 27.0184C60.8158 27.0184 60.6884 27.0529 60.5884 27.122C60.5265 27.1648 60.4955 27.2148 60.4955 27.272C60.4955 27.322 60.5289 27.3839 60.5955 27.4577C60.686 27.5601 60.7313 27.659 60.7313 27.7542C60.7313 27.8709 60.6872 27.9709 60.5991 28.0543C60.5134 28.1352 60.4003 28.1757 60.2598 28.1757C60.1097 28.1757 59.9835 28.1305 59.8811 28.04C59.7811 27.9495 59.7311 27.8435 59.7311 27.7221C59.7311 27.5506 59.799 27.3875 59.9347 27.2327C60.0704 27.0755 60.2598 26.9553 60.5027 26.8719C60.7456 26.7886 60.998 26.7469 61.2599 26.7469C61.5767 26.7469 61.8267 26.8148 62.0101 26.9505C62.1958 27.0839 62.3161 27.2291 62.3708 27.3863C62.4042 27.4863 62.4208 27.7161 62.4208 28.0757V29.3723C62.4208 29.5247 62.4268 29.6212 62.4387 29.6617C62.4506 29.6998 62.4685 29.7284 62.4923 29.7474C62.5161 29.7665 62.5435 29.776 62.5744 29.776C62.6364 29.776 62.6995 29.7319 62.7638 29.6438L62.8709 29.7295C62.7519 29.9058 62.628 30.0344 62.4994 30.1153C62.3732 30.1939 62.2291 30.2332 62.0672 30.2332C61.8767 30.2332 61.7279 30.1891 61.6207 30.101C61.5135 30.0105 61.4481 29.8748 61.4242 29.6938ZM61.4242 29.4331V28.315C61.1361 28.4841 60.9218 28.6651 60.7813 28.858C60.6884 28.9866 60.642 29.1163 60.642 29.2473C60.642 29.3569 60.6813 29.4533 60.7598 29.5367C60.8194 29.601 60.9027 29.6331 61.0099 29.6331C61.129 29.6331 61.2671 29.5664 61.4242 29.4331Z" fill="white"/>
<path d="M58.931 25.2324V26.9112H58.7917C58.6869 26.473 58.4916 26.1373 58.2059 25.9039C57.9201 25.6705 57.5962 25.5538 57.2343 25.5538C56.9318 25.5538 56.6544 25.6408 56.402 25.8146C56.1496 25.9884 55.965 26.2159 55.8483 26.4969C55.6983 26.8564 55.6233 27.2565 55.6233 27.6971C55.6233 28.1305 55.678 28.5258 55.7876 28.883C55.8971 29.2378 56.0686 29.5069 56.302 29.6903C56.5353 29.8712 56.8378 29.9617 57.2093 29.9617C57.5141 29.9617 57.7927 29.895 58.0451 29.7617C58.2999 29.6283 58.5678 29.3985 58.8488 29.0723V29.4902C58.5773 29.7736 58.294 29.9796 57.9987 30.1082C57.7058 30.2344 57.3629 30.2975 56.9699 30.2975C56.4532 30.2975 55.9936 30.1939 55.5911 29.9867C55.1911 29.7796 54.8815 29.4819 54.6624 29.0937C54.4457 28.7056 54.3373 28.2924 54.3373 27.8542C54.3373 27.3922 54.4576 26.9541 54.6981 26.5397C54.941 26.1254 55.2673 25.8039 55.6769 25.5753C56.0888 25.3467 56.5258 25.2324 56.9878 25.2324C57.3283 25.2324 57.6879 25.3062 58.0665 25.4538C58.2856 25.5396 58.4249 25.5824 58.4845 25.5824C58.5607 25.5824 58.6262 25.555 58.6809 25.5003C58.7381 25.4431 58.775 25.3538 58.7917 25.2324H58.931Z" fill="white"/>
<path d="M52.0441 28.3972H50.2117C50.2331 28.8401 50.351 29.1902 50.5653 29.4474C50.7296 29.645 50.9273 29.7438 51.1582 29.7438C51.3011 29.7438 51.4309 29.7045 51.5476 29.626C51.6643 29.545 51.7893 29.4009 51.9227 29.1937L52.0441 29.2723C51.8631 29.6414 51.6631 29.9034 51.444 30.0582C51.2249 30.2106 50.9713 30.2868 50.6832 30.2868C50.1878 30.2868 49.8128 30.0963 49.558 29.7153C49.3532 29.4081 49.2508 29.027 49.2508 28.5722C49.2508 28.015 49.4008 27.572 49.7009 27.2434C50.0033 26.9124 50.3569 26.7469 50.7617 26.7469C51.0999 26.7469 51.3928 26.8862 51.6405 27.1648C51.8905 27.4411 52.0251 27.8518 52.0441 28.3972ZM51.1654 28.1579C51.1654 27.7745 51.144 27.5113 51.1011 27.3684C51.0606 27.2256 50.9963 27.1172 50.9082 27.0434C50.8582 27.0005 50.7915 26.9791 50.7082 26.9791C50.5843 26.9791 50.4831 27.0398 50.4045 27.1613C50.264 27.3732 50.1938 27.6637 50.1938 28.0328V28.1579H51.1654Z" fill="white"/>
<path d="M46.5075 25.3431V27.2756C46.6908 27.0827 46.8587 26.9469 47.0111 26.8684C47.1635 26.7874 47.3219 26.7469 47.4862 26.7469C47.6958 26.7469 47.8744 26.8064 48.022 26.9255C48.172 27.0446 48.2709 27.1851 48.3185 27.347C48.3685 27.5066 48.3935 27.7768 48.3935 28.1579V29.4616C48.3935 29.7164 48.4173 29.876 48.4649 29.9403C48.5126 30.0022 48.609 30.0415 48.7543 30.0582V30.1868H47.0611V30.0582C47.1802 30.0415 47.2695 29.9939 47.329 29.9153C47.3719 29.8534 47.3933 29.7022 47.3933 29.4616V27.9721C47.3933 27.6959 47.3826 27.5232 47.3612 27.4542C47.3397 27.3827 47.3028 27.328 47.2504 27.2898C47.2004 27.2494 47.1433 27.2291 47.079 27.2291C46.9837 27.2291 46.8909 27.2625 46.8004 27.3291C46.7099 27.3934 46.6122 27.5077 46.5075 27.6721V29.4616C46.5075 29.6998 46.5253 29.8486 46.561 29.9081C46.6063 29.9891 46.6992 30.0391 46.8397 30.0582V30.1868H45.1465V30.0582C45.287 30.0439 45.387 29.9986 45.4466 29.9224C45.4871 29.87 45.5073 29.7164 45.5073 29.4616V26.0682C45.5073 25.8158 45.4835 25.6586 45.4359 25.5967C45.3906 25.5348 45.2942 25.4943 45.1465 25.4753V25.3431H46.5075Z" fill="white"/>
<path d="M44.6322 25.3431V26.654H44.5036C44.4274 26.3516 44.3428 26.1349 44.2499 26.0039C44.1571 25.8706 44.0297 25.7646 43.8677 25.686C43.7772 25.6431 43.6189 25.6217 43.3927 25.6217H43.0319V29.3581C43.0319 29.6057 43.045 29.7605 43.0712 29.8224C43.0998 29.8843 43.1533 29.9391 43.2319 29.9867C43.3129 30.032 43.4224 30.0546 43.5605 30.0546H43.7213V30.1868H41.1851V30.0546H41.3459C41.4864 30.0546 41.5995 30.0296 41.6852 29.9796C41.7471 29.9462 41.796 29.8891 41.8317 29.8081C41.8579 29.751 41.871 29.601 41.871 29.3581V25.6217H41.5209C41.1947 25.6217 40.9577 25.6908 40.8101 25.8289C40.6029 26.0218 40.4719 26.2968 40.4172 26.654H40.2814V25.3431H44.6322Z" fill="white"/>
</g>
<defs>
<clipPath id="clip0_51_1285">
<rect width="120" height="40.2353" fill="white" transform="translate(0.64917)"/>
</clipPath>
</defs>
</svg>
