<svg width="126" height="40" viewBox="0 0 126 40" fill="none" xmlns="http://www.w3.org/2000/svg">
<rect width="125.851" height="40" fill="white"/>
<path d="M30.1709 15.6669C26.1803 15.6669 23.0621 18.6963 23.0621 22.7517C23.0621 26.8072 26.1015 29.8106 30.1709 29.8106C34.2403 29.8106 37.3325 26.7553 37.3325 22.7258C37.3325 18.7222 34.2932 15.6669 30.1709 15.6669ZM30.1978 26.888C27.9253 26.888 26.26 25.123 26.26 22.7527C26.26 20.3555 27.8984 18.5916 30.1709 18.5916C32.4703 18.5916 34.1346 20.3825 34.1346 22.7527C34.1346 25.123 32.4703 26.888 30.1978 26.888ZM38.204 18.7491H40.1862V29.5484H43.3572V15.9301H38.204V18.7491ZM15.0818 18.5906C16.7471 18.5906 18.0683 19.6176 18.5699 21.1453H21.9264C21.3181 17.8796 18.6228 15.6669 15.1088 15.6669C11.1181 15.6669 8 18.6963 8 22.7527C8 26.8092 11.0393 29.8116 15.1088 29.8116C18.544 29.8116 21.2922 27.5989 21.9004 24.3063H18.5699C18.0943 25.8339 16.773 26.888 15.1078 26.888C12.8083 26.888 11.1969 25.123 11.1969 22.7527C11.1979 20.3555 12.7834 18.5906 15.0818 18.5906ZM98.4544 21.4354L96.1291 21.0934C95.0194 20.9359 94.2265 20.5669 94.2265 19.6974C94.2265 18.7491 95.2577 18.2754 96.6577 18.2754C98.1904 18.2754 99.1685 18.9336 99.3798 20.0135H102.445C102.101 17.2743 99.9872 15.6679 96.7374 15.6679C93.3809 15.6679 91.1613 17.38 91.1613 19.8031C91.1613 22.1205 92.615 23.4647 95.5477 23.8855L97.8731 24.2275C99.01 24.3851 99.6441 24.8338 99.6441 25.6764C99.6441 26.7563 98.5344 27.204 97.0017 27.204C95.1249 27.204 94.068 26.4402 93.9095 25.2815H90.7913C91.0825 27.9419 93.1697 29.8116 96.9747 29.8116C100.437 29.8116 102.735 28.2311 102.735 25.5178C102.735 23.0947 101.071 21.8303 98.4544 21.4354ZM41.7717 10.3201C40.6091 10.3201 39.7368 11.1627 39.7368 12.3214C39.7368 13.4801 40.6081 14.3227 41.7717 14.3227C42.9344 14.3227 43.807 13.4801 43.807 12.3214C43.807 11.1627 42.9344 10.3201 41.7717 10.3201ZM88.3074 20.5929C88.3074 17.6432 86.5107 15.6679 82.7053 15.6679C79.1115 15.6679 77.1032 17.4857 76.7064 20.2777H79.8514C80.0099 19.1978 80.8555 18.3024 82.6526 18.3024C84.265 18.3024 85.0576 19.0133 85.0576 19.8829C85.0576 21.0157 83.6037 21.3048 81.8069 21.4893C79.3758 21.7525 76.3633 22.5951 76.3633 25.7562C76.3633 28.2062 78.1871 29.7857 81.0941 29.7857C83.3664 29.7857 84.7933 28.8374 85.5074 27.3357C85.6132 28.6788 86.6174 29.5484 88.0183 29.5484H89.8681V26.7304H88.3083V20.5929H88.3074ZM85.1892 24.0171C85.1892 25.8349 83.6037 27.1781 81.6742 27.1781C80.4848 27.1781 79.4807 26.6775 79.4807 25.6245C79.4807 24.2814 81.0928 23.9124 82.5728 23.7549C83.9998 23.6232 84.7924 23.3071 85.1892 22.7009V24.0171ZM68.3562 15.6669C66.5852 15.6669 65.1055 16.4048 64.0486 17.6423V10.1885H60.8776V29.5484H63.9956V27.7575C65.0524 29.0478 66.5594 29.8116 68.3562 29.8116C72.1612 29.8116 75.0422 26.8092 75.0422 22.7527C75.0422 18.6963 72.1085 15.6669 68.3562 15.6669ZM67.8806 26.888C65.608 26.888 63.9428 25.123 63.9428 22.7527C63.9428 20.3825 65.6341 18.5916 67.9064 18.5916C70.206 18.5916 71.8172 20.3565 71.8172 22.7527C71.8172 25.123 70.1529 26.888 67.8806 26.888ZM53.293 15.6669C51.2319 15.6669 49.8838 16.5095 49.0912 17.6951V15.9301H45.9459V29.5474H49.1169V22.1465C49.1169 20.0654 50.4381 18.5906 52.3937 18.5906C54.2174 18.5906 55.3531 19.8809 55.3531 21.7516V29.5484H58.5241V21.5152C58.5253 18.09 56.7552 15.6669 53.293 15.6669ZM117.851 22.305C117.851 18.4071 114.997 15.6679 111.165 15.6679C107.096 15.6679 104.11 18.7232 104.11 22.7527C104.11 26.9936 107.307 29.8116 111.218 29.8116C114.522 29.8116 117.111 27.8622 117.772 25.097H114.468C113.992 26.3086 112.83 26.9936 111.27 26.9936C109.235 26.9936 107.702 25.7292 107.359 23.5165H117.85V22.305H117.851ZM107.545 21.251C108.047 19.3544 109.474 18.433 111.113 18.433C112.909 18.433 114.284 19.4601 114.601 21.251H107.545Z" fill="#0052FF"/>
</svg>
