<svg width="195" height="24" viewBox="0 0 195 24" fill="none" xmlns="http://www.w3.org/2000/svg">
<path d="M9.33928 23.331C7.40328 23.331 5.90728 22.836 4.85128 21.846C3.79528 20.834 3.26728 19.349 3.26728 17.391V1.584H7.39228V17.292C7.39228 18.128 7.60128 18.777 8.01928 19.239C8.45928 19.701 9.06428 19.932 9.83428 19.932C10.7583 19.932 11.5283 19.69 12.1443 19.206L13.2993 22.143C12.8153 22.539 12.2213 22.836 11.5173 23.034C10.8133 23.232 10.0873 23.331 9.33928 23.331ZM0.363281 8.91V5.61H12.1113V8.91H0.363281ZM16.9921 23.1V5.478H20.9191V10.329L20.4571 8.91C20.9851 7.722 21.8101 6.82 22.9321 6.204C24.0761 5.588 25.4951 5.28 27.1891 5.28V9.207C27.0131 9.163 26.8481 9.141 26.6941 9.141C26.5401 9.119 26.3861 9.108 26.2321 9.108C24.6701 9.108 23.4271 9.57 22.5031 10.494C21.5791 11.396 21.1171 12.749 21.1171 14.553V23.1H16.9921ZM40.5881 23.1V19.536L40.3571 18.777V12.54C40.3571 11.33 39.9941 10.395 39.2681 9.735C38.5421 9.053 37.4421 8.712 35.9681 8.712C34.9781 8.712 33.9991 8.866 33.0311 9.174C32.0851 9.482 31.2821 9.911 30.6221 10.461L29.0051 7.458C29.9511 6.732 31.0731 6.193 32.3711 5.841C33.6911 5.467 35.0551 5.28 36.4631 5.28C39.0151 5.28 40.9841 5.896 42.3701 7.128C43.7781 8.338 44.4821 10.219 44.4821 12.771V23.1H40.5881ZM35.0441 23.331C33.7241 23.331 32.5691 23.111 31.5791 22.671C30.5891 22.209 29.8191 21.582 29.2691 20.79C28.7411 19.976 28.4771 19.063 28.4771 18.051C28.4771 17.061 28.7081 16.17 29.1701 15.378C29.6541 14.586 30.4351 13.959 31.5131 13.497C32.5911 13.035 34.0211 12.804 35.8031 12.804H40.9181V15.543H36.1001C34.6921 15.543 33.7461 15.774 33.2621 16.236C32.7781 16.676 32.5361 17.226 32.5361 17.886C32.5361 18.634 32.8331 19.228 33.4271 19.668C34.0211 20.108 34.8461 20.328 35.9021 20.328C36.9141 20.328 37.8161 20.097 38.6081 19.635C39.4221 19.173 40.0051 18.491 40.3571 17.589L41.0501 20.064C40.6541 21.098 39.9391 21.901 38.9051 22.473C37.8931 23.045 36.6061 23.331 35.0441 23.331ZM58.1928 23.331C56.3448 23.331 54.6948 22.946 53.2428 22.176C51.8128 21.384 50.6908 20.306 49.8768 18.942C49.0628 17.578 48.6558 16.027 48.6558 14.289C48.6558 12.529 49.0628 10.978 49.8768 9.636C50.6908 8.272 51.8128 7.205 53.2428 6.435C54.6948 5.665 56.3448 5.28 58.1928 5.28C59.9088 5.28 61.4158 5.632 62.7138 6.336C64.0338 7.018 65.0348 8.03 65.7168 9.372L62.5488 11.22C62.0208 10.384 61.3718 9.768 60.6018 9.372C59.8538 8.976 59.0398 8.778 58.1598 8.778C57.1478 8.778 56.2348 8.998 55.4208 9.438C54.6068 9.878 53.9688 10.516 53.5068 11.352C53.0448 12.166 52.8138 13.145 52.8138 14.289C52.8138 15.433 53.0448 16.423 53.5068 17.259C53.9688 18.073 54.6068 18.7 55.4208 19.14C56.2348 19.58 57.1478 19.8 58.1598 19.8C59.0398 19.8 59.8538 19.602 60.6018 19.206C61.3718 18.81 62.0208 18.194 62.5488 17.358L65.7168 19.206C65.0348 20.526 64.0338 21.549 62.7138 22.275C61.4158 22.979 59.9088 23.331 58.1928 23.331ZM77.6073 23.331C75.6493 23.331 73.9333 22.946 72.4593 22.176C71.0073 21.384 69.8743 20.306 69.0603 18.942C68.2683 17.578 67.8723 16.027 67.8723 14.289C67.8723 12.529 68.2573 10.978 69.0273 9.636C69.8193 8.272 70.8973 7.205 72.2613 6.435C73.6473 5.665 75.2203 5.28 76.9803 5.28C78.6963 5.28 80.2253 5.654 81.5673 6.402C82.9093 7.15 83.9653 8.206 84.7353 9.57C85.5053 10.934 85.8903 12.54 85.8903 14.388C85.8903 14.564 85.8793 14.762 85.8573 14.982C85.8573 15.202 85.8463 15.411 85.8243 15.609H71.1393V12.87H83.6463L82.0293 13.728C82.0513 12.716 81.8423 11.825 81.4023 11.055C80.9623 10.285 80.3573 9.68 79.5873 9.24C78.8393 8.8 77.9703 8.58 76.9803 8.58C75.9683 8.58 75.0773 8.8 74.3073 9.24C73.5593 9.68 72.9653 10.296 72.5253 11.088C72.1073 11.858 71.8983 12.771 71.8983 13.827V14.487C71.8983 15.543 72.1403 16.478 72.6243 17.292C73.1083 18.106 73.7903 18.733 74.6703 19.173C75.5503 19.613 76.5623 19.833 77.7063 19.833C78.6963 19.833 79.5873 19.679 80.3793 19.371C81.1713 19.063 81.8753 18.579 82.4913 17.919L84.7023 20.46C83.9103 21.384 82.9093 22.099 81.6993 22.605C80.5113 23.089 79.1473 23.331 77.6073 23.331ZM90.5481 23.1V0H94.0791L108.566 17.787H106.817V0H111.074V23.1H107.543L93.0561 5.313H94.8051V23.1H90.5481ZM125.45 23.331C123.492 23.331 121.776 22.946 120.302 22.176C118.85 21.384 117.717 20.306 116.903 18.942C116.111 17.578 115.715 16.027 115.715 14.289C115.715 12.529 116.1 10.978 116.87 9.636C117.662 8.272 118.74 7.205 120.104 6.435C121.49 5.665 123.063 5.28 124.823 5.28C126.539 5.28 128.068 5.654 129.41 6.402C130.752 7.15 131.808 8.206 132.578 9.57C133.348 10.934 133.733 12.54 133.733 14.388C133.733 14.564 133.722 14.762 133.7 14.982C133.7 15.202 133.689 15.411 133.667 15.609H118.982V12.87H131.489L129.872 13.728C129.894 12.716 129.685 11.825 129.245 11.055C128.805 10.285 128.2 9.68 127.43 9.24C126.682 8.8 125.813 8.58 124.823 8.58C123.811 8.58 122.92 8.8 122.15 9.24C121.402 9.68 120.808 10.296 120.368 11.088C119.95 11.858 119.741 12.771 119.741 13.827V14.487C119.741 15.543 119.983 16.478 120.467 17.292C120.951 18.106 121.633 18.733 122.513 19.173C123.393 19.613 124.405 19.833 125.549 19.833C126.539 19.833 127.43 19.679 128.222 19.371C129.014 19.063 129.718 18.579 130.334 17.919L132.545 20.46C131.753 21.384 130.752 22.099 129.542 22.605C128.354 23.089 126.99 23.331 125.45 23.331ZM144.628 23.331C142.692 23.331 141.196 22.836 140.14 21.846C139.084 20.834 138.556 19.349 138.556 17.391V1.584H142.681V17.292C142.681 18.128 142.89 18.777 143.308 19.239C143.748 19.701 144.353 19.932 145.123 19.932C146.047 19.932 146.817 19.69 147.433 19.206L148.588 22.143C148.104 22.539 147.51 22.836 146.806 23.034C146.102 23.232 145.376 23.331 144.628 23.331ZM135.652 8.91V5.61H147.4V8.91H135.652ZM158.83 23.1L169.225 0H173.449L183.877 23.1H179.389L170.446 2.277H172.162L163.252 23.1H158.83ZM163.615 17.754L164.77 14.388H177.244L178.399 17.754H163.615ZM187.114 23.1V0H191.404V23.1H187.114Z" fill="#020A1A"/>
<path d="M187 0.0996094H191.5V13.0996H187V0.0996094Z" fill="#2B6CEF"/>
</svg>
