<svg width="160" height="40" viewBox="0 0 160 40" fill="none" xmlns="http://www.w3.org/2000/svg">
<path d="M41.7855 13.8906H57.8848V16.8943H51.5546V33.7797H48.0737V16.8943H41.7715V13.8906H41.7855ZM57.1971 19.3787H60.1727V22.1578H60.2288C60.3271 21.7648 60.5096 21.3859 60.7762 21.0209C61.0429 20.656 61.3658 20.3051 61.7447 20.0103C62.1237 19.7015 62.5448 19.4629 63.008 19.2664C63.4712 19.084 63.9484 18.9857 64.4256 18.9857C64.7906 18.9857 65.0572 18.9997 65.1976 19.0138C65.338 19.0278 65.4783 19.0559 65.6327 19.0699V22.1298C65.4081 22.0877 65.1836 22.0596 64.9449 22.0315C64.7063 22.0034 64.4818 21.9894 64.2572 21.9894C63.7238 21.9894 63.2185 22.1017 62.7413 22.3122C62.2641 22.5228 61.857 22.8456 61.5061 23.2526C61.1552 23.6737 60.8745 24.179 60.664 24.7966C60.4534 25.4142 60.3552 26.116 60.3552 26.916V33.7656H57.183V19.3787H57.1971ZM80.2161 33.7797H77.1001V31.7725H77.044C76.651 32.5024 76.0755 33.0779 75.3035 33.513C74.5315 33.9481 73.7455 34.1727 72.9455 34.1727C71.0506 34.1727 69.6751 33.7095 68.8329 32.7691C67.9908 31.8287 67.5697 30.411 67.5697 28.5162V19.3787H70.7418V28.2074C70.7418 29.4706 70.9804 30.3689 71.4717 30.8882C71.9489 31.4076 72.6367 31.6743 73.5069 31.6743C74.1806 31.6743 74.728 31.576 75.1772 31.3655C75.6264 31.1549 75.9913 30.8882 76.258 30.5373C76.5387 30.2005 76.7352 29.7794 76.8615 29.3022C76.9878 28.8249 77.044 28.3056 77.044 27.7442V19.3927H80.2161V33.7797ZM85.62 29.1618C85.7183 30.0882 86.0691 30.7338 86.6727 31.1128C87.2903 31.4778 88.0202 31.6743 88.8764 31.6743C89.1711 31.6743 89.508 31.6462 89.887 31.6041C90.2659 31.562 90.6309 31.4637 90.9537 31.3374C91.2906 31.2111 91.5572 31.0146 91.7818 30.7619C91.9924 30.5093 92.0906 30.1864 92.0766 29.7794C92.0625 29.3724 91.9081 29.0355 91.6274 28.7828C91.3467 28.5162 90.9958 28.3196 90.5607 28.1512C90.1256 27.9968 89.6343 27.8565 89.0729 27.7442C88.5114 27.6319 87.95 27.5056 87.3745 27.3792C86.785 27.2529 86.2095 27.0845 85.6621 26.902C85.1147 26.7195 84.6234 26.4669 84.1883 26.1441C83.7532 25.8353 83.4023 25.4282 83.1497 24.937C82.883 24.4457 82.7566 23.8422 82.7566 23.1123C82.7566 22.3263 82.9532 21.6806 83.3321 21.1472C83.7111 20.6139 84.2024 20.1928 84.7778 19.87C85.3674 19.5471 86.013 19.3226 86.7288 19.1822C87.4447 19.0559 88.1324 18.9857 88.7781 18.9857C89.522 18.9857 90.2379 19.0699 90.9116 19.2243C91.5853 19.3787 92.2029 19.6314 92.7503 19.9963C93.2977 20.3472 93.7469 20.8104 94.1118 21.3718C94.4767 21.9333 94.7013 22.621 94.7996 23.4211H91.4871C91.3327 22.6631 90.9958 22.1438 90.4484 21.8912C89.901 21.6245 89.2694 21.4981 88.5676 21.4981C88.343 21.4981 88.0763 21.5122 87.7675 21.5543C87.4587 21.5964 87.178 21.6666 86.8973 21.7648C86.6306 21.8631 86.406 22.0175 86.2095 22.214C86.027 22.4105 85.9288 22.6631 85.9288 22.986C85.9288 23.379 86.0691 23.6878 86.3358 23.9264C86.6025 24.165 86.9534 24.3615 87.3885 24.5299C87.8237 24.6843 88.3149 24.8247 88.8764 24.937C89.4378 25.0493 90.0133 25.1756 90.6028 25.3019C91.1783 25.4282 91.7397 25.5967 92.3011 25.7791C92.8626 25.9616 93.3538 26.2142 93.789 26.5371C94.2241 26.8599 94.575 27.2529 94.8417 27.7301C95.1083 28.2074 95.2487 28.8109 95.2487 29.5127C95.2487 30.3689 95.0522 31.0847 94.6592 31.6883C94.2662 32.2778 93.7609 32.7691 93.1433 33.134C92.5257 33.4989 91.8239 33.7797 91.066 33.9481C90.308 34.1165 89.5501 34.2007 88.8062 34.2007C87.8938 34.2007 87.0517 34.1025 86.2797 33.8919C85.5077 33.6814 84.834 33.3726 84.2725 32.9656C83.7111 32.5445 83.262 32.0252 82.9391 31.4076C82.6163 30.79 82.4479 30.0461 82.4198 29.1899H85.62V29.1618ZM96.0909 19.3787H98.491V15.0556H101.663V19.3787H104.527V21.7508H101.663V29.4425C101.663 29.7794 101.677 30.0601 101.705 30.3128C101.733 30.5514 101.804 30.7619 101.902 30.9303C102 31.0988 102.154 31.2251 102.365 31.3093C102.576 31.3935 102.842 31.4356 103.207 31.4356C103.432 31.4356 103.656 31.4356 103.881 31.4216C104.105 31.4076 104.33 31.3795 104.555 31.3234V33.7797C104.204 33.8218 103.853 33.8498 103.53 33.8919C103.193 33.9341 102.856 33.9481 102.505 33.9481C101.663 33.9481 100.989 33.8639 100.484 33.7095C99.9788 33.5551 99.5718 33.3165 99.2911 33.0077C98.9963 32.6989 98.8139 32.3199 98.7016 31.8567C98.6033 31.3935 98.5331 30.8602 98.5191 30.2707V21.7789H96.1189V19.3787H96.0909ZM106.772 19.3787H109.776V21.3297H109.832C110.281 20.4876 110.899 19.898 111.699 19.5331C112.499 19.1682 113.355 18.9857 114.296 18.9857C115.432 18.9857 116.415 19.1822 117.257 19.5892C118.099 19.9823 118.801 20.5297 119.363 21.2315C119.924 21.9333 120.331 22.7474 120.612 23.6737C120.893 24.6001 121.033 25.5967 121.033 26.6494C121.033 27.6178 120.907 28.5583 120.654 29.4566C120.401 30.3689 120.022 31.169 119.517 31.8708C119.012 32.5726 118.366 33.12 117.58 33.541C116.794 33.9621 115.882 34.1727 114.815 34.1727C114.352 34.1727 113.889 34.1306 113.425 34.0463C112.962 33.9621 112.513 33.8218 112.092 33.6393C111.671 33.4568 111.264 33.2182 110.913 32.9235C110.548 32.6287 110.253 32.2918 110.001 31.9129H109.944V39.0993H106.772V19.3787ZM117.861 26.5932C117.861 25.9476 117.777 25.3159 117.608 24.6984C117.44 24.0808 117.187 23.5474 116.85 23.0702C116.513 22.593 116.092 22.214 115.601 21.9333C115.096 21.6525 114.52 21.4981 113.874 21.4981C112.541 21.4981 111.53 21.9613 110.857 22.8877C110.183 23.8141 109.846 25.0493 109.846 26.5932C109.846 27.3231 109.93 27.9968 110.113 28.6144C110.295 29.232 110.548 29.7654 110.913 30.2145C111.264 30.6637 111.685 31.0146 112.176 31.2672C112.667 31.5339 113.243 31.6602 113.889 31.6602C114.618 31.6602 115.222 31.5058 115.727 31.2111C116.233 30.9163 116.64 30.5233 116.962 30.0601C117.285 29.5829 117.524 29.0495 117.664 28.446C117.791 27.8424 117.861 27.2248 117.861 26.5932ZM123.461 13.8906H126.633V16.8943H123.461V13.8906ZM123.461 19.3787H126.633V33.7797H123.461V19.3787ZM129.469 13.8906H132.641V33.7797H129.469V13.8906ZM142.368 34.1727C141.217 34.1727 140.192 33.9762 139.294 33.5972C138.395 33.2182 137.637 32.6849 137.006 32.0252C136.388 31.3514 135.911 30.5514 135.588 29.625C135.265 28.6986 135.097 27.674 135.097 26.5651C135.097 25.4703 135.265 24.4597 135.588 23.5334C135.911 22.607 136.388 21.8069 137.006 21.1332C137.623 20.4595 138.395 19.9401 139.294 19.5612C140.192 19.1822 141.217 18.9857 142.368 18.9857C143.519 18.9857 144.543 19.1822 145.441 19.5612C146.34 19.9401 147.098 20.4735 147.729 21.1332C148.347 21.8069 148.824 22.607 149.147 23.5334C149.47 24.4597 149.638 25.4703 149.638 26.5651C149.638 27.674 149.47 28.6986 149.147 29.625C148.824 30.5514 148.347 31.3514 147.729 32.0252C147.112 32.6989 146.34 33.2182 145.441 33.5972C144.543 33.9762 143.519 34.1727 142.368 34.1727ZM142.368 31.6602C143.069 31.6602 143.687 31.5058 144.206 31.2111C144.726 30.9163 145.147 30.5233 145.484 30.0461C145.82 29.5689 146.059 29.0215 146.228 28.4179C146.382 27.8144 146.466 27.1968 146.466 26.5651C146.466 25.9476 146.382 25.344 146.228 24.7264C146.073 24.1088 145.82 23.5755 145.484 23.0983C145.147 22.621 144.726 22.2421 144.206 21.9473C143.687 21.6525 143.069 21.4981 142.368 21.4981C141.666 21.4981 141.048 21.6525 140.529 21.9473C140.01 22.2421 139.588 22.6351 139.252 23.0983C138.915 23.5755 138.676 24.1088 138.508 24.7264C138.353 25.344 138.269 25.9476 138.269 26.5651C138.269 27.1968 138.353 27.8144 138.508 28.4179C138.662 29.0215 138.915 29.5689 139.252 30.0461C139.588 30.5233 140.01 30.9163 140.529 31.2111C141.048 31.5199 141.666 31.6602 142.368 31.6602ZM150.565 19.3787H152.965V15.0556H156.137V19.3787H159V21.7508H156.137V29.4425C156.137 29.7794 156.151 30.0601 156.179 30.3128C156.207 30.5514 156.277 30.7619 156.376 30.9303C156.474 31.0988 156.628 31.2251 156.839 31.3093C157.049 31.3935 157.316 31.4356 157.681 31.4356C157.905 31.4356 158.13 31.4356 158.355 31.4216C158.579 31.4076 158.804 31.3795 159.028 31.3234V33.7797C158.677 33.8218 158.327 33.8498 158.004 33.8919C157.667 33.9341 157.33 33.9481 156.979 33.9481C156.137 33.9481 155.463 33.8639 154.958 33.7095C154.453 33.5551 154.046 33.3165 153.765 33.0077C153.47 32.6989 153.288 32.3199 153.175 31.8567C153.077 31.3935 153.007 30.8602 152.993 30.2707V21.7789H150.593V19.3787H150.565Z" fill="white"/>
<path d="M38.0797 13.8903H23.5384L19.0469 0.0507812L14.5413 13.8903L0 13.8763L11.7762 22.4382L7.27066 36.2637L19.0469 27.7158L30.8091 36.2637L26.3175 22.4382L38.0797 13.8903Z" fill="#00B67A"/>
<path d="M27.3281 25.5675L26.3175 22.4375L19.0469 27.715L27.3281 25.5675Z" fill="#005128"/>
</svg>
