<svg width="24" height="24" viewBox="0 0 24 24" fill="none" xmlns="http://www.w3.org/2000/svg">
<path d="M21.75 11.9995C21.75 12.623 21.2484 13.1245 20.625 13.1245H13.125V20.6245C13.125 21.2456 12.6211 21.75 12 21.75C11.3789 21.75 10.875 21.248 10.875 20.6245V13.1245H3.375C2.75391 13.1245 2.25 12.6211 2.25 12C2.25 11.3808 2.75391 10.8745 3.375 10.8745H10.875V3.37453C10.875 2.75344 11.3789 2.25 12 2.25C12.6211 2.25 13.125 2.75344 13.125 3.37453V10.8745H20.625C21.2484 10.8745 21.75 11.3808 21.75 11.9995Z" fill="#0B0F11"/>
</svg>
