<svg width="25" height="25" viewBox="0 0 25 25" fill="none" xmlns="http://www.w3.org/2000/svg">
<path d="M12.8477 1.31641C6.49638 1.31641 1.34766 6.46513 1.34766 12.8164C1.34766 19.1677 6.49638 24.3164 12.8477 24.3164C19.1989 24.3164 24.3477 19.1677 24.3477 12.8164C24.3477 6.46513 19.1989 1.31641 12.8477 1.31641Z" stroke="#191919"/>
<path d="M14.3388 12.8164L11.0307 15.8409C10.7866 16.0641 10.7866 16.4259 11.0307 16.649C11.2748 16.8722 11.6705 16.8722 11.9146 16.649L15.6646 13.2205C15.9087 12.9973 15.9087 12.6355 15.6646 12.4123L11.9146 8.98377C11.6705 8.76062 11.2748 8.76062 11.0307 8.98377C10.7866 9.20693 10.7866 9.56874 11.0307 9.7919L14.3388 12.8164Z" fill="#191919"/>
</svg>
