<svg width="100" height="20" viewBox="0 0 100 20" fill="none" xmlns="http://www.w3.org/2000/svg">
<path d="M0.355469 19.0871H18.6442V0.816406H0.355469V19.0871Z" fill="#00B67A"/>
<path d="M15.9463 8.59042L5.57313 16.1185L7.08678 11.4659L3.12451 8.59042H8.02207L9.5354 3.9375L11.0487 8.59042H15.9463ZM9.53577 13.2433L12.3687 12.648L13.4974 16.1185L9.53577 13.2433Z" fill="white"/>
<path d="M20.5654 19.0871H38.8541V0.816406H20.5654V19.0871Z" fill="#00B67A"/>
<path d="M20.5654 19.0871H29.7098V0.816406H20.5654V19.0871Z" fill="#00B67A"/>
<path d="M29.9286 13.1692L32.3578 12.6447L33.4814 16.1939L29.6718 13.3534L25.7136 16.1939L27.2499 11.5244L23.228 8.63856H28.1992L29.7348 3.96875L31.2711 8.63856H36.2419L29.9286 13.1692Z" fill="white"/>
<path d="M40.79 19.0871H59.0788V0.816406H40.79V19.0871Z" fill="#00B67A"/>
<path d="M40.79 19.0871H49.9344V0.816406H40.79V19.0871Z" fill="#00B67A"/>
<path d="M56.3809 8.59042L46.0077 16.1185L47.5213 11.4659L43.5591 8.59042H48.4566L49.97 3.9375L51.4833 8.59042L56.3809 8.59042ZM49.9703 13.2433L52.8033 12.648L53.932 16.1185L49.9703 13.2433Z" fill="white"/>
<path d="M61.0142 19.0871H79.3029V0.816406H61.0142V19.0871Z" fill="#00B67A"/>
<path d="M61.0142 19.0871H70.1585V0.816406H61.0142V19.0871Z" fill="#00B67A"/>
<path d="M76.6045 8.59042L66.2317 16.1185L67.745 11.4659L63.7827 8.59042H68.6803L70.1936 3.9375L71.7069 8.59042L76.6045 8.59042ZM70.194 13.2433L73.0269 12.648L74.1556 16.1185L70.194 13.2433Z" fill="white"/>
<path d="M81.2246 19.0871H99.5133V0.816406H81.2246V19.0871Z" fill="#00B67A"/>
<path d="M81.2246 19.0871H90.369V0.816406H81.2246V19.0871Z" fill="#00B67A"/>
<path d="M96.8149 8.59042L86.4421 16.1185L87.9554 11.4659L83.9932 8.59042H88.8907L90.404 3.9375L91.9174 8.59042H96.8149ZM90.4044 13.2433L93.2374 12.648L94.3661 16.1185L90.4044 13.2433Z" fill="white"/>
</svg>
